<svg id="Layer_1" data-name="Layer 1" xmlns="http://www.w3.org/2000/svg" viewBox="0 0 512.86 513"><defs><style>.cls-1{fill:#fff;}</style></defs><title>Artboard 1</title><path class="cls-1" d="M1,513Q1,257.08,1,1.08H512.86V513ZM395.3,465.79c66-25.65,96.75-74.42,97.2-144,2.62,0,5.12.19,7.58,0a10.66,10.66,0,0,0,9.8-8.58c.78-4.72-.66-8.82-5-11a18.52,18.52,0,0,0-8.13-1.7c-20.82-.13-41.64-.07-62.46-.07H428c0-3.38,0-6.17,0-9-.09-8.27-4.06-12.33-12.26-12.34q-41.24-.06-82.47,0c-7.57,0-11.74,4.14-12,11.66-.1,3.09,0,6.18,0,9.64H104.61q-45,0-90,0c-7.49,0-12.35,4.53-12.18,10.93.16,6.23,4.91,10.36,12.16,10.5,2.59.05,5.18,0,7.65,0,.48,70.44,31.91,118.89,98.09,144.33-3.64,8.9-7.45,18.1-11.17,27.32-2.83,7-.75,13.07,5.2,15.53s11.6-.29,14.55-7.41c3.89-9.37,7.76-18.75,11.47-28.19,1-2.54,2.14-3.59,5.11-3.23A131.52,131.52,0,0,0,161,471c43,.07,86,.16,129,0,27-.09,54-.52,80.93-1,2.91-.05,3.65,1.28,4.52,3.42q5.68,14.12,11.53,28.17c3,7.12,8.5,9.9,14.53,7.39s8-8.54,5.17-15.52C402.86,484.24,399.07,475,395.3,465.79ZM273.22,224.73c-.24-25.48-23.25-48.39-48.51-48.31-25.53.09-48.7,23.38-48.6,48.85S200,274,225.26,273.6C250.73,273.16,273.45,250,273.22,224.73ZM146.15,151.1c-.05-19.55-18.44-38-37.83-37.87s-37.69,18.58-37.59,38.11,18.6,37.77,38.07,37.59C128,188.74,146.2,170.34,146.15,151.1ZM172.43,10.52c-17.3.09-34.16,17-34.06,34.17s16.85,34.1,34.1,34.19S207,61.71,206.8,44.39,189.71,10.43,172.43,10.52Z"/><path d="M395.3,465.79c3.77,9.22,7.56,18.45,11.31,27.7,2.83,7,.79,13-5.17,15.52s-11.57-.26-14.53-7.39q-5.84-14.06-11.53-28.17c-.86-2.15-1.61-3.47-4.52-3.42-27,.48-54,.9-80.93,1-43,.15-86,.05-129,0a131.52,131.52,0,0,1-15.45-.82c-3-.36-4.11.69-5.11,3.23-3.71,9.44-7.58,18.82-11.47,28.19-3,7.12-8.52,9.91-14.55,7.41s-8-8.53-5.2-15.53c3.72-9.22,7.53-18.42,11.17-27.32-66.19-25.44-97.61-73.88-98.09-144.33-2.47,0-5.06,0-7.65,0-7.25-.15-12-4.27-12.16-10.5-.16-6.4,4.69-10.91,12.18-10.93q45-.11,90,0H321.28c0-3.46-.09-6.55,0-9.64.25-7.52,4.43-11.65,12-11.66q41.24-.07,82.47,0c8.2,0,12.17,4.07,12.26,12.34,0,2.79,0,5.58,0,9h6.3c20.82,0,41.64-.06,62.46.07a18.52,18.52,0,0,1,8.13,1.7c4.3,2.22,5.74,6.32,5,11a10.66,10.66,0,0,1-9.8,8.58c-2.46.23-5,0-7.58,0C492,391.37,461.26,440.14,395.3,465.79Zm-74-143.58H44.15c-1.17,30,4.69,57.71,22.47,82,23.39,31.9,56,45.49,94.7,45.6q96.46.28,192.93-.12a127.85,127.85,0,0,0,30.14-3.51c44.17-11,71.11-39.7,82.54-83.33,3.47-13.25,4.23-26.83,3.67-40.67H428c0,2.27,0,4.23,0,6.19q0,32.74,0,65.48c0,9.59-3.68,13.24-13.33,13.24q-40,0-80,0c-9.73,0-13.43-3.76-13.44-13.7q0-23.24,0-46.47C321.28,338.76,321.28,330.63,321.28,322.21Zm85.17,20.59c.12-1.51.31-2.79.31-4.08,0-11.15-.18-22.31.12-33.46.11-4.17-1.42-5-5.19-4.94-18,.16-36,.05-54,.06-1.46,0-2.92.17-4.6.28V342.8Zm-63.35,42.66h63.34V364.65H343.09Z"/><path d="M273.22,224.73c.23,25.28-22.49,48.43-48,48.87-25.22.43-49-23-49.15-48.32s23.07-48.77,48.6-48.85C250,176.34,273,199.25,273.22,224.73Zm-48.14-26.82c-17,0-27.53,10.36-27.48,27.27,0,16.38,10.5,26.88,26.83,27,16.73.08,27.45-10.34,27.57-26.81S241.55,198,225.08,197.91Z"/><path d="M146.15,151.1c.05,19.24-18.11,37.64-37.34,37.83-19.47.19-38-18.08-38.07-37.59s18.14-38,37.59-38.11S146.09,131.55,146.15,151.1Zm-37.82-16.33c-10.82.06-16.42,5.83-16.32,16.81.09,10.1,6,15.94,16.28,16,10.59.05,16.75-6.13,16.65-16.71C124.85,140.44,118.92,134.7,108.33,134.76Z"/><path d="M172.43,10.52c17.28-.09,34.14,16.53,34.36,33.88S189.85,79,172.48,78.88s-34-16.88-34.1-34.19S155.13,10.61,172.43,10.52Zm.44,21.4c-8.8,0-13,4-13,12.69,0,8.49,4,12.66,12.41,12.81,8.71.15,13-4,13-12.7C185.3,36.2,181.18,32,172.88,31.91Z"/><path class="cls-1" d="M321.28,322.21c0,8.42,0,16.55,0,24.68q0,23.24,0,46.47c0,9.94,3.71,13.7,13.44,13.7q40,0,80,0c9.66,0,13.33-3.65,13.33-13.24q0-32.74,0-65.48c0-2,0-3.93,0-6.19H470.6c.56,13.84-.2,27.41-3.67,40.67-11.44,43.63-38.37,72.29-82.54,83.33a127.85,127.85,0,0,1-30.14,3.51q-96.46.47-192.93.12c-38.72-.11-71.3-13.7-94.7-45.6-17.78-24.25-23.64-52-22.47-82Z"/><path class="cls-1" d="M406.44,342.8H343.1V300.66c1.68-.11,3.14-.28,4.6-.28,18,0,36,.09,54-.06,3.77,0,5.3.77,5.19,4.94-.29,11.15-.09,22.31-.12,33.46C406.75,340,406.56,341.29,406.44,342.8Z"/><path class="cls-1" d="M343.09,385.46V364.65h63.34v20.81Z"/><path class="cls-1" d="M225.08,197.91c16.48,0,27,10.81,26.92,27.42s-10.84,26.88-27.57,26.81c-16.33-.08-26.78-10.58-26.83-27C197.54,208.26,208,197.86,225.08,197.91Z"/><path class="cls-1" d="M108.33,134.76c10.59-.06,16.52,5.68,16.61,16.09.1,10.58-6.06,16.76-16.65,16.71-10.24-.05-16.18-5.89-16.28-16C91.91,140.6,97.52,134.83,108.33,134.76Z"/><path class="cls-1" d="M172.88,31.91c8.31,0,12.42,4.29,12.41,12.8,0,8.66-4.31,12.85-13,12.7-8.42-.15-12.46-4.32-12.41-12.81C159.9,35.93,164.07,31.87,172.88,31.91Z"/></svg>