<svg id="Layer_1" data-name="Layer 1" xmlns="http://www.w3.org/2000/svg" viewBox="0 0 278.33 276.95"><defs><style>.cls-1{fill:#fefefe;}.cls-2{fill:#6b6b6b;}</style></defs><title>Artboard 1</title><path class="cls-1" d="M139.15,276.84c-43.8,0-87.6-.08-131.4.11-5.11,0-7.58.14-7.56-6.65Q.68,138.89.24,7.48c0-5.67,1.69-6.4,6.71-6.39Q139.42,1.33,271.9,1c5.67,0,6.4,1.69,6.39,6.7q-.23,131.4.05,262.81c0,5.67-1.69,6.41-6.71,6.39C227.47,276.76,183.31,276.84,139.15,276.84Z"/><path d="M62.21,176.11c-19.67,1-37.34-4-52-17.63-10.94-10.2-9.85-17.66,3.4-24.39q25.63-13,51.32-25.9c5.87-2.93,11.17-6.68,14.17-12.49,9-17.47,23.15-29.56,40.14-38.55,8-4.26,12.09-10,12.16-19.4.06-8.12,1.69-16.25,2.89-24.34.55-3.72.16-8.62,5-9.69,5.2-1.15,7.17,3.52,9.54,7,.79,1.16,1.61,2.31,2.78,4,.92-2.34,1.59-4.29,2.44-6.17,3.3-7.29,8.79-7.88,13.25-1,2.67,4.11,4.48,8.84,6.29,13.44,14.74,37.43,31.86,73.61,54.83,106.82,11.62,16.8,24.38,32.55,41.65,43.79,6.43,4.18,6,9.63,6.08,15.69.1,6.28-4.59,7.18-8.86,8.93-34,14-60.68,36.73-79.28,68.42-4.36,7.44-9.63,9.34-17.37,8.61-8.45-.8-7-7.77-8.23-12.79-4.33-17.22-8.39-34.51-12.47-51.79-3.42-14.49-3.88-15-18.33-9.48-15.09,5.81-30.38,9.91-46.7,9.28-12.53-.48-24.73-2.33-36.06-8.13-3.63-1.86-7.22-4.13-7.17-8.44.06-4.9,4.15-7.26,8.25-8.73,5.33-1.91,10.83-3.38,16.26-5,.49-.5,1.5-1.33,1.46-1.39C66.07,174.51,64.12,175.42,62.21,176.11Z"/><path class="cls-2" d="M62.21,176.11c2.76-1.87,5.76-2,9.11-1.33-.83,2.73-2.65,3.58-5.18,3.34Z"/></svg>