<svg id="Layer_1" data-name="Layer 1" xmlns="http://www.w3.org/2000/svg" viewBox="0 0 128 128"><defs><style>.cls-1{fill:#fefefe;}.cls-2{fill:#252525;}.cls-3{fill:#262626;}.cls-4{fill:#272727;}</style></defs><title>Artboard 1</title><path class="cls-1" d="M64.94,129c-20.17,0-40.33,0-60.5,0-2.39,0-3.55.07-3.54-3.11q.23-61,0-122c0-2.66.79-3,3.14-3q61,.11,122,0c2.66,0,3,.79,3,3.14q-.11,61,0,122c0,2.66-.79,3-3.14,3C105.6,129,85.27,129,64.94,129Z"/><path class="cls-2" d="M37.3,19.85c8.77,0,10.36,1,13.52,8.46,1,2.44,2.06,4.91,3.28,7.26,3,5.77,7.44,8.92,14.36,8.76,8.81-.19,17.65.2,26.24,2.58,11.45,3.18,17.9,10.74,18.45,22.49a30.88,30.88,0,0,0,5.23,15.35c5.62,8.89,2.08,18.08.8,27.11-.43,3-3.65,3.36-6.5,3.34s-4.85-.78-6.08-3.42.34-4.28,1.94-6.11c3.9-4.45,2.53-10.6-2.91-12.65-5-1.87-8.15-5.46-11-9.71-4.46-6.7-6-7.11-13.67-4.38-5.95,2.12-11.88,4.38-18.21,5-2.17.2-2.55,1.33-3.16,3-1.72,4.76,0,9.23.93,13.73a17.54,17.54,0,0,1-.48,9.79c-1.68,4.62-8,6.65-11.81,3.59-2.38-1.91-3.43-4.52-.9-6.82,2.94-2.68,2.45-5.13,1.13-8.36-2.59-6.35-5.36-12.43-10.31-17.44-3.9-3.95-4-9.5-4-14.58-.1-6.61-3.17-12.14-5.23-18.06-.63-1.81-2.11-1.95-3.6-2.08q-4.23-.37-8.46-.6c-4.43-.25-7-2.59-8-6.88-1.5-6.79-.75-8.3,5.87-10a17.89,17.89,0,0,0,9.3-5.28C27.75,19.86,33.06,20.06,37.3,19.85Z"/><path class="cls-3" d="M120.32,41.72c.09,3.63-1.79,7.47-4.62,10.83-.71.84-1.53,3.68-3.06,1.69-1.37-1.78-5.12-2.72-3.43-6.16,4.69-9.54,3.31-13.56-6.58-17.91-2.68-1.18-5.07-2.44-3.74-5.76,1.48-3.71,4.39-2.59,7.11-1.49C115,26.57,120.35,33.27,120.32,41.72Z"/><path class="cls-4" d="M103.28,114.81c-3.53.67-6.54.78-8.48-2.64-1.74-3.07.12-5,2.16-6.84,1.88-1.66,1.17-3.63,1-5.55-.23-2.11-1.36-4.11-.86-6.55,2.23,1.08,4.32,2.3,6.55,3.15,3.78,1.43,3.81,4.32,1.78,6.58C102.12,106.6,101.34,110.3,103.28,114.81Z"/><path class="cls-4" d="M37.15,86.69c4.91,4.66,6.07,10.46,8.25,15.69.16.39-.48,1.15-.79,1.71-3,5.32-3,5.32-1.58,10.73-3,.82-5.52.38-7.27-2.47s-.16-4.73,1.75-6.49c1.74-1.6,1.48-3.53,1.24-5.52C38.22,96.06,37.74,91.79,37.15,86.69Z"/></svg>