<svg id="Layer_1" data-name="Layer 1" xmlns="http://www.w3.org/2000/svg" viewBox="0 0 150 150"><defs><style>.cls-1{fill:#fff;}.cls-2{fill:#262324;}.cls-3{fill:#fefefe;}</style></defs><title>Artboard 1</title><path class="cls-1" d="M151,76c0,24,0,48,.05,71.94,0,2.34-.33,3.14-3,3.14q-71.94-.15-143.88,0c-2.9,0-3.26-.75-3.25-3.39Q1.07,76,.93,4.31c0-2.64.35-3.4,3.25-3.4q71.94.18,143.88,0c2.65,0,3,.78,3,3.13C151,28,151,52,151,76Z"/><path class="cls-2" d="M29.91,108.19c4-7.49-1-12-7.27-17.29-7.75-6.62-10.39-16.07-7.89-26.35C16.9,55.75,22.45,50.35,31.47,49c2.6-.38,3.16-1.53,3.46-3.83,1.14-9,5.3-16.18,14-19.68S65.3,24.2,72,30.24c1.68,1.5,2.55,1.6,4.42.06,15.24-12.57,33.77-5.45,37.19,14.33.5,2.91,1.1,4.05,4.29,4.52,12.41,1.81,19.66,15.42,15.65,29-2.3,7.79-6.7,14.11-14,18-2.15,1.13-2.72,2.24-2.11,4.66a37.4,37.4,0,0,1,.35,16.36c-2.38,12.37-12.91,18-26.42,14.29-7.82-2.16-15.5-5.31-23.87-3-4.16,1.17-8.25,2.7-12.48,3.46-14.71,2.66-23.23-4-24.78-19C30.14,111.79,30.09,110.63,29.91,108.19Z"/><path class="cls-1" d="M42.94,109.65c.11-15.23,12.41-31.79,26.61-36.14a16.08,16.08,0,0,1,8.86-.18c16,4.18,29.14,24,26.77,40.3-.8,5.5-3.1,7.17-8.55,5.91-3.55-.82-7-1.92-10.53-3a40.48,40.48,0,0,0-23.54,0c-3.34,1-6.67,2-10.05,2.83-6.18,1.53-8.73-.3-9.39-6.56C43,111.65,43,110.48,42.94,109.65Z"/><path class="cls-3" d="M101.12,47.93c0,7.14-2,11.92-6.12,15.76-5.4,5.09-12.67,3.31-15.18-3.64s0-16.31,5.71-20.89c2.93-2.34,6.26-3.26,9.77-1.53C100.2,40,101,44.65,101.12,47.93Z"/><path class="cls-3" d="M69.87,54.92c.05,5.11-2.75,9.89-7,11.25S53.56,65.25,50.46,60a20,20,0,0,1-2.33-16.2c2-7.12,9.86-9.31,15.33-4.3C67.73,43.45,69.48,48.51,69.87,54.92Z"/><path class="cls-3" d="M26.82,71.59c.08-8.87,6-12.45,12.54-8.7A16.18,16.18,0,0,1,48,78.1c-.17,7.27-6.16,10.56-12.54,7A16.11,16.11,0,0,1,26.82,71.59Z"/><path class="cls-3" d="M121.8,72.07a17,17,0,0,1-8.9,13.18c-5.89,3.19-11.17.55-12.24-5.93s3.71-14.77,9.65-17.09C116.87,59.65,122.18,63.75,121.8,72.07Z"/></svg>