<svg id="Layer_1" data-name="Layer 1" xmlns="http://www.w3.org/2000/svg" viewBox="0 0 201.1 201.07"><defs><style>.cls-1{fill:#fefefe;}</style></defs><title>Artboard 1</title><path class="cls-1" d="M100.94,201q-48,0-96,0c-2.72,0-4.05,0-4-3.61q.22-96.5,0-193C.9,1.28,1.76.93,4.56.93q96.5.13,193,0c3.16,0,3.51.85,3.51,3.66q-.13,96.5,0,193c0,3.16-.85,3.52-3.66,3.51C165.27,201,133.1,201,100.94,201Z"/><path d="M77,188.86c-2.28-4.44-4.25-8.23-6.17-12.05-.41-.81-1.53-2.28-.64-2.5,6.8-1.64.64-4.19.09-5.45-1.44-3.29-3.82-6.18-6-9.54l4-.71c-2.94-4.21-5.81-8.19-8.53-12.27-1.38-2.08-2.33-1.73-3.59.08-2.75,3.95-5.61,7.81-8.48,11.79.89,1.4,2.71,0,3.47,1.49L42,173.52c3.89,0,4.08,1.48,2.32,4.28-2.08,3.32-3.64,7-5.73,11.07,5.13,0,9.56.05,14,0,1.79,0,2.77.34,2.69,2.44s-1.2,2-2.63,2c-15.32,0-30.64,0-46.8,0L52,85.36,65.44,113,87.69,19.66l.88.09,18,65.29,12.87-38.2,11.22,47L140,58.69c1.52.91,1.6,2.37,2.09,3.57Q168,125.4,194,188.52c1.68,4.07,1,4.89-3.3,4.84-18.83-.2-37.66-.15-56.49,0-3.2,0-4.74-.35-4.6-4.17.26-7.21,0-7.21,7.43-7.21h23.86l-14.2-27.53c2.48-1.32,4.88-.15,7.85-1.17l-17.84-27.13c2.32-1.46,4.77-.21,7.68-1.33L124.86,97.2l-20.43,28,8.27.4L94.27,153.68h8.51L88.16,182c9.65,0,18.62.2,27.57-.09,3.65-.12,5.06,1.16,4.11,4.44-.69,2.35,2.62,6.81-2.58,6.88-18,.24-36,.08-54,.11-1.75,0-2.8-.31-2.77-2.43,0-2.46,1.71-2,3.11-2C67.78,188.84,71.94,188.86,77,188.86Z"/></svg>