<svg id="Layer_1" data-name="Layer 1" xmlns="http://www.w3.org/2000/svg" viewBox="0 0 220 220"><defs><style>.cls-1{fill:#fff;}</style></defs><title>Artboard 1</title><path class="cls-1" d="M220.28,110.44q0,54.4,0,108.8c0,.9-.2,1.1-1.1,1.1q-108.92,0-217.84,0c-.9,0-1.1-.2-1.1-1.1Q.29,110.32.26,1.4C.26.5.46.3,1.36.3Q110.28.33,219.2.3c.9,0,1.1.2,1.1,1.1Q220.26,55.92,220.28,110.44Z"/><path d="M119.7,5.53c2.08,0,4.16,0,6.23,0s3.82,1.32,5.9,1c1,1.31,2.79.42,3.73,1.13s2.36.27,2.89,1.52c0,.07.2.1.32.13a11.87,11.87,0,0,1,4.83,2.75c.59.51,1.45.7,2,1.37.39.45,2.26,2.3,2.73,2.72s.74,1,1.25,1.29a1.29,1.29,0,0,1,.65,1c.24,1.09,2.11,2.57,3.12,3a10.49,10.49,0,0,1,4,2.24c.66.73,1.58,1,2.28,1.7.89.86,1.7,1.8,2.61,2.63,1.11,1,1.61,2.45,2.74,3.47.57.52,1.54,1.11,1.4,2.23-.08.59.58.57.85.88.81.92.81,2.26,1.84,3.1a3.87,3.87,0,0,1,.83,1.88c.3,1.28,1.48,2.14,1.43,3.51,0,.48,0,1,.68,1.25.32.1.24.47.27.74.06.62.52,1.23.58,1.68.19,1.56,1.32,2.77,1.39,4.34,0,.86-.3,1.89.8,2.42,0,0,.08.15.07.22-.27,2.15,1,4,1.09,6.13.06,1.63-.11,3.28.77,4.86a6.47,6.47,0,0,1,.23,2.95c0,2.47.34,5-.23,7.39-.67,2.75-.36,5.55-1,8.19a16.21,16.21,0,0,0-.72,4.72c0,.54,0,1.14.57,1.48a.52.52,0,0,1,.23.4c-.16,2.14,1.52,3.87,1.34,6a1.23,1.23,0,0,0,.53,1.36c.46.25.33.78.35,1.2a46.44,46.44,0,0,1-.15,10c-.41,2.35-.44,4.81-1.17,7-.49,1.51-.41,3-.84,4.45-.47,1.59-.48,3.35-1.11,4.73a12.67,12.67,0,0,0-.8,3.55c0,.27,0,.63-.27.75-.71.27-.58.87-.63,1.4-.1,1,.1,2.09-.84,2.88-.16.13-.1.53-.13.81-.07.78,0,1.6-.8,2.14-.14.1-.14.43-.18.66-.13.88,0,1.85-.89,2.47a.7.7,0,0,0-.15.56c.2,1.47-.79,2.63-1.26,3.85-.36.91-.4,2.13-.94,2.69-.86.9-.44,2.28-1.51,3-.19.12-.2.58-.25.89-.11.71.13,1.56-.85,1.89-.07,0-.12.2-.13.32-.19,2-1.49,3.51-2.24,5.23a45.92,45.92,0,0,1-3.11,6.6,33.94,33.94,0,0,0-2.4,4.08c-.46,1-1.52,1.74-1.45,3,0,.6-.66.65-.94,1.1-1.18,1.91-2,4.1-3.67,5.67-.06.05-.15.13-.14.18.19,1.26-.87,2.1-1.33,3s-.47,2.15-1.49,2.76c-.11.07-.17.26-.2.4a13.61,13.61,0,0,1-1.94,3.52c-.42.7-1.2,1.27-1.23,2.2,0,.69-.75,1.1-1.05,1.36-1.13,1-1.42,2.48-2.54,3.52a7.44,7.44,0,0,0-2.48,3.25c-.16.58-.82.93-1.23,1.39-1.18,1.29-2.55,2.42-3.8,3.65-.65.64-1.66.68-2.22,1.54-.39.6-1.21.88-1.61,1.53a3,3,0,0,1-1.44,1c-1,.39-1.66,1.49-2.8,1.49-.71,0-.86.67-1.2,1-.86.79-2.23.6-2.89,1.65a.25.25,0,0,1-.21.1c-1.52-.3-2.7.74-3.84,1.32-1.63.83-3.39.5-4.89,1.11-3.43,1.38-7,.92-10.33.47A18.44,18.44,0,0,1,97,213.31a13.89,13.89,0,0,0-3.94-1.51,5.47,5.47,0,0,1-3-1.52c-.5-.51-1.42-.61-2.09-1.17-1.26-1.06-2.94-1.49-4.07-2.89a3,3,0,0,0-2.06-1.31c-.67,0-1.09-.8-1.56-1.22a23.11,23.11,0,0,1-2.86-2.81C76.08,199,74,197.8,73,195.53a6.1,6.1,0,0,0-1.95-2.28c-1-.7-.87-1.89-1.8-2.6-1.28-1-1.32-3-2.82-3.89-.08,0-.08-.21-.12-.33a18,18,0,0,0-2.64-4.73,31.36,31.36,0,0,1-1.65-3c-.65-1.21-.32-2.83-1.63-3.7-.06,0-.13-.14-.12-.19.32-1.34-.88-2.16-1.31-3.21-.36-.9-.39-2.13-1.35-2.84-.26-.19-.32-.71-.39-1.1-.12-.65,0-1.38-.82-1.71a.24.24,0,0,1-.12-.19c.21-1.42-1.3-2.32-1.13-3.74a.76.76,0,0,0-.45-.89c-.14-.05-.37-.21-.36-.28.28-1.39-1-2.23-1.24-3.5a7.42,7.42,0,0,0-1.54-3.62.35.35,0,0,1-.11-.21c.09-1.65-1.47-2.81-1.33-4.47,0-.26,0-.63-.24-.76-.77-.35-.57-1-.68-1.65a13.67,13.67,0,0,0-1.59-3.88c-.06-.1-.2-.2-.19-.29.16-1.55-1.05-2.73-1.16-4.22-.06-.81,0-1.67-.8-2.27-.22-.16-.2-.66-.25-1-.12-.75.11-1.63-.83-2.06a.25.25,0,0,1-.09-.21c.28-1.85-1.19-3.31-1.1-5.13,0-.61.07-1.23-.65-1.65-.41-.24-.2-.89-.29-1.35-.23-1.26.47-2.74-.88-3.75,0,0,0-.15,0-.23a58.13,58.13,0,0,1-.82-17.49,19.85,19.85,0,0,1,.91-5.27c.6-1.4.25-3.14,1-4,1.06-1.25.12-3.07,1.61-3.93a.13.13,0,0,0,0-.11c-.31-1.79,1.38-3,1.3-4.75A24.49,24.49,0,0,0,45,80c-.3-1.12-.84-2.28-.46-3.31.79-2.15.11-4.55,1-6.51.62-1.38.3-3,1.46-4.22.3-.3.19-1,.29-1.5s0-1,.63-1.16c.28-.07.28-.34.32-.58.08-.59-.12-1.34.8-1.49a.23.23,0,0,0,.12-.19c-.31-1.31.76-2.24,1.27-3.11s.62-2,1.62-2.64a3.81,3.81,0,0,0,1.06-1.56A7.47,7.47,0,0,1,55,51.24c.34-.33.2-.75.21-1.12,0-2.67,0-5.34.08-8,0-.7-.09-1.43.65-1.93.31-.21.16-.67.22-1,.17-1-.31-2.27.9-3,0,0,.07-.15.06-.23-.29-1.57.82-2.76,1.41-4,.41-.84.51-2,1.51-2.73a5.17,5.17,0,0,0,1.13-2.14c.23-.66.79-.88,1.1-1.21,1-1.08,1.62-2.47,2.7-3.56s2.39-2.3,3.47-3.57a8.58,8.58,0,0,1,2.29-1.24c.6-.33,1.29-.49,1.94-.86A7.05,7.05,0,0,1,75,15.7a10.55,10.55,0,0,0,3.76-1.46c1.24-.68,2.92-.2,3.8-1.56a.14.14,0,0,1,.1-.06,9.21,9.21,0,0,0,3.62-1.13,10.08,10.08,0,0,1,2.49-.72c1.86-.24,3.4-1.55,5.32-1.39.48,0,1,.08,1.33-.55.22-.46.78-.31,1.19-.37,1.09-.15,2.18.13,3.23-.75.57-.48,1.77-.19,2.68-.26.69,0,1.43.16,1.88-.68.19-.35.74-.21,1.13-.23a21,21,0,0,0,4.76-.34,16.47,16.47,0,0,1,4.63-.75c1.6,0,3.2,0,4.8,0Z"/><path class="cls-1" d="M130.3,99.18a11.39,11.39,0,0,1-.15,3.33c-.72,2-.65,4.21-1.29,6.16-.4,1.2-.29,2.51-.83,3.52-.77,1.44-.41,3.1-1.05,4.36-.55,1.08-.37,2.33-.91,3.11-.84,1.2-.94,2.86-2.64,3.67a7.2,7.2,0,0,0-2.88,1.9c-.15.2-.29.35-.27.6a.43.43,0,0,0,.51.4c1.92-.23,4,.62,5.77-.72a2,2,0,0,1,1-.14q6.59-.22,13.19-.08a5.44,5.44,0,0,1,3,.61c.87.54,2,.26,3.06.35.6.05,1.3-.13,1.64.67.12.28.49.21.76.26.8.13,1.72-.18,2.25.87.14.28.89.24,1.36.1s.42-.54.24-.67a17.49,17.49,0,0,1-2.21-2.27,37.38,37.38,0,0,0-3.77-2.85c-.59-.46-1.57-.51-2.17-1.16-1.11-1.22-3-.66-4.16-1.77a1,1,0,0,0-.57-.15,26.26,26.26,0,0,0-8.11.07c-1.29.27-2.53.94-3.93.9l0,0c0-1.1-.16-2.25.89-3a.42.42,0,0,0,.17-.3c-.18-1.33,1-2.15,1.32-3.37a7.32,7.32,0,0,1,.9-2.74c.82-1,.37-2.39,1-2.93,1.29-1.16.28-3,1.62-4,.22-.16.11-.76.16-1.15a5.9,5.9,0,0,1,.73-2.68c.51-.83.32-2.08.43-3.15.06-.62,0-1.26.62-1.71.35-.25.26-.73.28-1.12a16.65,16.65,0,0,0,.07-3.1c-.22-1.56.75-2.79.93-4.22.06-.5.75-.47.77-.26.08,1,.88,1.59,1.31,2.2.85,1.2.3,2.93,1.69,3.78-.17,1.29.91,2.09,1.34,3.15s.5,2.17,1.56,2.78c.07,0,.17.12.16.16-.3,1.27.88,2,1.24,3a11.87,11.87,0,0,0,1.38,2.57,28.49,28.49,0,0,1,1.67,2.43,5,5,0,0,0,1.4,1.85,3.28,3.28,0,0,1,1.26,1.48c.49,1.6,1.8,2.44,2.91,3.47a3.3,3.3,0,0,1,.88,1.26c0,1.57,1.33,2.68,1.38,4.21,0,.65-.05,1.28.67,1.77a1,1,0,0,1-.06,1.5,1.73,1.73,0,0,0-.51,1.51c-.1,10.25-.15,20.5,0,30.76,0,1.39-.08,2.79-.13,4.18,0,.12,0,.29,0,.35-1.33,1.17-.47,3-1.15,4.19-.78,1.38-.28,3.15-1.55,4.31-.19.18-.17.6-.22.91-.12.75.08,1.63-.86,2a.25.25,0,0,0-.08.21c.31,1.51-.61,2.82-1.24,3.87-.72,1.21-.35,2.8-1.62,3.76-.53.4-.58,1.34-.84,2-.4,1-1.11,1.88-1.48,2.91s-1.08,1.88-1.51,2.87-1.39,1.44-1.48,2.6c0,.57-.79,1-1.2,1.51-.66.8-.83,1.87-1.7,2.52-1.59,1.19-2.14,3.22-3.68,4.56-.84.73-1.58,1.81-2.45,2.57s-1.69,1.63-2.5,2.43a18.74,18.74,0,0,1-3.34,2.64c-1.2.75-2,2.13-3.56,2.4a4.54,4.54,0,0,0-1.67,1.06,11,11,0,0,1-2.86,1.47c-1.08.48-2.05,1.52-3.44,1.36a1.3,1.3,0,0,0-1.36.58.68.68,0,0,1-.48.29c-3.08.06-6,1.61-9.15,1.1-1.05-.17-2.16,0-3.23-.1-.87-.06-1.75.16-2.5-.73-.41-.48-1.37-.2-2.08-.24s-1.22,0-1.55-.64c0-.07-.12-.17-.16-.16-1.37.26-2.24-.91-3.43-1.19a16.5,16.5,0,0,1-3.46-1.67c-.84-.42-1.32-1.44-2.44-1.39-.64,0-.89-.71-1.24-1-1.1-1-2.56-1.34-3.56-2.63a30,30,0,0,0-3.52-3.25,37.06,37.06,0,0,1-3.15-3.27c-.76-.9-1.56-1.82-2.37-2.65s-.83-1.72-1.66-2.4a8.36,8.36,0,0,1-1.58-2.27c-1.14-2-2.5-3.89-3.65-5.91-.46-.81-.4-2.13-1.58-2.55a.35.35,0,0,1-.15-.3c.22-1.29-1.29-2-1.12-3.23-1.44-.77-.92-2.5-1.73-3.69a10.81,10.81,0,0,1-1.42-3.76,10.26,10.26,0,0,0-1.05-3.34c-.79-1.19-.42-2.47-1-3.5-1.22-2.26-.71-4.63-.72-7a1.69,1.69,0,0,1,.46-1.29c.63-.66.35-1.59.47-2.41s-.26-1.85.75-2.48c.2-.12.16-.67.18-1,.05-1.12.07-2.23.11-3.35,0-.55,0-1.11.6-1.44.38-.19.27-.64.29-1,.08-1.27-.17-2.66.25-3.8.9-2.39.7-4.83.79-7.25,0-.84.7-1.17,1.08-1.58a20.83,20.83,0,0,1,4.46-4c.81-.48,1.83-.95,2.67-1.43,2.61-1.49,5.4-.87,8.1-1a69.1,69.1,0,0,1,12.21.36,10.14,10.14,0,0,1,4.79,1.51c.62.44,1.61.2,2,1.16.1.22.92.21,1.21-.12.48-.54-.31-.54-.46-.82-.84-1.57-2.31-2.55-3.59-3.65-.58-.5-1.68-.78-2.08-1.38-.67-1-1.82-1-2.66-1.6a6.58,6.58,0,0,0-3.66-1.38,3.82,3.82,0,0,1-2.11-.42c1.35-.63,2.27-1.73,3.34-2.22s2.06-1.73,3.57-1.3a1.09,1.09,0,0,0,1.26-.49.66.66,0,0,1,.49-.29c1.83.17,3.42-.75,5.08-1.23a6.69,6.69,0,0,0,3.38-1.68c.05-.06.12-.17.16-.16,1.26.28,2-.79,3-1.19a10.26,10.26,0,0,0,2.69-1.46c.63-.51,1.14-1.22,2-1.4s1.26-1,2-1.46,1.3-1.35,2.29-1.69a4.09,4.09,0,0,0,1.6-1.31c.85-1,1.91-1.79,2.76-2.75,1.19-1.36,2.75-2.45,3.45-4.22.22-.56.92-.76,1.06-1.46.06-.28.56-.22.68.21,0,.18.09.47,0,.58-.81.92-.71,2.28-1.55,3.17a.84.84,0,0,0-.24.39c-.24,1.5-1.32,2.63-1.82,4a16.73,16.73,0,0,1-1.4,2.85c-.53.86-.63,2-1.62,2.65-.47.3-.66,1-.88,1.44a22.91,22.91,0,0,1-3.51,5.17c-1.28,1.43-2.1,3.23-3.71,4.44-1.1.83-2,2-3,3-.35.32-.32.83.23.88s1.31.3,1.68-.5c0-.1.15-.28.19-.27,1.29.26,2-1,3.09-1.25a10.4,10.4,0,0,0,2.57-1.37c.85-.51,1.55-1.23,2.45-1.73a10.89,10.89,0,0,0,2.82-2.37,13.87,13.87,0,0,1,2.49-2.28,5.13,5.13,0,0,0,1.09-1.27c1.13-1.49,2.9-2.47,3.52-4.44a2.61,2.61,0,0,1,1.38-1.62.42.42,0,0,0,.23-.25,14,14,0,0,1,2.06-4,1.48,1.48,0,0,0,.16-.81c0-.71.39-.9,1-.82Z"/><path class="cls-1" d="M175.12,69.72c0,2,0,3.41,0,4.8,0,1,.31,2.16-.73,3-.2.16-.12.68-.14,1,0,1.36-.07,2.71-.09,4.07,0,.48-.31,1-.66.55s-1.15-.84-1.22-1.75c-.09-1.12-1-2-1.54-2.93-.39-.6-.87-1.28-1.19-1.89a15.63,15.63,0,0,0-2-2.59,13.06,13.06,0,0,1-1.15-2.13c-.3-.56-.8-.8-1.14-1.23a35.14,35.14,0,0,0-3.81-4.48A20,20,0,0,1,158,62.63a.81.81,0,0,0-.62-.3c-1-.19-1.47-1-2.17-1.58s-1-1.41-1.91-1.48c-.7,0-1-.63-1.41-1-1.19-1-2.93-1.28-3.85-2.68,0-.06-.14-.13-.19-.12-1.3.24-2.07-.9-3-1.36s-2.07-.58-2.77-1.46a.56.56,0,0,0-.43-.17c-1.5.16-2.65-.91-3.88-1.4-1.05-.42-2.32-.34-3.07-.91-1-.79-2.36-.37-3.1-.93-1.41-1.09-3.09-.4-4.37-1.07-1.72-.91-3.49-.79-5.27-1A2.11,2.11,0,0,1,120.43,46c-.65-2.2-2.6-3.22-3.95-4.78-.76-.88-1.8-1.44-2.39-2.46,0-.07-.11-.17-.15-.17-1.22.14-1.94-.93-2.9-1.35a7.33,7.33,0,0,1-2.83-1.47.71.71,0,0,0-.5-.28c-2.87-.14-5.66-1.68-8.52-.87-1.7.48-3.55.29-5.05,1-1.05.48-2.49.36-3.22,1.56a.63.63,0,0,1-.54.17c-1.42-.31-2.21,1.17-3.52,1.22-.48,0-.86.6-1.14.88C84.64,40.5,83,40.64,82.05,42c-.44.62-1.53.71-2.18,1.4a14.88,14.88,0,0,1-1.73,1.55,19.82,19.82,0,0,1-2.56,2.2c-1.38.72-2.14,2.07-3.32,3a18.35,18.35,0,0,0-3.79,4.21A33.16,33.16,0,0,1,66.06,57a9.72,9.72,0,0,1-2.4,2.46.83.83,0,0,0-.38.71c-.07.95-.93,1.39-1.42,2A32,32,0,0,1,58.19,66c-1.55,1.27-2.3,3.09-3.73,4.44A17.46,17.46,0,0,0,52,73.78a16.65,16.65,0,0,1-2.49,3.57c-.08.08-.22.2-.2.27.23,1.27-1.45,1.82-1.17,3.11,0,.21-.11.37-.35.4s-.43-.12-.53-.37c-.76-2-1.4-3.87-.31-6,.61-1.2.25-2.67.37-4,0-.57-.1-1.23.65-1.52.09,0,.2-.2.19-.28-.37-1.66.86-2.9,1.25-4.34A8.54,8.54,0,0,1,51,61.22a10.65,10.65,0,0,0,1.25-2.49A8.93,8.93,0,0,1,54,56.16a.58.58,0,0,0,.19-.29c.11-1.59,1.5-2.37,2.37-3.41.64-.78.91-1.78,1.8-2.45a33.36,33.36,0,0,0,2.6-2.7c.78-.74,1.39-1.64,2.23-2.35s1.86-1.73,2.74-2.63,1.63-1.61,2.44-2.39a5.62,5.62,0,0,1,1.94-1.59,8.7,8.7,0,0,0,2-1.5,8.61,8.61,0,0,1,1.8-1.44,4.06,4.06,0,0,0,2.27-1.66c.16-.3.47-.25.73-.33a6,6,0,0,0,2.24-1.59c.08-.08.14-.25.22-.26,1.9-.2,3.17-1.7,4.85-2.39.93-.38,2.17-.5,2.83-1.5a.33.33,0,0,1,.19-.14c.79-.15,1.68-.1,2.09-1,1.46.31,2.33-1.42,3.81-1.1a.76.76,0,0,0,1-.52c.08-.27.31-.34.56-.35,1-.05,1.92-.72,2.72-.82,1.74-.2,3.19-1.36,5-1.24a2.7,2.7,0,0,0,2.08-.67c.5-.44,1.3-.26,2-.36,1.32-.19,2.81.37,3.91-.9.13-.15.54-.07.82-.07,1.56,0,3.12,0,4.68-.09.91,0,1.92.24,2.65-.69.14-.18.6-.13.92-.13h10.55c.48,0,.94,0,1.27.47s.79.32,1.22.33c2.32.06,4.64.09,7,.14.63,0,1.25-.07,1.7.61.29.44.89.24,1.35.3,1.38.18,2.89-.28,4.08.86a.53.53,0,0,0,.35.06c2.26-.12,4.24,1.09,6.45,1.34a7.07,7.07,0,0,1,2.75,1.5c1,.72,1.67,1.67,2.65,2.35A16.63,16.63,0,0,1,161.23,30c.48.52,1,1,1.5,1.5.59.69.7,1.69,1.42,2.3a11.4,11.4,0,0,1,1.68,2.51,22,22,0,0,1,1.41,2.3c.53,1,.7,2.2,1.6,3,.08.07.2.2.19.29-.2,1.46,1.17,2.45,1.14,3.85,1.62,1.17.36,3.51,1.91,4.72a.3.3,0,0,1,.07.22c-.1,2.07,1.44,3.84,1.13,6a1.49,1.49,0,0,0,.66,1.67c.32.18.2.58.21.89,0,.88,0,1.75.08,2.63,0,.32-.08.72.08.94C175.93,65.19,174.72,67.85,175.12,69.72Z"/><path class="cls-1" d="M44.29,121.22c0-1,0-2,0-3a2.92,2.92,0,0,1,.71-2.31c.28-.25.21-.9.28-1.37.15-.9-.18-2,.87-2.55a.38.38,0,0,0,.09-.33c-.35-1.52.7-2.73,1.26-3.87A10.33,10.33,0,0,1,49.93,104c.58-.47.75-1.54,1.42-2.16A18.26,18.26,0,0,1,54,99.24c.43-.27.5-.74.89-1.06,1.13-1,2.71-1.27,3.58-2.6.37-.57,1.25-.57,1.86-.86,1-.47,1.8-1.32,2.95-1.47.47-.06,1-.06,1.13-.68a.47.47,0,0,1,.36-.24c.79,0,1.57,0,2-.9,1.5.32,2.73-.6,3.84-1.22s2.72-.56,3.72-1.6c.25-.26.6-.18.9-.23.49-.09,1.07,0,1.27-.67a.47.47,0,0,1,.38-.24c1.45.14,2.64-.79,3.72-1.38s2.32-.3,2.88-1.5c0-.08.2-.14.31-.15,1.53-.2,2.66-1.35,4-1.75s2.27-1.23,3.52-1.4c.74-.1,1-.72,1.45-1.05.88-.65,2.14-.56,2.77-1.57a.57.57,0,0,1,.3-.18,20.81,20.81,0,0,0,6.13-3.31c1.19-.9,2.58-1.5,3.74-2.52A12.83,12.83,0,0,1,109,70.39c.44-.19.5-.66.85-.95,1.37-1.13,3.15-1.94,4-3.46.7-1.22,2-1.89,2.42-3.26.15-.54.71-.49,1-.82.84-.86.75-2.2,1.73-2.95.21-.16.18-.67.24-1,.1-.6,0-1.27.73-1.62.41-.19.16-.73.26-1.1.26-1.06-.49-2.32.72-3.2.24-.18.05-.53-.22-.69-.52-.31-.4-.82-.43-1.28,0-.25,0-.49.35-.52s.31.14.44.31a13.62,13.62,0,0,1,2.28,5.53c.34,1.46.94,2.94.61,4.35-.56,2.4-.48,4.89-1.09,7.21-.33,1.27-.27,2.87-1,3.75-1,1.24-.14,3-1.61,3.95-.19.12-.13.68-.16,1,0,.66.09,1.38-.76,1.69-.1,0-.16.26-.19.41a15.76,15.76,0,0,1-2.28,5.2c-.69,1.21-1,2.88-2.53,3.57a.24.24,0,0,0-.11.2c.23,1.11-.74,1.7-1.28,2.28-1,1.06-1.64,2.37-2.66,3.45a16.45,16.45,0,0,0-3.51,4.33,9.14,9.14,0,0,1-2.21,2.34c-.87.84-1.67,1.78-2.58,2.55s-1.74,2.17-3.17,2.66c-.63.21-1.1.9-1.64,1.38-.92.83-1.8,1.71-2.77,2.48a36.52,36.52,0,0,0-4.12,3.13c-.83.88-2,1-2.76,1.85-1,1.18-2.78,1.3-3.56,2.75a.29.29,0,0,1-.18.14c-1.66.2-2.82,1.4-4.2,2.14s-2.8,1.45-4.19,2.18-2.65,1.23-3.9,1.92a44,44,0,0,0-5.25,2.89,22.18,22.18,0,0,0-3.85,3.09c-.84,1-2.08,1.75-2.37,3.19-.14.68-.9.92-1.17,1.63s-1.69,3.13-1.81,3.87a1.67,1.67,0,0,1-.64,1.32c-.56.39-.28,1.18-.37,1.8-.11.8.11,1.65-.68,2.31-.25.2-.2.82-.2,1.26,0,3.63,0,7.26,0,10.89,0,.36,0,.72,0,1.08a.44.44,0,0,1-.44.47c-.29,0-.5-.18-.43-.44.37-1.58-1.23-2.59-1.14-4.08-1.54-.79-.19-2.92-1.73-3.76-.2-.11-.1-.76-.17-1.15-.11-.57-.09-1.16-.7-1.56-.43-.28-.3-.87-.36-1.34s-.05-1.19-.65-1.58c-.34-.22-.23-.65-.29-1-.11-.76.09-1.61-.82-2.09-.33-.17-.15-.67-.19-1-.09-.72.12-1.54-.78-2-.13-.06-.14-.43-.17-.66-.12-.9.16-1.93-.85-2.57-.13-.08-.08-.45-.11-.69-.12-.87.15-1.84-.8-2.48-.19-.12-.17-.59-.19-.91a8.26,8.26,0,0,0-.85-3.22C43.91,124.31,44.22,122.7,44.29,121.22Z"/><path class="cls-1" d="M42.33,108.79c0-1.52,0-3,0-4.55,0-.8-.14-1.58.66-2.27.49-.43.21-1.37.28-2.08.1-1-.14-2.15.74-3,.21-.21.14-.68.19-1,.15-1-.18-2.19.89-2.93a.14.14,0,0,0,0-.11c-.16-1.71,1-3,1.42-4.6.24-.93.31-2.37,1.5-3a.25.25,0,0,0,.12-.2c-.3-1.32.8-2.2,1.33-3.06s.59-2,1.48-2.78c.56-.5.74-1.63,1.38-2.29C53.41,75.76,53.51,74,55,73.18a3.6,3.6,0,0,0,1.05-1.44c.67-1.47,2-2.35,3-3.55,1.47-1.87,3.44-3.27,4.58-5.47.44-.85,1.63-1.65,2.32-2.49.84-1,2.15-1.78,2.47-3.22.15-.69.84-1,1.24-1.42,1.25-1.35,2.52-2.7,3.84-4,1.15-1.12,2.46-2.15,3.56-3.3s2.75-1.87,3.84-3.07,2.93-1.73,4.06-2.9c1.28-1.33,3-1.76,4.49-2.65.89-.54,2.24-1,3.25-1.44,1.43-.68,3.08-.29,4.19-1,2.19-1.35,4.47-.89,6.55-.59a18.74,18.74,0,0,1,4.46,1,17.7,17.7,0,0,1,3.87,2,18.09,18.09,0,0,1,4.5,4.24,7.8,7.8,0,0,0,1.21,1.27,2.43,2.43,0,0,1,.78,2.1c-.08,1.12.59,2,.71,3.05A13.61,13.61,0,0,1,118,56c-.5,1.55-1,3.45-2.51,4.73-.47.4-.8,1.46-1.32,2.11a19.22,19.22,0,0,1-2.27,2.4c-.63.56-1.15,1.26-1.79,1.74-1,.78-1.69,2.13-3.1,2.34-.73.11-1,.78-1.37,1.13-1.12,1-2.83,1.21-3.54,2.71,0,.09-.28.13-.43.14-1.16.05-1.76,1-2.62,1.57-.1.06-.17.25-.24.24-1.23-.15-1.88,1-2.82,1.4s-1.91.92-2.81,1.44a15.14,15.14,0,0,1-2.8,1.45,8.61,8.61,0,0,0-3.06,1.54c-.09.08-.18.25-.24.24-1.32-.27-2.14.85-3.11,1.33s-2.31.4-3,1.47a.41.41,0,0,1-.32.15c-1.44-.12-2.7.78-3.69,1.41s-2.45.23-3,1.52c0,.07-.22.13-.32.11-1.54-.29-2.82.73-3.89,1.34s-2.91.26-3.71,1.67c-1.43-.26-2.32,1-3.63,1.3a6.83,6.83,0,0,0-3.2,1.49,6.32,6.32,0,0,1-2.3,1.44,7,7,0,0,0-2.71,2.28c-.18.2-.27.44-.58.51-1.61.37-2.38,1.76-3.23,2.92s-1.75,2.24-2.68,3.33a1.58,1.58,0,0,0-.31.48c-.44,1.29-1.42,2.36-1.85,3.56s-1.52,2.31-1.38,3.78a1.37,1.37,0,0,1-.49,1.26c-.55.49-.36,1.27-.46,1.93-.05.33.07.81-.5.76s-.36-.47-.36-.76C42.32,112.54,42.33,110.67,42.33,108.79Z"/><path class="cls-1" d="M176.1,103.75c0,1.48,0,3,0,4.43,0,.8.18,1.67-.66,2.28-.18.13-.16.6-.17.91-.05,1.2-.07,2.39-.12,3.59,0,.5.07,1-.56,1.32-.4.18-.29.63-.31,1-.05.88-.05,1.75-.1,2.63,0,.53.1,1.15-.59,1.43a.47.47,0,0,0-.23.38c.26,2-1,3.76-1.13,5.72,0,.7,0,1.46-.7,1.92a.27.27,0,0,0-.11.2c.12,1.87-1.37,3.34-1.29,5.2a1.55,1.55,0,0,1-.6,1.45c-.58.45-.23,1.28-.38,1.92-.08.34.15.94-.48.9s-.36-.56-.37-.88c0-2.43-.06-4.87-.1-7.3,0-.69.14-1.44-.65-1.91-.28-.17-.18-.59-.19-.9,0-1.24-.06-2.47-.13-3.71a3.52,3.52,0,0,0-.67-2.23c-.48-.59-.18-1.46-.27-2.21s.08-1.31-.65-1.67c-.09,0-.21-.19-.2-.27.3-1.79-.9-3.2-1.35-4.78-.38-1.32-.34-3-1.63-4,0,0-.08-.07-.07-.09.3-1.26-.84-2-1.17-3a9,9,0,0,0-1.49-3,1.3,1.3,0,0,1-.28-.5c-.4-1.83-1.83-3.14-2.46-4.89a4.75,4.75,0,0,0-1.37-1.65c-.57-.46-.79-1.42-1.2-2.13-.31-.53-.79-.78-1.12-1.21-1.2-1.57-2.05-3.4-3.7-4.67a4.78,4.78,0,0,1-1.35-1.73c-.53-1.19-1.69-2-2.57-2.91-1.11-1.2-2.43-2.21-3.53-3.42-.65-.73-1.6-.91-2.26-1.7-1.06-1.26-2.57-2.14-3.71-3.34-.71-.74-1.71-.84-2.44-1.59-1-1-2.35-1.56-3.4-2.48-.76-.67-1.8-.74-2.5-1.55a2.51,2.51,0,0,0-2.25-1.13c-.27,0-.31-.33-.31-.56,0-1.91-.31-3.95.25-5.69a11.56,11.56,0,0,0,.62-3.59c0-.27,0-.67-.15-.79a2.12,2.12,0,0,1-.64-2.29c.33-1.73-1.06-3-1.12-4.57,0-.23-.21-.32-.42-.35a.45.45,0,0,1-.41-.59c.06-.31.34-.35.56-.31,1.14.22,2.5-.52,3.41.78.09.14.45.1.68.13.94.1,2-.22,2.7.79.11.16.52.14.8.18,1,.15,2.19-.14,2.94.91a.43.43,0,0,0,.34.09c1.53-.17,2.9.7,4.06,1.29s2.73.32,3.49,1.65c.07.13.45.09.68.13.48.08,1.09,0,1.19.7,0,.06.11.17.15.16,1.26-.33,1.74,1.14,2.82,1.21.58,0,.79.62,1.19.91,1.31.94,3,1.34,4,2.79a3.93,3.93,0,0,0,1.35,1c1.91.87,3.1,2.52,4.54,3.91.76.74,1.52,1.5,2.32,2.18s1.61,1.85,2.53,2.66c1.16,1,1.41,2.73,2.84,3.58a2.55,2.55,0,0,1,.82,1.31c.25,1.13,1.53,1.64,1.51,2.91,0,.63.73,1.11,1.11,1.47a3,3,0,0,1,.73,1.48,22.61,22.61,0,0,0,1.32,2.62c.29.57.48,1.19.78,1.73.75,1.35.62,3,1.71,4.22a.92.92,0,0,1,.19.66c0,.66,0,1.34.75,1.7.13.06.16.43.18.66.17,1.51-.16,3.12.95,4.44.13.15.07.46.07.7q0,2.69,0,5.38Z"/><path class="cls-1" d="M119.3,7.56c2.08,0,4.16,0,6.24,0,1,0,2-.16,3,.68.61.51,1.92.19,2.92.26.69,0,1.49-.18,1.82.75a.24.24,0,0,0,.19.12c1.59-.34,2.72.87,4,1.32.92.31,2.15.5,2.75,1.54a.58.58,0,0,0,.52.24c1.16.1,1.71,1.07,2.53,1.68,1.25.92,2.18,2.14,3.34,3.12.86.73,1.38,1.74,2.28,2.42a.37.37,0,0,1-.33.64c-.85-.08-1.86.42-2.5-.59-.23-.36-.65-.25-1-.26-1,0-2.08-.06-3.12-.09-.67,0-1.35.08-1.8-.65-.23-.36-.74-.22-1.13-.24a38.51,38.51,0,0,1-5.86-.26,35.54,35.54,0,0,0-11.84-.57c-3.47.49-6.93.66-10.4.86-1.76,1.35-4,.34-5.75,1.1-1.45.64-3.18.19-4.2,1-1.33,1-3.2.14-4.19,1.62a.14.14,0,0,1-.11,0c-1.65-.22-2.92,1-4.45,1.26a6.42,6.42,0,0,0-3.31,1.58c-.08.08-.2.21-.28.2-1.44-.25-2.44.87-3.67,1.27a11.61,11.61,0,0,0-2.56,1.31c-.79.51-1.56,1.05-2.4,1.51s-1.93,1.08-2.85,1.69c-.71.47-1.22,1.43-2.3,1.35-.74,0-1.17.8-1.42,1.13-.71.94-1.92.91-2.63,1.8A24,24,0,0,1,68.05,38c-.11.1-.22.27-.34.29-1.62.23-2.21,1.75-3.33,2.61a15.36,15.36,0,0,0-2.8,2.64c-1.1,1.43-2.81,2.35-3.46,4.15-.07.19-.12.41-.36.42s-.38-.24-.44-.47a8,8,0,0,1-.06-2.38q0-1.49.1-3A2.93,2.93,0,0,1,58,39.92c.24-.23.21-.75.28-1.13.17-.92-.23-2,.83-2.69.24-.16.14-.83.19-1.26s0-1.06.64-1.31c.1,0,.26-.18.25-.23-.32-1.29,1-1.87,1.26-2.93a4.21,4.21,0,0,1,1.21-1.89,1.74,1.74,0,0,0,.63-.93c.18-1,1-1.39,1.59-2.06s.9-1.12,1.39-1.65C67,23,67.83,22.22,68.6,21.4c.55-.59,1.35-.9,1.79-1.62,0-.06.11-.17.15-.16,1.28.3,2.19-.75,3-1.24,1.23-.71,2.79-.47,3.78-1.57,0,0,.06-.08.08-.08,1.51.16,2.43-1.44,3.95-1.29.44,0,.89,0,1-.59,0-.1.17-.26.23-.24,1.57.32,2.69-1,4.16-1.1.65,0,1.4.14,1.69-.74,0-.08.2-.14.31-.14a19.88,19.88,0,0,0,4.06-1c1.9-.49,3.86-1,5.77-1.44a36.54,36.54,0,0,1,4.6-.83c.16,0,.38,0,.46-.09,1.16-1.33,2.72-.67,4.11-.84,1-.13,2.15.2,3-.78.15-.17.61-.11.93-.11h7.55Z"/><path class="cls-1" d="M157.16,164c.17-1.5-.18-3,.79-4.47.43-.64.22-1.7.3-2.58.06-.71,0-1.43.66-2,.18-.15.2-.5.26-.77.32-1.54-.23-3.28,1-4.61-.33-2.46,1.25-4.61,1.09-7.06a5.57,5.57,0,0,1,.64-2.84,4.4,4.4,0,0,0-.28-4.42,1.82,1.82,0,0,1-.33-1.1c0-1.28-.06-2.55-.14-3.83a3.58,3.58,0,0,0-.68-2.34c-.47-.56-.17-1.46-.25-2.21s0-1.3-.66-1.69a.38.38,0,0,1-.18-.29c.25-2-.79-3.65-1.32-5.4-.44-1.47-.41-3.21-1.68-4.39a.28.28,0,0,1-.1-.2c.32-1.49-.66-2.65-1.23-3.79s-.54-2.24-1.49-3.08c-.6-.53-.72-1.5-1.07-2.23-.45-.94-.94-2-1.46-2.82a17.41,17.41,0,0,0-1.49-2.71A4,4,0,0,1,148.23,97c-.05-.76-.82-1.3-1.24-1.66-.84-.72-.89-1.79-1.67-2.55-1.43-1.38-2.26-3.26-3.75-4.7A11.35,11.35,0,0,1,139,84.9a10.69,10.69,0,0,0-2.25-2.4,33.14,33.14,0,0,0-3.8-3.78c-1.07-.79-2.11-1.59-3.1-2.48a30,30,0,0,1-2.63-2.3,1.93,1.93,0,0,0-1-.64A2.61,2.61,0,0,1,124.34,70c.11-.37.44-.71.61-.38.75,1.41,2.49,1.34,3.48,2.47a6.4,6.4,0,0,0,2.15,1.15c.61.25.76.79,1.2,1.1a24.43,24.43,0,0,1,3.51,2.53c.58.59,1.14,1.48,2.18,1.54.72,0,1.15.79,1.43,1.14a55.77,55.77,0,0,0,4.5,4.51c1.8,1.8,3.5,3.71,5.34,5.49.6.58.79,1.48,1.37,2.17.33.39.83.66,1.15,1.11.86,1.19,1.36,2.64,2.58,3.63.6.49.54,1.64,1.32,2.2.94.68.86,2,1.77,2.79a4.63,4.63,0,0,1,1,2.06,11.13,11.13,0,0,0,1.42,2.83c.64,1,.62,2.28,1.5,3.15.26.26.26.81.34,1.24s0,1.2.74,1.5c.36.15.21.56.26.86.12.82-.16,1.77.85,2.29.15.08.11.52.14.79.1.84,0,1.67.75,2.4.47.45.17,1.38.25,2.09s-.1,1.27.64,1.67c.36.2.24.73.27,1.12a20.84,20.84,0,0,0,.33,4.52c1.58,5.2.5,10.5.8,15.74a8.39,8.39,0,0,1-1.83,5.7.5.5,0,0,0-.12.33c.27,1.47-.66,2.81-1.31,3.68s-.26,2.3-1.51,3c-.53.28-.68,1.38-.87,2-.34,1.11-1.16,1.91-1.46,3-.25.89-1.15,1.52-1.14,2.57,0,.2-.49.15-.76.13Z"/><path class="cls-1" d="M130.32,99.2l.13-2.87c.93,1.24.77,2.46-.15,2.85Z"/><path class="cls-1" d="M157.21,164.09a1.76,1.76,0,0,1,0,.7c-.18.43.24,1.15-.49,1.3-.53.1-.51-.4-.47-.74.08-.57-.34-1.51.89-1.31Z"/><path class="cls-1" d="M123.75,93c-.24,0-.31-.19-.27-.35s.15-.22.23-.22.27.17.23.33S123.81,92.94,123.75,93Z"/><path class="cls-1" d="M128.14,120.24c0,.32.16.74-.34.86-.22.05-.36-.13-.36-.35,0-.5.33-.54.72-.49Z"/><path class="cls-1" d="M56.08,157.59c0,.15,0,.35-.28.36s-.26-.14-.28-.3,0-.4.28-.41S56.06,157.37,56.08,157.59Z"/><path class="cls-1" d="M156,167.49c0,.24-.17.32-.34.28a.34.34,0,0,1-.21-.24c0-.19.15-.28.32-.23S156,167.44,156,167.49Z"/><path d="M109,195c-1.56,0-3.11,0-4.67,0-.5,0-1.05,0-1.29-.62-.11-.31-.46-.26-.73-.3-.83-.15-1.87.28-2.36-.88-.05-.13-.52-.09-.8-.12-.46,0-1,0-1.1-.64a.45.45,0,0,0-.33-.27c-1.68,0-2.36-1.61-3.54-2.39a14.61,14.61,0,0,1-2.77-2.8A14.16,14.16,0,0,1,89,183.55c-.54-1.22-1-2.69-2.42-3.4a.63.63,0,0,1-.35-.79c.08-.35.38-.39.66-.39.88,0,1.75,0,2.63,0,1.32,0,2.64,0,4-.08,1.84-.13,3.53-1.11,5.43-1,1.42-1.67,3.32-.77,5-.91a3,3,0,0,1,2.52.76c.6.57,1.69.26,2.56.23s1.93.32,2.57-.77c.11-.18.59-.19.9-.2,1.36,0,2.72,0,4.07,0a1.91,1.91,0,0,1,1.61.64.84.84,0,0,0,.48.31c3.44.42,6.81,1.48,10.34,1,.77-.1,1.79-.27,2.08.55.11.33-.6,1.28-1.42,1.64a2.49,2.49,0,0,0-1.19,1.42c-.48,1.6-1.75,2.53-2.78,3.68-.53.59-.77,1.36-1.31,2a19,19,0,0,1-3.46,2.78,7.94,7.94,0,0,0-1.45,1.23c-.67,1.14-1.93.95-2.8,1.57-2,1.42-4.57,1.33-7,1.37H109Z"/><path d="M117.33,139.23c0,1.44,0,2.87,0,4.31a5,5,0,0,0,.65,3.05c.56.79.24,1.94.34,2.93.06.61-.11,1.31.63,1.68a.48.48,0,0,1,.2.4c-.33,1.49.61,2.77,1.28,3.7.92,1.26.82,2.7,1.45,4a3.53,3.53,0,0,1-.3,3.91,1.13,1.13,0,0,0-.22.54c-.25,1.61-1.49,2.5-2.56,3.51-.08.08-.26.08-.3.17-.23.51-.57,1.06-1.12.55a1.1,1.1,0,0,1,.19-1.6c.69-.46.66-1,.67-1.66,0-1.23,0-2.47,0-3.71a1.89,1.89,0,0,0-.72-1.79s-.09-.05-.09-.08c0-1.35-1.31-2.23-1.27-3.63a4.14,4.14,0,0,0-.68-2.93,2.78,2.78,0,0,1-.24-1.51c-.15-4.7-.13-9.41,0-14.11a2.87,2.87,0,0,1,.63-2c.46-.52.23-1.3.34-2,.06-.34,0-.82.45-.84s.53.52.53.88c0,2.07,0,4.15,0,6.22Z"/><path d="M70.64,134.42c1.51.77,2.62,2.06,4.22,2.86a12.61,12.61,0,0,0,4.27,1c.24,0,.57,0,.69.15a3,3,0,0,0,3.63.54c1.48-.73,3.1-.35,4.39-1,1.59-.8,3.37-1.09,4.87-2a4.93,4.93,0,0,0,1.65-1.28c.35-.52.79-.47,1.24-.51.24,0,.5,0,.56.32s-.08.4-.28.59a25.84,25.84,0,0,1-2.7,2.72c-.69.5-1.11,1.48-2.18,1.47-.71,0-1,.74-1.5,1.08a37,37,0,0,1-3.8,2c-1.77,1-3.52.7-5.3.77A7.08,7.08,0,0,1,76,141.48a11.86,11.86,0,0,1-2.12-1.35c-.66-.69-1.57-1.13-1.77-2.22-.13-.7-.87-1-1.26-1.57C70.28,135.42,70.13,135.44,70.64,134.42Z"/><path d="M134.14,143.21c-1.46.53-3.13-.43-4.52-1.22-1.8-1-3.79-2.08-4.69-4.3a3.45,3.45,0,0,0-1.32-1.66c-.58-.35-.31-1-.18-1.53.07-.28.36-.3.56-.07.64.72,1.47,1.25,2.13,1.9a2.17,2.17,0,0,0,1.49.73c.64,0,.78.65,1.26.83a9.8,9.8,0,0,0,2.6.31,2.39,2.39,0,0,1,1.84.63c.48.54,3.37.29,4-.2.15-.12.31-.33.47-.33a13.64,13.64,0,0,0,5.11-1.2,36.85,36.85,0,0,0,3.45-1.74c.74-.43,1.7-.44,2.31-1.19.09-.11.43,0,.49.19s.06.48,0,.55c-1,.65-1.56,1.74-2.55,2.46a19.39,19.39,0,0,0-2.4,2.23c-.08.08-.15.27-.21.27-1.18,0-1.85,1-2.76,1.44s-2.09.87-3.08,1.43S135.74,143.12,134.14,143.21Z"/><path d="M105.27,169.29c0,.32,0,.61-.34.69s-.58.05-.69-.29-.31-.61-.68-.52c-1.24.29-1.22-1.11-2-1.44-.2-.09-.09-.39.13-.44.48-.12,1.18-.55,1.42,0,.34.74.88.81,1.49.94S105.07,168.93,105.27,169.29Z"/><path d="M111.17,170c-.33,0-.77.14-.91-.35s.49-.49.57-.69c.44-1.12,1.8-.83,2.4-1.66a.52.52,0,0,1,.84,0c.23.29,0,.5-.2.79-.44.71-1.36.87-1.72,1.66C112,170.17,111.51,170,111.17,170Z"/><path class="cls-1" d="M92.15,184.19a1.7,1.7,0,0,1,1.26.33c1,.52,1.8,1.39,3,1.63.79.16,1.25.88,1.91,1.28a3,3,0,0,0,1.34.59c.62.05,1.32-.07,1.59.74,0,.06.11.16.17.15,1.53-.13,2.57,1.31,4.13,1.21,1.71-.1,3.43,0,5.15,0,1,0,2.13.13,3-.81.25-.28.91-.19,1.38-.27s1.08,0,1.26-.67c0-.1.18-.25.24-.23,1.3.33,2.09-.81,3.11-1.2a8.34,8.34,0,0,0,2.65-1.45,3.73,3.73,0,0,1,2.07-1.3c.33,0,.85.22.57.41-.54.37-.55,1-1,1.35-1.06.72-1.76,1.82-2.75,2.59-.65.5-1,1.4-2,1.51a3.44,3.44,0,0,0-1.8,1.16c-.67.64-1.44.56-2.09.9-3.49,1.84-7.19.68-10.78.88-.54,0-1.14.09-1.41-.6a.47.47,0,0,0-.4-.21c-1.54.24-2.51-1.11-3.9-1.37-.59-.11-1-.85-1.6-1.19a11.94,11.94,0,0,1-3.33-2.67c-.66-.82-1.8-1.43-1.64-2.76Z"/><path class="cls-1" d="M108.73,183c-2.28,0-4.56,0-6.83,0-1,0-2,.2-3-.72-.51-.48-1.76-.21-2.68-.24-.63,0-1.21,0-1.2-.9s.55-.92,1.2-.92,1.2,0,1.8-.06,1.15.06,1.43-.61a.59.59,0,0,1,.38-.24c1.9-.44,4-.74,5.65.13s3.2.56,4.8.69a1,1,0,0,0,1.13-.49c.21-.42.68-.4,1.06-.45a15.4,15.4,0,0,1,4.42,0c.24,0,.56,0,.68.18,1,1.18,2.32.78,3.54.87.66,0,1.06.24,1.08,1,0,.52-.13.84-.73.83s-1.12,0-1.68.05-1.27-.08-1.68.64c-.22.39-.73.25-1.12.25-2.76,0-5.51,0-8.27,0Z"/><path class="cls-1" d="M108.32,188c-1.08,0-2.16,0-3.23,0-.69,0-1.49.18-1.84-.72,0,0-.06-.09-.08-.08-1.3.31-2-1-3.13-1.15-1-.12-1.54-1.16-2.59-1.26-.28,0-.11-.51.24-.53s1.11-.14,1.4.1a4.17,4.17,0,0,0,2.83.71c4.47.15,8.95.13,13.42,0a3.2,3.2,0,0,0,2.35-.65c.24-.22.76-.2,1.15-.18s1.17-.28,1.23.31-.7.28-1.07.42-.63.13-.71.53-.46.47-.83.52c-.56.08-1.25-.08-1.43.75,0,.09-.25.19-.39.21-2.3.26-4.42,1.55-6.83,1.11a2.72,2.72,0,0,0-.48,0Z"/><path class="cls-1" d="M92.17,184.17a3.68,3.68,0,0,1-.57-.16.4.4,0,0,1-.21-.58.52.52,0,0,1,.37-.21c.23,0,.34.16.36.38s0,.39,0,.59Z"/></svg>