<svg id="Capa_1" data-name="Capa 1" xmlns="http://www.w3.org/2000/svg" viewBox="0 0 461.74 461.74"><defs><style>.cls-1{stroke:#000;stroke-miterlimit:10;stroke-width:2px;}</style></defs><title>Artboard 1</title><path class="cls-1" d="M460.9,290.39a10.51,10.51,0,0,0-7.65-6.19l-20.23-4a20.23,20.23,0,0,0-6.88-.16l-6.83,1a34.35,34.35,0,0,1-15.48-1.27A362.65,362.65,0,0,1,331,247.08c-7.22-12-19.36-38.92-21.26-47.15l-.32-1.4c-2.39-10.5-7.35-32.35-21.37-38.67-8.64-3.88-16.56-4.85-22.93-5.63a53.44,53.44,0,0,1-10-1.81c-3.73-1.24-8.57-4.36-8-16.84a41.15,41.15,0,0,0,5.85-8.05c5.15-9.09,8.1-21,8.1-32.55,0-22.56-12.17-37.72-30.28-37.72S200.53,72.42,200.53,95c0,14.62,5.45,30.34,14,39.71,0,0,0,.06,0,.09.83,13.15-4.15,16.37-8,17.64a53.44,53.44,0,0,1-10,1.81c-6.37.78-14.3,1.74-22.93,5.63-14,6.31-19,28.16-21.37,38.66l-.32,1.4c-1.9,8.23-14,35.11-21.26,47.15a362.46,362.46,0,0,1-72.78,32.73,34.37,34.37,0,0,1-15.48,1.27l-6.83-1a20.3,20.3,0,0,0-6.88.16l-20.23,4a10.52,10.52,0,0,0-6.83,16l4.59,7.16A24.41,24.41,0,0,0,26.1,318.6l3.8.1a24.37,24.37,0,0,0,15.9-5.88l3.05-2.62a26.65,26.65,0,0,1,5.35-3.57c.6,10.83,9.3,16.91,22.61,26.21,2.89,2,6.16,4.31,9.64,6.84,14.37,10.45,35.06,16.21,57,22.31,12.78,3.56,26,7.23,39.08,12.08,25.54,9.45,28.77,19.4,29,23.24a7.6,7.6,0,0,0,15.13.52L230.76,366a13,13,0,0,0-15.28-14.47l-4,.73-1-.16,20.22-5.36,20.49,5.37-1,.15-4-.73A13,13,0,0,0,231,366l4.14,31.88a7.6,7.6,0,0,0,15.13-.53c.21-3.84,3.44-13.78,29-23.24,13.08-4.85,26.3-8.52,39.08-12.08,21.91-6.1,42.6-11.86,57-22.31,3.48-2.53,6.76-4.82,9.64-6.84,13.31-9.3,22-15.38,22.61-26.21a26.58,26.58,0,0,1,5.36,3.57l3.05,2.61a24.37,24.37,0,0,0,15.9,5.88l3.8-.1a24.41,24.41,0,0,0,19.85-11.24l4.59-7.16A10.52,10.52,0,0,0,460.9,290.39Zm-176.47-3.53c-2.42-4-9.11-17-7.35-36.29a3,3,0,0,0,.23-.65c4.33-7.12,6.87-13.74,7.25-24.53a236.68,236.68,0,0,0,20.67,39.07,21,21,0,0,0,8,7.28,256.79,256.79,0,0,0,25.31,11l-2.58.22C305.79,285.64,289.45,286.59,284.43,286.86Zm-13.91-38c-2,1.54-6.1,3.62-12.82,2.13a3,3,0,1,0-1.3,5.86,26.47,26.47,0,0,0,5.76.66,20.07,20.07,0,0,0,8.64-1.86c-.29,16.42,4.89,28,7.78,33.09-29.48,14.52-54.12,13.69-69.78,10.33a84.1,84.1,0,0,1-25.81-10c2.86-5,8.28-16.68,8-33.48a20,20,0,0,0,8.83,1.95,26.47,26.47,0,0,0,5.76-.66,3,3,0,1,0-1.3-5.86c-7.38,1.64-11.64-1.06-13.36-2.59a17.11,17.11,0,0,1-1.88-2.55c-3.76-6.32-6.17-12.55-5.82-25.93,7.09-4.94,11.65-16.74,13.56-35.13a200.37,200.37,0,0,0,.9-24.66l2.19-.27c1.46,34.09,14.46,59.39,30.86,59.39s29.43-25.32,30.86-59.44l2.2.28a200.19,200.19,0,0,0,.9,24.7c1.94,18.7,6.62,30.57,13.91,35.36.33,13.93-2.35,20-6.43,26.7A13.83,13.83,0,0,1,270.52,248.88Zm-85.89,1.38a64.67,64.67,0,0,1-3.16,27.59,49.07,49.07,0,0,1-4.17,9c-5-.26-21.36-1.22-51.49-3.91l-2.58-.22a256.53,256.53,0,0,0,25.31-11,21.06,21.06,0,0,0,8-7.28,236.69,236.69,0,0,0,20.67-39.07C177.57,236.35,180.18,243,184.64,250.26Zm46.18-187c14.75,0,24.28,12.45,24.28,31.72,0,22.08-11.31,42.18-23.73,42.18-12.77,0-24.84-20.5-24.84-42.18C206.53,75.72,216.06,63.27,230.81,63.27ZM208.5,158.11c7.47-2.49,11.51-8.64,12.06-18.27a20,20,0,0,0,10.8,3.33,19.28,19.28,0,0,0,9.84-2.8c.67,9.33,4.7,15.29,12,17.74.76.25,1.55.47,2.35.66-.55,14.8-3.44,28.49-8.22,38.77-4.65,10-10.73,15.72-16.67,15.72s-12-5.72-16.66-15.7c-4.78-10.26-7.68-23.93-8.24-38.7C206.73,158.65,207.63,158.4,208.5,158.11ZM54.79,299.84a32.53,32.53,0,0,0-9.85,5.81l-3.05,2.62a18.39,18.39,0,0,1-12.54,4.43l-3.08-.09a18.42,18.42,0,0,1-15-8.48L6.72,297A4.51,4.51,0,0,1,6,295a25.38,25.38,0,0,0,11,2.66,21.22,21.22,0,0,0,9.95-2.47,3,3,0,0,0-2.78-5.32,16.66,16.66,0,0,1-14.48.22l20.2-4a14.25,14.25,0,0,1,4.85-.11l6.83,1a40.4,40.4,0,0,0,18.2-1.49,368.4,368.4,0,0,0,74.67-33.69,3,3,0,0,0,1-1c7.54-12.34,20.29-40.59,22.36-49.56l.32-1.42c2-8.81,6.68-29.44,18-34.52a58.5,58.5,0,0,1,15.54-4.39,196.07,196.07,0,0,1-.89,23.32c-1.23,11.82-3.65,20.78-7,26.23.2-2.14.45-4.41.76-6.85a3,3,0,0,0-5.86-1.18c-5.72,20.34-13.86,37.91-27.21,58.77a15.05,15.05,0,0,1-5.69,5.2c-7.79,4.08-20.36,9.27-37.4,15.44C75.82,280.85,57.81,286.9,54.79,299.84ZM212.1,358.22l4.47-.83a7,7,0,0,1,8.24,7.8l-4.14,31.88a1.62,1.62,0,0,1-1.6,1.41,1.61,1.61,0,0,1-1.59-1.48,14.89,14.89,0,0,0-.18-1.64c-1.16-10.57-1.05-22.9,1.18-25.45a3,3,0,0,0-4.52-4c-1,1.13-3.54,5.26-3.46,17.41-4.81-4.83-12.79-10.06-25.9-14.92-13.32-4.93-26.66-8.64-39.55-12.23-15.84-4.41-31-8.64-43.32-14.53a102.87,102.87,0,0,1,5.22-13.15c4.77-9.87,10.27-16.57,16-19.47,16,4.45,26.85,16.13,32.3,22,.87.93,1.61,1.73,2.22,2.34,4.43,4.43,21.12,13.18,34.34,19.73a44.28,44.28,0,0,0,12.8,4.08l6.51,1A3,3,0,0,0,212.1,358.22Zm104.6-2c-12.9,3.59-26.24,7.3-39.55,12.23s-21.26,10.2-26.05,15.07a68.77,68.77,0,0,0-2-17,3,3,0,1,0-5.79,1.56c2.68,9.94,1.64,22.67,1.16,27.09a15,15,0,0,0-.22,1.86,1.58,1.58,0,0,1-1,1.37,1.6,1.6,0,0,1-2.18-1.29l-4.14-31.88a7,7,0,0,1,8.24-7.81l4.47.83a3,3,0,0,0,1,0l6.52-1a44.3,44.3,0,0,0,12.8-4.08c13.22-6.56,29.91-15.31,34.34-19.73.61-.61,1.36-1.41,2.22-2.34,5.37-5.76,16-17.18,31.6-21.77,11.82,6.34,18.94,26.54,20.93,32.86C346.94,347.79,332.14,351.92,316.7,356.22Zm64.79-28.29c-2.91,2-6.21,4.34-9.74,6.91a67.88,67.88,0,0,1-7.26,4.55c-2.18-6.77-8.19-22.85-18.37-31.76a48.7,48.7,0,0,1,11.07,0,3,3,0,1,0,.65-6c-29.12-3.16-47.74,16.81-55.7,25.34-.81.87-1.5,1.61-2.08,2.19-2.92,2.92-15.17,9.87-32.76,18.6-1.1.55-2.24,1-3.38,1.46l-32.47-8.51a3,3,0,0,0-1.53,0l-32.1,8.51c-1.15-.44-2.29-.91-3.39-1.46-17.59-8.73-29.84-15.68-32.76-18.6-.57-.57-1.26-1.32-2.08-2.19-8-8.53-26.57-28.5-55.7-25.34a3,3,0,1,0,.65,6,48.84,48.84,0,0,1,10.1-.05c-10,8.67-16,24.27-18.32,31.35a66.5,66.5,0,0,1-6.33-4c-3.53-2.57-6.83-4.87-9.74-6.9C65.14,317.37,58.88,313,60.39,302.55l0-.11c0-.21.06-.43.1-.65,2.33-13.39,31.15-14.46,48.18-13.9h.14c5.07.16,10.61.51,16.46,1,32.19,2.87,48.73,3.78,52.58,4,2.84,1.95,13.19,8.45,29.35,12a99.63,99.63,0,0,0,21.26,2.26c15.3,0,34.14-3.39,55.16-14.22,3.34-.16,19.89-1,52.82-4,5.85-.52,11.38-.87,16.46-1h.14c17-.56,45.85.5,48.18,13.89,0,.23.07.45.1.66l0,.1C402.86,313,396.61,317.37,381.49,327.93ZM455,297l-4.59,7.16a18.42,18.42,0,0,1-15,8.48l-3.08.09a18.36,18.36,0,0,1-12.54-4.43l-3.05-2.61a32.51,32.51,0,0,0-9.85-5.81c-3-12.93-21-19-53.58-18-17-6.17-29.61-11.36-37.39-15.44a15.05,15.05,0,0,1-5.69-5.2c-13.35-20.86-21.48-38.44-27.2-58.77a3,3,0,0,0-5.86,1.18c.33,2.67.6,5.15.81,7.46-3.55-5.37-6.11-14.56-7.39-26.84a196.1,196.1,0,0,1-.89-23.37,59,59,0,0,1,15.88,4.44c11.3,5.09,16,25.71,18,34.52l.32,1.42c2.07,9,14.82,37.23,22.36,49.56a3,3,0,0,0,1,1A368.43,368.43,0,0,0,402,285.52a40.37,40.37,0,0,0,18.2,1.49l6.83-1a14.22,14.22,0,0,1,4.85.11l20,3.92a16.69,16.69,0,0,1-14.58-.18,3,3,0,0,0-2.78,5.32,21.21,21.21,0,0,0,9.95,2.47,25.5,25.5,0,0,0,11.3-2.82A4.52,4.52,0,0,1,455,297Z"/></svg>