<svg xmlns="http://www.w3.org/2000/svg" viewBox="0 0 205.12 205.16"><defs><style>.cls-1{fill:#fdfdfd;}.cls-2{fill:#030303;}</style></defs><title>Asset 1</title><g id="Layer_2" data-name="Layer 2"><g id="Layer_1-2" data-name="Layer 1"><path class="cls-1" d="M109.2,205.4H.41V.24H205.54V205.4H124c.16-.55.63-.36,1-.39a71.92,71.92,0,0,0,9.67-1.43c21.83-4.72,39.39-16.13,52.44-34.18,14.8-20.46,19.58-43.31,14.57-68-4.45-22-16.05-39.63-34.29-52.55C142.43,31.18,115.31,28,86.55,38.12a85.05,85.05,0,0,0-14.36,6.95c-5.4-5.42-10.71-10.76-16-16.08-2.5-2.51-4.11-2.58-7-.57A114.28,114.28,0,0,0,38.51,37c-.33-1-.65-1.76-.89-2.59-2.15-7.34-6.83-12.14-14.22-14.3a13.94,13.94,0,0,1-5.48-2.73c-2.35-2-3.3-4.75-4.13-7.58A17.23,17.23,0,0,0,8.65,1.62a3.8,3.8,0,0,0-5.13,0C2,2.82,1.44,5.17,2.73,6.6c2.57,2.83,3.52,6.34,4.76,9.76a16.35,16.35,0,0,0,2.65,4.43c3.09,4,7.26,6.09,12,7.44a10.75,10.75,0,0,1,7.36,7.27c.81,2.31,1.31,4.76,2.73,6.82.59.86,0,1.33-.47,1.9-1.78,2.33-3.59,4.63-5.31,7-1.94,2.66-1.77,4.32.57,6.68q5.57,5.61,11.17,11.18c1.68,1.67,3.39,3.32,5,4.93-.43.8-.71,1.33-1,1.84a85,85,0,0,0-9.81,60.31C36.15,155,45.48,170.71,59.79,183.5a84.81,84.81,0,0,0,41.33,20.41C103.81,204.42,106.61,204.34,109.2,205.4Z" transform="translate(-0.41 -0.24)"/><path class="cls-2" d="M109.2,205.4c-2.59-1.06-5.39-1-8.08-1.49A84.81,84.81,0,0,1,59.79,183.5C45.48,170.71,36.15,155,32.41,136.15a85,85,0,0,1,9.81-60.31c.29-.52.57-1,1-1.84-1.65-1.61-3.36-3.26-5-4.93Q32.58,63.49,27,57.89c-2.35-2.36-2.51-4-.57-6.68,1.72-2.37,3.54-4.67,5.31-7,.43-.57,1.06-1,.47-1.9-1.42-2.06-1.92-4.51-2.73-6.82a10.75,10.75,0,0,0-7.36-7.27c-4.73-1.35-8.9-3.48-12-7.44A16.35,16.35,0,0,1,7.5,16.36C6.26,12.94,5.31,9.43,2.73,6.6c-1.3-1.43-.68-3.78.79-5a3.8,3.8,0,0,1,5.13,0,17.23,17.23,0,0,1,5.15,8.16c.83,2.83,1.78,5.54,4.13,7.58a13.94,13.94,0,0,0,5.48,2.73c7.39,2.15,12.07,7,14.22,14.3.24.83.56,1.63.89,2.59a114.28,114.28,0,0,1,10.66-8.57c2.89-2,4.49-1.94,7,.57,5.32,5.33,10.63,10.67,16,16.08a85.05,85.05,0,0,1,14.36-6.95c28.76-10.11,55.88-6.93,80.82,10.74,18.24,12.92,29.84,30.59,34.29,52.55,5,24.69.22,47.54-14.57,68-13.05,18.05-30.61,29.47-52.44,34.18A71.92,71.92,0,0,1,125,205c-.36,0-.83-.17-1,.39ZM195.51,119A78.55,78.55,0,0,0,117.2,40.6c-43.14-.17-78.45,35.17-78.45,78.35s35.38,78.62,78.45,78.38A78.57,78.57,0,0,0,195.51,119ZM51.83,36.43a77.37,77.37,0,0,0-17.27,17.3L48,67.12a90,90,0,0,1,17.25-17.3Z" transform="translate(-0.41 -0.24)"/><path class="cls-1" d="M195.51,119a78.57,78.57,0,0,1-78.32,78.37c-43.07.24-78.46-35.24-78.45-78.38S74.06,40.43,117.2,40.6A78.55,78.55,0,0,1,195.51,119Zm-6.66-.85a66.82,66.82,0,0,0-4.55-24.27A72,72,0,0,0,132,48.68a4.15,4.15,0,0,0-5.15,2.91c-.52,2.15.71,4.1,3.07,4.89.5.17,1,.29,1.54.41a64,64,0,0,1,48.61,52.56,65.16,65.16,0,0,1-1.36,26c-.69,2.76.49,4.91,2.83,5.5,2.19.56,4.21-.88,4.92-3.52A69.82,69.82,0,0,0,188.85,118.11Zm-75.72-67a4,4,0,0,0,3.87,4,4.12,4.12,0,0,0,4.13-4,4.19,4.19,0,0,0-4.13-4A4,4,0,0,0,113.13,51.15Z" transform="translate(-0.41 -0.24)"/><path class="cls-1" d="M51.83,36.43,65.21,49.82A90,90,0,0,0,48,67.12L34.56,53.73A77.37,77.37,0,0,1,51.83,36.43Z" transform="translate(-0.41 -0.24)"/><path class="cls-2" d="M188.85,118.11a69.82,69.82,0,0,1-2.39,19.28c-.71,2.64-2.73,4.08-4.92,3.52-2.35-.6-3.52-2.74-2.83-5.5a65.16,65.16,0,0,0,1.36-26A64,64,0,0,0,131.46,56.9c-.52-.12-1-.25-1.54-.41-2.37-.79-3.59-2.74-3.07-4.89A4.15,4.15,0,0,1,132,48.68a72,72,0,0,1,52.3,45.15A66.82,66.82,0,0,1,188.85,118.11Z" transform="translate(-0.41 -0.24)"/><path class="cls-2" d="M113.13,51.15a4,4,0,0,1,3.87-4,4.19,4.19,0,0,1,4.13,4,4.12,4.12,0,0,1-4.13,4A4,4,0,0,1,113.13,51.15Z" transform="translate(-0.41 -0.24)"/></g></g></svg>