<svg id="Layer_1" data-name="Layer 1" xmlns="http://www.w3.org/2000/svg" viewBox="0 0 450 450"><defs><style>.cls-1{fill:#fff;}</style></defs><title>Artboard 1</title><path class="cls-1" d="M1,451V1.11H450.83V451ZM74.2,184.94c-1.18,1.56-2,2.75-2.94,3.88-8.5,10.6-11.78,22.68-7.51,35.59a156.66,156.66,0,0,0,13.18,30.06c30.87,52.57,76.05,84.32,137.46,89.25,59.08,4.74,109-15.39,147.91-60.69a179.84,179.84,0,0,0,30.26-49.16c8.39-20.46,5.05-38-11.67-52.39a127.44,127.44,0,0,0-30-19.43C301.43,139.7,249,136.38,195.8,140.38a278.17,278.17,0,0,0-72.13,15.06c-3.6,1.27-6.71.77-9-2.2a92.06,92.06,0,0,1-7.43-11.16,41.81,41.81,0,0,0-15.67-16.4c-16-9.38-33.47-4.23-42.9,12.68C40,154,45.38,171.72,61.47,179.95,65.29,181.89,69.47,183.11,74.2,184.94Z"/><path d="M74.2,184.94c-4.73-1.83-8.92-3.05-12.73-5C45.38,171.72,40,154,48.7,138.37c9.43-16.91,26.89-22.07,42.9-12.68a41.81,41.81,0,0,1,15.67,16.4,92.06,92.06,0,0,0,7.43,11.16c2.26,3,5.37,3.47,9,2.2a278.17,278.17,0,0,1,72.13-15.06c53.25-4,105.63-.68,155.1,21.67a127.44,127.44,0,0,1,30,19.43c16.73,14.36,20.06,31.92,11.67,52.39A179.84,179.84,0,0,1,362.29,283c-38.94,45.3-88.83,65.44-147.91,60.69C153,338.8,107.79,307.05,76.92,254.48a156.66,156.66,0,0,1-13.18-30.06c-4.27-12.91-1-25,7.51-35.59C72.17,187.69,73,186.51,74.2,184.94Zm43.17,27.74c.39-.83,1.32-1.87,1.09-2.47-1.27-3.4-2.79-6.71-4.28-10-.73-1.64-1.58-3.23-2.38-4.84l1.06-.53,6.71,10.73c-2.48-9.44-6.83-17.26-17.58-18.65l3.35,5.71c-3.8,1.19-3.75,1.15-6.54-2.67a4,4,0,0,0-2.57-1.63c-.61,0-2,1.58-1.86,1.81,1.58,2.79,3.37,5.46,5.53,8.81l.65-4.35c1.55,2.13,2.64,3.56,3.65,5,2.9,4.26,5.69,8.61,8.7,12.79.77,1.07,1.64,4.14,3.73.93Zm242.23,20,.76.68-.64,2c9.65-4.69,19.86-22.11,14.63-30.19l-3.68,2.16,2.43-7-1.13-.62-7.3,8.39-.58-3.42-7.52,8.17-1.1-.86c.79-1.1,1.53-2.23,2.37-3.29,2.8-3.52,5.5-7.13,8.5-10.46s2.13-5.63-.79-8.37c-8.41-7.89-18.28-13.39-28.82-17.66-38.7-15.69-79.26-19.66-120.58-18.71-4.69.11-7,1.54-5.21,6.57.2.56-.26,1.35-.7,3.35-.73-2.15-1.35-3.05-1.27-3.88.51-5.06-2.07-5.88-6.36-5.18s-8.66.69-12.88,1.54c-2,.41-3.81,2.07-5.28,2.92l-5.49-1.68-.86,2.48,10.19,3.86.93-5.59,2.08,5.26L193,160l2.41,5.47.23-5.07c2.67,3.38,1.91,9.06,8.26,9.58l-.95-8.09,1-.13,2.49,8.85,1.41-.35L207,162l.85-.15,1.68,4.59,16.32,2.32,2.25-3.21,3,4.25,1.44-6.19a17.43,17.43,0,0,1,1,2.95c.27,4.92.81,5.19,5,2.93,1.56-.84,3.74-2.17,5-1.67a16.46,16.46,0,0,0,11.91.66c.58-.19,1.87,1.06,2.51,1.9,2,2.57,7.34,3.88,10.42,2.29l.32,3.32,2.17-5.07.89.29-.47,4.35c3.33,1.87,6.11,3.55,9,5,3.45,1.75,6.87,4.09,10.54,4.7,3.2.53,6.74-1,11.13-1.81l1.86-3.28.52,5.83,2.56-4.71.74.25-1,6.22,1.37.5,8.53-14.2,1.09.64-8.08,15,8.58-1.85-2.48,6,1.45-.54c1.75,2.26,3.18,4.91,5.35,6.63,1.55,1.24,4.09,1.24,6.19,1.79l.55.45,9.25,3.13,3-4.77,1.72,9.2c4.34,2.88,4.26,2.84,6.88-2.41a67,67,0,0,1,3.85-6.07c0,4,.14,7.61-1.13,10.66-2.68,6.39-3,6.26,2.94,9.24l8.2-9.73,1.73,1.11c-1.55,2.57-3.08,5.15-4.65,7.71-1.7,2.77-3.42,5.53-5.13,8.29l.83.62,9.08-11.74,1.12.92c-2.5,3.47-5.13,6.85-7.41,10.45C359,229.73,359.55,231.36,359.6,232.66ZM241,211a9.81,9.81,0,0,0,10.22.81c1.09,1.79,2.18,5.12,3.26,5.12,5,0,7.58,3.25,10.41,6.41.21.24,1.11-.15,1.79-.25-2.8-5.59-12.59-13.77-17.73-15-1.38-1.4-2.57-3.09-4.17-4.15-14.26-9.53-28.59-18.95-42.89-28.4-13.65-9-28-12.28-44.08-6.77-18.35,6.27-47.8-5-55-24a26.3,26.3,0,0,0-6-8.5c-7.23-7.37-15.86-12-26.45-9.53-10.81,2.54-16.55,10.65-19.61,20.74s1.2,21,8.61,24.1c1.46-6,2.41-12.33,4.58-18.15,1.78-4.77,4.39-9-.25-13.41-.46-.44-.34-1.48-.6-2.85l5.28,5.91.87-.63-.5-4c6.27,6.8,12.51,4.69,19.15,2.36l-9.82,9.53c9.65,1.93,11-4.9,14.26-9.39,4.19,1.74,3.06,4.31.86,7-3.09,3.81-7.13,5.16-12,4.89-1.57-.09-3.19.56-4.78.87l.42,1.61c8.4,4.32,15.53,2.91,21-5.87-1.15,7.3-7.69,11-15.62,9.59-8.3-1.44-8.3-1.44-10.18,6.87-.22,1-.5,1.94-.69,2.92-1.92,10-.93,11.5,9.1,10.15,15-2,27.79,2.43,39.81,11,8.56,6.11,14.27,13.66,14.2,24.38-.07,12.36,6.91,19.65,16.85,25,8.07,4.31,16.28,8.36,24.48,12.42a13.34,13.34,0,0,0,3.7.65l.58-1.5c-1.24-.86-2.44-1.79-3.74-2.56-4.28-2.56-8.63-5-12.88-7.64-1-.6-3.26-1.79.12-2.42,2.64,1.58,5.19,3.34,7.94,4.67a30.21,30.21,0,0,0,5.68,1.53c3.89,1.44,7.71,3.2,11.72,4.14,1.48.34,3.41-1.26,6.18-2.42-2.94-2-4.63-3-6.18-4.24-11.28-8.75-22.8-17.21-33.72-26.39-10.66-9-5.54-32.24,7.16-37.54,11.51-4.8,22.68-4.88,33.55,1.29a220.76,220.76,0,0,1,19.41,12.23c8.75,6.24,17.15,13,25.69,19.5l-14.94-8.91c2.36,7.3,9.57,6.37,13.47,10A13.93,13.93,0,0,0,241,211ZM95.86,240.94l-6.55-5.67c-1.4-1.86-2.83-3.7-4.21-5.57-7.38-10.06-9.23-20.77-4.06-32.45.78-1.77.71-3.93,1-5.91L80.74,191l-4.44,5.43-1.09-.82,5-7.29c-11.67,8.11-15.71,25.09-9.7,38.17,4.83,10.52,13,18,22.5,24.18,16.39,10.64,34.48,17.25,53.23,22.25,38.28,10.2,77.2,12.3,116.47,8.61,27.95-2.62,55.39-7.86,81.31-19.21,14.9-6.53,29.1-14.17,39.45-27.28,10.88-13.78,11-28.78.08-42.54a71.82,71.82,0,0,0-11.62-11.6c-14.61-11.52-31.53-18.6-49.2-23.76-51.12-14.92-102.94-16.46-155.28-7.53-12.9,2.2-25.24,5.62-37.42,12.59a31.26,31.26,0,0,0,4.62-.63c25.89-8.23,52.5-12.07,79.57-13.13,37.89-1.49,75.22,1.83,111.47,13.57,15.78,5.11,30.84,11.83,43.09,23.47,16.41,15.59,16.46,33.94.27,49.74-1.31,1.28-2.7,2.48-4.13,3.63-13.46,10.89-29.13,17.36-45.48,22.22-24.07,7.15-48.8,10.2-73.83,11.39a336.3,336.3,0,0,1-93.24-8.11c-10.49-2.46-20.71-6.12-31-9.23L119,254ZM310.07,199l-1.26-1.42.76-4.82L306,191.22l.28,1.29-7.91,4.18c.92-3.41,2.43-6.68,1.81-7.15-1.87-1.42-4.56-1.74-6.93-2.49l-.52,1.55,3.52,2.42-5.34,11.1L286,198.68l3.74-.84-5.09-2.75,4.32-3.71c-4.14-5.75-6.11-6.65-9.71-4.6l-.38.42-8.93-2.65c-2.69.6-6.94,1.86-3.3,8-5.15-4.8-5.14-4.89.52-11.87l-6.71-5.91v4.35l-8.37,5.23-.42-5.18c-3.14,1-4.37-.12-4.78-3.14-.23-1.7-1.45-4.11-2.8-4.6s-3.63.78-5.88,1.4c6.08,8,6.29,10.15,2.33,18.48-6.93-2.89-5.29-9.55-5.52-14.49l-7,4.11c-3-4.54-4.08-9.64-10.42-11.2l1.85,3.32-6.27,3.43c20.21,14.11,41.34,25.73,58.56,42.73,6-2.36,8.34-1.71,9,1.34L273,224.32l4.36,6.57c-5.27,1.24-8.3-6.6-14-3l.56,4.5c-7.77-1.49-.73-9.34-5.73-11.94l-1.57,4.69c-5.45-6.88-10.66-13.63-20.32-5.6.78-10-5.75-7.73-11-7.19.45-5.4-.35-6.75-4.33-7.87a14,14,0,0,1,1.18,3.06,40,40,0,0,1,.15,4.8c-1.95-.64-4.24-.86-5.71-2.07-.79-.65-.56-3.11-.14-4.56,1.23-4.14-1.17-6.28-4.36-7-1.7-.4-3.9,1.3-6.73,2.37-1.87-1.81-2.93-8.41-9.39-5.08l3.34,7.51-1.35.71-4.55-3.58-.8,10.21-1.17.76c-1.39-1.5-3.7-2.84-4-4.52-.45-2.75.41-5.73.72-8.61l1.45.1c-2.17-5.56-2.17-5.56-8.89-1.15-5.08-3.17-6.64-3-9.89,2,3.16.47,6.26.31,8.75,1.46,3.08,1.41,3.14,4.46,1.79,8.42l-4.68-6.88-1.94,7.45c-1.63-2.37-1.81-5.07-3.17-6.86-1.9-2.5-4.52-1.76-6-.67.83,3.41,2.8,7.06,1.78,8.33-1.59,2-5.19,2.41-8.74,3.81l8,8.43,3.9-8.78,5.58,4.24c-.59-4.72,1.55-7.38,6-7.18,2.8.13,4.66,2,4,5.87-1.48-.85-2.57-2-3.67-2s-3.11,1.28-3,1.7c.57,3.16,1.55,6.24,2.48,9.6,2-2.33,3.42-5,4.44-4.83a7.41,7.41,0,0,1,4.89,3.44c.83,1.54.18,3.89.18,5.88l-1.43.09-2.25-5.82-.95.16-1.35,7.27-5.81-3.13c.48,3.63,7.17,8.87,15,12.22l17-9.87,2,6.35c2.18-5.51,6.44-5.08,10-4,1.67.49,2.6,3.49,3.44,4.72l-9.2,4.21-10.75-5-1.25,4.52-5.35-.68c-.16,1.32-.76,2.77-.41,3.94.9,3,2.22,5.91,3.36,8.85L202,255.92l-8.88-4.71c-4.56,1-.43,5.45-.72,9.28-3.52-2.7-5.16-8.52-10.37-5.55l7.23,7.5-.85,1.11H185l-.06.95,15.77,2c-4.24-6.2-.33-7.56,3.19-8.89,3-1.14,4.29-.3,5.63,3.46l-4.52-.64-1.36,6.22,11.75.76,2.13-4.55c1.13.77,2.26,1.55,3.4,2.31,1.32.87,2.64,2.43,4,2.46,8.59.23,17.19.12,25.79.12l-1-1.67,2.91-8.35,5.06,3.16-3,5.92,11.88-1.26-1.26-3.21L266,261c2.09.78,4.18,1.56,6.27,2.35,1,.38,2.07,1.28,2.95,1.11,15.63-2.95,31.23-6,46.84-9.07l-1-1.36a58.31,58.31,0,0,1,1.9-6.5c.18-.44,2.49-.59,2.56-.41a51.42,51.42,0,0,1,1.46,5.7c4.13-1.71,8.48-3.65,12.95-5.3,3-1.09,4.26-2.82,3.74-6-.33-2-.38-3.4,2.75-3.91,2.93-.47,5.52-3,9-5.09l-9.76-4.05,8-3.26-.07-1.73c-1.86-.32-4-1.41-5.53-.81-4.29,1.71-6.18-.39-8-4.08l5.5-3.57c-3.43-2-6.57-1.27-7.27,2-.76,3.52-1.1,7.13-1.64,10.76-7.34-2-9.29-6.47-5.54-11.71.17-.24.53-.65.49-.69-3.95-4.11,1.61-5.18,3.29-8.85-2.73.72-5.28.63-6.06,1.76-1.4,2-1.73,4.79-2.67,7.76l-6.56-5.3a9.82,9.82,0,0,0,2.2-1c1-1,1.93-2.15,2.88-3.24a26.27,26.27,0,0,0-3.93-.75,45.4,45.4,0,0,0-5.21.41c1-1.55,1.55-2,1.68-2.61.39-1.72.61-3.48.9-5.23-1.66.06-3.32.08-5,.21C312.17,198.61,311.12,198.86,310.07,199ZM78.31,246.28c18.54,37.81,55.24,70.26,94.43,83.52,7.56,2.56,14.85,6,23.71,4.7,6.55-1,13.59,1.26,20.41,2.07l0,.63-4.81,1.4c37.07,3.1,71-3.57,102.68-21.74l-2-1.35c3.29-1.16,6.83-1.72,9.57-3.51a152.23,152.23,0,0,0,37.22-33.79c7.6-9.75,14.35-20.16,21.49-30.28l-1.18-.95c-16,14-34.92,22.43-55,28.19-56.18,16.1-113,17.4-170,5.34C127.38,274.73,101.17,265.81,78.31,246.28Zm48.8-4.17-2.88,5.36c-2.29-4.18-.45-7.69,1.91-8.19,6.82-1.46,4.17-6.7,4.84-10.7l-3.45,5.52-3.65-8-1.65.51,1.07,10.85-1.17-.56-5.82,7.54c-2-1.65-5.35-7.1-5.95-10.83L103,236.28c1.53,1.72,2.76,3.93,4.63,5.07,13.76,8.41,28.95,13.29,44.44,17.29,5,1.3,10.15,2.13,15.23,3.18l1-1.8c-1.69-1.4-3.41-4-5.07-4-4.79.1-5.58-2.71-5.67-6.55-4.81,3.51-5.1,3.38-7-1.8a8.52,8.52,0,0,0-2.15-3.77c-3.35-2.63-6.94-5-10.39-7.38l-6,3.92,1.61,5.13-1,.75Zm94.45-41.21,1.06-2.17c-10.91-6-21.62-12.35-32.83-17.67-4.07-1.93-9.45-2.15-14.08-1.66-15,1.57-22.2,9.81-21.17,23.55-.55-6.71,5.2-8.25,9.65-12.5l-2,8.2c5.85-11.18,5.85-11.18,8.4-12.07l-5,10.6,1.54.78c1.71-6,4.48-11.07,11-13.31,1.78,7.57,6.65,3.83,10.12,2.86l3,7.31c5.55-4.28,7.46-4.26,13.89-.48.93.54,2.26.34,3.32.72,2.86,1,5.71,2.11,8.5,3.33A49.77,49.77,0,0,1,221.56,200.9ZM107.79,213.2l-16.34-22.1c-3,7.58,4.78,9.66,5.25,14.86l-3.52-.72c4.95,4.9,6.78,11.3,12.71,14.54,2,1.08,3,3.67,5.52,1.23,2.08-2,3.36-4.17.9-6.86-1.44-1.58-2.74-3.28-4.3-5.17Zm-40-36.41c1.49-11,3.07-21.9,10.3-31.15l-6.28-1.86c-.11,1.22.15,2.45-.33,2.89-7.25,6.62-7.4,15.81-8.91,24.47C62,174.59,64,176.3,67.79,176.79ZM103.36,231l1-1L92,212.82l1.2-.89,11.94,15.21,1-.82-19.5-26.2c-3.13,4-3.37,7.25-.73,10.61,4.63,5.89,9.25,11.8,14,17.61A19.49,19.49,0,0,0,103.36,231Zm13.26,6.07,4.2-1.65c-.54-3.24-.71-5.88-1.51-8.31a5,5,0,0,0-3-2.89c-4.75-1.17-6.67.41-7.47,6h7.8ZM85.15,218.57a32.14,32.14,0,0,0,14.11,16.11C98,226.68,91.82,222.83,85.15,218.57Zm83.22,34.19-.59.95,3.49,8.94,6.15.86,1-1.73Z"/><path class="cls-1" d="M78.31,246.28c22.86,19.53,49.07,28.45,76.49,34.25,57.07,12.06,113.83,10.76,170-5.34,20.1-5.76,39-14.18,55-28.19l1.18.95c-7.13,10.12-13.88,20.53-21.49,30.28A152.23,152.23,0,0,1,322.33,312c-2.74,1.79-6.28,2.34-9.57,3.51l2,1.35C283.06,335,249.16,341.71,212.1,338.61l4.81-1.4,0-.63c-6.82-.81-13.86-3.07-20.41-2.07-8.86,1.34-16.15-2.14-23.71-4.7C133.56,316.54,96.85,284.1,78.31,246.28Zm91.47,55.91c3.77,5.85,8,11.06,15.62,13.46l-15.13-13.91c-2.68-4-5-8.27-8.17-11.89a16.22,16.22,0,0,0-7.41-4.5c-3.2-.94-4.77.56-5.69,4,5.6-2.92,8.24-2.37,12.63,2.82C164.43,295.43,167.08,298.84,169.79,302.2ZM328.94,295l-9,3.86c7.44.92,13.27-.4,18.49-5.83H335l9.87-5-.43-1H342l11.8-7.61-.93-1.79c-24.4,10.93-50.49,14.72-76.56,18.88a245.72,245.72,0,0,0,29.62-3c12.09-2,24.11-4.35,36.16-6.56l-35.35,12,0,.26Zm-137.78,34-35.09-10.8L154.52,320c1.9,1,3.63,2,5.39,2.88a78.16,78.16,0,0,0,32.36,8.9c3.44.18,6.83,1.1,10.25,1.69l.24-1.32L191.05,329l12.56,1,.1-1.36L186.52,326l-.2,1ZM93.57,259.19c-.4,2.05-.65,2.56-.54,3a8.07,8.07,0,0,0,1,2.8c4.76,6.65,9.2,13.59,14.53,19.76,4.81,5.58,10.58,10.35,16,15.41,1.94,1.81,4,3.44,6.88,5.83a11.36,11.36,0,0,0-.39-2.35,8.85,8.85,0,0,0-1.25-1.54c-10.22-9.66-19.69-19.9-25.81-32.79a2.73,2.73,0,0,0-2-1c-2.15-.12-4.41.45-5.28-2.56C96.12,263.94,95,262.27,93.57,259.19Zm216,54.06-.08-1.71c-2,.28-4.14.1-5.86.9-7.12,3.3-13.9,7.43-21.2,10.22-6.73,2.57-14,3.81-21.57,5.8C270.09,329.65,301.43,319.67,309.61,313.25ZM292,286.66a162.54,162.54,0,0,0,65.56-18.38A280.32,280.32,0,0,1,292,286.66Zm60.53-13a211.38,211.38,0,0,1-53.63,15.14C317.89,287.79,336,283.41,352.51,273.7ZM249,334.83a91.55,91.55,0,0,0,49.32-13.11C282.58,328.56,266.28,333.39,249,334.83Zm-131.3-47.57,2.7-4.13,2.9,2.21.62-.53-6.82-12.32-.73,3.12-2.9-3.48-1.19.6Zm65.06,10c3.14,6.88,15,9.29,19.63,4.49,3.72-3.85,3.12-8.3-.3-10.11-.4,2.76.29,7.34-1.52,8.77C194.4,305.36,188.6,301.13,182.8,297.31Zm-1.33,22.43.67-1.61-30.47-12.58-.6,1.45Zm4.26,5.49.55-1.69L154.63,311.9l-.53,1.45Zm92.91-24,0,1.38a26.35,26.35,0,0,1,5.35-.29c4.86.7,9.82,1.24,14.46,2.71,3.43,1.09,5.12,3.74,1,7.11,1.73-.37,4.11-1.05,4.11-1.74,0-1.76-.54-4.09-1.77-5.19C294.92,298.93,286.65,300.69,278.64,301.22Zm40.17,2.4c2.22,5.05,2.22,5.05,14.51-3Zm-65.53,20.53-14.73-15.73C239.05,314.44,247.11,323.39,253.28,324.15Zm-18.4-29.43c-3.24,5.49-1.17,17.22,3.19,20Zm42-4.81-15.47,3.86C266.61,295.62,272.12,294.33,276.9,289.9Zm7.27,25.49-.29-1.35-21.56,4.56.26,1.23ZM145.77,283.33c-4.94,1.79-7.32,8.54-4.77,12.28ZM263.95,306l-11.75-7.29C252.83,303.56,258.52,307,263.95,306Zm-116.06-10.3c6.14-5.69,9.66-.87,13.63,2.62-.85-3.77-3.19-6-6.91-6.47C151.87,291.53,149,291.61,147.88,295.71ZM137,292.26l4.42-12.34C137.31,283.11,135.39,287.06,137,292.26Zm230.25-32.2-1-1.35-13.16,7.66.84,1.44ZM206,315c5.45-.5,10.69-6.42,10-11.09Zm64.32-1.74.33,1.31,17-4.39-.31-1.25ZM142.8,311.42l.9-.95-12-11.31Z"/><path class="cls-1" d="M279.22,186.76c3.59-2.05,5.57-1.16,9.71,4.6l-4.32,3.71,5.09,2.75-3.74.84,4.94,3.44,5.34-11.1-3.52-2.42.52-1.55c2.37.75,5.06,1.08,6.93,2.49.62.47-.89,3.74-1.81,7.15l7.91-4.18-.28-1.29,3.58,1.59-.76,4.82a23.19,23.19,0,0,0-3.25.53c-1.49.46-3.54.73-4.18,1.8s.51,2.83.8,4.09l-6,5,1,1.24,5.47-3.33,3,7,1.45.15.38-10.48,6.75,4L310.07,199c1.05-.18,2.1-.43,3.15-.51,1.65-.13,3.31-.14,5-.21-.29,1.75-.52,3.5-.9,5.23-.13.58-.66,1.06-1.68,2.61a45.4,45.4,0,0,1,5.21-.41,26.27,26.27,0,0,1,3.93.75c-1,1.09-1.87,2.2-2.88,3.24a9.82,9.82,0,0,1-2.2,1l6.56,5.3c.94-3,1.27-5.73,2.67-7.76.78-1.13,3.33-1,6.06-1.76-1.68,3.67-7.23,4.74-3.29,8.85,0,0-.32.45-.49.69-3.74,5.23-1.79,9.73,5.54,11.71.53-3.63.88-7.24,1.64-10.76.7-3.24,3.85-4,7.27-2l-5.5,3.57c1.77,3.68,3.66,5.79,8,4.08,1.5-.6,3.66.49,5.53.81l.07,1.73-8,3.26,9.76,4.05c-3.52,2.09-6.12,4.62-9,5.09-3.13.5-3.08,1.87-2.75,3.91.52,3.19-.78,4.92-3.74,6-4.46,1.65-8.82,3.6-12.95,5.3a51.42,51.42,0,0,0-1.46-5.7c-.07-.18-2.38,0-2.56.41a58.31,58.31,0,0,0-1.9,6.5l1,1.36c-15.61,3-31.21,6.12-46.84,9.07-.88.17-2-.73-2.95-1.11-2.09-.79-4.18-1.57-6.27-2.35l-.67,1.31,1.26,3.21-11.88,1.26,3-5.92-5.06-3.16-2.91,8.35,1,1.67c-8.6,0-17.2.11-25.79-.12-1.35,0-2.67-1.59-4-2.46-1.14-.76-2.27-1.54-3.4-2.31l-2.13,4.55-11.75-.76,1.36-6.22,4.52.64c-1.34-3.76-2.62-4.6-5.63-3.46-3.52,1.33-7.43,2.69-3.19,8.89l-15.77-2,.06-.95h3.4l.85-1.11-7.23-7.5c5.21-3,6.85,2.85,10.37,5.55.29-3.83-3.84-8.33.72-9.28l8.88,4.71,1.49-1.28c-1.15-2.94-2.47-5.83-3.36-8.85-.35-1.17.24-2.62.41-3.94l5.35.68,1.25-4.52,10.75,5,9.2-4.21c-.83-1.22-1.77-4.22-3.44-4.72-3.59-1.06-7.85-1.49-10,4l-2-6.35-17,9.87c-7.8-3.34-14.49-8.58-15-12.22l5.81,3.13,1.35-7.27.95-.16,2.25,5.82,1.43-.09c0-2,.65-4.34-.18-5.88a7.41,7.41,0,0,0-4.89-3.44c-1-.13-2.39,2.49-4.44,4.83-.92-3.36-1.91-6.44-2.48-9.6-.08-.42,2-1.71,3-1.7s2.19,1.12,3.67,2c.71-3.85-1.15-5.74-4-5.87-4.45-.21-6.6,2.46-6,7.18L170.59,214l-3.9,8.78-8-8.43c3.55-1.4,7.15-1.81,8.74-3.81,1-1.28-1-4.92-1.78-8.33,1.46-1.09,4.08-1.83,6,.67,1.36,1.8,1.54,4.5,3.17,6.86l1.94-7.45,4.68,6.88c1.35-4,1.29-7-1.79-8.42-2.5-1.15-5.59-1-8.75-1.46,3.25-4.94,4.81-5.16,9.89-2,6.72-4.42,6.72-4.42,8.89,1.15l-1.45-.1c-.31,2.88-1.17,5.85-.72,8.61.28,1.68,2.58,3,4,4.52l1.17-.76.8-10.21,4.55,3.58,1.35-.71L196,195.93c6.46-3.34,7.52,3.27,9.39,5.08,2.83-1.08,5-2.77,6.73-2.37,3.19.75,5.58,2.9,4.36,7-.43,1.45-.66,3.91.14,4.56,1.47,1.21,3.76,1.44,5.71,2.07a40,40,0,0,0-.15-4.8,14.33,14.33,0,0,0-1.18-3.06c4,1.12,4.77,2.48,4.32,7.87,5.27-.54,11.81-2.8,11,7.19,9.66-8,14.87-1.28,20.32,5.6l1.57-4.69c5,2.6-2,10.45,5.73,11.94l-.56-4.5c5.71-3.57,8.73,4.28,14,3L273,224.32l7.69-3.78c-.63-3.05-2.95-3.7-9-1.34-17.21-17-38.34-28.62-58.56-42.73l6.27-3.43-1.85-3.32c6.34,1.56,7.47,6.66,10.42,11.2l7-4.11c.23,4.94-1.41,11.59,5.52,14.49,4-8.33,3.75-10.47-2.33-18.48,2.25-.62,4.4-1.93,5.88-1.4s2.57,2.89,2.8,4.6c.41,3,1.64,4.12,4.78,3.14l.42,5.18,8.37-5.23v-4.35l6.71,5.91c-5.66,7-5.67,7.08-.52,11.87-3.64-6.15.6-7.4,3.3-8l8.93,2.65-1.53,5.49,8.28-1.21.11-1.71Zm-49.65,63.69,1.92,1.22,1.29,7c2.83-2.88,5.55-3,7.85,1,.27.47,2.06.06,4.86.06-1.87-2.8-3.1-4.62-4.3-6.45s-3.59-4-3.16-5.18c1.25-3.57,3.66-.57,5.63-.14.24.05.56-.26,1.16-.57-.33-3-1.95-5.58-4.91-4.26C236.12,244.84,233,248,229.57,250.45Zm-10.77,4.3c1.09-3.3-.85-5.87-4.35-6.28-3.27-.39-6.14,1.23-7.64,6.08l6.71-3.47,2.68,8.73,8.47-2,2.71,3.39,1.54-.54c-.52-1.83-.58-4.84-1.64-5.25C224.92,254.48,222.07,254.9,218.8,254.75Zm95.89-10.9c-2.92.95-5.49,1.27-7.36,2.58-1.08.76-1,3.13-1.47,4.77,1.57,0,3.5.65,4.63,0a33.82,33.82,0,0,0,7.07-5.87c.69-.74.57-3.59.06-3.83-2.4-1.1-5.18-2.47-7.58-2.11-2.08.31-3.83,2.81-5.72,4.34C308.39,245.15,310.65,239.62,314.69,243.85ZM265.8,200.58l8.58.39L271,196.5c5-2.05,4,2.07,5,4.55l7.71-1.56.38-2.57c-3.7-1.66-7.29-4.38-11.11-4.73C267.59,191.69,267.73,197.44,265.8,200.58ZM235.71,235c.52-4.2,1.06-8.34-4.2-9.23a6.37,6.37,0,0,0-7.44,4.07c1.85,1.21,3.86,1.84,4.71,3.2C230.64,236,232.71,236.72,235.71,235Zm23.38,22.3,1.84-.11c1.28-2.44,3.43-4.86,3.5-7.33,0-1.47-3.13-4.07-5-4.21-1.4-.11-4.44,3.08-4.26,4.49C255.48,252.64,257.68,254.91,259.09,257.28Zm-8.17-60.23,6.29,4.29c.72-3.66,2.05-6.55,1.44-8.95-.32-1.24-4.17-2.37-6.25-2.12-1.72.2-3.2,2.5-4.78,3.87l1,1,5.46-2.81.52.88Zm30.22,44.22,6.71,2.55c2.55-4.14-1.15-4.88-3.42-6.88l5.43,1.21c0-3.55-1.55-4.88-4.52-4.58C281.61,233.95,280.37,236.56,281.14,241.27Zm32.66-27.61-.54,1.39,3.58,2.88-4.3,5.29.56,1.7c2.1-.29,5.57,0,6-1a12.37,12.37,0,0,0,.63-8.14C319.39,214.57,315.89,214.33,313.81,213.66Zm13.55,21.14,5.73,6,6.2-3.88-.61,5.36c4-3,4.53-6.79,1.46-7.34C336.29,234.27,332.22,234.79,327.35,234.79ZM316.8,230.9c.72,2,1.29,5.71,2.22,5.81,4,.4,1.8-3.2,2.63-5,1.91-4-.81-4.53-3.09-4.72-2.94-.25-5,1.23-4.44,5.21Zm-19.48-9.58,1-1.54c-1.42-1.73-2.54-4.29-4.36-5-1.64-.6-4.66.3-5.91,1.62s-.74,3.9-1,5.94l1.58,1.25C289.74,214.55,293.76,219,297.32,221.32ZM202.18,236c-.88-7.36,2.83-8.67,8.29-8.33-2.27-3.75-4.5-4.64-7.63-2.56C198.76,227.87,198.32,230.26,202.18,236Zm45.24.51-.83,6.37c4-.9,4.92-4.07,3.61-6s-4.58-2.29-7.11-2.73c-.46-.08-1.45,2.86-2.6,5.25Zm27.1,12.29c-7.82,5.18-8,5.93-3.09,9l5.72-6.18Zm24-.88,2.37-.09c-4.17-6.58.93-6.54,5.42-8.06-2.08-1.32-3.83-3-4.33-2.65-2.27,1.44-4.77,3.12-6,5.37C295.46,243.59,297.62,246.11,298.54,248Zm-89.42-46.72c-1.8,2-3.47,4-5.24,5.91-1.91,2-3.19,4.07-.44,7.2.9-4.37,2.57-6.83,7.23-3Zm68.82,10.4,4.8-.64.11-2.12c-2.44-.11-4.93-.52-7.29-.14-.78.12-2,3-1.72,3.35a38.83,38.83,0,0,0,5.42,4.23l1-1.21Zm-10.61,31,1.4.52c.75-1.46,2.22-3,2-4.34-.16-1.06-2.37-2.63-3.59-2.57-3.22.16-6.28,1.25-7.31,5.94l6.92-3.4Zm-45.57-24.38c-2.42-2.78-5.17-3.23-7-.93-2.11,2.64-1.77,5.86,1.18,9.58C216.33,222.24,216,218.09,221.76,218.23Zm76.7,34.16c-1.45.78-2.63,1.11-3.38,1.86-2.58,2.61-1.94,6.36.6,5.63,2.11-.61,3.56-3.49,5.55-5.64ZM311.75,228c-1.82-1.7-3-3.59-4.5-4-2.75-.78-5,1.36-5.53,4Zm-26.49,22.3,2.85,3.11,1.44-.62-2.05-5.73-7.69,3.31.71,1.57Zm-41-19.89,1.18-.23,2.93-8.6c-2.23.86-4.7,1.28-4.77,1.95C243.39,225.77,244,228.1,244.29,230.4Zm-51,2.33-2.45.35c0,1.77-.4,3.69.2,5.22.23.59,2.74.28,4.21.38Z"/><path class="cls-1" d="M121.33,255.12c10.34,3.11,20.55,6.77,31,9.23a336.3,336.3,0,0,0,93.24,8.11c25-1.19,49.76-4.24,73.83-11.39,16.36-4.86,32-11.33,45.48-22.22,1.42-1.15,2.82-2.35,4.13-3.63,16.19-15.8,16.14-34.15-.27-49.74-12.25-11.64-27.31-18.36-43.09-23.47-36.25-11.74-73.58-15.06-111.47-13.57-27.07,1.06-53.68,4.91-79.57,13.13a31.26,31.26,0,0,1-4.62.63c12.18-7,24.52-10.39,37.42-12.59,52.35-8.92,104.16-7.38,155.28,7.53,17.67,5.15,34.58,12.24,49.2,23.76a71.82,71.82,0,0,1,11.62,11.6c10.94,13.75,10.8,28.76-.08,42.54-10.35,13.11-24.55,20.76-39.45,27.28-25.92,11.35-53.36,16.59-81.31,19.21-39.27,3.68-78.19,1.59-116.47-8.61-18.75-5-36.85-11.61-53.23-22.25-9.5-6.17-17.67-13.67-22.5-24.18-6-13.07-2-30.05,9.7-38.17l-5,7.29,1.09.82L80.74,191l1.33.35c-.32,2-.25,4.13-1,5.91-5.16,11.68-3.32,22.4,4.06,32.45,1.38,1.88,2.8,3.72,4.19,5.56l-8-7.51c3.26,7.56,12.22,15.9,17.64,16.58l-3-3.39L119,254l-22.5-5.42c6.23,3.2,12.8,6.15,19.36,9.14,1.61.73,3.13,1.66,4.76,2.38,4.69,2.06,9.37,4.17,14.16,6,.83.31,2.2-.79,3.31-1.24-4.21-1-8.43,1.14-10.74-4.53C126.61,258.49,122.05,258.52,121.33,255.12Zm211.82,8.68-63.6,12.77C291.19,274.39,312.67,271.47,333.15,263.79ZM303,267.69c10.41-.47,36.5-9.2,40.41-13.27Z"/><path class="cls-1" d="M163.64,238.29c-3.38.63-1.09,1.82-.12,2.42,4.25,2.62,8.6,5.08,12.88,7.64,1.29.77,2.49,1.7,3.74,2.56l-.58,1.5a13.34,13.34,0,0,1-3.7-.65c-8.2-4.06-16.41-8.1-24.48-12.42-9.94-5.32-16.92-12.6-16.85-25,.06-10.72-5.64-18.27-14.2-24.38-12-8.58-24.82-13-39.81-11-10,1.35-11-.14-9.1-10.15.19-1,.47-1.94.69-2.92,1.88-8.3,1.88-8.3,10.18-6.87,7.92,1.37,14.46-2.29,15.62-9.59-5.49,8.78-12.61,10.19-21,5.87l-.42-1.61c1.6-.31,3.21-1,4.78-.87,4.82.28,8.86-1.07,12-4.89,2.2-2.71,3.33-5.28-.86-7-3.26,4.48-4.61,11.31-14.26,9.39l9.82-9.53c-6.64,2.33-12.88,4.44-19.15-2.36l.5,4-.87.63-5.28-5.91c.27,1.37.15,2.41.6,2.85,4.64,4.46,2,8.65.25,13.41-2.18,5.82-3.12,12.11-4.58,18.15-7.41-3.12-11.64-14.13-8.61-24.1s8.8-18.21,19.61-20.74c10.59-2.49,19.23,2.16,26.45,9.53a26.3,26.3,0,0,1,6,8.5c7.23,19,36.68,30.27,55,24,16.13-5.51,30.43-2.25,44.08,6.77,14.31,9.45,28.64,18.87,42.89,28.4,1.6,1.07,2.79,2.75,4.17,4.15l2.27,3.68A9.81,9.81,0,0,1,241,211l.06.07c-8.55-6.52-16.95-13.25-25.7-19.5A220.76,220.76,0,0,0,196,179.33c-10.88-6.17-22-6.09-33.55-1.29-12.7,5.3-17.82,28.57-7.16,37.54,10.92,9.18,22.44,17.65,33.72,26.39,1.55,1.2,3.24,2.23,6.18,4.24-2.77,1.16-4.71,2.77-6.18,2.42-4-.94-7.83-2.7-11.72-4.14L171.92,240l2.51-.2c-6.15-4.85-11.74-9.37-17.46-13.72-3-2.3-6.92-3.76-9.28-6.56-2.59-3.07-3.87-7.24-5.81-11.11-.54,5.19,1.69,9.45,4.92,13,3.49,3.85,7.58,7.17,11.41,10.71l-3.28-.79-.27.7Zm-53.12-58.94,7,3.4c-5.87-5.13-12.29-8.93-20.27-9.16L102,176l-4.31.26,15.28,7.54.42-.66Zm27.86,36.51c0,8.54,7.47,21.32,15.95,20.71C149.68,229.07,139.63,225.88,138.38,215.86Zm-79.95-47.1,3-14.37C54.77,154.5,53.69,159.56,58.43,168.76Zm53.08,4.34c-7.55-6.22-16.88-4.28-25-7l-.38,1.45Zm33.84,29.81,1.12-.56-8.79-22.26C136.13,189.07,143.51,195.13,145.35,202.91Zm-8.73,1.77c1-6.44-.65-9.8-7.12-13.58ZM75,139.2c4.48,1.37,7.25,1.22,9.09-2.09,1.42-2.57.2-5.3-2.76-6.78C83.62,137,83.62,137,75,139.2Zm-21.79,14,1.86-4.67c-4.76,3.33-4.8,3.89-1.27,11.9C53.41,158.25,57.38,155.9,53.23,153.2Zm177.94,44-.77,1,13.25,9.89,1-1.39Z"/><path class="cls-1" d="M328.71,201.76c-2.1-.55-4.64-.56-6.19-1.79-2.17-1.73-3.6-4.38-5.35-6.63l-1.45.54,2.48-6-8.58,1.85,8.08-15-1.09-.64-8.53,14.2-1.37-.5,1-6.22-.74-.25L304.39,186l-.52-5.83L302,183.48c-4.39.8-7.93,2.34-11.13,1.81-3.68-.61-7.09-3-10.54-4.7-2.89-1.46-5.68-3.15-9-5l.47-4.35-.89-.29L268.75,176l-.32-3.32c-3.07,1.59-8.45.28-10.42-2.29-.64-.83-1.93-2.09-2.51-1.9a16.46,16.46,0,0,1-11.91-.66c-1.25-.5-3.42.83-5,1.67-4.23,2.26-4.77,2-5-2.93a17.43,17.43,0,0,0-1-2.95l-1.44,6.19-3-4.25-2.25,3.21-16.32-2.32-1.68-4.59L207,162l.78,8.17-1.41.35-2.49-8.85-1,.13.95,8.09c-6.36-.52-5.59-6.2-8.26-9.58l-.23,5.07L193,160l-1.69,3.13-2.08-5.26-.93,5.59-10.19-3.86.86-2.48,5.49,1.68c1.47-.85,3.25-2.51,5.28-2.92,4.23-.85,8.62-.84,12.88-1.54s6.87.13,6.36,5.18c-.08.83.54,1.73,1.27,3.88.45-2,.9-2.79.7-3.35-1.76-5,.52-6.46,5.21-6.57,41.32-1,81.87,3,120.58,18.71,10.54,4.27,20.41,9.78,28.82,17.66,2.92,2.74,3.72,5.11.79,8.37s-5.7,6.95-8.5,10.46c-.84,1.06-1.58,2.19-2.37,3.29l1.1.86,7.52-8.17.58,3.42,7.3-8.39,1.13.62-2.43,7,3.68-2.16c5.23,8.08-5,25.5-14.63,30.19l.64-2L373,218.17l-1.66-1.28-11.7,15.76c0-1.29-.62-2.92-.05-3.83,2.28-3.61,4.91-7,7.41-10.45l-1.12-.92-9.08,11.74-.83-.62c1.71-2.76,3.43-5.52,5.13-8.29,1.56-2.56,3.1-5.14,4.65-7.71L364,211.46l-8.2,9.73c-5.93-3-5.62-2.85-2.94-9.24,1.28-3,1.13-6.68,1.13-10.66a67,67,0,0,0-3.85,6.07c-2.62,5.25-2.54,5.29-6.88,2.41l-1.72-9.2-3,4.77-9.25-3.13,8.93-14.55-1.76-1Zm3.88-19.52-1.73-1-7.78,14,1.31.7Z"/><path class="cls-1" d="M127.12,242.11l5.61,4.22,1-.75-1.61-5.13,6-3.92c3.45,2.42,7,4.75,10.39,7.38a8.52,8.52,0,0,1,2.15,3.77c1.89,5.18,2.18,5.31,7,1.8.08,3.84.88,6.65,5.67,6.55,1.66,0,3.38,2.58,5.07,4l-1,1.8c-5.08-1-10.21-1.88-15.23-3.18-15.49-4-30.68-8.87-44.44-17.29-1.88-1.15-3.1-3.36-4.63-5.07l7.32-2.67c.6,3.73,3.94,9.17,5.95,10.83l5.82-7.54,1.17.56-1.07-10.85,1.65-.51,3.65,8,3.45-5.52c-.67,4,2,9.24-4.84,10.7-2.36.51-4.2,4-1.91,8.19Zm12.45,7.12,9.55,5.79,1-.89-9.19-13Z"/><path class="cls-1" d="M221.56,200.9a49.77,49.77,0,0,0-4.5-2.51c-2.79-1.21-5.64-2.3-8.5-3.33-1.06-.38-2.39-.18-3.32-.72-6.43-3.78-8.34-3.81-13.89.48l-3-7.31c-3.47,1-8.34,4.71-10.12-2.86-6.56,2.24-9.33,7.3-11,13.31l-1.54-.78,5-10.6c-2.55.89-2.55.89-8.4,12.07l2-8.2c-4.46,4.25-10.2,5.79-9.65,12.5-1-13.74,6.16-22,21.17-23.55,4.63-.48,10-.27,14.08,1.66,11.22,5.31,21.92,11.7,32.83,17.67Z"/><path class="cls-1" d="M116.65,213.33c-2.09,3.21-3,.14-3.73-.93-3-4.18-5.8-8.52-8.7-12.79-1-1.48-2.1-2.91-3.65-5l-.65,4.35c-2.16-3.35-4-6-5.53-8.81-.13-.22,1.24-1.84,1.86-1.81a4,4,0,0,1,2.57,1.63c2.79,3.81,2.74,3.85,6.54,2.67L102,186.89c10.75,1.39,15.1,9.21,17.58,18.65l-6.71-10.73-1.06.53c.8,1.61,1.64,3.2,2.38,4.84,1.49,3.32,3,6.63,4.28,10,.23.6-.7,1.64-1.09,2.47l-10.43-17.16-1.61,1.08Z"/><path class="cls-1" d="M107.79,213.2,108,209c1.56,1.89,2.86,3.59,4.3,5.17,2.45,2.69,1.18,4.85-.9,6.86-2.52,2.44-3.54-.16-5.52-1.23-5.93-3.24-7.76-9.64-12.71-14.54l3.52.72c-.48-5.19-8.22-7.28-5.25-14.86Z"/><path class="cls-1" d="M67.79,176.79c-3.83-.49-5.82-2.2-5.22-5.65,1.51-8.66,1.67-17.85,8.91-24.47.47-.43.21-1.67.33-2.89l6.28,1.86C70.86,154.89,69.29,165.78,67.79,176.79Z"/><path class="cls-1" d="M103.36,231a19.49,19.49,0,0,1-3.45-2.71c-4.73-5.81-9.35-11.72-14-17.61-2.65-3.36-2.41-6.65.73-10.61l19.5,26.2-1,.82L93.17,211.93l-1.2.89L104.4,230Z"/><path d="M121.33,255.12c.73,3.4,5.29,3.38,6,5.15,2.32,5.67,6.54,3.58,10.74,4.53-1.12.45-2.48,1.55-3.31,1.24-4.79-1.8-9.47-3.9-14.16-6-1.62-.71-3.14-1.64-4.76-2.38-6.56-3-13.14-5.94-19.36-9.14L119,254Z"/><path d="M310.07,199l4.09,8.51-6.75-4L307,214.06l-1.45-.15-3-7-5.47,3.33-1-1.24,6-5c-.3-1.27-1.36-3.17-.8-4.09s2.69-1.34,4.18-1.8a23.19,23.19,0,0,1,3.25-.53Z"/><path class="cls-1" d="M116.62,237.12v-6.81h-7.8c.8-5.62,2.73-7.21,7.47-6a5,5,0,0,1,3,2.89c.8,2.43,1,5.07,1.51,8.31Z"/><path class="cls-1" d="M85.15,218.57c6.67,4.26,12.86,8.11,14.11,16.11A32.14,32.14,0,0,1,85.15,218.57Z"/><path class="cls-1" d="M251.26,211.81,249,208.13c5.14,1.19,14.93,9.36,17.73,15-.67.11-1.57.49-1.79.25-2.83-3.17-5.36-6.42-10.41-6.41C253.43,216.93,252.34,213.6,251.26,211.81Z"/><path d="M163.64,238.29l-9-6.28.27-.7,3.28.79L171.92,240l5.34,4.53a30.22,30.22,0,0,1-5.68-1.53C168.83,241.63,166.28,239.87,163.64,238.29Z"/><path class="cls-1" d="M168.37,252.76l10,9-1,1.73-6.15-.86-3.49-8.94Z"/><path d="M95.86,240.94l3,3.39c-5.42-.68-14.37-9-17.64-16.58l8,7.51Z"/><path class="cls-1" d="M241,211a13.93,13.93,0,0,1-1.41,1.18c-3.89-3.65-11.11-2.72-13.47-10l14.94,8.91Z"/><path d="M342.11,287c-12.05,2.21-24.07,4.61-36.16,6.56a245.72,245.72,0,0,1-29.62,3c26.07-4.16,52.16-8,76.56-18.88l.93,1.79L342,287Z"/><path d="M93.57,259.19c1.47,3.08,2.55,4.75,3.08,6.58.87,3,3.13,2.44,5.28,2.56a2.73,2.73,0,0,1,2,1c6.13,12.89,15.6,23.13,25.81,32.79a8.85,8.85,0,0,1,1.25,1.54,11.36,11.36,0,0,1,.39,2.35c-2.83-2.39-4.95-4-6.88-5.83-5.4-5.06-11.17-9.83-16-15.41C103.23,278.56,98.79,271.62,94,265a8.07,8.07,0,0,1-1-2.8C92.92,261.75,93.17,261.24,93.57,259.19Z"/><path d="M191.06,329l11.7,3.19-.24,1.32c-3.42-.58-6.81-1.51-10.25-1.69a78.16,78.16,0,0,1-32.36-8.9c-1.76-.91-3.49-1.87-5.39-2.88l1.55-1.77,35.09,10.8Z"/><path d="M309.61,313.25c-8.18,6.42-39.53,16.4-48.71,15.21,7.61-2,14.85-3.23,21.57-5.8,7.3-2.79,14.08-6.92,21.2-10.22,1.72-.8,3.9-.63,5.86-.9Z"/><path d="M292,286.66a280.32,280.32,0,0,0,65.56-18.38A162.54,162.54,0,0,1,292,286.66Z"/><path d="M352.51,273.7c-16.56,9.71-34.63,14.09-53.63,15.14A211.38,211.38,0,0,0,352.51,273.7Z"/><path d="M249,334.83c17.24-1.44,33.54-6.27,49.32-13.11A91.55,91.55,0,0,1,249,334.83Z"/><path d="M342,287h2.38l.43,1-9.87,5-6,2-22.22,4.16,0-.26,35.35-12Z"/><path d="M117.74,287.26l-5.42-14.53,1.19-.6,2.9,3.48.73-3.12L124,284.82l-.62.53-2.9-2.21Z"/><path d="M182.8,297.31c5.81,3.82,11.6,8,17.81,3.14,1.8-1.42,1.12-6,1.52-8.77,3.43,1.81,4,6.25.3,10.11C197.8,306.6,185.93,304.19,182.8,297.31Z"/><path d="M181.47,319.74,151.06,307l.6-1.45,30.47,12.58Z"/><path d="M185.73,325.23,154.1,313.34l.53-1.45,31.65,11.65Z"/><path d="M169.79,302.2c-2.71-3.36-5.36-6.77-8.14-10.06-4.39-5.19-7-5.74-12.63-2.82.92-3.4,2.49-4.91,5.69-4a16.22,16.22,0,0,1,7.41,4.5c3.13,3.61,5.49,7.89,8.17,11.89Z"/><path d="M278.64,301.22c8-.52,16.28-2.28,23.24,4,1.22,1.1,1.77,3.43,1.77,5.19,0,.68-2.37,1.37-4.11,1.74,4.09-3.36,2.39-6-1-7.11-4.64-1.47-9.6-2-14.46-2.71a26.35,26.35,0,0,0-5.35.29Z"/><path d="M318.81,303.61l14.51-3C321,308.67,321,308.67,318.81,303.61Z"/><path d="M328.94,295l6-2h3.42c-5.22,5.42-11,6.75-18.49,5.83Z"/><path d="M253.28,324.15c-6.17-.76-14.22-9.71-14.73-15.73Z"/><path d="M234.88,294.71l3.19,20C233.71,311.94,231.64,300.2,234.88,294.71Z"/><path d="M170.27,301.74l15.13,13.91c-7.58-2.39-11.85-7.6-15.62-13.46Z"/><path d="M191.16,329.07,186.32,327l.2-1,17.2,2.68-.1,1.36-12.56-1Z"/><path d="M276.9,289.9c-4.77,4.43-10.28,5.72-15.46,3.86Z"/><path d="M284.16,315.39l-21.59,4.44-.26-1.23L283.87,314Z"/><path d="M145.77,283.33,141,295.6C138.45,291.86,140.83,285.11,145.77,283.33Z"/><path d="M263.95,306c-5.43,1-11.11-2.45-11.75-7.29Z"/><path d="M147.88,295.71c1.14-4.1,4-4.18,6.72-3.85,3.72.46,6.06,2.69,6.91,6.47C157.54,294.84,154,290,147.88,295.71Z"/><path d="M137,292.26c-1.59-5.2.33-9.15,4.42-12.34Z"/><path d="M367.23,260.06,354,267.81l-.84-1.44,13.16-7.66Z"/><path d="M206,315l10-11.09C216.65,308.53,211.41,314.45,206,315Z"/><path d="M270.28,313.21l17-4.33.31,1.25-17,4.39Z"/><path d="M142.8,311.42l-11.06-12.26,12,11.31Z"/><path d="M229.57,250.45c3.41-2.5,6.55-5.62,10.33-7.3,3-1.32,4.57,1.31,4.91,4.26-.59.3-.91.62-1.16.57-2-.43-4.38-3.43-5.63.14-.42,1.21,2,3.43,3.16,5.18s2.43,3.65,4.3,6.45c-2.81,0-4.59.4-4.86-.06-2.3-4-5-3.86-7.85-1l-1.29-7Z"/><path d="M218.8,254.75c3.27.15,6.12-.27,8.47.63,1.06.4,1.13,3.42,1.64,5.25l-1.54.54-2.71-3.39-8.47,2-2.68-8.73-6.71,3.47c1.51-4.85,4.38-6.46,7.64-6.08C218,248.88,219.89,251.45,218.8,254.75Z"/><path d="M314.69,243.85c-4-4.23-6.3,1.3-10.37-.15,1.89-1.53,3.64-4,5.72-4.34,2.4-.36,5.19,1,7.58,2.11.51.23.62,3.09-.06,3.83a33.82,33.82,0,0,1-7.07,5.87c-1.13.69-3.06.06-4.63,0,.45-1.64.39-4,1.47-4.77C309.2,245.12,311.77,244.8,314.69,243.85Z"/><path d="M265.8,200.58c1.93-3.13,1.8-8.88,7.16-8.4,3.82.35,7.41,3.07,11.11,4.73l-.38,2.57L276,201c-1-2.48,0-6.6-5-4.55l3.42,4.47Z"/><path d="M235.71,235c-3,1.74-5.07,1-6.93-2-.85-1.36-2.86-2-4.71-3.2a6.37,6.37,0,0,1,7.44-4.07C236.77,226.65,236.23,230.79,235.71,235Z"/><path d="M259.09,257.28c-1.41-2.37-3.61-4.64-3.93-7.15-.18-1.41,2.86-4.6,4.26-4.49,1.88.14,5,2.74,5,4.21-.06,2.47-2.22,4.89-3.5,7.33Z"/><path d="M250.92,197.05l3.64-3.8-.52-.88-5.46,2.81-1-1c1.59-1.37,3.06-3.67,4.78-3.87,2.09-.25,5.94.88,6.25,2.12.61,2.39-.72,5.28-1.44,8.95Z"/><path d="M281.14,241.27c-.77-4.71.47-7.32,4.2-7.7,3-.3,4.55,1,4.52,4.58l-5.43-1.21c2.27,2,6,2.74,3.42,6.88Z"/><path d="M313.81,213.66c2.08.68,5.58.92,6,2.12a12.37,12.37,0,0,1-.63,8.14c-.46,1-3.93.71-6,1l-.56-1.7,4.3-5.29L313.27,215Z"/><path d="M327.35,234.79c4.87,0,8.94-.52,12.79.17,3.06.55,2.5,4.31-1.46,7.34l.61-5.36-6.2,3.88Z"/><path d="M316.8,230.9l-2.67,1.35c-.57-4,1.5-5.47,4.44-5.21,2.27.19,5,.69,3.09,4.72-.83,1.76,1.39,5.35-2.63,5C318.09,236.62,317.52,232.9,316.8,230.9Z"/><path d="M297.32,221.32c-3.56-2.29-7.58-6.78-8.72,2.32L287,222.39c.28-2-.13-4.72,1-5.94s4.27-2.22,5.91-1.62c1.81.66,2.93,3.22,4.36,5Z"/><path d="M202.18,236c-3.87-5.79-3.42-8.18.66-10.89,3.13-2.08,5.36-1.19,7.63,2.56C205,227.38,201.3,228.68,202.18,236Z"/><path d="M247.42,236.56l-6.93,2.94c1.15-2.4,2.14-5.33,2.6-5.25,2.53.44,5.87,1,7.11,2.73s.34,5-3.61,6Z"/><path d="M274.51,248.85l2.63,2.85-5.72,6.18C266.53,254.78,266.69,254,274.51,248.85Z"/><path d="M298.54,248c-.92-1.86-3.08-4.38-2.51-5.44,1.21-2.24,3.71-3.93,6-5.37.5-.32,2.24,1.33,4.33,2.65-4.49,1.52-9.59,1.48-5.42,8.06Z"/><path d="M209.12,201.25l1.55,10.16c-4.66-3.88-6.33-1.42-7.23,3-2.75-3.14-1.47-5.16.44-7.2C205.65,205.28,207.32,203.29,209.12,201.25Z"/><path d="M277.94,211.66l2.29,3.47-1,1.21a38.83,38.83,0,0,1-5.42-4.23c-.32-.34.94-3.23,1.72-3.35,2.36-.37,4.85,0,7.29.14l-.11,2.12Z"/><path d="M267.33,242.61l-.56-3.84-6.92,3.4c1-4.69,4.09-5.78,7.31-5.94,1.23-.06,3.44,1.51,3.59,2.57.19,1.32-1.28,2.88-2,4.34Z"/><path d="M221.76,218.23c-5.79-.14-5.43,4-5.82,8.65-2.95-3.73-3.3-6.94-1.18-9.58C216.59,215,219.34,215.46,221.76,218.23Z"/><path d="M298.46,252.4l2.77,1.86c-2,2.15-3.45,5-5.55,5.64-2.54.73-3.18-3-.6-5.63C295.83,253.51,297,253.17,298.46,252.4Z"/><path d="M311.75,228h-10c.56-2.67,2.77-4.81,5.53-4C308.79,224.4,309.93,226.29,311.75,228Z"/><path d="M285.26,250.29l-4.75,1.64-.71-1.57,7.69-3.31,2.05,5.73-1.44.62Z"/><path d="M279.22,186.76l6.48,3-.11,1.71-8.28,1.21,1.53-5.49Z"/><path d="M244.29,230.4c-.29-2.3-.9-4.64-.66-6.88.07-.67,2.54-1.08,4.77-1.95l-2.93,8.6Z"/><path d="M193.33,232.74l2,5.95c-1.47-.1-4,.21-4.21-.38-.6-1.53-.2-3.45-.2-5.22Z"/><path d="M333.15,263.79c-20.48,7.68-42,10.6-63.6,12.77Z"/><path d="M303,267.69l40.41-13.27C339.51,258.49,313.42,267.22,303,267.69Z"/><path d="M171.92,240,158.2,232.1c-3.83-3.55-7.92-6.86-11.41-10.71-3.22-3.56-5.46-7.81-4.92-13,1.94,3.87,3.22,8,5.81,11.11,2.36,2.8,6.25,4.26,9.28,6.56,5.72,4.34,11.31,8.87,17.46,13.72Z"/><path d="M138.38,215.86c1.25,10,11.3,13.2,15.95,20.71C145.85,237.18,138.41,224.41,138.38,215.86Z"/><path d="M58.43,168.76c-4.75-9.19-3.66-14.25,3-14.37Z"/><path d="M111.51,173.1,86.1,167.59l.38-1.45C94.63,168.82,104,166.88,111.51,173.1Z"/><path d="M102,176l-4.67-2.38c8,.22,14.4,4,20.27,9.16l-7-3.4Z"/><path d="M102,176l8.56,3.37,2.83,3.77-.42.66-15.28-7.54Z"/><path d="M145.35,202.91c-1.84-7.78-9.22-13.84-7.68-22.82l8.79,22.26Z"/><path d="M136.62,204.68,129.5,191.1C136,194.88,137.66,198.23,136.62,204.68Z"/><path d="M75,139.2c8.6-2.17,8.6-2.17,6.32-8.88,3,1.49,4.19,4.21,2.76,6.78C82.26,140.42,79.5,140.57,75,139.2Z"/><path d="M53.23,153.2c4.15,2.71.18,5,.58,7.23-3.53-8-3.48-8.57,1.27-11.9Z"/><path d="M231.17,197.24l13.46,9.55-1,1.39-13.25-9.89Z"/><path d="M359.6,232.66l11.7-15.76,1.66,1.28-12.6,15.17Z"/><path d="M332.59,182.23,324.39,196l-1.31-.7,7.78-14Z"/><path d="M328.71,201.76l7.72-15.08,1.76,1-8.93,14.55Z"/><path d="M139.56,249.23l1.38-8.1,9.19,13-1,.89Z"/><path d="M116.65,213.33l-11.32-16.74,1.61-1.08,10.43,17.16Z"/></svg>