<svg id="Layer_1" data-name="Layer 1" xmlns="http://www.w3.org/2000/svg" viewBox="0 0 128 128"><defs><style>.cls-1{fill:#fff;}</style></defs><title>Artboard 1</title><path class="cls-1" d="M129,129H1Q1,65,1,1H129Q129,65,129,129ZM86.28,43.85A26.21,26.21,0,0,0,59.77,69.92,26.58,26.58,0,0,0,85.84,96.6c14.26.15,26.39-11.79,26.63-26.24S100.74,43.95,86.28,43.85Zm26.09,79.72c-3.37-8.1-7.37-9.38-13.8-5.64a5.37,5.37,0,0,1-4.72-.24c-5.71-3.89-6.86-4-11.75,1-2.43,2.52-4.39,2.52-6.66,0-1.78-2-3.67-3.86-5.51-5.79-6.65-7-8.92-6.93-15.23.13-1.92,2.15-4,4.21-6.26,6.65-3.63-6.2-7.6-4.65-11.76-1.32-2.45-4.41-5.44-5.57-9.61-2.69-.71.49-2.54-.56-3.82-1-2.34-.79-5.2-2.92-6.85-2.21-2.75,1.2-4.73,4.19-7,6.43l1.51,1.59c1.59-1.46,3-3.21,4.82-4.28,1.23-.72,3.93-1.2,4.42-.57,3.5,4.49,7.26,3.86,11.57.77,3.15,5.15,6.94,5.37,10.88,1.38,6.23,5.17,7.26,5.06,12.68-1.11,1.21-1.38,2.46-2.72,3.64-4.12,2.22-2.63,4.39-2.56,6.7-.08s4.83,5.06,7.29,7.54c4.36,4.4,7.55,4.47,11.74-.1,2.39-2.6,4.13-2.95,7.09-.55,1.73,1.39,5.76,2.48,7,1.49,4.52-3.64,7.62-2.76,10.74,1.45C109.8,122.91,110.79,123,112.37,123.58ZM52.11,87A21.39,21.39,0,0,0,30.89,65.61c-11.81,0-21.77,10-21.58,21.64a21.67,21.67,0,0,0,21.61,21.08A21.4,21.4,0,0,0,52.11,87ZM82.35,21.74a18,18,0,0,0-17.5-17.6A18,18,0,0,0,47.07,22c.06,9.4,8.19,17.59,17.52,17.64A18,18,0,0,0,82.35,21.74Zm-35,23.92a13,13,0,0,0-13-13,13.24,13.24,0,0,0-13.1,13A13.6,13.6,0,0,0,34.34,58.76,13.28,13.28,0,0,0,47.33,45.66Zm72.51,64.06c-2-7-7.19-9.42-12.41-6.29-3,1.81-5.38,1.78-8.28,0a11.55,11.55,0,0,0-5.62-1.61c-3.72-.1-5.93,2.41-5.57,6.82,3.8-5.35,7.84-4.68,12.16-1.64a4.53,4.53,0,0,0,3.81.62C109.63,104.65,115,103.89,119.84,109.72Z"/><path d="M86.28,43.85c14.46.1,26.43,12.21,26.19,26.51S100.1,96.75,85.84,96.6A26.58,26.58,0,0,1,59.77,69.92,26.21,26.21,0,0,1,86.28,43.85Zm-.2,2.79A23.12,23.12,0,0,0,62.53,69.88,23.58,23.58,0,1,0,86.08,46.64Z"/><path d="M112.37,123.58c-1.58-.61-2.57-.67-2.95-1.18-3.12-4.21-6.22-5.09-10.74-1.45-1.22,1-5.25-.1-7-1.49-3-2.39-4.71-2-7.09.55-4.2,4.57-7.38,4.49-11.74.1-2.46-2.48-4.91-5-7.29-7.54s-4.48-2.56-6.7.08c-1.18,1.4-2.43,2.74-3.64,4.12-5.42,6.17-6.45,6.28-12.68,1.11-3.93,4-7.73,3.76-10.88-1.38-4.31,3.09-8.07,3.72-11.57-.77-.49-.63-3.19-.15-4.42.57-1.82,1.07-3.24,2.82-4.82,4.28l-1.51-1.59c2.3-2.24,4.27-5.24,7-6.43,1.65-.72,4.51,1.41,6.85,2.21,1.28.43,3.11,1.48,3.82,1,4.17-2.88,7.16-1.72,9.61,2.69,4.16-3.33,8.13-4.88,11.76,1.32,2.31-2.45,4.34-4.5,6.26-6.65C61,106,63.29,106,69.94,113c1.84,1.93,3.73,3.81,5.51,5.79,2.26,2.51,4.22,2.52,6.66,0,4.88-5.06,6-4.93,11.75-1a5.37,5.37,0,0,0,4.72.24C105,114.2,109,115.47,112.37,123.58Z"/><path d="M52.11,87a21.4,21.4,0,0,1-21.19,21.36A21.67,21.67,0,0,1,9.32,87.24c-.19-11.68,9.77-21.67,21.58-21.64A21.39,21.39,0,0,1,52.11,87Zm-2.82-.17A18.28,18.28,0,0,0,30.48,68.33a18.63,18.63,0,0,0,.34,37.25A18.26,18.26,0,0,0,49.3,86.79Z"/><path d="M82.35,21.74A18,18,0,0,1,64.59,39.62C55.27,39.57,47.14,31.38,47.07,22A18,18,0,0,1,64.85,4.14,18,18,0,0,1,82.35,21.74Zm-32.42.34a14.82,14.82,0,1,0,29.64-.44,14.82,14.82,0,1,0-29.64.44Z"/><path d="M47.33,45.66a13.28,13.28,0,0,1-13,13.1A13.6,13.6,0,0,1,21.25,45.65a13.24,13.24,0,0,1,13.1-13A13,13,0,0,1,47.33,45.66Zm-13,10.28A10.26,10.26,0,1,0,24.07,45.37,10.35,10.35,0,0,0,34.33,55.94Z"/><path d="M119.84,109.72c-4.88-5.83-10.2-5.07-15.91-2.14a4.53,4.53,0,0,1-3.81-.62c-4.33-3-8.36-3.71-12.16,1.64-.36-4.41,1.85-6.91,5.57-6.82a11.55,11.55,0,0,1,5.62,1.61c2.9,1.82,5.27,1.85,8.28,0C112.65,100.3,117.8,102.68,119.84,109.72Z"/><path class="cls-1" d="M86.08,46.64a23.25,23.25,0,0,1,23.6,23.27,23.58,23.58,0,1,1-47.15,0A23.12,23.12,0,0,1,86.08,46.64Zm7.73,10.89c8.81,10.24,7.35,19.13-4.59,27.26,7.22-.93,11.63-5.62,12.71-11.5C103.07,67,100.27,58.94,93.81,57.53Z"/><path class="cls-1" d="M49.3,86.79a18.26,18.26,0,0,1-18.47,18.8,18.63,18.63,0,0,1-.34-37.25A18.28,18.28,0,0,1,49.3,86.79ZM32.77,98.48c5,.83,6.95-1.46,8.61-3.69a12.24,12.24,0,0,0,1.25-13.57c-1-1.92-2.9-3.35-4.39-5l-1.77.92C43.6,85.21,42.86,92.22,32.77,98.48Z"/><path class="cls-1" d="M49.93,22.08a14.82,14.82,0,1,1,29.64-.44,14.82,14.82,0,1,1-29.64.44Zm17.43,8.5.84,1.62c1.83-1.32,4.06-2.32,5.4-4a9.64,9.64,0,0,0,.69-11.61c-.88-1.46-2.42-2.51-3.66-3.75l-.87,1C74.35,23.95,74.34,24,67.36,30.58Z"/><path class="cls-1" d="M34.33,55.94A10.35,10.35,0,0,1,24.07,45.37,10.26,10.26,0,1,1,34.33,55.94Zm2.85-16.49C42,44.56,40,48.68,34.77,52.77c5.6-.53,8.38-3.62,7.85-7.63C42.27,42.37,41.44,39.6,37.18,39.45Z"/><path d="M93.81,57.53c6.46,1.41,9.26,9.51,8.12,15.76-1.08,5.88-5.49,10.57-12.71,11.5C101.16,76.66,102.62,67.77,93.81,57.53Z"/><path d="M32.77,98.48c10.09-6.26,10.83-13.27,3.7-21.35l1.77-.92c1.49,1.65,3.41,3.09,4.39,5a12.24,12.24,0,0,1-1.25,13.57C39.72,97,37.81,99.31,32.77,98.48Z"/><path d="M67.36,30.58c7-6.58,7-6.64,2.4-16.73l.87-1c1.24,1.24,2.79,2.29,3.66,3.75a9.64,9.64,0,0,1-.69,11.61c-1.35,1.7-3.57,2.7-5.4,4Z"/><path d="M37.18,39.45c4.25.15,5.08,2.92,5.44,5.69.52,4-2.25,7.1-7.85,7.63C40,48.68,42,44.56,37.18,39.45Z"/></svg>