<svg id="Layer_1" data-name="Layer 1" xmlns="http://www.w3.org/2000/svg" viewBox="0 0 94.24 94.23"><defs><style>.cls-1{fill:#fff;}</style></defs><title>Artboard 1</title><path class="cls-1" d="M.2,0h94V94H.2ZM69.74,80.4c.86-1,1.74-2,2.58-3.07a.62.62,0,0,0,0-.53c-.34-.74-.37-1.62-1.28-2.09-.42-.21-.68-.74-1-1.12l.14-.31c1.37,0,2.74,0,4.11,0a1.68,1.68,0,0,0,1.2-.45,47.9,47.9,0,0,0,2.33-4.25q1.82-3.79,3.51-7.65c.42-1,.67-2,1-3l.63-1.7c.49-.95,1-1.91,1.49-2.84A.94.94,0,0,0,84,51.88l-2.16-1.3c.7-.15,1.15-.29,1.6-.35,1.15-.15,2-.5,2-1.85A11.64,11.64,0,0,1,85.94,46a31.62,31.62,0,0,0,1.26-5.35,74.56,74.56,0,0,0,0-10.54,25.14,25.14,0,0,0-1.79-6.87c-1.08-2.76-1.59-2.81-4.44-1.52-1,.45-2,.86-3,1.29l-.23-.32,5.17-4.36c-1-1.32-2-2.53-3-3.72a58.39,58.39,0,0,0-4.17-5c-3.42-3.35-7.84-5.05-12.42-6.34A57.17,57.17,0,0,0,49.09,1.64c-1.42,0-2.84.32-4.26.42A48.77,48.77,0,0,0,29.51,5.28a22.68,22.68,0,0,0-9.36,7.27c-.88,1.13-1.78,2.24-2.65,3.38-.6.78-1.17,1.58-1.78,2.41,1.38,1.81,3.8,2.58,5.09,4.82l-.95-.32c-1.54-.6-3.06-1.25-4.63-1.76a1.4,1.4,0,0,0-1.24.46,22,22,0,0,0-1.59,3.69A33.36,33.36,0,0,0,11,34.14a27,27,0,0,0,.68,8.44c.6,2.09.9,4.25,1.37,6.37a1.08,1.08,0,0,0,.51.69c.91.37,1.86.66,3,1a10,10,0,0,0-1.48.78c-.57.44-1.57.75-1,1.77.45.76,1,1.48,1.48,2.21L16.25,58a12.34,12.34,0,0,0,.46,2A18.12,18.12,0,0,0,18,62.45c2,3.41,4.07,6.82,6.15,10.21a1.5,1.5,0,0,0,1.06.55c.9,0,1.81-.11,2.72-.11.67,0,1.34.12,2,.19-.52.8-1.2,1.2-1.6,1.78s-1.23,1.74-1,2.28a12.84,12.84,0,0,0,2.76,4.23c2.47,2.32,5.17,4.4,7.85,6.5a9.77,9.77,0,0,0,3,1.64c4.16,1.31,8.37,2.1,12.77,1A18.36,18.36,0,0,0,60.6,88c2.33-1.73,4.64-3.48,6.9-5.29a23.87,23.87,0,0,0,2.27-2.39Z"/><path d="M15.51,55.46c-.5-.74-1-1.45-1.48-2.21-.6-1,.4-1.33,1-1.77a10,10,0,0,1,1.48-.78c-1.1-.38-2-.67-3-1A1.08,1.08,0,0,1,13,49c-.47-2.12-.76-4.29-1.37-6.37A27,27,0,0,1,11,34.14a33.36,33.36,0,0,1,1.43-8.92A22,22,0,0,1,14,21.53a1.4,1.4,0,0,1,1.24-.46c1.57.51,3.09,1.16,4.63,1.76l.95.32c-1.29-2.24-3.7-3-5.09-4.82.61-.83,1.18-1.63,1.78-2.41.87-1.13,1.78-2.25,2.65-3.38a22.68,22.68,0,0,1,9.36-7.27A48.77,48.77,0,0,1,44.83,2.06c1.43-.1,2.85-.45,4.26-.42A57.17,57.17,0,0,1,63.28,3.29c4.58,1.28,9,3,12.42,6.34a58.39,58.39,0,0,1,4.17,5c1,1.19,1.91,2.4,3,3.72l-5.17,4.36.23.32c1-.43,2-.84,3-1.29,2.84-1.29,3.36-1.23,4.44,1.52a25.14,25.14,0,0,1,1.79,6.87,74.56,74.56,0,0,1,0,10.54A31.62,31.62,0,0,1,85.94,46a11.64,11.64,0,0,0-.45,2.37c0,1.35-.88,1.7-2,1.85-.45.06-.9.19-1.6.35L84,51.88a.94.94,0,0,1,.38,1.46c-.52.93-1,1.89-1.49,2.84l-.05-1.11h-.16l-5,12.26a1.14,1.14,0,0,0,.51-.58l4.09-8.85c-.33,1-.57,2.05-1,3q-1.69,3.85-3.51,7.65a47.9,47.9,0,0,1-2.33,4.25,1.68,1.68,0,0,1-1.2.45c-1.37.06-2.74,0-4.11,0l-.14.31c.33.38.58.91,1,1.12.92.46.94,1.35,1.28,2.09a.62.62,0,0,1,0,.53c-.84,1-1.72,2-2.58,3.07.62-.87,1.27-1.72,1.86-2.61a2.16,2.16,0,0,0,.21-.75l-6.09,6.22.2.2,3.85-3.09a23.87,23.87,0,0,1-2.27,2.39c-2.26,1.82-4.57,3.56-6.9,5.29a18.36,18.36,0,0,1-6.9,2.7c-4.4,1.06-8.62.28-12.77-1a9.77,9.77,0,0,1-3-1.64c-2.68-2.1-5.39-4.18-7.85-6.5a12.84,12.84,0,0,1-2.76-4.23c-.24-.54.5-1.59,1-2.28s1.08-1,1.6-1.78c-.67-.07-1.34-.18-2-.19-.91,0-1.81.14-2.72.11a1.5,1.5,0,0,1-1.06-.55C22,69.27,20,65.86,18,62.45A18.12,18.12,0,0,1,16.71,60a12.34,12.34,0,0,1-.46-2c3.56,7.75,6.57,12.9,8.41,14.37.06-.1.19-.25.17-.29-4.37-5.38-7.07-11.6-9.4-18l-.29.13ZM74,26l-.21-.24c.82-1,1.61-1.95,2.48-2.86,1.27-1.32,2.61-2.57,3.89-3.88a1.12,1.12,0,0,0,.33-.9,23.36,23.36,0,0,0-1.21-2.88c-.27-.55-.75-1-1.06-1.53a18.72,18.72,0,0,0-7.86-7A32,32,0,0,0,58.84,3.08c-4.31-.44-8.59-1.21-13-.51-4.54.73-9.15.89-13.59,2.39a24.2,24.2,0,0,0-9.64,5.75,14.81,14.81,0,0,0-4.3,6.7c-.16.65-.56,1.11,0,1.7C19.71,20.37,21,21.64,22.31,23c.85.88,1.59,1.86,2.62,3.07a10.43,10.43,0,0,1-1.22-.24c-2.47-.89-4.94-1.79-7.4-2.71-.69-.26-1.16-.34-1.48.5-2.1,5.5-3.33,11.1-2.13,17,.47,2.33.94,4.66,1.43,7,.21,1,.77,1.37,1.93,1.36a25.86,25.86,0,0,1,4.23.7c-1.18.72-2.06,1.29-3,1.82-1.43.83-1.71,1.67-1,3.1a14.61,14.61,0,0,1,.71,1.7A61.66,61.66,0,0,0,23.16,68.9c1.39,2.3,3.11,3.77,6.16,3.21a14.58,14.58,0,0,1,3.45.18,36.32,36.32,0,0,1-3,2.94,1.51,1.51,0,0,0-.45,1.11,4.14,4.14,0,0,0,.59,1.95,35.5,35.5,0,0,0,3.61,4.39c4.3,4.21,9.06,7.61,15.67,7.3a22.25,22.25,0,0,1,2.78-.27,9.88,9.88,0,0,0,5.31-1.35A39.8,39.8,0,0,0,67.45,80.5a20.57,20.57,0,0,0,2.71-3.28,2,2,0,0,0-.11-1.79,35.7,35.7,0,0,0-2.58-3.13c0,.13.33,0,.69,0,1.78-.08,3.57-.1,5.34-.23a1.54,1.54,0,0,0,1.1-.6c1.28-2.45,2.58-4.91,3.7-7.43,1.48-3.34,2.82-6.75,4.17-10.14a1.62,1.62,0,0,0-.16-1.35,6.22,6.22,0,0,0-1.5-1.27c-.77-.54-1.58-1-2.54-1.66a19.07,19.07,0,0,1,4-.75c1.34,0,1.89-.43,2.12-1.57.33-1.61.82-3.21,1.05-4.83a37.29,37.29,0,0,0,.75-7.41A31.49,31.49,0,0,0,83.77,23.9c-.39-.87-.69-1.21-1.74-.79-2.44,1-4.93,1.83-7.4,2.72A5.22,5.22,0,0,1,74,26ZM11.52,34c.38-2.13.63-4.07,1.09-6s1.11-3.69,1.68-5.54l-.43-.09A29.24,29.24,0,0,0,11.52,34ZM84.57,22.39l-.41.09c.57,1.85,1.23,3.68,1.68,5.55s.72,3.88,1.07,5.83A28.29,28.29,0,0,0,84.57,22.39ZM27.79,76.89l-.28.09a14.33,14.33,0,0,0,5.42,6.42ZM82.55,22l-.18-.39L76.88,24A11.65,11.65,0,0,0,82.55,22ZM21.41,24.35l.18-.4L16.12,21.6l-.26.59Z"/><path class="cls-1" d="M15.51,55.46l-.37-1.25.29-.13c2.33,6.4,5,12.61,9.4,18,0,0-.11.19-.17.29C22.82,70.9,19.81,65.75,16.25,58Z"/><path class="cls-1" d="M82.28,57.89l-4.09,8.85a1.14,1.14,0,0,1-.51.58l5-12.26h.16l.05,1.11Z"/><path class="cls-1" d="M74,26a5.22,5.22,0,0,0,.66-.15c2.47-.89,5-1.74,7.4-2.72,1-.42,1.35-.08,1.74.79a31.49,31.49,0,0,1,2.41,11.19,37.29,37.29,0,0,1-.75,7.41c-.24,1.63-.72,3.22-1.05,4.83-.24,1.15-.78,1.61-2.12,1.57a19.07,19.07,0,0,0-4,.75c1,.62,1.76,1.11,2.54,1.66a6.22,6.22,0,0,1,1.5,1.27,1.62,1.62,0,0,1,.16,1.35c-1.34,3.4-2.68,6.8-4.17,10.14-1.12,2.52-2.42,5-3.7,7.43a1.54,1.54,0,0,1-1.1.6c-1.78.12-3.56.15-5.34.23-.36,0-.72.11-.69,0a35.7,35.7,0,0,1,2.58,3.13,2,2,0,0,1,.11,1.79,20.57,20.57,0,0,1-2.71,3.28,39.8,39.8,0,0,1-10.21,7.85,9.88,9.88,0,0,1-5.31,1.35,22.25,22.25,0,0,0-2.78.27c-6.6.32-11.36-3.09-15.67-7.3a35.5,35.5,0,0,1-3.61-4.39,4.14,4.14,0,0,1-.59-1.95,1.51,1.51,0,0,1,.45-1.11,36.32,36.32,0,0,0,3-2.94,14.58,14.58,0,0,0-3.45-.18c-3,.56-4.77-.91-6.16-3.21A61.66,61.66,0,0,1,17,56.23a14.61,14.61,0,0,0-.71-1.7c-.68-1.43-.4-2.27,1-3.1.91-.53,1.8-1.1,3-1.82a25.86,25.86,0,0,0-4.23-.7c-1.16,0-1.72-.37-1.93-1.36-.49-2.33-1-4.66-1.43-7-1.2-5.88,0-11.48,2.13-17,.32-.85.79-.76,1.48-.5,2.46.92,4.93,1.82,7.4,2.71a10.43,10.43,0,0,0,1.22.24c-1-1.21-1.77-2.18-2.62-3.07-1.27-1.32-2.6-2.58-3.92-3.85-.61-.58-.21-1,0-1.7a14.81,14.81,0,0,1,4.3-6.7A24.2,24.2,0,0,1,32.28,5c4.44-1.5,9-1.66,13.59-2.39,4.38-.7,8.66.08,13,.51A32,32,0,0,1,70.34,6.69a18.72,18.72,0,0,1,7.86,7c.31.53.79,1,1.06,1.53a23.36,23.36,0,0,1,1.21,2.88,1.12,1.12,0,0,1-.33.9c-1.28,1.31-2.62,2.56-3.89,3.88-.87.91-1.66,1.9-2.48,2.86ZM41.19,59.16a3.31,3.31,0,0,0,2.92,2.13,45.34,45.34,0,0,0,10.28,0,3.23,3.23,0,0,0,2.84-2.07l.51-.58A17.79,17.79,0,0,0,58.9,53c-.86,1.23-1.54,2.52-2.34,3.72a6.12,6.12,0,0,1-6.67,2.62,13,13,0,0,0-1.87.09,9.8,9.8,0,0,1-3.09-.31c-2.34-.93-3.66-2.86-4.62-5-.18-.41-.41-.81-.62-1.21l-.49.17,1.53,5.53Zm19.6-22.58-.46-.07c-.34.48-.67,1-1,1.44a4.8,4.8,0,0,0,1.18,6.83,12.54,12.54,0,0,0,5.73,1.61c3.08.2,5.9-.19,8.3-2.23a6,6,0,0,0,2.15-5.34,2.42,2.42,0,0,0-.81-1.47,3.46,3.46,0,0,1-1.62-3.11c-.87,1.22-1.85,2-1.62,3.34a1.25,1.25,0,0,1-.23.85c-.76,1.05-1.57,2.07-2.48,3.25l1.34-.15a3.66,3.66,0,0,1-.65.37,6.88,6.88,0,0,0-2.27.6c-2.07,1.55-4.08,1.08-6.1.07a3.26,3.26,0,0,1-1.67-2.68C60.69,38.8,60.71,37.68,60.79,36.58ZM24.46,35.31a11.79,11.79,0,0,1-1.6,1.82,2.7,2.7,0,0,0-1.1,2.5c.13,3.51,2.85,5.93,6.36,6.53a14.3,14.3,0,0,0,7.45-.71,5.06,5.06,0,0,0,3.75-4.76c.14-1.69-.86-2.91-2.08-4.07A5.71,5.71,0,0,0,37,39.3a2.25,2.25,0,0,1-.54,2.09,5.25,5.25,0,0,1-4.62,1.86,3.64,3.64,0,0,1-1.67-.53c-.47-.28-.75-.71-1.45-.43-.22.09-.81-.29-1-.58-.47-.88-.61-2-1.27-2.69a2.45,2.45,0,0,1-.8-2A1.49,1.49,0,0,0,24.46,35.31Zm25.32,30.5a16,16,0,0,1-2.89.22,13.26,13.26,0,0,0-6.13,1c-.92.34-1.89,2.26-1.57,3a6.79,6.79,0,0,0,4,4.1,15.52,15.52,0,0,0,3.35.8c3.53.38,7,.28,10.16-1.61a4.06,4.06,0,0,0,1.91-3.49,2.89,2.89,0,0,0-2-2.93,9.09,9.09,0,0,0-5-.85A6.49,6.49,0,0,1,49.78,65.81Z"/><path class="cls-1" d="M11.52,34a29.24,29.24,0,0,1,2.34-11.6l.43.09c-.57,1.84-1.23,3.67-1.68,5.54S11.9,31.85,11.52,34Z"/><path class="cls-1" d="M84.57,22.39a28.29,28.29,0,0,1,2.35,11.47c-.35-1.94-.61-3.91-1.07-5.83s-1.11-3.7-1.68-5.55Z"/><path class="cls-1" d="M27.79,76.89l5.14,6.52A14.33,14.33,0,0,1,27.52,77Z"/><path class="cls-1" d="M69.77,80.37l-3.85,3.09-.2-.2L71.81,77a2.16,2.16,0,0,1-.21.75c-.59.89-1.24,1.74-1.86,2.61Z"/><path class="cls-1" d="M82.55,22a11.65,11.65,0,0,1-5.68,2l5.5-2.39Z"/><path class="cls-1" d="M21.41,24.35l-5.56-2.16.26-.59,5.47,2.35Z"/><path d="M60.79,36.58c-.08,1.11-.11,2.22-.25,3.31a3.26,3.26,0,0,0,1.67,2.68c2,1,4,1.48,6.1-.07a6.88,6.88,0,0,1,2.27-.6,3.66,3.66,0,0,0,.65-.37l-1.34.15c.91-1.18,1.72-2.2,2.48-3.25a1.25,1.25,0,0,0,.23-.85c-.23-1.35.75-2.11,1.62-3.34a3.46,3.46,0,0,0,1.62,3.11,2.42,2.42,0,0,1,.81,1.47,6,6,0,0,1-2.15,5.34c-2.4,2-5.22,2.43-8.3,2.23a12.54,12.54,0,0,1-5.73-1.61,4.8,4.8,0,0,1-1.18-6.83c.36-.47.68-1,1-1.44Zm12.56,0a13.36,13.36,0,0,1,0,1.88,5.73,5.73,0,0,1-.56,2.16c-1.64,2.65-7.36,4.17-10.16,2.63a7.09,7.09,0,0,1-2.47-2.39c-.31-.5.12-1.43.2-2.16a4.55,4.55,0,0,0-.07-.71c-.29.66-.44,1.09-.66,1.49a3.6,3.6,0,0,0,1.64,5,7.32,7.32,0,0,0,2.18.85,40,40,0,0,0,4.45.32,8.1,8.1,0,0,0,6.8-2.83C76.33,40.87,76.26,37.29,73.35,36.59Z"/><path d="M24.46,35.31A1.49,1.49,0,0,1,25.67,37a2.45,2.45,0,0,0,.8,2c.66.69.79,1.81,1.27,2.69.16.29.76.67,1,.58.69-.28,1,.15,1.45.43a3.64,3.64,0,0,0,1.67.53,5.25,5.25,0,0,0,4.62-1.86A2.25,2.25,0,0,0,37,39.3a5.71,5.71,0,0,1,.26-2.68c1.21,1.16,2.21,2.38,2.08,4.07a5.06,5.06,0,0,1-3.75,4.76,14.3,14.3,0,0,1-7.45.71c-3.51-.6-6.23-3-6.36-6.53a2.7,2.7,0,0,1,1.1-2.5A11.79,11.79,0,0,0,24.46,35.31Zm.6,1.4a2.9,2.9,0,0,0-2.35,3.48c.48,2.72,2.14,4.32,4.95,5,3.27.78,6.37.66,9.18-1.26a4.09,4.09,0,0,0,1.47-2.08c.45-1.52.34-1.55-.94-3.86,0,.45.19.88.21,1.33a3.09,3.09,0,0,1-.13,1.54,6,6,0,0,1-5.94,2.89,13.94,13.94,0,0,1-3.08-.9c-2.76-1.15-3.43-2.28-3.3-5.24A8.21,8.21,0,0,0,25.06,36.71Z"/><path d="M49.78,65.81a6.49,6.49,0,0,0,1.79.23,9.09,9.09,0,0,1,5,.85,2.89,2.89,0,0,1,2,2.93,4.06,4.06,0,0,1-1.91,3.49c-3.17,1.89-6.63,2-10.16,1.61a15.52,15.52,0,0,1-3.35-.8,6.79,6.79,0,0,1-4-4.1c-.32-.75.65-2.68,1.57-3a13.26,13.26,0,0,1,6.13-1A16,16,0,0,0,49.78,65.81ZM50,74.57c1.34-.29,3.34-.61,5.26-1.2a3.45,3.45,0,0,0,2.49-2.82,2.47,2.47,0,0,0-1.29-2.95,11.13,11.13,0,0,0-3.75-.94,61.14,61.14,0,0,0-6.78,0,15.5,15.5,0,0,0-4.09.68A2.65,2.65,0,0,0,40.32,69a3.5,3.5,0,0,0,1.5,3.53C44,74.25,46.7,74.26,50,74.57Z"/><path class="cls-1" d="M57.74,58.63l-.51.58c-.66.53-1.25,1.4-2,1.52a33.12,33.12,0,0,1-9.38.39c-1.83-.2-3.5-.46-4.68-2l-.46-.55L40.55,56c.11,0,.16,0,.18.06.19.25.36.5.55.75,1.89,2.41,4.11,4.07,7.52,3.08a1.81,1.81,0,0,1,.93,0c3.05.85,5.24-.4,7-2.63l1.17-1.48Z"/><path d="M57.74,58.63l.19-2.88-1.17,1.48c-1.79,2.24-4,3.49-7,2.63a1.81,1.81,0,0,0-.93,0c-3.41,1-5.63-.67-7.52-3.08-.19-.24-.36-.5-.55-.75,0,0-.07,0-.18-.06l.19,2.65-1.53-5.53.49-.17c.21.4.44.8.62,1.21,1,2.17,2.28,4.1,4.62,5a9.8,9.8,0,0,0,3.09.31,13,13,0,0,1,1.87-.09,6.12,6.12,0,0,0,6.67-2.62c.8-1.21,1.48-2.49,2.34-3.72A17.79,17.79,0,0,1,57.74,58.63Z"/><path d="M41.19,59.16c1.18,1.5,2.85,1.76,4.68,2a33.12,33.12,0,0,0,9.38-.39c.73-.13,1.32-1,2-1.52a3.23,3.23,0,0,1-2.84,2.07,45.34,45.34,0,0,1-10.28,0A3.31,3.31,0,0,1,41.19,59.16Z"/><path class="cls-1" d="M73.35,36.59c2.91.7,3,4.28,1.33,6.24a8.1,8.1,0,0,1-6.8,2.83,40,40,0,0,1-4.45-.32,7.32,7.32,0,0,1-2.18-.85,3.6,3.6,0,0,1-1.64-5c.22-.4.37-.83.66-1.49a4.55,4.55,0,0,1,.07.71c-.08.74-.51,1.66-.2,2.16a7.09,7.09,0,0,0,2.47,2.39c2.8,1.54,8.51,0,10.16-2.63a5.73,5.73,0,0,0,.56-2.16A13.36,13.36,0,0,0,73.35,36.59Z"/><path class="cls-1" d="M25.06,36.71a8.21,8.21,0,0,1,.06.89c-.13,3,.54,4.08,3.3,5.24a13.94,13.94,0,0,0,3.08.9,6,6,0,0,0,5.94-2.89,3.09,3.09,0,0,0,.13-1.54c0-.44-.17-.88-.21-1.33,1.29,2.31,1.4,2.34.94,3.86a4.09,4.09,0,0,1-1.47,2.08c-2.8,1.91-5.91,2-9.18,1.26-2.81-.67-4.47-2.27-4.95-5A2.9,2.9,0,0,1,25.06,36.71Z"/><path class="cls-1" d="M50,74.57c-3.3-.31-6-.32-8.17-2A3.5,3.5,0,0,1,40.32,69a2.65,2.65,0,0,1,1.53-1.68,15.5,15.5,0,0,1,4.09-.68,61.14,61.14,0,0,1,6.78,0,11.13,11.13,0,0,1,3.75.94,2.47,2.47,0,0,1,1.29,2.95,3.45,3.45,0,0,1-2.49,2.82C53.34,74,51.34,74.28,50,74.57Z"/></svg>