<svg id="Layer_1" data-name="Layer 1" xmlns="http://www.w3.org/2000/svg" viewBox="0 0 96 96"><defs><style>.cls-1{fill:#fefefe;}.cls-2{fill:#f9f9f9;}.cls-3{fill:#d4d4d4;}.cls-4{fill:#212121;}.cls-5{fill:#020202;}.cls-6{fill:#f5f5f5;}.cls-7{fill:#f6f6f6;}</style></defs><title>Artboard 1</title><path d="M73.75,96.75H73c-3.49-.39-5.41-2.67-6.84-5.6a83.19,83.19,0,0,1-4.71-13.4A33.88,33.88,0,0,0,58,69.08C54.76,63.85,49.35,63,44.64,67c-3.45,2.9-5.4,6.78-7,10.9-1.75,4.54-3.06,9.24-5.23,13.62a9.18,9.18,0,0,1-5.92,5.26H24.25c-4-1.05-5.53-4.31-7-7.65C12,77.36,9.47,64.89,7.57,52.3c-1.26-8.37-3.48-16.66-3.05-25.2C5,17.25,8.61,8.93,17.34,3.48a16,16,0,0,1,9.28-2.34h5A43.33,43.33,0,0,1,43.43,2.6a12.67,12.67,0,0,0,8.77-.3,18,18,0,0,1,7.71-1.16C61.27,1,62.7,1.54,64,.75h5.25A24.56,24.56,0,0,1,84,6.89c6.79,5.71,9.07,13.18,9.47,21.56a78,78,0,0,1-1.78,20.07c-2.66,12.44-5.16,24.92-8.82,37.12a31.77,31.77,0,0,1-2.65,6.18C78.81,94.45,76.88,96.36,73.75,96.75Z"/><path class="cls-1" d="M26.47,1.37C14.28,3.29,6,13.22,5.55,26.69c-.3,8.53,1.76,16.82,3,25.18,1.85,12.7,4.6,25.2,9.74,37.05,1.35,3.12,3,5.94,6,7.83-7.36,0-14.71,0-22.07,0-1.47,0-2-.13-2-1.85Q.3,48.75.2,2.55C.19.83.73.7,2.19.71c8.1.08,16.21,0,24.31,0q.38.22.24.42C26.65,1.3,26.56,1.37,26.47,1.37Z"/><path class="cls-1" d="M73.75,96.75c3.64-1.47,5.34-4.59,6.82-7.93,3.26-7.36,4.39-15.3,6.28-23,2.47-10,5-20.1,5.57-30.48A57.17,57.17,0,0,0,91.86,23,26.1,26.1,0,0,0,71.3,1.46c-.72-.14-1.52,0-2-.71C77.88.75,86.5.8,95.12.7,96.74.68,97,1,97,2.63Q97,48.75,97,94.87c0,1.61-.31,1.95-1.92,1.92C88,96.69,80.88,96.75,73.75,96.75Z"/><path class="cls-1" d="M26.5,96.75c3.6-2,5.35-5.4,6.68-9.1,1.68-4.68,3.09-9.47,5.29-14a22.93,22.93,0,0,1,5.47-7.5c4.92-4.25,10.72-3.57,14.57,1.72,2.1,2.88,3,6.27,3.91,9.64a74,74,0,0,0,4.47,13c1.35,2.78,3.16,5,6.12,6.16Z"/><path class="cls-2" d="M60.11,1.43a13.52,13.52,0,0,0-6.77,1.62,12.93,12.93,0,0,1-10.69.45A47.94,47.94,0,0,0,31.77,1.38q-.39-.19-.27-.41c.08-.15.16-.22.25-.22h28.5q.38.31.19.51A.45.45,0,0,1,60.11,1.43Z"/><path class="cls-3" d="M31.75.75q0,.31,0,.63h-5.3q0-.31,0-.62Z"/><path class="cls-4" d="M60.11,1.43a.53.53,0,0,0,.14-.68H64C62.87,1.93,61.48,1.58,60.11,1.43Z"/><path class="cls-1" d="M51.16,7.89c9.59-5.52,21.33-4.7,29.39,1.71,5.24,4.16,7.68,9.58,8.28,16.13,1.09,11.91-1.49,23.35-4.2,34.78C82.86,68,81,75.53,79.11,83a27.29,27.29,0,0,1-3.06,7.2c-2.18,3.7-3.45,3.67-5.59-.16-2.45-4.4-3.67-9.25-5-14.06a35.42,35.42,0,0,0-3.13-8.38c-5.1-9-14.69-10.2-21.88-2.85A31,31,0,0,0,33.93,75.6c-1.79,4.65-3.45,9.35-5.29,14-.59,1.48-1.4,3.35-3.15,3.4s-2.42-2-3.1-3.37c-5.39-11.11-8-23-10-35.11-1.21-7.26-2.19-14.56-3.19-21.86a31,31,0,0,1,.28-9.71C11.8,9.73,20.77,3.31,34.17,5.15A38,38,0,0,1,45,7.84c7.55,3.47,11,9.27,10.24,17.73C55.1,27.42,53.78,31,57.09,31c2.79-.06,1.43-3.47,1.51-5.38C58.9,18.6,58,12,51.16,7.89Z"/><path class="cls-5" d="M38.22,21c-.12,1.38-1.13,1.58-2.32,1.75-3.59.49-5.73,2.53-6.14,6.18-.12,1.08-.33,2.14-1.5,2.22-1.4.1-1.74-1-1.86-2.23-.36-3.68-2.56-5.66-6.13-6.17-1-.15-2.12-.22-2.18-1.51-.07-1.45,1-1.71,2.23-1.86,3.61-.43,5.71-2.5,6.09-6.15.11-1.09.28-2,1.54-2.15s1.67.75,1.78,1.87c.4,4,2.57,6.21,6.63,6.47A1.9,1.9,0,0,1,38.22,21Z"/><path class="cls-5" d="M82.23,51.67c-.14,1.21-.92,1.55-2,1.66-3.8.38-5.94,2.51-6.32,6.32-.11,1.12-.42,2-1.69,2s-1.5-1-1.64-2c-.47-3.76-2.56-6-6.4-6.3-1.13-.1-2-.49-2-1.69s1-1.52,2.07-1.64c3.79-.43,6-2.56,6.36-6.36.12-1.1.42-2,1.64-2.06a1.57,1.57,0,0,1,1.64,1.65c.25,4.24,2.61,6.39,6.72,6.81A1.62,1.62,0,0,1,82.23,51.67Z"/><path class="cls-6" d="M28.3,18.73c.79.77,2.14,1.31,2,2.48-.13,1-1.15,2.19-2.21,2.08s-2.47-1.09-2.19-2.44A3.11,3.11,0,0,1,28.3,18.73Z"/><path class="cls-7" d="M72.31,54A3.26,3.26,0,0,1,70,51.85c-.31-1.25,1.05-2.19,1.89-2.38,1.3-.29,2.37,1,2.51,2.14S73.23,53.34,72.31,54Z"/></svg>