<svg id="Layer_1" data-name="Layer 1" xmlns="http://www.w3.org/2000/svg" viewBox="0 0 256 256"><title>Artboard 1</title><path d="M237.54,102.56c-.16,1.42-.25,2.57-.44,3.72-.1.62.06.89.68,1.06,1.53.41,3,.93,4.55,1.32.83.21.8.51.33,1.08a6.46,6.46,0,0,1-4.62,2.44,7.77,7.77,0,0,0-5.41,2.75,37.07,37.07,0,0,0-7.64,12.2,33.93,33.93,0,0,1-4.36,8.26,57.6,57.6,0,0,0-4.19,7.81c-3.54,7.06-9,12.52-14.51,18-1.47,1.48-3,2.89-4.5,4.33a23.23,23.23,0,0,1-7.62,4.41c-11.69,4.77-23.91,6.35-36.44,6.18a105.31,105.31,0,0,0-27.69,3.36c-.16,0-.33,0-.4.37,2.69.12,5.36.22,8,.35,7,.34,14,1,20.84,3a47.4,47.4,0,0,1,7.61,3.14,6.94,6.94,0,0,1,3.83,5c.17.78.08.9-.74.77a57.82,57.82,0,0,1-10.08-2.79c-6.9-2.39-14.1-3.23-21.33-3.8-1.78-.14-3.57-.28-5.35-.49-6.82-.79-13.24.76-19.45,3.4a36.21,36.21,0,0,1-10.39,3.07c5.54-6,12.92-8.11,20-10.89-1.33-.1-2.65-.23-4-.31q-12.11-.65-24.12-2.24a43.63,43.63,0,0,1-20.35-8c-4.71-3.43-9.54-6.71-14.32-10a47.53,47.53,0,0,1-6.28-5.32c-7.67-7.59-15.55-15-23.53-22.22a43.37,43.37,0,0,1-5.2-5.89A1.69,1.69,0,0,0,18.2,126a13.37,13.37,0,0,1-2.12.74,2.32,2.32,0,0,1-2.74-2.21c0-.4.27-.59.49-.82a6.66,6.66,0,0,1,4.5-1.92,11.8,11.8,0,0,0,8.07-3.94,285.73,285.73,0,0,1,22.07-21c7.25-6,15.06-11.13,24-14.23a22.82,22.82,0,0,0,4.87-2.51c3.85-2.48,7.8-4.82,11.51-7.5,8.87-6.4,18.44-7,28.54-3.87a32.37,32.37,0,0,1,3.88,1.37,18.23,18.23,0,0,0,14,.29c3.93-1.37,7.8-2.91,11.72-4.29,6.68-2.34,13.49-2.21,20.35-.95a93.89,93.89,0,0,1,38.21,16.73c4.73,3.4,9.7,6.47,14,10.39,3.89,3.52,7.7,7.13,11.55,10.7l.27.26c2.08,1.94,2.08,1.94,4.45.39ZM224.2,115.44c-2.31.57-4.24,1.55-6.35,1.83a93.51,93.51,0,0,1-19.2.36c-6.27-.46-12.47-1.62-18.75-2-7.89-.46-15.71.06-23.05,3.2a45.74,45.74,0,0,1-14.79,3.78c-2.61.19-5.23.64-7.85.27-2.84-.41-5.67-.93-8.48-1.51a89.68,89.68,0,0,0-26.33-1.64,17.87,17.87,0,0,0-3.09.44c-5.66,1.54-11.3,3.13-16.94,4.72-4.54,1.28-8.85,3.22-13.66,3.8A84.46,84.46,0,0,1,36.33,127c-3.3-.76-6.54-1.64-10-1.27-.41,0-.89-.18-1.19.41s.18.92.45,1.29c2.05,2.88,4.78,5.1,7.36,7.45,11.44,10.38,22.54,21.15,35.13,30.2,5.18,3.72,10.47,7.11,16.78,8.53a94.5,94.5,0,0,0,14.23,1.83,76.83,76.83,0,0,0,23.15-2.4,123.84,123.84,0,0,1,30-3.8c7.17.07,14.33-.2,21.49-.58,3.15-.16,6.31-.17,9.36-1.26a45,45,0,0,0,15.16-9c4.77-4.3,9.68-8.43,12.79-14.23,1.77-3.3,3.39-6.68,5.05-10C219.15,128.17,221.57,121.89,224.2,115.44Zm-55.5-8.75c-.25,1-.39,1.77-.64,2.51-.33,1-.18,1.43,1,1.49,5.74.28,11.48.69,17.22,1s10.62-2.49,15.73-5.09a3.71,3.71,0,0,0-1.95.07,93.08,93.08,0,0,1-20.3,2.43c-.31,0-.73.26-.9-.13s.15-.62.32-.89a5,5,0,0,1,3.73-2.25c3.71-.57,7.33-1.53,11-2.21,4.91-.91,9.77-1,14.47,1,1.48.65,1.49.67.27,1.81a22.3,22.3,0,0,1-5.78,3.42,11.69,11.69,0,0,0-3.91,2.55,4.37,4.37,0,0,0,3-.26c2.79-1.4,5.61-2.74,8.39-4.16a10.71,10.71,0,0,1,4.31-1.12c.73,0,.75.2.62.77a5.8,5.8,0,0,0-.36,2.29c1.88-.49,3.73-.91,5.54-1.48.92-.29,1.51-.22,1.87.73.25.66.64.84,1.35.6,1.18-.4,2.39-.71,3.6-1,.54-.14.77-.27.31-.78-2.88-3.17-5.39-6.72-8.73-9.44-8.5-6.91-17.18-13.63-26.9-18.78-6.5-3.44-13-7-20.41-8.19-4.43-.71-8.8-1.85-13.35-1.67-6.08.24-11.79,2-17.4,4.16a29,29,0,0,1-23.52-.61,22.83,22.83,0,0,0-11.55-2.07,27.25,27.25,0,0,0-13.75,5.15A102.5,102.5,0,0,1,74.36,87c-4.11,1.82-8.29,3.47-12.23,5.66-4.55,2.53-8.44,5.93-12.55,9.06a82.54,82.54,0,0,0-17.82,17.91c-.66.93-.45,1.12.53,1.4a102.36,102.36,0,0,0,13,2.86C56.26,125.54,67,125,77.49,121.29a152.51,152.51,0,0,1,21.4-5.87,57.78,57.78,0,0,1,7.21-.63c.84-.06,1-.33.46-.94s-1.16-1.31-1.77-1.93a5.68,5.68,0,0,1-1.81-3.2c-.1-.74.07-1.08.92-.94a27.26,27.26,0,0,1,4.88,1c3.69,1.3,7.41,2.51,11.08,3.85a39.49,39.49,0,0,0,17.72,1.94l-4.67-.58a65.79,65.79,0,0,1,6.11-3.27c5.8-2.81,11.74-5.37,17-9.17,4.12-3,8.15-6.07,12.21-9.12a6.32,6.32,0,0,1,1.92-1.14c.38-.11.89-.35,1.16,0s0,.86-.35,1.2l-3.06,3.13c-2.95,3-5.91,6.07-9.68,8a71.13,71.13,0,0,0-9.17,6c-.32.23-.77.41-.48,1s.71.17,1,0c2.65-1.21,5.28-2.45,7.93-3.66.24-.11.5-.39.78-.05s0,.53-.16.76l-2.07,2.79Z"/><path d="M84.59,166.3a8.93,8.93,0,0,1-.18-5.68c.53-1.88,1.12-3.75,1.67-5.62a5.25,5.25,0,0,0,.14-2.26l-2.83,3.56a2.93,2.93,0,0,1-.55-2.86c1.86-4.84,1.55-10.08,2.89-15a13.44,13.44,0,0,1,2.58-5.56c1.73,3.79.07,7.43.19,11.1.5-1.61,1-3.23,1.51-4.84a23.06,23.06,0,0,1,2.6-5.79c.61-.94,1-.7,1.46.06a3.4,3.4,0,0,1,.4,2.65c-1.51,6.82-2.5,13.76-4.78,20.4-.65,1.89-1.38,3.74-2.1,5.6A16.6,16.6,0,0,1,84.59,166.3Z"/><path d="M132.84,136.26l1.6,9.57.36,0q0-1.9,0-3.8c0-1.37,0-2.75,0-4.12,0-.55-.35-1.35.26-1.59s1.25.32,1.77.73a3.19,3.19,0,0,1,1.15,2.41c.37,6,.7,12.05.83,18.09a7.94,7.94,0,0,1-2.69,6.15l-.54-11.1h-.23c-.2,1.6-.39,3.2-.61,4.79a16.48,16.48,0,0,1-1.05,3.84c-.33.82-.73.75-1.26.21a2.41,2.41,0,0,1-.64-1.7q-.41-9.23-.83-18.46a6.31,6.31,0,0,1,1-4.17A1.56,1.56,0,0,1,132.84,136.26Z"/><path d="M146.51,141.62c.51,3.43,1,6.63,1.47,9.84.29,2,.52,4,.84,5.93a10.86,10.86,0,0,1-.06,3.6c-.22,1.29-.64,1.66-1.86,1.23s-1.64,0-2.19.88c-.38.61-.64,1.69-1.66,1.37s-.72-1.3-.78-2.06q-.61-7.27-1.2-14.55c0-.37,0-.74,0-1.36l3.58,3.8C144.44,147.15,143.61,144.08,146.51,141.62Z"/><path d="M177,146.27a65.11,65.11,0,0,0-3.67-11.62,11.48,11.48,0,0,1-1.14-4.31c0-.37-.11-.72.35-.95s.68.09,1,.33c2.55,2.16,3.83,5.1,4.86,8.14,1.44,4.25,2.27,8.68,3.78,12.92.31.86-.2.83-.75.65s-.83-.39-1.25-.55c-.61-.24-1.3-.38-1.7.24s-1,.53-1.56.21a9.55,9.55,0,0,1-4.15-5.27,17.17,17.17,0,0,1-.87-5c0-.24-.12-.54.12-.69s.54.13.75.29a8.16,8.16,0,0,1,2.47,3.08A7.65,7.65,0,0,0,177,146.27Z"/><path d="M95.88,165.24a20.65,20.65,0,0,1-.58-7.09,78.66,78.66,0,0,1,1.89-13.81c.07-.29,0-.77.4-.8.2,0,.45.32.63.54a5.35,5.35,0,0,1,1.3,3.43,63.93,63.93,0,0,1-1.05,12.9A8.62,8.62,0,0,1,95.88,165.24Z"/><path d="M187.65,153.35a1.78,1.78,0,0,1-1-1.3q-2.86-7.64-5.7-15.29a6.76,6.76,0,0,1,0-5.51C184.73,138.21,189.07,144.82,187.65,153.35Z"/><path d="M128.68,139.17a106.18,106.18,0,0,1,0,13.64c-.16,2.66-.43,5.31-.66,8,0,.47.08,1-.61,1.21s-.82-.44-1-.85a3.6,3.6,0,0,1-.46-1.28A45.8,45.8,0,0,1,127,142.4,8,8,0,0,1,128.68,139.17Z"/><path d="M186.9,129.62c4.33,5.51,6.91,12.06,11.12,17.79a6.38,6.38,0,0,1-4-1.46,16.91,16.91,0,0,1-5.24-7.61A26.67,26.67,0,0,1,186.9,129.62Z"/><path d="M153.8,154.7c-1.87-7.39-1.65-14.89-3-22.21C155.11,135.1,157.15,149.7,153.8,154.7Z"/><path d="M78.51,147.67c.32-3.62,1.13-7.52,4.47-10.37.94-.81,1.51-.63,1.78.58a3.26,3.26,0,0,1-.14,1.84c-1.35,3.71-2.72,7.4-4,11.12-.32.89-.63.63-1.08.16A4.13,4.13,0,0,1,78.51,147.67Z"/><path d="M112.84,162.11a3.44,3.44,0,0,1-1.5-2,24,24,0,0,1,.16-15.89,5.54,5.54,0,0,1,.39-.78c.12-.22.22-.48.54-.39a.53.53,0,0,1,.42.54c0,.29,0,.58,0,.87q0,8.36,0,16.72C112.89,161.4,112.87,161.64,112.84,162.11Z"/><path d="M101.4,161.83c-.69-8.64.09-17.05,3.75-25C104.44,145.22,103.94,153.68,101.4,161.83Z"/><path d="M169,151.39c-2.14-5.36-4.81-10.53-5.18-16.43,0-.49-.36-1.22.28-1.43a1.57,1.57,0,0,1,1.61.75,3,3,0,0,1,.47.87c1.33,4,2.76,8,3.2,12.28A8.5,8.5,0,0,1,169,151.39Z"/><path d="M121.85,144.19c2.73,4.43.44,9.1.92,13.7C119.56,156,119.37,147.26,121.85,144.19Z"/><path d="M200.89,140.29c-3.78-.11-6-2.29-6.27-6-.07-1,.12-1.31,1.15-.86a12.32,12.32,0,0,1,6,6.2C202.31,140.67,201.15,140.08,200.89,140.29Z"/><path d="M73.17,147.64c-1.87-4.46-.38-8.11,1.59-11.87a4.24,4.24,0,0,1,.94,3.58A66.55,66.55,0,0,1,73.17,147.64Z"/><path d="M207.22,132.88c-3.46,2-6.62.74-8.09-2.95-.24-.61.07-.62.49-.65a7.44,7.44,0,0,1,3.76.72A14.11,14.11,0,0,1,207.22,132.88Z"/><path d="M62.87,136.5c-.78,2.69-1.47,5.16-2.23,7.6-.24.78-.9.38-1.37.25-.87-.25-1.66-.79-1.36-1.77A9.49,9.49,0,0,1,62.87,136.5Z"/><path d="M67.51,147.31a7.26,7.26,0,0,1,.38-9.65c.32-.36.64-.55,1.07-.36s.16.58.11.87C68.57,141.14,68.06,144.12,67.51,147.31Z"/><path d="M182,162.89a7.55,7.55,0,0,1-9.44,1.9Z"/><path d="M57.72,135.59l-3.56,7.31C52.79,140.15,54.17,137.31,57.72,135.59Z"/><path d="M159.2,165.08c2.61-1.75,5.4-1.55,8.21-1a.52.52,0,0,1,.45.64c-.05.33-.31.35-.57.35Z"/><path d="M211.29,128.59c-.66.86-1.2,2-2.34,1.64-1.56-.45-1.65-2-2.26-3.58Z"/><path d="M190.88,158.91l6.22-3.78A5.55,5.55,0,0,1,190.88,158.91Z"/><path d="M46.68,139.89c-.31-.1-.49-.26-.26-.62.36-.56.7-1.13,1.05-1.69.12-.19.27-.34.5-.19a.82.82,0,0,1,.31.36A6.57,6.57,0,0,1,46.68,139.89Z"/><path d="M79.88,108.82a84.37,84.37,0,0,1-9.75-6.12,7.62,7.62,0,0,1,7-.08,39.87,39.87,0,0,1,4.45,2.51c3.21,2.08,6.36,4.25,9.54,6.38a2.15,2.15,0,0,1,1.17,1.92c-.06,1.37-.66,1.73-1.86,1.1-2.2-1.17-4.42-2.32-6.59-3.54A1.51,1.51,0,0,0,82,111a9.29,9.29,0,0,1-9.27.69,6.55,6.55,0,0,1-3.2-3.2c-.53-1.1-.42-1.33.82-1.55a6.65,6.65,0,0,1,3,.19c1.76.48,3.41,1.34,5.22,1.65A1.8,1.8,0,0,0,79.88,108.82Z"/><path d="M141.19,91c.84,3.06-1.88,4.71-2.48,7.3,4.68-2.65,7.59-7.37,12.71-9.35a6.73,6.73,0,0,1-2,3.68c-5.06,4.82-9.76,10-15.39,14.21-.4.3-.71,1-1.36.61a2.3,2.3,0,0,1-1.41-1.78,3.13,3.13,0,0,1,.28-1.58C133.68,99,137.11,94.86,141.19,91Z"/><path d="M103.36,96.55a11,11,0,0,1,6.45.61c1.95.7,3.84,1.53,6,2.41-1.35-2.75-4.9-3.84-4.7-7.48,1.77,1.09,3.43,2.1,5.06,3.14a42.38,42.38,0,0,1,8.65,6.72c.34.37.65.76,1,1.12s.1.75-.12,1.1-.51.33-.84.14-.83-.38-1.23-.6c-1-.57-2-1.22-3.19-.07a2.32,2.32,0,0,1-2.62,0c-3.86-2-7.94-3.42-11.91-5.13A7.33,7.33,0,0,1,103.36,96.55Z"/><path d="M159.77,88.44a9,9,0,0,1-2.18,4.91C152.47,99.41,146.9,105,140,109c-.62.36-.81.16-.93-.39a2.43,2.43,0,0,1,.82-2.47l19.31-17.32A6.85,6.85,0,0,1,159.77,88.44Z"/><path d="M178.62,93.9a6.31,6.31,0,0,1-1.52,3,51.25,51.25,0,0,1-15.85,8.9c.22-1.13.27-2.18,1.08-2.81A75.35,75.35,0,0,1,178.62,93.9Z"/><path d="M64.82,111.46A16.75,16.75,0,0,1,75.09,115c.7.56.68.85-.17,1.24-5.28,2.39-9.75.42-13.22-3.78-.34-.42-.29-.62.26-.74A13.08,13.08,0,0,1,64.82,111.46Z"/><path d="M96.67,99a31.29,31.29,0,0,1,8.49,2,41.77,41.77,0,0,1,9.28,4.2c.36.23,1,.45.84.94a1.27,1.27,0,0,1-1.48.66,23.37,23.37,0,0,1-2.51-.71,64.88,64.88,0,0,1-10.92-4.17A10,10,0,0,1,96.67,99Z"/><path d="M66.72,120.48a24,24,0,0,1-13.95-4C55.74,114.29,63.73,116.94,66.72,120.48Z"/><path d="M95.71,109.07c-5.14-.63-8.81-3.61-12.55-6.7C87.36,100.5,93.73,105.58,95.71,109.07Z"/><path d="M104.26,105.35a2.68,2.68,0,0,1-3,1A19.36,19.36,0,0,1,92.4,102c-.25-.22-.49-.45-.72-.69,0,0,0-.14-.1-.36C96.34,101,100.15,103.54,104.26,105.35Z"/><path d="M179.29,104.79c1.76-3.08,10.13-4.95,13.76-4.71A22.32,22.32,0,0,1,179.29,104.79Z"/><path d="M189.2,94.87c-3.61,3.82-7.59,6.46-12.69,7.3C178.36,99.64,185.47,95.51,189.2,94.87Z"/><path d="M129.25,91c1.75,4.48-.61,8.32-1.57,12.37C125.94,100.72,126.92,95.55,129.25,91Z"/><path d="M195.45,91c-2.62-.94-5-1.95-6.52-4.42-.47-.8-.27-1,.57-1C193,85.56,195.51,87.72,195.45,91Z"/><path d="M159.18,81.64a14,14,0,0,1-3.88,1.19,4.9,4.9,0,0,1-4.24-1.9c-.28-.29-.36-.47.12-.71A7.33,7.33,0,0,1,159.18,81.64Z"/><path d="M107.26,79.36,98.92,82.6c-.36.14-.58.17-.79-.25s0-.68.3-.94A10.25,10.25,0,0,1,107.26,79.36Z"/><path d="M176.43,84.74l-5.63-1.64c-.27-.08-.63-.14-.5-.55s.09-.71.6-.82A5.33,5.33,0,0,1,176.43,84.74Z"/><path d="M112.49,79.38A10.08,10.08,0,0,1,120,77.22C117.65,78.83,115.49,80,112.49,79.38Z"/><path d="M83.49,90.59,76.1,95.36C76.72,92.91,80.64,90.36,83.49,90.59Z"/></svg>