<svg id="Layer_1" data-name="Layer 1" xmlns="http://www.w3.org/2000/svg" viewBox="0 0 200 200"><defs><style>.cls-1{fill:#fff;}</style></defs><title>Artboard 1</title><path class="cls-1" d="M1,201V1H201V201Zm144.92-19.42-.47-.58-.45.45a4.59,4.59,0,0,0,.6.44s.2-.19-.6-.89a27.06,27.06,0,0,0-.36-2.85c-.85-3.64-2.11-7.22-2.54-10.9s-.12-7.64-.08-11.47a14.22,14.22,0,0,1,.7-3.18c1.8-7.42,5.89-13.89,8.35-21,1.33-3.86,3-7.57,2.94-11.75,0-2.66-.16-5.33,0-8a12.69,12.69,0,0,0-1.63-6.83,71.47,71.47,0,0,0-6.35-10.33,13.64,13.64,0,0,0-8.51-5.7H138a2.78,2.78,0,0,0-.3-.76c0-.06-.4.1-.61.17A1.55,1.55,0,0,0,138,89c1.76,2.26,3.71,4.4,5.24,6.81,3.48,5.48,6.43,11.18,5.78,18-.22,2.28.22,4.68-.32,6.86-1.53,6.12-4.12,11.89-6.56,17.7-1.85,4.41-4.28,8.7-4.15,13.73-1.76,2.33-.71,5-1,7.56,2.13,2.2-.13,5.47,1.88,7.69-.7,3.07,2.38,5.14,2.12,8.09C142.76,177,142.34,180.12,145.92,181.58Zm-40.78,1.78a17.12,17.12,0,0,0,2.53-2.58,58.79,58.79,0,0,0,6.42-13.33c1-3.2,1.13-6.5,1.78-9.72.41-2-.58-4.35-.85-6.56a33.17,33.17,0,0,0-2.63-9.41c-2.84-6.52-7.27-12-11.12-17.86A46.92,46.92,0,0,1,94,102.42c-.25-2.43.74-4.77.85-7.09.27-5.5,2.32-10.38,4.56-15.15,2.5-5.31,5.66-10.31,8.38-15.52a40.31,40.31,0,0,0,4.12-16.25,43.38,43.38,0,0,0-.72-11.11,47.82,47.82,0,0,0-2.57-9C105.16,19.88,99.27,13.07,92.48,7c-.23-.2-.89.08-1.58.17,3,3.67,6.65,6.44,9.18,10.27,5.5,8.32,9.08,17.11,9,27.3-.06,6.49-2,12.39-4.55,18.13-3.1,6.93-8,12.9-11,19.94-1.93,4.53-3.57,9-3.57,14,0,1,.18,2.2-.32,2.83a5.15,5.15,0,0,0-.5,5.18c1,2.43.65,4.77.83,7.15a10.62,10.62,0,0,0,0,1.48c.62,2.81,5.12,12.35,7,15.07q3.55,5,7.07,10.06c4.45,6.35,7.51,13.14,6.86,21.15-.15,1.82,0,3.66,0,5.49a6.15,6.15,0,0,1-.24,2.39c-2.08,4.47-2.59,9.58-5.59,13.69C104.95,181.68,105.13,182.27,105.13,183.37ZM52.26,92.21a43.18,43.18,0,0,1,9,13.41A46.93,46.93,0,0,1,63.93,115c.79,3.69-.42,7.39-1.4,10.87-2.12,7.55-5.3,14.74-8.49,21.91A21.31,21.31,0,0,0,52,156.87c.06,2.83.07,5.66,0,8.48s1,5.21,1.66,7.8c1.12,4.66,4,8.48,5.87,13,.25-.57.48-.86.47-1.13a5.13,5.13,0,0,0-.33-1.85c-2.31-4.9-2.71-10.27-3.51-15.47a25.18,25.18,0,0,1,.67-10.09,53.18,53.18,0,0,1,3.08-9.23,132.42,132.42,0,0,0,5.48-13.19c1.3-3.87,2-7.86,3-11.76,1.36-5.36,0-10.08-1.5-14.79-1-3-3.2-5.65-4.87-8.45A19.48,19.48,0,0,0,52.26,92.21ZM161,41.76c-1.46.51-3.18-.55-3.14,1.81a7.48,7.48,0,0,1-1.56.14c-.26-1.26-.81-2-2.25-1.71s-2.42,1.37-2,2.79c.69,2.32-1.41,2.29-2.36,2.9-3.1,2-3.42,3.9-.55,5.89a7.5,7.5,0,0,0,3.39,1.35,45.65,45.65,0,0,0,7,0c1.79-.11,3.83-.94,4.3-2.47s1.35-4.2-1.76-5.06c-.49-.14-.86-1.27-1-2A24.86,24.86,0,0,1,161,41.76Z"/><path d="M105.13,183.37c0-1.1-.19-1.69,0-2,3-4.1,3.51-9.21,5.59-13.69a6.15,6.15,0,0,0,.24-2.39c0-1.83-.11-3.67,0-5.49.64-8-2.42-14.8-6.86-21.15q-3.53-5-7.07-10.06c-1.92-2.72-6.42-12.26-7-15.07A10.62,10.62,0,0,1,90,112c-.18-2.38.21-4.73-.83-7.15a5.15,5.15,0,0,1,.5-5.18c.5-.64.32-1.87.32-2.83,0-5,1.64-9.49,3.57-14,3-7,7.87-13,11-19.94,2.57-5.75,4.49-11.65,4.55-18.13.09-10.19-3.49-19-9-27.3-2.53-3.83-6.15-6.6-9.18-10.27.69-.09,1.35-.37,1.58-.17,6.79,6,12.68,12.83,16.14,21.27a47.82,47.82,0,0,1,2.57,9,43.38,43.38,0,0,1,.72,11.11,40.31,40.31,0,0,1-4.12,16.25c-2.72,5.21-5.88,10.21-8.38,15.52-2.25,4.77-4.3,9.64-4.56,15.15-.11,2.31-1.11,4.66-.85,7.09a46.92,46.92,0,0,0,7.26,21.5c3.85,5.84,8.28,11.33,11.12,17.86a33.17,33.17,0,0,1,2.63,9.41c.26,2.2,1.26,4.51.85,6.56-.64,3.22-.82,6.52-1.78,9.72a58.79,58.79,0,0,1-6.42,13.33A17.12,17.12,0,0,1,105.13,183.37Z"/><path d="M138,89c3.5.75,6.06,3.05,8.07,5.7A71.47,71.47,0,0,1,152.42,105a12.69,12.69,0,0,1,1.63,6.83c-.2,2.65-.07,5.32,0,8,.06,4.19-1.62,7.9-2.94,11.75-2.46,7.14-6.55,13.6-8.35,21a14.22,14.22,0,0,0-.7,3.18c0,3.83-.36,7.69.08,11.47s1.69,7.26,2.54,10.9A27.06,27.06,0,0,1,145,181c-2.66-.88-2.24-4-4-5.52.27-3-2.82-5-2.12-8.09-2-2.22.24-5.49-1.88-7.69.29-2.53-.76-5.23,1-7.56-.13-5,2.29-9.31,4.15-13.73,2.44-5.81,5-11.58,6.56-17.7.54-2.18.11-4.58.32-6.86.65-6.85-2.3-12.55-5.78-18C141.71,93.4,139.76,91.26,138,89Z"/><path d="M52.26,92.21a19.48,19.48,0,0,1,9.74,8c1.67,2.8,3.9,5.42,4.87,8.45,1.51,4.72,2.86,9.43,1.5,14.79-1,3.9-1.69,7.9-3,11.76a132.42,132.42,0,0,1-5.48,13.19,53.18,53.18,0,0,0-3.08,9.23,25.18,25.18,0,0,0-.67,10.09c.8,5.21,1.2,10.58,3.51,15.47A5.13,5.13,0,0,1,60,185c0,.27-.22.56-.47,1.13-1.87-4.53-4.75-8.35-5.87-13-.62-2.59-1.73-5.05-1.66-7.8s.07-5.65,0-8.48a21.31,21.31,0,0,1,2.06-9.13c3.19-7.17,6.37-14.37,8.49-21.91,1-3.47,2.19-7.17,1.4-10.87a46.93,46.93,0,0,0-2.71-9.34A43.18,43.18,0,0,0,52.26,92.21Z"/><path d="M161,41.76a24.86,24.86,0,0,0,0,3.67c.13.73.5,1.86,1,2,3.11.87,2.26,3.44,1.76,5.06s-2.51,2.35-4.3,2.47a45.65,45.65,0,0,1-7,0,7.5,7.5,0,0,1-3.39-1.35c-2.87-2-2.55-3.91.55-5.89,1-.61,3.06-.58,2.36-2.9-.43-1.43.51-2.45,2-2.79s2,.45,2.25,1.71a7.48,7.48,0,0,0,1.56-.14C157.82,41.22,159.54,42.27,161,41.76Zm-.86,3.66-.44-1.22L158,45.5c.25.17.53.5.75.47A6.92,6.92,0,0,0,160.14,45.42Zm-4.94-.89-.86-.37c-.11.27-.37.59-.31.82a3,3,0,0,0,.62.87Z"/><path d="M137.55,89l-.46-.59c.21-.06.56-.23.61-.17a2.78,2.78,0,0,1,.3.76Z"/><path d="M145.92,181.58c-.12.12-.28.33-.32.31a4.59,4.59,0,0,1-.6-.44l.45-.45Z"/><path class="cls-1" d="M160.14,45.42a6.92,6.92,0,0,1-1.4.54c-.22,0-.5-.3-.75-.47l1.7-1.3Z"/><path class="cls-1" d="M155.21,44.53l-.55,1.31A3,3,0,0,1,154,45c-.06-.23.19-.54.31-.82Z"/></svg>