<svg id="Layer_1" data-name="Layer 1" xmlns="http://www.w3.org/2000/svg" viewBox="0 0 312.24 312.19"><defs><style>.cls-1{fill:#fff;}</style></defs><title>Artboard 1</title><path class="cls-1" d="M.25,312.19V.25h312V312.19Zm213.62-40.65.33-.16a48.17,48.17,0,0,0,5.93-3.29,9.07,9.07,0,0,0,3-3.77c1.34-3.46-.09-6.1-3.25-8.45-4.53-3.36-9.9-4.72-15.33-5.76-2.85-.55-5.75-.87-8.71-1.3,0-.4,0-.8,0-1.19.24-4.95.44-9.9.74-14.85a178,178,0,0,1,3.78-29.08c1.44-6.25,3.2-12.44,5-18.58,1.08-3.62,2.51-7.15,4-10.65,2.12-5.16,4.43-10.25,6.59-15.4a70.4,70.4,0,0,0,4.48-15.12,78.24,78.24,0,0,0,1-9.52c.42-8.37-.62-16.44-5.49-23.6a23.33,23.33,0,0,0-6.09-6.2,31,31,0,0,0-8.89-4.35c-.94-.27-1.12-.74-1.11-1.62.05-2.68,0-5.36,0-8,.1-3.88-1.44-6.72-5.07-8.29a1.34,1.34,0,0,1-.88-1.47c0-5,0-10,0-15a1.46,1.46,0,0,1,.74-1.46,9.74,9.74,0,0,0,4.77-6.17,1.29,1.29,0,0,1,.47-.64c2.33-1.81,4.66-3.63,7-5.4a2.37,2.37,0,0,0,.91-3.2,2.23,2.23,0,0,0-3.13-.79c-1.75.77-3.59,1.39-5.26,2.32s-3.15,1.26-4.57-.39a2.77,2.77,0,0,0-1-.56c-1.32-.55-2.65-1.08-4-1.62,0-1,0-2,0-3,.1-7-.75-13.86-4.15-20.17a19.34,19.34,0,0,0-8.12-8.22,21.39,21.39,0,0,0-12.07-2.37c-7.24.67-11.47,4.11-13.83,10.59-1.81,5-1.9,10.27-2.18,15.49-.44,8.06-.67,16.13-1.23,24.18a48,48,0,0,1-3.46,14.27A99.91,99.91,0,0,1,136.4,94.8c-3,4.83-6,9.71-9,14.55-2.58,4.12-5.24,8.21-7.85,12.32-2,3.1-3.93,6.2-5.84,9.34-2.22,3.64-4.47,7.28-6.56,11-2.23,4-4.42,8-6.4,12-2.23,4.59-4.34,9.24-6.26,14a84.78,84.78,0,0,0-4.53,15.6,47.23,47.23,0,0,0-.5,17.16,71.15,71.15,0,0,0,6,19,81.57,81.57,0,0,0,7.71,12.92,72.78,72.78,0,0,0,11.18,12.11,60.63,60.63,0,0,0,10.21,7.08,3,3,0,0,1,1,1.09,5.68,5.68,0,0,0,3.07,2.53c2.67,1,5.34,1.88,8,2.89a1.34,1.34,0,0,1,.68,1A23.86,23.86,0,0,0,140.66,271,44.28,44.28,0,0,0,151.07,283a67.34,67.34,0,0,0,16.41,10,62.73,62.73,0,0,0,19.85,5.16c6.81.59,13.46-.06,19.65-3.41,5.53-3,9.41-9.16,8.56-15.61C215.22,276.67,214.47,274.22,213.87,271.55Z"/><path d="M213.87,271.55c.6,2.67,1.35,5.12,1.68,7.63.85,6.45-3,12.62-8.56,15.61-6.19,3.35-12.84,4-19.65,3.41A62.73,62.73,0,0,1,167.49,293a67.34,67.34,0,0,1-16.41-10A44.28,44.28,0,0,1,140.66,271a23.86,23.86,0,0,1-3.31-11.59,1.34,1.34,0,0,0-.68-1c-2.65-1-5.32-1.94-8-2.89a5.68,5.68,0,0,1-3.07-2.53,3,3,0,0,0-1-1.09,60.63,60.63,0,0,1-10.21-7.08,72.78,72.78,0,0,1-11.18-12.11,81.57,81.57,0,0,1-7.71-12.92,71.15,71.15,0,0,1-6-19,47.23,47.23,0,0,1,.5-17.16A84.78,84.78,0,0,1,94.48,168c1.92-4.72,4-9.38,6.26-14,2-4.09,4.17-8.09,6.4-12,2.09-3.72,4.34-7.35,6.56-11,1.91-3.13,3.88-6.24,5.84-9.34,2.61-4.11,5.26-8.19,7.85-12.32,3-4.83,6-9.71,9-14.55a99.91,99.91,0,0,0,8.43-16.09,48,48,0,0,0,3.46-14.27c.57-8,.8-16.12,1.23-24.18.28-5.22.37-10.51,2.18-15.49,2.36-6.48,6.59-9.91,13.83-10.59a21.39,21.39,0,0,1,12.07,2.37,19.34,19.34,0,0,1,8.12,8.22c3.4,6.31,4.26,13.14,4.15,20.17,0,1,0,2,0,3,1.31.53,2.65,1.06,4,1.62a2.77,2.77,0,0,1,1,.56c1.42,1.65,2.87,1.33,4.57.39S203,49,204.71,48.2a2.23,2.23,0,0,1,3.13.79,2.37,2.37,0,0,1-.91,3.2c-2.36,1.77-4.69,3.59-7,5.4a1.29,1.29,0,0,0-.47.64,9.74,9.74,0,0,1-4.77,6.17,1.46,1.46,0,0,0-.74,1.46c0,5,0,10,0,15a1.34,1.34,0,0,0,.88,1.47c3.63,1.57,5.16,4.41,5.07,8.29-.07,2.68,0,5.36,0,8,0,.88.16,1.35,1.11,1.62a31,31,0,0,1,8.89,4.35,23.33,23.33,0,0,1,6.09,6.2c4.88,7.16,5.91,15.23,5.49,23.6a78.24,78.24,0,0,1-1,9.52,70.4,70.4,0,0,1-4.48,15.12c-2.16,5.15-4.47,10.24-6.59,15.4-1.44,3.5-2.87,7-4,10.65-1.84,6.15-3.6,12.33-5,18.58a178,178,0,0,0-3.78,29.08c-.3,4.95-.5,9.9-.74,14.85,0,.39,0,.79,0,1.19,3,.44,5.86.76,8.71,1.3,5.43,1,10.8,2.4,15.33,5.76,3.16,2.35,4.59,5,3.25,8.45a9.07,9.07,0,0,1-3,3.77,48.17,48.17,0,0,1-5.93,3.29Zm-58.8-24.17-.34.34a5.29,5.29,0,0,1-1.49.16c-3-.54-5.29.9-7.5,2.59a10.39,10.39,0,0,0-1.11,1.16l5.65.53-.35.36c-1.7,0-3.41.09-5.11,0-1.15,0-1.68.48-1.9,1.59,23.84,7.72,46.13,18.65,67.36,31.77a1.29,1.29,0,0,0,0-2c-3.3-3.46-6.45-7.07-9.91-10.36a69.09,69.09,0,0,0-12.41-9.13,83.47,83.47,0,0,0-14.8-6.95c-2.25-.8-4.51-1.55-6.77-2.32l-.56-.55a5.25,5.25,0,0,1,1.13.12c3.41,1.11,6.87,2.1,10.2,3.42A65.18,65.18,0,0,1,190.4,265a95.23,95.23,0,0,1,9.32,6.89c3.36,3,6.34,6.39,9.47,9.62.65.67,1.24,1.41,1.86,2.12l.44-.1c-.1-1.89-.19-3.77-.29-5.66-.08-1.37-1.11-2.13-1.91-3.06a75.57,75.57,0,0,0-21.85-17.45,77.24,77.24,0,0,0-23-8.07c-1.68-.3-3.34-.7-5-1l-.33-.35a7.11,7.11,0,0,1,1.58-.1A86.12,86.12,0,0,1,183,254.26a81,81,0,0,1,14.72,8.66A73.1,73.1,0,0,1,208.84,273c.29.32.62.61.94.91a13.78,13.78,0,0,0-1.29-2.9,43.19,43.19,0,0,0-11.82-12.71,63.11,63.11,0,0,0-20.15-10,50,50,0,0,0-19.53-2c-1.2.12-2.39.39-3.58.6l0,.23ZM171.38,99.76c0-3.35,0-6.71,0-10.07a7.43,7.43,0,0,1,4.22-7,1.36,1.36,0,0,0,.9-1.44q0-7.74,0-15.48a1.57,1.57,0,0,0-.89-1.49c-1.88-1.25-3.59-2.7-4.26-5-1.21-4.16,1.25-7.88,5.33-9.78,1.08-.5,2.22-.87,3.3-1.36a1.25,1.25,0,0,0,.65-.71,9.12,9.12,0,0,0,.3-2.12,42.86,42.86,0,0,0-1.6-12.67,15.09,15.09,0,0,0-3.54-6.3c-2.32-2.4-5.27-3.2-8.5-3.2-2.63,0-5.08.45-6.38,3.11A11.3,11.3,0,0,0,159.61,30c-.5,5.37-1,10.74-1.15,16.13-.19,9.47-.6,18.9-2.79,28.14A70.84,70.84,0,0,1,147,94.5c-3.67,6.08-7.36,12.15-11.11,18.17-3.27,5.25-6.69,10.41-10,15.64-2.7,4.29-5.43,8.57-7.93,13-3.49,6.14-7,12.27-10.08,18.63-2.67,5.56-4.8,11.39-6.94,17.19a45.6,45.6,0,0,0,.17,32.93,67.08,67.08,0,0,0,6.63,13.65A63.92,63.92,0,0,0,117,235.11a55.35,55.35,0,0,0,11.42,8.63,4.58,4.58,0,0,0,1.59.3,17.73,17.73,0,0,1,3,.43c2.8.92,5.57,2,8.34,3a1.79,1.79,0,0,0,2.05-.33A20.76,20.76,0,0,1,152.1,243a41.59,41.59,0,0,1,15.7-.67c2.36.3,4.71.79,7.1,1.2a3.4,3.4,0,0,0,.06-.63c-.51-7.42-.79-14.86-1.63-22.24-.73-6.45-2-12.84-3.2-19.24a65.27,65.27,0,0,0-2.06-8.49c-1.84-5.64-3.82-11.25-5.89-16.81-1.34-3.59-3-7-4.42-10.61-2-5-4.22-9.93-5.68-15.09a61.72,61.72,0,0,1-2.31-24.54,33.44,33.44,0,0,1,4-13.08A26.22,26.22,0,0,1,168.09,101C169.17,100.62,170.24,100.19,171.38,99.76Zm36.46,8.54c-3.51,3.33-7.77,4.81-12.23,5.67a56,56,0,0,1-19.2.19c-4.41-.69-8.67-2-12.14-5-1-.89-1.61-.67-2.46.09a23.6,23.6,0,0,0-7.23,12.57c-1.78,7.57-1.25,15.18.23,22.73s4.67,14.62,7.65,21.71c2.3,5.47,4.49,11,6.72,16.49.23.56.39,1.14.61,1.79,1.19-1.48,2.11-1.82,3.11-1.25a2.07,2.07,0,0,1,.86,2.6c-.13.35-.39.81-.69.89a15.88,15.88,0,0,1-2.27.37l4.12,16.09c1-1.05,2.14-1.28,3.07-.67a2,2,0,0,1,.72,2.43,1.47,1.47,0,0,1-.87.91,16.56,16.56,0,0,1-2.52.17c2.16,11.21,3,22.7,3.76,34.28,1.08-.6,2.15-.9,3,.06a2.13,2.13,0,0,1,.23,2.58c-.76,1.39-2,1-3.12.61a1.08,1.08,0,0,0,.8,1.5c2.93,1.15,5.81,2.41,8.7,3.66,1,.42,1.91.91,3.06,1.46,0-.73,0-1.24,0-1.75.49-8.74.67-17.51,1.57-26.21.78-7.52,2.3-15,3.66-22.41a112.12,112.12,0,0,1,5.88-20.07c2.06-5.36,4.4-10.61,6.52-15.95,1.94-4.88,3.93-9.76,5.6-14.75a55.57,55.57,0,0,0,2.26-13.56c.51-6.79-.05-13.39-3.07-19.62A20.72,20.72,0,0,0,207.84,108.3Zm-53.73-83a13.16,13.16,0,0,0-.54,1.73,95.56,95.56,0,0,0-1.39,9.47c-.46,8.1-.54,16.22-1,24.32A61.27,61.27,0,0,1,147,79.67a100,100,0,0,1-7.34,14.5c-3.65,6.13-7.52,12.13-11.33,18.17-3.41,5.4-6.94,10.71-10.28,16.15-3.63,5.91-7.27,11.84-10.58,17.93-3.14,5.78-6,11.73-8.76,17.69a85.25,85.25,0,0,0-6.33,19.54,46.85,46.85,0,0,0,.26,20.67,74.59,74.59,0,0,0,16.78,32.25,64.19,64.19,0,0,0,10.84,9.76c1.48,1.06,3.08,2,4.59,2.91l1.75-3.72a58,58,0,0,1-12.9-10.31A65,65,0,0,1,102.36,219,109.53,109.53,0,0,1,98,208.27a41.35,41.35,0,0,1-2.48-13.13c-.23-8.21,1.83-16,4.64-23.6a149.08,149.08,0,0,1,9.73-20.93c2.93-5.26,6-10.45,9.08-15.61s6.28-10.19,9.47-15.25c4.22-6.72,8.62-13.34,12.68-20.16,3.22-5.4,6.3-10.92,9-16.6,3.19-6.74,4.53-14.05,5.12-21.44.5-6.33.5-12.7.8-19,.24-5,.06-10,1.62-14.84a.94.94,0,0,0-.4-.79C156.3,26.33,155.28,25.88,154.11,25.31ZM209.86,286.6c-2.21-1.32-4.42-2.67-6.66-4-4-2.3-8-4.64-12.05-6.83s-8-4.2-12.14-6.16q-6.9-3.31-13.92-6.36c-3.58-1.55-7.24-2.94-10.9-4.31s-7.27-2.58-10.92-3.83a.88.88,0,0,0-.79.15.93.93,0,0,0,.11.83q1.09,1.48,2.28,2.9A82.58,82.58,0,0,0,161,273.7a78.92,78.92,0,0,0,17,8.94,74.88,74.88,0,0,0,14.84,4.14c4.73.76,9.44,1.61,14.26,1.49C208.47,288.23,209.36,288,209.86,286.6ZM208.1,289c-27.18-.74-49.24-11.21-66.15-32.21-1.12,2.12-.51,6.12,1.25,8.11a81.94,81.94,0,0,0,15.42,13.71A79.22,79.22,0,0,0,177.52,288a87.86,87.86,0,0,0,23.11,4.33C203.67,292.56,205.73,291,208.1,289ZM175.39,99.44h20.23c0-3.59.09-7.09,0-10.59a3.27,3.27,0,0,0-3.28-2.94q-6.77-.08-13.54,0a3.66,3.66,0,0,0-3.34,3.25C175.33,92.56,175.39,96,175.39,99.44Zm11.92-52.85a7.79,7.79,0,0,0,.12-.81,42.39,42.39,0,0,0-2-15.81c-1.9-5.32-4.94-9.68-10.35-11.88-4.92-2-9.92-2.32-14.87,0A10.49,10.49,0,0,0,155.22,23c.64.34,1.19.64,1.76.92s1.21.55,1.8.82c2-2.53,3-3.3,5.39-3.76a19.21,19.21,0,0,1,4.17-.28,13,13,0,0,1,11.29,6.54,26.16,26.16,0,0,1,3.47,12.2c.14,2.18,0,4.38,0,6.65ZM204.19,106a14.85,14.85,0,0,0-6.92-2.39c-7.67-.15-15.34-.07-23,0A16.16,16.16,0,0,0,166.8,106a18.84,18.84,0,0,0,6.22,3.15,52.6,52.6,0,0,0,23.62.44A17.57,17.57,0,0,0,204.19,106ZM143,266.41c.44.87.84,1.78,1.34,2.62a44,44,0,0,0,11.14,12.21,55.49,55.49,0,0,0,13,7.7c3.39,1.38,6.88,2.54,10.38,3.59a43.54,43.54,0,0,0,17.79,1.41c1.07-.13,2.11-.41,3.17-.62C177.44,291.62,158.41,283,143,266.41ZM196.92,253l-.14.3c1.25.91,2.53,1.77,3.73,2.74a48.53,48.53,0,0,1,10.69,11.34,1.16,1.16,0,0,0,1,.39,40.22,40.22,0,0,0,5.83-3.23c1.92-1.43,1.82-3.29,0-4.85a14.81,14.81,0,0,0-3-2C209.37,254.86,203.14,253.91,196.92,253ZM180.5,68.88c0,3.5,0,6.85,0,10.19,0,2.63,0,2.63,2.63,2.63h6.67V68.88Z"/><path class="cls-1" d="M171.38,99.76c-1.14.43-2.21.86-3.29,1.24a26.22,26.22,0,0,0-14.3,11.78,33.44,33.44,0,0,0-4,13.08,61.72,61.72,0,0,0,2.31,24.54c1.46,5.15,3.7,10.09,5.68,15.09,1.41,3.56,3.08,7,4.42,10.61,2.07,5.56,4,11.17,5.89,16.81a65.27,65.27,0,0,1,2.06,8.49c1.17,6.4,2.47,12.79,3.2,19.24.84,7.38,1.12,14.82,1.63,22.24a3.4,3.4,0,0,1-.06.63c-2.4-.41-4.74-.9-7.1-1.2a41.59,41.59,0,0,0-15.7.67,20.76,20.76,0,0,0-8.68,4.15,1.79,1.79,0,0,1-2.05.33c-2.77-1-5.53-2.07-8.34-3a17.73,17.73,0,0,0-3-.43,4.58,4.58,0,0,1-1.59-.3A55.35,55.35,0,0,1,117,235.11a63.92,63.92,0,0,1-9.22-11.43A67.08,67.08,0,0,1,101.12,210a45.6,45.6,0,0,1-.17-32.93c2.14-5.79,4.27-11.62,6.94-17.19,3-6.36,6.59-12.49,10.08-18.63,2.5-4.4,5.23-8.68,7.93-13,3.29-5.24,6.7-10.4,10-15.64,3.76-6,7.44-12.09,11.11-18.17a70.84,70.84,0,0,0,8.68-20.27c2.19-9.25,2.6-18.68,2.79-28.14.11-5.38.65-10.76,1.15-16.13a11.3,11.3,0,0,1,1.33-3.69c1.3-2.66,3.75-3.12,6.38-3.11,3.23,0,6.18.8,8.5,3.2a15.09,15.09,0,0,1,3.54,6.3A42.86,42.86,0,0,1,181,45.33a9.12,9.12,0,0,1-.3,2.12,1.25,1.25,0,0,1-.65.71c-1.09.49-2.23.86-3.3,1.36-4.08,1.9-6.54,5.62-5.33,9.78.67,2.29,2.38,3.75,4.26,5a1.57,1.57,0,0,1,.89,1.49q0,7.74,0,15.48a1.36,1.36,0,0,1-.9,1.44,7.43,7.43,0,0,0-4.22,7C171.35,93,171.38,96.4,171.38,99.76Z"/><path class="cls-1" d="M207.84,108.3a20.72,20.72,0,0,1,6.36,7.63c3,6.23,3.58,12.84,3.07,19.62A55.57,55.57,0,0,1,215,149.12c-1.67,5-3.65,9.86-5.6,14.75-2.12,5.34-4.46,10.59-6.52,15.95A112.12,112.12,0,0,0,197,199.88c-1.36,7.45-2.88,14.9-3.66,22.41-.9,8.7-1.08,17.47-1.57,26.21,0,.51,0,1,0,1.75-1.15-.55-2.09-1-3.06-1.46-2.89-1.24-5.78-2.5-8.7-3.66a1.08,1.08,0,0,1-.8-1.5c1.15.36,2.36.78,3.12-.61a2.13,2.13,0,0,0-.23-2.58c-.88-1-1.94-.65-3-.06-.75-11.59-1.6-23.08-3.76-34.28a16.56,16.56,0,0,0,2.52-.17,1.47,1.47,0,0,0,.87-.91,2,2,0,0,0-.72-2.43c-.93-.61-2-.38-3.07.67l-4.12-16.09a15.88,15.88,0,0,0,2.27-.37c.3-.09.56-.55.69-.89a2.07,2.07,0,0,0-.86-2.6c-1-.56-1.92-.22-3.11,1.25-.22-.65-.39-1.23-.61-1.79-2.23-5.5-4.42-11-6.72-16.49-3-7.09-6.16-14.11-7.65-21.71s-2-15.16-.23-22.73a23.6,23.6,0,0,1,7.23-12.57c.85-.76,1.42-1,2.46-.09,3.47,3,7.72,4.29,12.14,5a56,56,0,0,0,19.2-.19C200.07,113.11,204.33,111.63,207.84,108.3ZM209,148.13a4.06,4.06,0,0,1-.1.56c-1.61,4.54-3.14,9.12-4.86,13.62-2.6,6.82-5.53,13.52-8,20.4-2.07,5.86-3.67,11.88-5.41,17.85-.43,1.46-.62,3-.93,4.54l1.59.2.27-1.09c.92-3.67,1.71-7.39,2.79-11,1.33-4.47,2.74-8.93,4.42-13.28,2.77-7.18,5.85-14.24,8.66-21.4a81.41,81.41,0,0,0,5-19.54c.26-2,.3-4.1.44-6.15h-1.56l-1,9.72a2.51,2.51,0,0,0-3.42.25,6.35,6.35,0,0,0-1.39,2.28,2.75,2.75,0,0,1-2.08,2,4.39,4.39,0,0,1,0-.92,25.53,25.53,0,0,0,.68-2.66,1.75,1.75,0,0,0-.48-1.34c-.19-.18-.87,0-1.23.22a16.65,16.65,0,0,0-1.73,1.28c-.26-1.91-.82-2.14-2.29-1-.46.35-.88.76-1.46,1.27l.46-1.87c-1.88.33-2.09.65-2.64,2.82a4.44,4.44,0,0,1-1.14,1.68c-.19.21-.62.19-.94.28a2.94,2.94,0,0,1-.14-1c.28-1.23.62-2.44.94-3.66a2,2,0,0,0-2.35,1.68,13.25,13.25,0,0,1-1.2,2.69c-.16.28-.71.34-1.09.5a3.57,3.57,0,0,1-.2-1.27c.27-1.19.65-2.35,1-3.59-1.27,0-2.17.25-2.35,1.62-.06.47-.24.93-.33,1.4A2.41,2.41,0,0,1,185,147c-.32.07-1.17-.56-1.13-.78.17-1.26.12-2.58,1.16-3.66a8.46,8.46,0,0,0,1.76-2.9c.19-.5-.29-1.25-.46-1.89-.76.33-1.86.46-2.22,1a11,11,0,0,0-1.4,3.78,5,5,0,0,1-2.28,3.6,6,6,0,0,1-1.22.45,4.8,4.8,0,0,1,0-1.36c.28-1.09.67-2.15,1-3.23L180,142l-2.2,1.91c-.12-.79-.17-1.31-.3-1.81,0,0-.62-.08-.71.05a9.32,9.32,0,0,0-.85,1.63c-.05.13.17.35.18.54s.1.71-.05.89a10,10,0,0,1-1.69,1.51c-1.08.74-2,.38-2.44-.83a14.52,14.52,0,0,0,2.49-1.57,1.74,1.74,0,0,0,.33-1.64,1.9,1.9,0,0,0-1.72-.54,7.1,7.1,0,0,0-2.36,1.87,2.62,2.62,0,1,0,4,3.36c.77-.75,1.46-1.58,2.23-2.33a5.5,5.5,0,0,1,1-.63,5.21,5.21,0,0,1-.43,1.37c-.28.8-.64,1.71.19,2.32s1.65-.06,2.34-.59,1-.9,1.54-1.36l.3.13-.68,5.34c1.23.28,1.78-.12,1.84-1.25a20.52,20.52,0,0,1,.32-2.1l.24.3,3.35-1.49c.13.75.55,1.55,1.61,1.19a12,12,0,0,0,2.21-1.33c.15.93.6,1.71,1.72,1.3a11.91,11.91,0,0,0,2.17-1.37l.23,1.3c1.07.1,1.51-.27,1.58-1.31a3.93,3.93,0,0,1,2.44-3.55l-.91,4.88c1.45.22,2-.44,2.15-1.67a4.26,4.26,0,0,1,.31-1.28,2.51,2.51,0,0,1,1.92-1.77,1.28,1.28,0,0,1,.06.4c-.18.74-.34,1.48-.58,2.2s-.48,1.65.35,2a3,3,0,0,0,1.94-.32,6.53,6.53,0,0,0,1.38-1C206.26,148.25,206.9,148.52,209,148.13ZM155.49,133.7c0,.32,0,.48,0,.64,0,.88-.22,1.94,1.09,2s1.22-.91,1.35-1.86c.62-4.34,1.15-8.71,2.07-13,.49-2.31,1.09-4.77,3.21-6.4.27-.21.21-1.25-.06-1.64a1.54,1.54,0,0,0-1.52-.07,10.61,10.61,0,0,0-2.43,3C156.77,121.93,156,127.87,155.49,133.7Zm13.12,5.73-.23-.33a9,9,0,0,0-2,1.92,14.8,14.8,0,0,0-.76,3,16.49,16.49,0,0,1-1.09,3c-.19.37-.87.49-1.33.73-.17-.43-.37-.86-.5-1.3a5.37,5.37,0,0,1-.07-1c-.78.46-1.7.48-1.57,1.55s.92,1.24,1.8,1.39c1.54.27,4-1.56,4.43-3.18C167.76,143.24,168.17,141.33,168.62,139.42Zm-.27,3.59a4.68,4.68,0,0,0,1.42-.31,2.56,2.56,0,0,0,1.12-2.6,2.35,2.35,0,0,0-1.75-2.07,5.07,5.07,0,0,0-5.08.86,6.48,6.48,0,0,0-1.6,2.55,1.64,1.64,0,0,0,.67,1.43c.32.18,1-.23,1.6-.41-1.19-1.35-1.2-1.8-.27-2.89s3.21-1.79,4.24-1C170.51,139.92,169.07,141.3,168.35,143Zm19.38,92.17a2,2,0,1,0,0-4,2,2,0,0,0,0,4Zm-1.29,9.45a1.84,1.84,0,0,0,1.83,2.08,2,2,0,0,0,0-4.09A1.79,1.79,0,0,0,186.44,244.63ZM192,211.87a1.89,1.89,0,0,0-2.07-1.95,2,2,0,1,0,.19,3.95A1.83,1.83,0,0,0,192,211.87Zm-8.83,8.75a1.78,1.78,0,0,0-1.86-2,1.81,1.81,0,0,0-2,2,2,2,0,0,0,2,2.09A2,2,0,0,0,183.14,220.62Zm4.59,1.42a1.86,1.86,0,0,0,2.05-2,1.88,1.88,0,0,0-1.95-2,2,2,0,0,0-2.06,2A1.89,1.89,0,0,0,187.72,222Zm-6.49,4.23a1.81,1.81,0,0,0-2,2,1.93,1.93,0,1,0,3.85-.07A1.77,1.77,0,0,0,181.23,226.27Zm2.67,9.85a1.82,1.82,0,0,0-1.92,2,1.86,1.86,0,0,0,2,2,1.83,1.83,0,0,0,1.86-2A1.81,1.81,0,0,0,183.91,236.12Z"/><path class="cls-1" d="M154.11,25.31c1.17.57,2.19,1,3.17,1.56a.94.94,0,0,1,.4.79c-1.56,4.84-1.39,9.87-1.62,14.84-.3,6.35-.3,12.72-.8,19-.58,7.38-1.93,14.7-5.12,21.44-2.69,5.68-5.77,11.19-9,16.6-4.06,6.82-8.46,13.44-12.68,20.16-3.18,5.07-6.38,10.13-9.47,15.25s-6.15,10.35-9.08,15.61a149.08,149.08,0,0,0-9.73,20.93c-2.81,7.6-4.87,15.39-4.64,23.6A41.35,41.35,0,0,0,98,208.27,109.53,109.53,0,0,0,102.36,219a65,65,0,0,0,11.36,16.2,58,58,0,0,0,12.9,10.31l-1.75,3.72c-1.51-1-3.11-1.85-4.59-2.91a64.19,64.19,0,0,1-10.84-9.76,74.59,74.59,0,0,1-16.78-32.25,46.85,46.85,0,0,1-.26-20.67,85.25,85.25,0,0,1,6.33-19.54c2.78-6,5.61-11.92,8.76-17.69,3.31-6.09,7-12,10.58-17.93,3.34-5.44,6.87-10.76,10.28-16.15,3.81-6,7.68-12,11.33-18.17A100,100,0,0,0,147,79.67a61.27,61.27,0,0,0,4.13-18.84c.49-8.1.58-16.22,1-24.32A95.56,95.56,0,0,1,153.57,27,13.16,13.16,0,0,1,154.11,25.31Z"/><path class="cls-1" d="M209.86,286.6c-.5,1.36-1.4,1.63-2.72,1.67-4.83.12-9.54-.73-14.26-1.49A74.88,74.88,0,0,1,178,282.64a78.92,78.92,0,0,1-17-8.94A82.58,82.58,0,0,1,144.88,259q-1.19-1.41-2.28-2.9a.93.93,0,0,1-.11-.83.88.88,0,0,1,.79-.15c3.65,1.25,7.3,2.49,10.92,3.83s7.31,2.76,10.9,4.31q7,3,13.92,6.36,6.14,2.94,12.14,6.16c4.07,2.19,8.05,4.52,12.05,6.83C205.45,283.93,207.65,285.28,209.86,286.6Z"/><path class="cls-1" d="M166.38,255.15c2.26.77,4.52,1.52,6.77,2.32a83.47,83.47,0,0,1,14.8,6.95,69.09,69.09,0,0,1,12.41,9.13c3.46,3.29,6.61,6.9,9.91,10.36a1.29,1.29,0,0,1,0,2c-21.22-13.12-43.52-24-67.36-31.77.23-1.11.75-1.63,1.9-1.59,1.7.06,3.41,0,5.11,0,.3.08.59.18.89.23l13.64,2.15C165.09,255,165.74,255.07,166.38,255.15Z"/><path class="cls-1" d="M150.27,252.16l-5.65-.53a10.39,10.39,0,0,1,1.11-1.16c2.21-1.69,4.5-3.13,7.5-2.59a5.29,5.29,0,0,0,1.49-.16l4.66.52c1.67.35,3.33.75,5,1a77.24,77.24,0,0,1,23,8.07,75.57,75.57,0,0,1,21.85,17.45c.8.94,1.83,1.69,1.91,3.06.1,1.89.19,3.77.29,5.66l-.44.1c-.62-.71-1.21-1.44-1.86-2.12-3.13-3.23-6.11-6.64-9.47-9.62A95.23,95.23,0,0,0,190.4,265a65.18,65.18,0,0,0-13.25-6.88c-3.33-1.31-6.79-2.3-10.2-3.42a5.25,5.25,0,0,0-1.13-.12,3.79,3.79,0,0,0-.76-.33c-3-.6-6-1.27-9-1.73C154.16,252.25,152.2,252.27,150.27,252.16Z"/><path class="cls-1" d="M208.1,289c-2.37,1.92-4.43,3.51-7.46,3.32A87.86,87.86,0,0,1,177.52,288a79.22,79.22,0,0,1-18.91-9.37,81.94,81.94,0,0,1-15.42-13.71c-1.75-2-2.37-6-1.25-8.11C158.86,277.83,180.91,288.31,208.1,289Z"/><path class="cls-1" d="M175.39,99.44c0-3.49-.06-6.88,0-10.27a3.66,3.66,0,0,1,3.34-3.25q6.77-.1,13.54,0a3.27,3.27,0,0,1,3.28,2.94c.14,3.5,0,7,0,10.59Z"/><path class="cls-1" d="M187.31,46.59l-4.19-.46c0-2.27.12-4.47,0-6.65a26.16,26.16,0,0,0-3.47-12.2,13,13,0,0,0-11.29-6.54,19.21,19.21,0,0,0-4.17.28c-2.42.46-3.39,1.23-5.39,3.76-.59-.27-1.2-.53-1.8-.82s-1.12-.58-1.76-.92a10.49,10.49,0,0,1,4.94-4.95c4.95-2.33,9.95-2,14.87,0,5.42,2.2,8.45,6.55,10.35,11.88a42.39,42.39,0,0,1,2,15.81A7.79,7.79,0,0,1,187.31,46.59Z"/><path class="cls-1" d="M204.19,106a17.57,17.57,0,0,1-7.54,3.57,52.6,52.6,0,0,1-23.62-.44A18.84,18.84,0,0,1,166.8,106a16.16,16.16,0,0,1,7.45-2.36c7.67-.07,15.35-.15,23,0A14.85,14.85,0,0,1,204.19,106Z"/><path class="cls-1" d="M143,266.41c15.37,16.61,34.4,25.21,56.85,26.91-1.06.21-2.1.49-3.17.62a43.54,43.54,0,0,1-17.79-1.41c-3.51-1-7-2.21-10.38-3.59a55.49,55.49,0,0,1-13-7.7A44,44,0,0,1,144.38,269C143.88,268.18,143.49,267.28,143,266.41Z"/><path class="cls-1" d="M155.07,247.38l-1.6-.3,0-.23c1.19-.2,2.38-.47,3.58-.6a50,50,0,0,1,19.53,2,63.11,63.11,0,0,1,20.15,10,43.19,43.19,0,0,1,11.82,12.71,13.78,13.78,0,0,1,1.29,2.9c-.31-.3-.65-.58-.94-.91a73.1,73.1,0,0,0-11.13-10.13A81,81,0,0,0,183,254.26a86.12,86.12,0,0,0-22.34-6.47,7.1,7.1,0,0,0-1.58.1Z"/><path class="cls-1" d="M196.92,253c6.23.91,12.45,1.86,18.18,4.7a14.81,14.81,0,0,1,3,2c1.82,1.55,1.93,3.42,0,4.85a40.22,40.22,0,0,1-5.83,3.23,1.16,1.16,0,0,1-1-.39A48.53,48.53,0,0,0,200.5,256c-1.2-1-2.48-1.83-3.73-2.74Z"/><path class="cls-1" d="M180.5,68.88h9.3V81.7h-6.67c-2.63,0-2.63,0-2.63-2.63C180.5,75.72,180.5,72.38,180.5,68.88Z"/><path d="M150.27,252.16c1.93.12,3.89.09,5.79.38,3,.46,6,1.13,9,1.73a3.79,3.79,0,0,1,.76.33l.56.55c-.64-.09-1.29-.16-1.93-.26l-13.64-2.15c-.3,0-.59-.15-.89-.23Z"/><path d="M155.07,247.38l4,.51.33.35-4.66-.52Z"/><path d="M209,148.13c-2.13.39-2.76.12-3.54-1.46a6.53,6.53,0,0,1-1.38,1,3,3,0,0,1-1.94.32c-.83-.36-.61-1.24-.35-2s.4-1.46.58-2.2a1.28,1.28,0,0,0-.06-.4,2.51,2.51,0,0,0-1.92,1.77,4.26,4.26,0,0,0-.31,1.28c-.12,1.24-.7,1.89-2.15,1.67l.91-4.88a3.93,3.93,0,0,0-2.44,3.55c-.07,1-.52,1.41-1.58,1.31l-.23-1.3a11.91,11.91,0,0,1-2.17,1.37c-1.11.41-1.57-.37-1.72-1.3a12,12,0,0,1-2.21,1.33c-1.05.36-1.47-.43-1.61-1.19l-3.35,1.49-.24-.3a20.52,20.52,0,0,0-.32,2.1c-.06,1.14-.61,1.53-1.84,1.25l.68-5.34-.3-.13c-.51.45-1,.94-1.54,1.36s-1.45,1.24-2.34.59-.47-1.52-.19-2.32a5.21,5.21,0,0,0,.43-1.37,5.5,5.5,0,0,0-1,.63c-.76.76-1.46,1.58-2.23,2.33a2.62,2.62,0,1,1-4-3.36,7.1,7.1,0,0,1,2.36-1.87,1.9,1.9,0,0,1,1.72.54,1.74,1.74,0,0,1-.33,1.64,14.52,14.52,0,0,1-2.49,1.57c.46,1.21,1.36,1.57,2.44.83a10,10,0,0,0,1.69-1.51c.16-.17.08-.59.05-.89s-.24-.41-.18-.54a9.32,9.32,0,0,1,.85-1.63c.09-.13.7-.1.71-.05.13.5.18,1,.3,1.81L180,142l.18.11c-.35,1.07-.73,2.14-1,3.23a4.8,4.8,0,0,0,0,1.36,6,6,0,0,0,1.22-.45,5,5,0,0,0,2.28-3.6,11,11,0,0,1,1.4-3.78c.36-.58,1.46-.71,2.22-1,.18.64.65,1.39.46,1.89a8.46,8.46,0,0,1-1.76,2.9c-1,1.08-1,2.4-1.16,3.66,0,.22.81.86,1.13.78a2.41,2.41,0,0,0,2.09-1.88c.09-.47.26-.93.33-1.4.18-1.38,1.09-1.67,2.35-1.62-.36,1.24-.74,2.4-1,3.59A3.57,3.57,0,0,0,189,147c.37-.16.92-.22,1.09-.5a13.25,13.25,0,0,0,1.2-2.69,2,2,0,0,1,2.35-1.68c-.32,1.23-.67,2.44-.94,3.66a2.94,2.94,0,0,0,.14,1c.32-.09.76-.07.94-.28a4.44,4.44,0,0,0,1.14-1.68c.54-2.17.76-2.49,2.64-2.82l-.46,1.87c.58-.51,1-.91,1.46-1.27,1.47-1.13,2-.9,2.29,1a16.65,16.65,0,0,1,1.73-1.28c.36-.2,1-.4,1.23-.22a1.75,1.75,0,0,1,.48,1.34,25.53,25.53,0,0,1-.68,2.66,4.39,4.39,0,0,0,0,.92,2.75,2.75,0,0,0,2.08-2A6.35,6.35,0,0,1,207,142.8a2.51,2.51,0,0,1,3.42-.25l1-9.72H213c-.14,2-.18,4.11-.44,6.15a81.41,81.41,0,0,1-5,19.54c-2.81,7.17-5.89,14.22-8.66,21.4-1.68,4.35-3.08,8.81-4.42,13.28-1.08,3.63-1.87,7.34-2.79,11l-.27,1.09-1.59-.2c.31-1.54.5-3.08.93-4.54,1.75-6,3.34-12,5.41-17.85,2.43-6.88,5.35-13.58,8-20.4,1.72-4.5,3.25-9.08,4.86-13.62A4.06,4.06,0,0,0,209,148.13Zm1.12-3.39-.37-.18-2.51,1.29,0,.43c.55.26,1.48.84,1.59.71A13,13,0,0,0,210.14,144.74Zm-24.5-6.31-1.19,3.85C186.28,140.64,186.69,139.56,185.64,138.43Zm21.42,6.48a1.66,1.66,0,0,0,1.88-1.49,1,1,0,0,0-.36-.78c-.09-.08-.58.11-.68.28C207.57,143.56,207.34,144.24,207.06,144.91Zm-35.43-.06.31.24a2,2,0,0,0,1.69-1.58.93.93,0,0,0-.28-.81.83.83,0,0,0-.81.19A18.92,18.92,0,0,0,171.63,144.84Z"/><path d="M155.49,133.7c.47-5.83,1.27-11.76,3.71-17.32a10.61,10.61,0,0,1,2.43-3,1.54,1.54,0,0,1,1.52.07c.28.4.33,1.43.06,1.64-2.12,1.64-2.72,4.09-3.21,6.4-.91,4.28-1.45,8.65-2.07,13-.13.95-.18,1.87-1.35,1.86s-1.13-1.07-1.09-2C155.5,134.18,155.49,134,155.49,133.7Z"/><path d="M168.62,139.42c-.45,1.91-.86,3.82-1.35,5.71-.42,1.62-2.88,3.45-4.43,3.18-.88-.15-1.68-.34-1.8-1.39s.8-1.09,1.57-1.55a5.37,5.37,0,0,0,.07,1c.13.44.33.87.5,1.3.46-.23,1.14-.35,1.33-.73a16.49,16.49,0,0,0,1.09-3,14.8,14.8,0,0,1,.76-3,9,9,0,0,1,2-1.92Z"/><path d="M168.35,143c.72-1.7,2.16-3.09.34-4.46-1-.77-3.25-.14-4.24,1s-.92,1.54.27,2.89c-.62.18-1.28.59-1.6.41a1.64,1.64,0,0,1-.67-1.43,6.48,6.48,0,0,1,1.6-2.55,5.07,5.07,0,0,1,5.08-.86,2.35,2.35,0,0,1,1.75,2.07,2.56,2.56,0,0,1-1.12,2.6A4.68,4.68,0,0,1,168.35,143Z"/><path d="M187.73,235.18a2,2,0,0,1,0-4,2,2,0,1,1,0,4Z"/><path d="M186.44,244.63a1.79,1.79,0,0,1,1.86-2,2,2,0,0,1,0,4.09A1.84,1.84,0,0,1,186.44,244.63Z"/><path d="M192,211.87a1.83,1.83,0,0,1-1.88,2,2,2,0,1,1-.19-3.95A1.89,1.89,0,0,1,192,211.87Z"/><path d="M183.14,220.62a2,2,0,0,1-1.86,2.08,2,2,0,0,1-2-2.09,1.81,1.81,0,0,1,2-2A1.78,1.78,0,0,1,183.14,220.62Z"/><path d="M187.72,222a1.89,1.89,0,0,1-2-2,2,2,0,0,1,2.06-2,1.88,1.88,0,0,1,1.95,2A1.86,1.86,0,0,1,187.72,222Z"/><path d="M181.23,226.27a1.77,1.77,0,0,1,1.9,2,1.93,1.93,0,1,1-3.85.07A1.81,1.81,0,0,1,181.23,226.27Z"/><path d="M183.91,236.12a1.81,1.81,0,0,1,2,1.91,1.83,1.83,0,0,1-1.86,2,1.86,1.86,0,0,1-2-2A1.82,1.82,0,0,1,183.91,236.12Z"/><path class="cls-1" d="M210.14,144.74a13,13,0,0,1-1.34,2.25c-.11.12-1-.46-1.59-.71l0-.43,2.51-1.29Z"/><path class="cls-1" d="M185.64,138.43c1,1.14.63,2.22-1.19,3.85Z"/><path class="cls-1" d="M207.06,144.91c.27-.66.51-1.35.85-2,.09-.18.59-.36.68-.28a1,1,0,0,1,.36.78A1.66,1.66,0,0,1,207.06,144.91Z"/><path class="cls-1" d="M171.63,144.84a18.92,18.92,0,0,1,.92-2,.83.83,0,0,1,.81-.19.93.93,0,0,1,.28.81,2,2,0,0,1-1.69,1.58Z"/></svg>