<svg id="Layer_1" data-name="Layer 1" xmlns="http://www.w3.org/2000/svg" viewBox="0 0 108.24 108.23"><defs><style>.cls-1{fill:#fff;}</style></defs><title>Artboard 1</title><path class="cls-1" d="M.24,108.23V.23h108v108ZM42,20.2l-.26,0c-.43.68-1.21,1.37-1.21,2.05a8.49,8.49,0,0,0,.79,3.83,3.13,3.13,0,0,1,.28,2.57c-1.77,6.2-3.5,12.41-5.27,18.61-.89,3.13-1.64,6.3-2.77,9.35-1.35,3.68-3,7.26-4.59,10.85-1.87,4.19-3,8.48-2.27,13.08a1,1,0,0,1-.5.85C24,82.3,24.77,84,24.95,85.61,25.1,87,26.31,86.85,27.2,87c2.68.58,2.69.54,2.75,3.2,0,2.18.85,3,3.12,3s4.32,0,6.47-.13c6.67-.28,13.34-.61,20-.88,4.11-.16,8.27.07,12.33-.43,5.41-.66,5.93-1.57,6.76-6.18.14-.8.39-1,1.21-1.15a4.18,4.18,0,0,0,3.73-3c.48-1.57.45-3.09-1.05-4.29A1.84,1.84,0,0,1,81.88,76a14.22,14.22,0,0,0-2.1-7c-2.47-4.5-5.06-8.94-7.56-13.43a57.35,57.35,0,0,1-6.51-17.9c-.69-3.92-1.41-7.85-2.43-11.7-.44-1.68-1.05-3.24-.73-5a1.21,1.21,0,0,0-1.07-1.53c-1.23-.22-1.45-.93-1.46-2,0-2.67-1.51-4.68-4.58-4.65-.3,0-.85-.31-.87-.52-.17-1.62-1.3-1.71-2.59-1.62-.8.06-1.59.19-2.39.17-1.31,0-2,.58-2,1.76,0,.94-.47,1.16-1.39,1.24A4.5,4.5,0,0,0,41.87,18,13.49,13.49,0,0,0,42,20.2Zm25,85.67-1.05-1c-.24.32-.66.63-.67,1s.39.67.62,1Z"/><path d="M42,20.2A13.49,13.49,0,0,1,41.87,18a4.5,4.5,0,0,1,4.34-4.29c.92-.08,1.36-.31,1.39-1.24,0-1.18.68-1.79,2-1.76.79,0,1.59-.12,2.39-.17,1.28-.09,2.42,0,2.59,1.62,0,.21.57.52.87.52,3.07,0,4.57,2,4.58,4.65,0,1.12.23,1.83,1.46,2a1.21,1.21,0,0,1,1.07,1.53c-.32,1.76.28,3.33.73,5,1,3.85,1.74,7.78,2.43,11.7a57.35,57.35,0,0,0,6.51,17.9C74.71,60,77.3,64.47,79.78,69a14.22,14.22,0,0,1,2.1,7,1.84,1.84,0,0,0,.64,1.28c1.5,1.2,1.54,2.72,1.05,4.29a4.18,4.18,0,0,1-3.73,3c-.83.11-1.07.34-1.21,1.15-.83,4.61-1.34,5.52-6.76,6.18-4.06.5-8.22.26-12.33.43-6.67.26-13.34.6-20,.88-2.16.09-4.32.15-6.47.13s-3.07-.85-3.12-3c-.05-2.66-.06-2.62-2.75-3.2-.89-.19-2.1-.06-2.25-1.43-.18-1.6-.9-3.31,1.31-4.26a1,1,0,0,0,.5-.85c-.69-4.6.4-8.88,2.27-13.08,1.6-3.59,3.24-7.17,4.59-10.85,1.12-3,1.88-6.22,2.77-9.35,1.76-6.2,3.5-12.41,5.27-18.61a3.13,3.13,0,0,0-.28-2.57,8.49,8.49,0,0,1-.79-3.83c0-.68.78-1.37,1.21-2.05ZM79.64,78.73a9.08,9.08,0,0,1-.08-1.51,11.88,11.88,0,0,0-2.07-7.75c-1.82-3-3.58-6.07-5.34-9.11-.74-1.29-1.43-2.6-2.29-4.15a25.31,25.31,0,0,1,0,2.9c0,.29-.55.77-.79.74-1.61-.21-1.66.75-1.61,1.82s.16,2.22.16,3.32a16.46,16.46,0,0,1-.22,2.5c0,.27-.29.68-.49.71-1.2.18-2.41.27-3.76.4V60a30.36,30.36,0,0,1-3.12.43c-.31,0-.9-.44-.91-.69a16.56,16.56,0,0,1,.18-3.64,1.74,1.74,0,0,1,1.26-1.07c2.9-.1,5.8,0,8.56,0-1.4-3.85-2.84-7.77-4.26-11.7-.29-.8-.87-.74-1.55-.55s-1.35.33-2,.45a10.42,10.42,0,0,0-2.73.45c-1,.48-1.55,0-2.29-.31s-1.27-.44-1.9-.65a2.55,2.55,0,0,1-.75-.27c-1.4-1.1-2.17-.92-3.35.38A3.73,3.73,0,0,1,47.85,44c-2.73,0-5.46-.18-8.41-.31-.68,2.66-1.23,5.41-2.11,8.06-1.56,4.73-3.32,9.41-5,14.11a5.64,5.64,0,0,1-.64,1.23c-2.61,3.86-3,8.15-2.68,12.58.06.86.39,1.16,1.28,1.25a41.34,41.34,0,0,0,11-.59c5-.81,9.9-1.83,15-1.59,4,.18,7.9.4,11.85.58A52.14,52.14,0,0,0,79.64,78.73ZM64.36,41.93A19.82,19.82,0,0,0,64,39.7q-1.92-6.81-3.92-13.6a1.19,1.19,0,0,0-.84-.6,40.24,40.24,0,0,0-12.89,0c-1.26.22-2.64.33-2.26,2.14,0,.1-.07.21-.11.32q-1.25,4.37-2.5,8.74c-.54,1.9-1.06,3.81-1.66,6,1.33.17,2.53.41,3.74.46A23.5,23.5,0,0,1,47,43a3.18,3.18,0,0,0,3.11-1.19c1.47-1.44,2-1.2,3.88-.51,1.58.57,2.73,2.44,5,1.42C60.57,42.07,62.51,42.19,64.36,41.93ZM31.67,85.27c.21,1.84.37,3.35.54,4.86.09.77.54,1,1.32.93,4.95-.16,9.91-.18,14.85-.45C57,90.14,65.68,89.53,74.32,89a1.67,1.67,0,0,0,1.19-.54,5.69,5.69,0,0,0,.57-4.66Zm26.8-1.43c6.75-.44,13.8-.89,20.85-1.38a2,2,0,0,0,2-2.73c-.13-.54-.34-.74-1-.55a12.8,12.8,0,0,1-3.38.67c-4.75,0-9.52.16-14.26-.1a86.36,86.36,0,0,0-18.28.69c-3.7.59-7.43,1-11.17,1.32-1.87.15-3.78-.08-5.37,1.14a6.89,6.89,0,0,0-1,1.14,11.07,11.07,0,0,0,1.25.87A1.75,1.75,0,0,0,29,85c2.27-.11,4.55-.22,6.82-.36,4-.25,8-.6,12.06-.75C51.27,83.74,54.71,83.84,58.47,83.84Zm-.45-64c0-1,0-1.66,0-2.35-.07-2.23-.21-2.31-2.5-2.58-1-.11-2.18,0-2.48-1.31-.24-1.09-1-1.33-2-1.15s-1.88.36-1.72,1.67c.1.77-.26,1.21-1.18,1.15a5,5,0,0,0-1.53.22A3.14,3.14,0,0,0,44,19.38c.14.75.42,1,1.26.9,3.07-.22,6.14-.33,9.21-.46C55.64,19.78,56.79,19.82,58,19.82Zm2.2,4.73A13.61,13.61,0,0,0,59.8,21c-.13-.35-1.51-.27-2.33-.38-.28,0-.56-.05-.83-.07-3.91-.18-7.82-.32-11.63.8-1.89.56-2.4,2-1.37,3.74C49,24.1,54.49,24.37,60.22,24.55ZM69,58.92c0-.36,0-.66,0-1-.13-2-.14-2-2.16-2.17a8.09,8.09,0,0,0-1.31-.14c-1.62.13-3.24.27-4.84.5a1.2,1.2,0,0,0-.82.78,20.5,20.5,0,0,0,0,2.68c1-.12,1.77-.25,2.58-.33,1.49-.15,1.74,0,1.73,1.43s-.13,2.75-.17,4.13c0,.87,0,1.73,0,2.66.59,0,1.1,0,1.61,0,.87.09,1.25-.22,1.22-1.08-.06-1.49,0-3-.11-4.47C66.36,59,66.42,59.52,69,58.92Z"/><path d="M67.06,105.87l-1.1.93c-.22-.34-.62-.67-.62-1s.43-.64.67-1Z"/><path class="cls-1" d="M79.64,78.73a52.14,52.14,0,0,1-11.54.57c-4-.18-7.9-.4-11.85-.58-5.08-.23-10,.79-15,1.59a41.34,41.34,0,0,1-11,.59c-.9-.09-1.22-.39-1.28-1.25-.32-4.44.07-8.72,2.68-12.58a5.64,5.64,0,0,0,.64-1.23c1.69-4.7,3.44-9.37,5-14.11.87-2.65,1.42-5.4,2.11-8.06,2.95.13,5.68.35,8.41.31a3.73,3.73,0,0,0,2.38-1.18c1.19-1.3,2-1.48,3.35-.38a2.55,2.55,0,0,0,.75.27c.64.21,1.3.38,1.9.65s1.32.79,2.29.31a10.42,10.42,0,0,1,2.73-.45c.68-.12,1.37-.26,2-.45s1.25-.25,1.55.55c1.42,3.92,2.86,7.84,4.26,11.7-2.77,0-5.67,0-8.56,0a1.74,1.74,0,0,0-1.26,1.07,16.56,16.56,0,0,0-.18,3.64c0,.25.6.7.91.69A30.36,30.36,0,0,0,63.12,60v8.59c1.35-.13,2.56-.22,3.76-.4.2,0,.45-.45.49-.71a16.46,16.46,0,0,0,.22-2.5c0-1.11-.11-2.22-.16-3.32s0-2,1.61-1.82c.23,0,.75-.46.79-.74a25.31,25.31,0,0,0,0-2.9c.85,1.55,1.54,2.87,2.29,4.15,1.76,3,3.53,6.1,5.34,9.11a11.88,11.88,0,0,1,2.07,7.75A9.08,9.08,0,0,0,79.64,78.73ZM40.17,61a6,6,0,0,0,1-.49c.29-.21.76-.6.71-.78A6.81,6.81,0,0,0,40.6,57c-.38-.38-1.61-.21-2.33,0a2.55,2.55,0,0,0-1.47,1.37,22.67,22.67,0,0,0-.73,4c-.13,1.06.27,1.78,1.59,1.72a2.09,2.09,0,0,1,1.12.32,1,1,0,0,1,.38.76c0,.15-.3.39-.51.46C36.8,66.29,36.35,67,36.44,69c0,.73.27,1,1.06,1a7,7,0,0,0,4.87-2l-.53,2.69h3.82L46.28,68l.45,0a13.68,13.68,0,0,0,.76,1.63,1.24,1.24,0,0,0,.81.59c1.07,0,2.15-.16,3.22-.15a1,1,0,0,0,1.19-1,4.17,4.17,0,0,0,0-.74l8.91-.6c0-1.31,0-2.3,0-3.29s-.41-1.17-1.32-1.13c-1.31,0-2.63,0-3.95-.09-.87,0-1.24-.44-1.13-1.35a25.22,25.22,0,0,0,.17-3.66,2.18,2.18,0,0,0-3.16-1.57,1.43,1.43,0,0,0-.56,1.09c0,1.11.21,2.21.32,3.31q.32,3.21.63,6.43a5.3,5.3,0,0,1-1-1.84c-.8-2.4-1.57-4.82-2.39-7.22-.38-1.11-1.42-1.52-3-1.31-1.32.17-1.68.59-1.8,2-.09,1.1-.21,2.21-.38,3.31a14.85,14.85,0,0,1-.4,1.63Zm10,11.4c-1.5,0-2.55.87-2.5,1.82a1.2,1.2,0,0,0,1.37,1.24,2,2,0,0,0,2-1.76C51,73.06,50.79,72.47,50.2,72.45Zm4.35,3.07a1.71,1.71,0,0,0,1.83-1.59c0-.83-.64-1.1-1.38-1.13a1.54,1.54,0,0,0-1.57,1.67C53.42,75.28,53.92,75.52,54.54,75.52Z"/><path class="cls-1" d="M64.36,41.93c-1.85.25-3.79.14-5.33.82-2.31,1-3.46-.85-5-1.42-1.92-.69-2.41-.93-3.88.51A3.18,3.18,0,0,1,47,43a23.5,23.5,0,0,0-3.42.11c-1.21-.05-2.41-.29-3.74-.46.6-2.16,1.12-4.07,1.66-6Q42.73,32.36,44,28c0-.11.13-.23.11-.32-.38-1.81,1-1.92,2.26-2.14a40.24,40.24,0,0,1,12.89,0,1.19,1.19,0,0,1,.84.6q2,6.79,3.92,13.6A19.82,19.82,0,0,1,64.36,41.93Zm-7.27-1.8c.36.33.69.88,1.1.94a1.48,1.48,0,0,0,1.7-1.34c0-.82-.36-1.41-1.35-1.41C57.37,38.31,57.36,39.11,57.09,40.13ZM48.2,37.68c1.35.06,1.63-.62,1.59-1.23a1.42,1.42,0,0,0-1-1c-.86,0-1.24.67-1.2,1.38C47.61,37.22,48.09,37.55,48.2,37.68Z"/><path class="cls-1" d="M31.67,85.27l44.41-1.51a5.69,5.69,0,0,1-.57,4.66,1.67,1.67,0,0,1-1.19.54c-8.65.58-17.29,1.19-25.94,1.66-4.94.27-9.9.28-14.85.45-.77,0-1.23-.17-1.32-.93C32,88.62,31.88,87.11,31.67,85.27Z"/><path class="cls-1" d="M58.47,83.84c-3.76,0-7.2-.1-10.63,0-4,.15-8,.5-12.06.75-2.27.14-4.55.24-6.82.36a1.75,1.75,0,0,1-.83,0,11.07,11.07,0,0,1-1.25-.87,6.89,6.89,0,0,1,1-1.14c1.59-1.22,3.49-1,5.37-1.14,3.74-.3,7.47-.73,11.17-1.32a86.36,86.36,0,0,1,18.28-.69c4.74.26,9.5.14,14.26.1a12.8,12.8,0,0,0,3.38-.67c.67-.19.88,0,1,.55a2,2,0,0,1-2,2.73C72.27,83,65.22,83.4,58.47,83.84Z"/><path class="cls-1" d="M58,19.82c-1.23,0-2.38,0-3.53,0-3.07.12-6.15.24-9.21.46-.84.06-1.12-.15-1.26-.9a3.14,3.14,0,0,1,2.54-3.92,5,5,0,0,1,1.53-.22c.93.06,1.28-.38,1.18-1.15-.16-1.3.71-1.5,1.72-1.67s1.8.06,2,1.15c.3,1.35,1.51,1.2,2.48,1.31,2.29.26,2.43.35,2.5,2.58C58,18.16,58,18.85,58,19.82Z"/><path class="cls-1" d="M60.22,24.55c-5.73-.17-11.19-.45-16.58.57-1-1.76-.53-3.18,1.37-3.74,3.81-1.13,7.72-1,11.63-.8.28,0,.56,0,.83.07.81.11,2.19,0,2.33.38A13.61,13.61,0,0,1,60.22,24.55Z"/><path class="cls-1" d="M69,58.92c-2.55.6-2.6.11-2.32,3,.14,1.48.05,3,.11,4.47,0,.86-.35,1.17-1.22,1.08-.5-.05-1,0-1.61,0,0-.93,0-1.8,0-2.66,0-1.38.15-2.75.17-4.13s-.23-1.57-1.73-1.43c-.81.08-1.62.2-2.58.33a20.5,20.5,0,0,1,0-2.68,1.2,1.2,0,0,1,.82-.78c1.6-.23,3.22-.37,4.84-.5a8.09,8.09,0,0,1,1.31.14c2,.18,2,.18,2.16,2.17C69,58.26,69,58.56,69,58.92Z"/><path d="M40.17,61l3.46,3a14.85,14.85,0,0,0,.4-1.63c.17-1.1.28-2.2.38-3.31.12-1.37.48-1.78,1.8-2,1.61-.21,2.65.2,3,1.31.82,2.4,1.58,4.81,2.39,7.22a5.3,5.3,0,0,0,1,1.84Q52.3,64.3,52,61.09c-.11-1.1-.29-2.21-.32-3.31a1.43,1.43,0,0,1,.56-1.09,2.18,2.18,0,0,1,3.16,1.57,25.22,25.22,0,0,1-.17,3.66c-.11.91.26,1.31,1.13,1.35,1.31.06,2.63.13,3.95.09.91,0,1.35.23,1.32,1.13s0,2,0,3.29l-8.91.6a4.17,4.17,0,0,1,0,.74,1,1,0,0,1-1.19,1c-1.07,0-2.15.15-3.22.15a1.24,1.24,0,0,1-.81-.59A13.68,13.68,0,0,1,46.73,68l-.45,0-.63,2.71H41.83L42.36,68a7,7,0,0,1-4.87,2c-.78,0-1-.27-1.06-1-.09-2,.35-2.69,2.19-3.25.21-.06.52-.31.51-.46a1,1,0,0,0-.38-.76,2.09,2.09,0,0,0-1.12-.32c-1.32.06-1.72-.66-1.59-1.72a22.67,22.67,0,0,1,.73-4,2.55,2.55,0,0,1,1.47-1.37c.73-.25,2-.41,2.33,0a6.81,6.81,0,0,1,1.24,2.74c.06.18-.42.57-.71.78A6,6,0,0,1,40.17,61Zm11.52,8a10.46,10.46,0,0,0-.26-1.32c-1-2.91-2-5.79-2.94-8.72-.35-1.12-1.12-.85-1.88-.84s-1.14.27-1.3,1.12c-.56,2.93-1.26,5.83-1.92,8.73-.13.58-.34,1.14-.59,1.94,1-.29,2.09.23,2.37-1.22a7.12,7.12,0,0,1,1.25-2.06c.51.55,1,1.11,1.53,1.66.3.32.6.84.94.87A18.72,18.72,0,0,0,51.69,69.06Zm.76-11.52c.33,3.09.64,6.19,1,9.28,0,.2.58.5.89.5,1.83,0,3.66-.14,5.49-.17,1.28,0,1.07-.87,1-1.61s0-1.44-1.18-1.43c-1.43,0-2.86-.17-4.3-.23-.85,0-1.22-.4-1.15-1.23.11-1.22.21-2.44.27-3.66C54.62,57.57,54.24,57.28,52.45,57.54Zm-11.6,1.77c-1.19-1.78-2.28-2-3.23-.55a1.53,1.53,0,0,0-.34.73c0,1.19,0,2.39,0,3.58l.39-.25A7.47,7.47,0,0,1,39.75,64a1.84,1.84,0,0,1-1.33,3c-1,0-.83.79-.95,1.33,0,.14.45.56.65.54.88-.11,2.1-.06,2.54-.58,1-1.14,2.19-2.37,1.76-4.08a2.42,2.42,0,0,0-1-1.18,8.83,8.83,0,0,0-1.73-.78c-.95-.37-.95-.94-.34-1.59C39.78,60.22,40.3,59.8,40.85,59.31Z"/><path d="M50.2,72.45c.6,0,.82.61.85,1.3a2,2,0,0,1-2,1.76,1.2,1.2,0,0,1-1.37-1.24C47.65,73.32,48.7,72.47,50.2,72.45Z"/><path d="M54.54,75.52c-.63,0-1.12-.23-1.12-1.05A1.54,1.54,0,0,1,55,72.8c.74,0,1.35.3,1.38,1.13A1.71,1.71,0,0,1,54.54,75.52Z"/><path d="M57.09,40.13c.27-1,.28-1.82,1.45-1.82,1,0,1.31.6,1.35,1.41a1.48,1.48,0,0,1-1.7,1.34C57.78,41,57.45,40.46,57.09,40.13Z"/><path d="M48.2,37.68c-.11-.13-.6-.46-.62-.81,0-.71.34-1.43,1.2-1.38a1.42,1.42,0,0,1,1,1C49.83,37.06,49.55,37.74,48.2,37.68Z"/><path class="cls-1" d="M51.69,69.06a18.72,18.72,0,0,1-2.79.16c-.34,0-.64-.56-.94-.87-.52-.55-1-1.1-1.53-1.66a7.12,7.12,0,0,0-1.25,2.06c-.28,1.45-1.34.93-2.37,1.22.24-.8.45-1.36.59-1.94.66-2.91,1.37-5.81,1.92-8.73.16-.84.53-1.11,1.3-1.12s1.53-.27,1.88.84c.91,2.93,2,5.81,2.94,8.72A10.46,10.46,0,0,1,51.69,69.06Zm-4-5.57a6.66,6.66,0,0,0-.18-1.35c-.1-.31-.38-.73-.64-.79a1.12,1.12,0,0,0-1,.41,5.05,5.05,0,0,0-.5,1.85c0,.52-.07,1.29.84,1.19C47,64.71,47.83,64.51,47.73,63.49Z"/><path class="cls-1" d="M52.45,57.54c1.79-.26,2.17,0,2.1,1.45-.06,1.22-.16,2.44-.27,3.66-.07.82.3,1.19,1.15,1.23,1.43.07,2.87.24,4.3.23,1.16,0,1.16.7,1.18,1.43s.23,1.59-1,1.61c-1.83,0-3.66.15-5.49.17-.31,0-.86-.29-.89-.5C53.09,63.73,52.78,60.63,52.45,57.54Z"/><path class="cls-1" d="M40.85,59.31c-.55.49-1.07.91-1.52,1.39-.6.64-.6,1.21.34,1.59a8.83,8.83,0,0,1,1.73.78,2.42,2.42,0,0,1,1,1.18c.43,1.71-.8,2.93-1.76,4.08-.43.52-1.66.47-2.54.58-.2,0-.68-.4-.65-.54.11-.54,0-1.3.95-1.33a1.84,1.84,0,0,0,1.33-3,7.47,7.47,0,0,0-2.09-1.19l-.39.25c0-1.19,0-2.39,0-3.58a1.53,1.53,0,0,1,.34-.73C38.57,57.36,39.65,57.53,40.85,59.31Z"/><path d="M47.73,63.49c.11,1-.69,1.22-1.43,1.31-.91.11-.88-.67-.84-1.19a5.05,5.05,0,0,1,.5-1.85,1.12,1.12,0,0,1,1-.41c.27.06.54.48.64.79A6.66,6.66,0,0,1,47.73,63.49Z"/><rect class="cls-1" x="58.5" y="102.1" width="26.5" height="5.9"/></svg>