<svg id="Layer_1" data-name="Layer 1" xmlns="http://www.w3.org/2000/svg" viewBox="0 0 256.43 256.5"><defs><style>.cls-1{fill:#fff;}</style></defs><title>Artboard 1</title><path class="cls-1" d="M.51,256.5V.54H256.43v256ZM21.62,65.05c-5.23-1.64-8.91.58-11.43,4.39a19,19,0,0,0-3.06,8.27C5.6,92.93,16,110.39,30,116.75a4,4,0,0,1,2,2.2A101.59,101.59,0,0,0,55.81,160a6,6,0,0,1,1.61,3.46c.32,6,.95,12,.47,17.92-1,12.42-5.77,23.2-15.8,31.15-6.2,4.92-13.42,7.62-21.07,9.24-1.58.34-3.16.72-2.78,2.72s2,1.68,3.45,1.41c27.53-5.37,38.26-24,40.26-43.37C62.48,177.35,62,172,62,167c6.16,4.16,12.09,8.56,18.39,12.35,12.19,7.34,24.63,7.21,36.52-.56,6.24-4.08,11.83-9.15,17.71-13.78.54-.42,1-.89,1.87-1.59,0,6.37-.54,12.33.1,18.16,2.22,20.45,13.1,37.5,36.58,43.49a20.19,20.19,0,0,0,4.88.92,3,3,0,0,0,2.17-1.76c.16-.49-.85-1.63-1.59-2.09a8.81,8.81,0,0,0-2.65-.63c-16.73-3.93-28.31-13.56-33.3-30.34a68.82,68.82,0,0,1-1.92-28.22c.22-1.79.09-3.94,1-5.28,2.9-4.14,6.24-8,9.4-11.9,1.62.87,3,1.8,2.81,4-.3,2.91,1.11,4.74,3.57,6.27q23.45,14.56,46.75,29.35a3.82,3.82,0,0,1,1.75,2.24c.29,2.34,1.87,3.29,3.72,3.86s2.91-.69,3.73-2.19c.35-.64.81-1.21,1.31-1.94,7,4.37,13.79,8.65,20.58,13a2.14,2.14,0,0,1,.86,1.55,3.87,3.87,0,0,0,3.1,4c2.1.62,3.43-.67,4.47-2.36,1.62-2.62,3.17-5.3,5-7.77,1.09-1.46,1.61-2.73.4-4.22s-2.91-2.24-4.66-1.37a2.66,2.66,0,0,1-3.13-.35c-1.1-.75-2.25-1.43-3.38-2.14l-16.5-10.4a11.25,11.25,0,0,0,1.45-2.57c.28-1.19.76-3,.19-3.57-1.14-1.07-3.14-2.25-4.42-1.93a4.52,4.52,0,0,1-4-.79q-23.26-14.63-46.52-29.25c-2.07-1.31-4.15-1.93-6.32-.65a4.29,4.29,0,0,1-5.63-.63c2.89-6.34,5.72-12.63,8.63-18.88a2.86,2.86,0,0,1,1.51-1.39A33,33,0,0,0,181.69,107c6.86-8.2,11.43-17.41,11.26-28.38-.15-9.58-7.29-15.45-15.76-13.08.69-6.56,1.36-13.08,2.06-19.6.16-1.5-.16-3-1.85-2.84-.81.06-1.89,1.39-2.18,2.35a19.51,19.51,0,0,0-.47,4.31c-8.27-3.48-16.21-7.39-24.51-10.23C124,30.61,97,28.9,69.6,32.66c-12.94,1.78-25.39,5.4-36.83,11.91C29.81,46.25,27,48.22,24,50.19a11.82,11.82,0,0,0-.45-3.26c-.43-1-1.29-2.34-2.09-2.43-1.73-.2-2.05,1.32-1.91,2.78q.34,3.48.76,7C20.7,57.76,21.15,61.29,21.62,65.05Z"/><path d="M21.62,65.05c-.47-3.77-.93-7.29-1.35-10.82q-.42-3.47-.76-7c-.14-1.46.18-3,1.91-2.78.8.09,1.65,1.46,2.09,2.43A11.82,11.82,0,0,1,24,50.19c3.07-2,5.85-3.94,8.8-5.61C44.21,38.06,56.65,34.44,69.6,32.66c27.37-3.76,54.38-2,80.64,6.92,8.31,2.84,16.25,6.74,24.51,10.23a19.51,19.51,0,0,1,.47-4.31c.29-1,1.38-2.29,2.18-2.35,1.68-.12,2,1.34,1.85,2.84-.7,6.52-1.37,13-2.06,19.6,8.47-2.37,15.61,3.5,15.76,13.08.17,11-4.41,20.18-11.26,28.38a33,33,0,0,1-15.18,10.57A2.86,2.86,0,0,0,165,119c-2.91,6.25-5.74,12.54-8.63,18.88a4.29,4.29,0,0,0,5.63.63c2.16-1.28,4.25-.65,6.32.65q23.23,14.67,46.52,29.25a4.52,4.52,0,0,0,4,.79c1.28-.32,3.28.85,4.42,1.93.57.53.09,2.38-.19,3.57a11.25,11.25,0,0,1-1.45,2.57l16.5,10.4c1.13.71,2.28,1.38,3.38,2.14a2.66,2.66,0,0,0,3.13.35c1.75-.88,3.45-.12,4.66,1.37s.69,2.76-.4,4.22c-1.83,2.47-3.38,5.15-5,7.77-1,1.69-2.37,3-4.47,2.36a3.87,3.87,0,0,1-3.1-4,2.14,2.14,0,0,0-.86-1.55c-6.8-4.34-13.63-8.62-20.58-13-.5.73-1,1.31-1.31,1.94-.82,1.49-1.87,2.75-3.73,2.19s-3.43-1.52-3.72-3.86a3.82,3.82,0,0,0-1.75-2.24Q181,170.6,157.59,156c-2.46-1.53-3.87-3.36-3.57-6.27.23-2.18-1.19-3.11-2.81-4-3.16,3.94-6.5,7.77-9.4,11.9-.94,1.34-.81,3.49-1,5.28a68.82,68.82,0,0,0,1.92,28.22c5,16.78,16.57,26.4,33.3,30.34a8.81,8.81,0,0,1,2.65.63c.73.46,1.75,1.61,1.59,2.09a3,3,0,0,1-2.17,1.76,20.19,20.19,0,0,1-4.88-.92c-23.48-6-34.36-23-36.58-43.49-.63-5.83-.1-11.79-.1-18.16-.82.7-1.33,1.17-1.87,1.59-5.88,4.63-11.47,9.7-17.71,13.78-11.88,7.78-24.33,7.9-36.52.56C74.11,175.55,68.18,171.15,62,167c0,5,.46,10.36-.08,15.58-2,19.33-12.72,38-40.26,43.37-1.41.27-3.09.51-3.45-1.41s1.2-2.38,2.78-2.72c7.66-1.63,14.87-4.33,21.07-9.24,10-7.95,14.79-18.73,15.8-31.15.48-5.93-.15-12-.47-17.92A6,6,0,0,0,55.81,160,101.59,101.59,0,0,1,32,119a4,4,0,0,0-2-2.2c-14-6.36-24.37-23.83-22.84-39a19,19,0,0,1,3.06-8.27C12.72,65.63,16.39,63.42,21.62,65.05Zm14.78,10a9.66,9.66,0,0,0-.28,2.78c2.27,11.59,4.18,23.27,7.05,34.71,4.22,16.78,10.48,32.81,20.38,47.18,1.55,2.25,3.07,4.74,5.19,6.32a179.57,179.57,0,0,0,16,10.62c6,3.51,12.57,4.21,19.34,2.93,8.53-1.61,15.24-6.43,21.2-12.43a111.46,111.46,0,0,0,18.51-25.63c1.12-2,.61-3.32-.56-4.75a6.25,6.25,0,0,0-1.62-1.14c-3.68-2.28-7.39-4.51-11-6.88-.67-.44-.94-1.48-1.4-2.25.94,0,2.08-.41,2.78,0,3.49,1.94,6.88,4.06,10.27,6.17,5.06,3.15,5.12,2.22,6.87-2.09,10.16-25,14.36-51.16,15.08-78,.06-2.18-.59-3.21-2.58-4.07C130,35.05,97.35,32.08,63.74,38.17a91.68,91.68,0,0,0-28.34,10c-.72.4-1.78,1.18-1.76,1.76.09,3.7.44,7.39.75,11.69.66-.85.89-1.17,1.15-1.47,5.65-6.87,12.32-11.18,21.7-8.66,8.1,2.18,16.21,4.33,24.25,6.7.91.27,2.21,2.36,2,2.78a6,6,0,0,1-3.22,2.42c-1,.29-2.25-.34-3.36-.68-7.72-2.34-15.45-4.66-23.14-7.08-5.48-1.72-10.34-.47-14.84,2.77-3,2.19-5.42,4.7-4,8.94a20.14,20.14,0,0,1,.24,2.48c.35,1.76.79,3.5,1.19,5.25Zm131.49,37.57a5.71,5.71,0,0,0,1.12-.38c12.52-7.35,19.08-18.44,20.23-32.76a10.06,10.06,0,0,0-4.68-9.65c-1.09-.71-3.07-1.12-4.11-.61A7.37,7.37,0,0,0,176,74.79c-.82,5.26-1.78,10.5-2.92,15.7C171.5,97.85,169.66,105.17,167.89,112.63ZM30.3,112.23C27.8,98.85,25.4,85.69,22.88,72.56A4.49,4.49,0,0,0,15.6,70a11,11,0,0,0-4.53,9.31c.32,13.51,6.14,24.11,17.19,31.85A17.19,17.19,0,0,0,30.3,112.23Zm126.34,30.62c.69,2.2,1.64,4.13,1.82,6.12a4.55,4.55,0,0,0,2.4,3.94c9.34,5.77,18.61,11.65,27.91,17.48l23.17,14.53,5.88-9.59c-.18-.25-.25-.43-.38-.51q-25.76-16.21-51.55-32.37a2.77,2.77,0,0,0-2.28-.15C161.3,143.39,159.05,144.31,156.64,142.85ZM29.4,52.11c-4.32,2.28-4.85,3.1-4.3,6.9.86,5.93,1.61,11.87,2.71,17.75,1.88,10,4.36,20,5.93,30.09a94,94,0,0,0,16.36,39.76,12.33,12.33,0,0,0,1.14,1.25A224.2,224.2,0,0,1,36,101.26,314.57,314.57,0,0,1,29.4,52.11Zm121.68,84.4.74.3a17.13,17.13,0,0,0,1.26-1.87c2.27-4.53,4.82-9,6.71-13.64,8.37-20.79,11.77-42.73,14.51-64.8a2,2,0,0,0-.69-1.62c-1.62-1.07-3.35-2-5.37-3.14C167.66,81.35,162.86,109.63,151.08,136.52Zm93.57,59.11a34,34,0,0,1-4.26-1.86c-6.22-3.82-12.38-7.73-18.57-11.61-.74-.46-1.51-.88-2.34-1.36l-2,3.09c.83.55,1.57,1.06,2.34,1.54,5.76,3.61,11.55,7.19,17.29,10.85,1.63,1,3.12,2.32,4.8,3.59Z"/><path class="cls-1" d="M36.33,75.12c-.4-1.75-.84-3.49-1.19-5.25a20.14,20.14,0,0,0-.24-2.48c-1.44-4.24.93-6.75,4-8.94,4.5-3.24,9.37-4.5,14.84-2.77,7.69,2.42,15.42,4.74,23.14,7.08,1.11.34,2.39,1,3.36.68A6,6,0,0,0,83.45,61c.25-.43-1.05-2.52-2-2.78-8-2.37-16.15-4.52-24.25-6.7-9.38-2.52-16.06,1.79-21.7,8.66-.25.31-.49.62-1.15,1.47-.31-4.3-.66-8-.75-11.69,0-.58,1-1.36,1.76-1.76a91.68,91.68,0,0,1,28.34-10c33.61-6.09,66.3-3.11,97.87,10.36,2,.85,2.64,1.89,2.58,4.07-.71,26.84-4.91,53-15.08,78-1.75,4.31-1.8,5.24-6.87,2.09-3.39-2.11-6.78-4.23-10.27-6.17-.7-.39-1.84,0-2.78,0,.46.76.73,1.81,1.4,2.25,3.62,2.37,7.33,4.6,11,6.88a6.25,6.25,0,0,1,1.62,1.14c1.16,1.43,1.68,2.7.56,4.75a111.46,111.46,0,0,1-18.51,25.63c-6,6-12.67,10.83-21.2,12.43-6.77,1.27-13.38.57-19.34-2.93a179.57,179.57,0,0,1-16-10.62c-2.13-1.58-3.65-4.08-5.19-6.32-9.9-14.37-16.16-30.4-20.38-47.18-2.87-11.44-4.78-23.12-7.05-34.71a9.56,9.56,0,0,1,.29-2.79,24.68,24.68,0,0,0,3.37,1.44c2.58.68,3.2,1.93,1.85,4.11a3.35,3.35,0,0,1,4.14,3.21c1.81.07,3.29.53,3.93,2.44a3.55,3.55,0,0,1,4.57,1.33c1.88-1.34,3.85-1,4.33.39,1.08-.49,2.15-1.06,3.27-1.47a48.13,48.13,0,0,0,5.63-1.94c3.43-1.77,6.38-4.37,10.35-5.25,2.09-.46,2.22-2.64.19-3.68-4.93-2.51-9.6-5.77-15.36-6.21-2.14-.16-3.31-1.19-3.82-3.61,2.69.27,5.18.38,7.6.82s4.77,1.22,7.15,1.85l.21-.82c-4.05-1-8.05-2.38-12.17-3A23.9,23.9,0,0,0,48.23,66.5c-.87.39-2.05.06-3.11.06.78,2.67-1.91,2.59-4,3.56L44,73.35l-.26.65-6.24-1.83,4,3.31Zm86.22,67.61c-3.55-2.43-7-4.7-10.37-7.15-3.52-2.58-7.13-2.72-11.08-1.15-1,.4-2.31.07-3.48,0-2.59-.16-5.65-1.34-7.68-.37-4.8,2.29-9.11,5.6-13.71,8.54,5.61,9.81,13.9,13.62,24.4,13.33C110.33,155.66,117.61,151.39,122.55,142.73Zm30.9-62.35c-2.21-4.86,2.72-3.61,4.57-5.41h-4l2.77-2.38-5.45,1a3.19,3.19,0,0,1,1.16-2c1.27-.95,2.07-1.55-.24-2.34-1.13-.38-1.91-1.78-2.68-2.55a11.15,11.15,0,0,1-2.94-.41c-8.92-3.73-17.37-2.07-25.64,2,5-1.2,9.91-3,15.37-2-.76,1.1-1.63,2.57-2.61,2.63-5.89.39-10.65,3.62-15.74,6a3.93,3.93,0,0,0-2,2.73c0,.6,1.47,1.5,2.42,2,1.54.76,3.47.94,4.76,2a24.46,24.46,0,0,0,10.53,4.84,12.72,12.72,0,0,1,2.7,1.26c1-1.7,3.16-1.72,4.77.27.51-2.3,2.41-2.95,4.62-1.57,0-1.94,1.39-2.88,3.91-2.69C149.47,81.47,151.13,79.9,153.45,80.38Zm7.25-18.47c-2.15-6.3-12.51-12.48-19.42-11.21-3.1.57-6.25,1-9.28,1.85-6.16,1.69-12.28,3.51-18.34,5.51-.9.3-2.12,2.45-1.87,2.82a6.85,6.85,0,0,0,3.35,2.36c.79.27,1.91-.37,2.86-.66,7.95-2.4,15.9-4.78,23.84-7.23,6.13-1.89,11.25,0,15.88,4ZM88.12,105.29c-3.67,3.45-4.73,6.9-2.9,9.65,3,4.44,7.77,6,12.43,7.64-2.32-2.5-4.65-4.84-6.76-7.36A11.54,11.54,0,0,1,88.12,105.29Zm23.56,13.59c-.74-1.34-1-2.76-1.85-3.18a7.83,7.83,0,0,0-7.6.2c-.8.45-1.11,1.79-1.8,3Z"/><path class="cls-1" d="M167.89,112.63c1.77-7.46,3.61-14.77,5.23-22.13,1.14-5.2,2.1-10.44,2.92-15.7a7.37,7.37,0,0,1,4.42-5.56c1-.52,3-.1,4.11.61a10.06,10.06,0,0,1,4.68,9.65c-1.15,14.33-7.71,25.41-20.23,32.76A5.71,5.71,0,0,1,167.89,112.63Z"/><path class="cls-1" d="M30.3,112.23a17.19,17.19,0,0,1-2-1c-11.05-7.74-16.88-18.34-17.19-31.85A11,11,0,0,1,15.6,70a4.49,4.49,0,0,1,7.27,2.53C25.4,85.69,27.8,98.85,30.3,112.23Z"/><path class="cls-1" d="M156.64,142.85c2.41,1.46,4.66.54,7-.56a2.77,2.77,0,0,1,2.28.15q25.81,16.13,51.55,32.37c.13.08.2.26.38.51l-5.88,9.59-23.17-14.53c-9.3-5.84-18.57-11.71-27.91-17.48a4.55,4.55,0,0,1-2.4-3.94C158.28,147,157.33,145.06,156.64,142.85Zm45.28,23.74c-.64-.45-1-.76-1.44-1q-16.3-10.35-32.61-20.7c-2.82-1.79-3.67-1.43-6.14,2.45-1.59,2.49-1.33,3.57,1.35,5.24q8.35,5.21,16.73,10.38l17.56,10.85Z"/><path class="cls-1" d="M29.4,52.11A314.57,314.57,0,0,0,36,101.26a224.2,224.2,0,0,0,15.28,46.59,12.33,12.33,0,0,1-1.14-1.25,94,94,0,0,1-16.36-39.76c-1.57-10.09-4-20-5.93-30.09C26.71,70.88,26,64.94,25.1,59,24.55,55.21,25.08,54.4,29.4,52.11Z"/><path class="cls-1" d="M151.08,136.52c11.78-26.89,16.58-55.17,17.15-84.78,2,1.16,3.75,2.07,5.37,3.14a2,2,0,0,1,.69,1.62c-2.73,22.07-6.13,44-14.51,64.8-1.89,4.69-4.43,9.11-6.71,13.64a17.13,17.13,0,0,1-1.26,1.87Z"/><path class="cls-1" d="M244.65,195.63l-2.71,4.24c-1.68-1.27-3.16-2.54-4.8-3.59-5.74-3.66-11.52-7.23-17.29-10.85-.76-.48-1.5-1-2.34-1.54l2-3.09c.83.48,1.6.9,2.34,1.36,6.19,3.87,12.35,7.79,18.57,11.61A34,34,0,0,0,244.65,195.63Z"/><path d="M122.55,142.73c-4.94,8.66-12.22,12.93-21.92,13.2-10.49.29-18.78-3.52-24.4-13.33,4.6-2.95,8.91-6.26,13.71-8.54,2-1,5.09.21,7.68.37,1.16.07,2.47.4,3.48,0,4-1.57,7.56-1.43,11.08,1.15C115.52,138,119,140.3,122.55,142.73Zm-35.08-.22-.11,1.07h22.91a13.38,13.38,0,0,0,1.36-.14v-.63c-3.07,0-6.14,0-9.21,0-1.82,0-3.65.12-5.47.07C93.78,142.8,90.62,142.64,87.47,142.51Z"/><path d="M153.45,80.38c-2.33-.48-4,1.08-3.65,3.26-2.52-.19-3.88.75-3.91,2.69-2.21-1.37-4.11-.73-4.62,1.57-1.61-2-3.82-2-4.77-.27a12.72,12.72,0,0,0-2.7-1.26,24.46,24.46,0,0,1-10.53-4.84c-1.29-1-3.22-1.21-4.76-2-1-.47-2.47-1.38-2.42-2a3.93,3.93,0,0,1,2-2.73c5.09-2.36,9.85-5.59,15.74-6,1-.06,1.85-1.54,2.61-2.63-5.46-1-10.38.81-15.37,2,8.27-4.08,16.72-5.74,25.64-2a11.15,11.15,0,0,0,2.94.41c.78.78,1.56,2.17,2.68,2.55,2.31.79,1.51,1.39.24,2.34a3.19,3.19,0,0,0-1.16,2l5.45-1L154,75h4C156.17,76.77,151.24,75.53,153.45,80.38Zm-12-8.69c1.56,6.59-.73,11.2-5.76,11.64a11.25,11.25,0,0,1-6.3-1.57c-2.92-1.73-3.3-4.9-2.81-8.48-2.28,1.06-4.17,1.9-6,2.84-.45.23-1.08.87-1,1.19a2.63,2.63,0,0,0,1.15,1.4,23.67,23.67,0,0,1,3,1.62c5,4.4,11,5.54,17.29,4.55,5-.79,8.44-4,10.84-8.8Zm-4.26-3,.46.79,4.91-2.06-.24-.86-4.6-.66Zm-2.44,6.11c-1.15-.82-1.94-1.78-2.44-1.65-.7.18-1.2,1.18-1.78,1.82.61.52,1.2,1.41,1.83,1.44S133.6,75.64,134.71,74.84Zm9.45-7.69-1.77,2.65c2.36,1.29,3.61-.1,5.07-1.62ZM151.89,71l-.15-.86-2.44-1.2-2.07,2.4.3.79Z"/><path d="M36.33,75.12l5.13.37-4-3.31L43.73,74l.26-.65-2.82-3.23c2-1,4.73-.89,4-3.56,1.05,0,2.24.33,3.11-.06a23.9,23.9,0,0,1,13.42-1.83c4.11.61,8.11,2,12.17,3l-.21.82c-2.38-.63-4.73-1.41-7.15-1.85s-4.92-.54-7.6-.82c.51,2.43,1.69,3.45,3.82,3.61,5.76.43,10.44,3.7,15.36,6.21,2,1,1.89,3.22-.19,3.68-4,.88-6.92,3.47-10.35,5.25a48.13,48.13,0,0,1-5.63,1.94c-1.12.41-2.19,1-3.27,1.47-.47-1.36-2.45-1.74-4.33-.39a3.55,3.55,0,0,0-4.57-1.33c-.64-1.91-2.12-2.37-3.93-2.44a3.35,3.35,0,0,0-4.14-3.21c1.35-2.18.73-3.43-1.85-4.11a24.68,24.68,0,0,1-3.37-1.44Zm7,1.06c.38.76.58,1.21.82,1.63,4.76,8.12,16.33,10.1,25.05,4.33C71,81,72.88,79.92,74.69,78.8c1.16-.71,1.65-1.59.17-2.4-1.95-1.05-4-1.94-6.11-3C69,79.9,66.11,83.81,61,83.52a10.54,10.54,0,0,1-5.77-2.34C52.5,78.89,52.5,75.6,54,71.69Zm14.23-6.59.47-.85L57.37,66l-4.51.75-.15,1ZM65.48,75c-1.2-.86-1.9-1.76-2.48-1.69s-1.2,1-1.8,1.61c.57.59,1.08,1.56,1.73,1.65S64.25,75.84,65.48,75ZM52.73,69.88c-1.92-2.95-1.92-2.95-4.84-1.26C49.34,69.89,50.62,71.32,52.73,69.88Zm-9.87.6c2,1,3.21,2.55,5.05.77l-2.08-2.3Z"/><path d="M160.7,61.92l-3-2.57c-4.63-4-9.75-5.88-15.88-4-7.93,2.45-15.89,4.83-23.84,7.23-1,.29-2.07.92-2.86.66a6.85,6.85,0,0,1-3.35-2.36c-.26-.38,1-2.52,1.87-2.82,6.06-2,12.18-3.83,18.34-5.51,3-.83,6.18-1.28,9.28-1.85C148.19,49.44,158.55,55.61,160.7,61.92Z"/><path d="M88.12,105.29a11.54,11.54,0,0,0,2.78,9.92c2.12,2.52,4.45,4.86,6.76,7.36-4.67-1.69-9.47-3.2-12.43-7.64C83.39,112.19,84.44,108.74,88.12,105.29Z"/><path d="M111.68,118.88H100.43c.68-1.19,1-2.52,1.8-3a7.83,7.83,0,0,1,7.6-.2C110.64,116.11,110.93,117.53,111.68,118.88Z"/><path d="M201.92,166.59l-4.56,7.2L179.8,162.94q-8.37-5.18-16.73-10.38c-2.68-1.67-2.94-2.75-1.35-5.24,2.47-3.88,3.32-4.23,6.14-2.45q16.32,10.33,32.61,20.7C200.9,165.83,201.28,166.13,201.92,166.59Z"/><path class="cls-1" d="M87.47,142.51c3.16.13,6.32.29,9.47.37,1.82,0,3.65-.07,5.47-.07,3.07,0,6.14,0,9.21,0v.63a13.38,13.38,0,0,1-1.36.14H87.36Z"/><path class="cls-1" d="M141.41,71.69l10.44,4.39c-2.4,4.84-5.83,8-10.84,8.8-6.32,1-12.26-.14-17.29-4.55a23.67,23.67,0,0,0-3-1.62,2.63,2.63,0,0,1-1.15-1.4c-.07-.31.56-1,1-1.19,1.84-.94,3.72-1.77,6-2.84-.5,3.58-.11,6.75,2.81,8.48a11.25,11.25,0,0,0,6.3,1.57C140.68,82.89,143,78.29,141.41,71.69Z"/><path class="cls-1" d="M137.15,68.73l.53-2.8,4.6.66.24.86-4.91,2.06Z"/><path class="cls-1" d="M134.71,74.84c-1.11.8-1.77,1.65-2.39,1.62s-1.22-.93-1.83-1.44c.58-.65,1.08-1.64,1.78-1.82C132.77,73.06,133.55,74,134.71,74.84Z"/><path class="cls-1" d="M144.16,67.15l3.3,1c-1.47,1.52-2.71,2.91-5.07,1.62Z"/><path class="cls-1" d="M151.89,71l-4.37,1.13-.3-.79,2.07-2.4,2.44,1.2Z"/><path class="cls-1" d="M43.36,76.18,54,71.69c-1.47,3.91-1.47,7.2,1.26,9.49A10.54,10.54,0,0,0,61,83.52c5.12.29,8-3.62,7.76-10.07,2.13,1,4.16,1.9,6.11,3,1.48.8,1,1.68-.17,2.4C72.88,79.92,71,81,69.23,82.14c-8.73,5.77-20.29,3.79-25.05-4.33C43.93,77.39,43.74,76.94,43.36,76.18Z"/><path class="cls-1" d="M57.58,69.59l-4.87-1.9.15-1L57.37,66l.69,2.79Z"/><path class="cls-1" d="M65.48,75c-1.23.81-2,1.66-2.55,1.57s-1.16-1.07-1.73-1.65c.6-.57,1.14-1.53,1.8-1.61S64.28,74.17,65.48,75Z"/><path class="cls-1" d="M52.73,69.88c-2.11,1.45-3.39,0-4.84-1.26C50.81,66.93,50.81,66.93,52.73,69.88Z"/><path class="cls-1" d="M42.86,70.47l3-1.54,2.08,2.3C46.07,73,44.83,71.51,42.86,70.47Z"/><rect class="cls-1" x="121.41" y="119" width="25.95" height="17.85"/><rect class="cls-1" x="146" y="131" width="5" height="5" transform="translate(340.66 187.8) rotate(153.82)"/></svg>