<svg id="Layer_1" data-name="Layer 1" xmlns="http://www.w3.org/2000/svg" viewBox="0 0 192 192"><defs><style>.cls-1{fill:#fff;}</style></defs><title>Artboard 1</title><path class="cls-1" d="M192.24,123.72v26.15H.24q0-40.07,0-80.15a3.1,3.1,0,0,1,.19.56c1.24,8.54,6.33,14,14,17.35,3.29,1.44,6.62,2.8,10,4.15q52.07,21,104.15,41.92c13,5.23,26.19,10.24,39.28,15.36a8.49,8.49,0,0,0,6.21.19,20.11,20.11,0,0,0,5-2.55c6.56-4.92,10.52-11.59,12.53-19.46C191.81,126.07,192,124.89,192.24,123.72Z"/><path class="cls-1" d="M25.92,42.6H192.24v76.32a1.71,1.71,0,0,1-.19-.42c-.91-6.47-4.56-10.84-10.38-13.52-2.87-1.32-5.74-2.64-8.66-3.82Q119.41,79.54,65.77,58C52.55,52.7,39.21,47.72,25.92,42.6Z"/><path d="M25.92,42.6C39.21,47.72,52.55,52.7,65.77,58Q119.44,79.46,173,101.16c2.92,1.18,5.8,2.5,8.66,3.82,5.82,2.68,9.47,7.06,10.38,13.52a1.71,1.71,0,0,0,.19.42v4.8c-.24,1.17-.43,2.35-.73,3.51-2,7.88-6,14.54-12.53,19.46a20.11,20.11,0,0,1-5,2.55,8.49,8.49,0,0,1-6.21-.19c-13.09-5.12-26.23-10.13-39.28-15.36Q76.4,112.81,24.36,91.77c-3.33-1.34-6.66-2.71-10-4.15-7.65-3.35-12.74-8.8-14-17.35a3.1,3.1,0,0,0-.19-.56v-4.8c.24-1.16.41-2.35.73-3.49,2.3-8.4,7-14.76,15.39-18,.92-.35,1.89-.58,2.84-.87Zm162.81,80.18c-.05-8-3.32-12.88-9.39-15.85-4.38-2.14-8.81-4.18-13.31-6C142.58,91.22,119.15,81.52,95.62,72,74.1,63.34,52.49,54.9,30.9,46.38c-6.59-2.6-12.67-1.46-18.08,3A23,23,0,0,0,4.47,64.44c-1,7.13,1,13.3,6.75,17.83a30.38,30.38,0,0,0,7.48,4.2q43.93,17.61,87.94,35c19.8,7.81,39.7,15.37,59.52,23.15a10.48,10.48,0,0,0,10.55-1.26A27.59,27.59,0,0,0,188.73,122.78Z"/><path class="cls-1" d="M19.2,42.6c-.95.29-1.92.52-2.84.87C8,46.67,3.27,53,1,61.43.65,62.57.48,63.76.24,64.92V42.6Z"/><path class="cls-1" d="M188.73,122.78a27.59,27.59,0,0,1-12,20.62,10.48,10.48,0,0,1-10.55,1.26c-19.82-7.78-39.72-15.34-59.52-23.15q-44-17.37-87.94-35a30.38,30.38,0,0,1-7.48-4.2c-5.74-4.53-7.74-10.7-6.75-17.83a23,23,0,0,1,8.35-15.06c5.41-4.45,11.49-5.59,18.08-3C52.49,54.9,74.1,63.34,95.62,72c23.52,9.49,47,19.2,70.4,28.87,4.5,1.86,8.94,3.9,13.31,6C185.41,109.9,188.67,114.76,188.73,122.78ZM64.35,97.18l44.48,17.92,10.12-27L74.58,70ZM17,62.3a2.27,2.27,0,0,0-2.35-2.2,2.23,2.23,0,0,0-2.14,2.27A2.24,2.24,0,0,0,17,62.3ZM138.26,97.35a2.23,2.23,0,0,0-2.2-2.21,2.24,2.24,0,1,0,2.2,2.21Zm26.38,8.7a2.28,2.28,0,0,0-2.21-2.22,2.25,2.25,0,1,0,.07,4.49A2.25,2.25,0,0,0,164.64,106.06ZM58.69,69.37a2.28,2.28,0,0,0,2.21-2.23,2.24,2.24,0,1,0-2.21,2.23Zm93.23,61a2.27,2.27,0,0,0,2.13,2.41,2.31,2.31,0,0,0,2.34-2.09,2.27,2.27,0,0,0-2.15-2.39A2.23,2.23,0,0,0,151.92,130.36ZM51.81,90a2.24,2.24,0,1,0-2.22,2.21A2.29,2.29,0,0,0,51.81,90ZM142.9,111a2.21,2.21,0,0,0-2.28,2.12A2.23,2.23,0,1,0,142.9,111ZM45,73.76A2.23,2.23,0,1,0,42.81,76,2.2,2.2,0,0,0,45,73.76ZM35.86,55a2.22,2.22,0,1,0-2.17,2.24A2.2,2.2,0,0,0,35.86,55Zm90.84,62.89a2.23,2.23,0,0,0,0,4.46,2.23,2.23,0,0,0,0-4.46Zm46.52,6.49a2.25,2.25,0,0,0-2.35-2.18,2.22,2.22,0,1,0,.2,4.44A2.25,2.25,0,0,0,173.22,124.42Zm-148.35-46a2.23,2.23,0,0,0-2.13-2.28,2.22,2.22,0,1,0-.12,4.44A2.25,2.25,0,0,0,24.87,78.43Z"/><path d="M64.35,97.18,74.58,70l44.36,18.13-10.12,27Zm44,13.12,7.92-20.88L77.53,73.83,69.7,95Z"/><path d="M17,62.3a2.24,2.24,0,0,1-4.49.07,2.23,2.23,0,0,1,2.14-2.27A2.27,2.27,0,0,1,17,62.3Zm-1,.06c-.58-.42-.94-.87-1.19-.82a1.31,1.31,0,0,0-.85.82c-.05.21.47.78.74.79S15.37,62.75,16,62.36Z"/><path d="M138.26,97.35a2.24,2.24,0,1,1-2.2-2.21A2.23,2.23,0,0,1,138.26,97.35Zm-1,.06c-.55-.41-.87-.83-1.17-.81s-.61.45-.92.71c.29.32.53.79.88.89S136.67,97.81,137.24,97.41Z"/><path d="M164.64,106.06a2.25,2.25,0,0,1-2.14,2.27,2.25,2.25,0,1,1,2.14-2.27Zm-2.22,1.25c.39-.56.8-.89.78-1.19s-.47-.59-.74-.89c-.31.3-.78.55-.87.9S162,106.75,162.42,107.31Z"/><path d="M58.69,69.37a2.25,2.25,0,0,1-2.28-2.14,2.24,2.24,0,1,1,4.48-.09A2.28,2.28,0,0,1,58.69,69.37Zm-.11-1c.43-.53.91-.88.87-1.14s-.52-.63-.81-.94c-.28.28-.74.54-.78.85S58.22,67.79,58.58,68.35Z"/><path d="M151.92,130.36a2.23,2.23,0,0,1,2.33-2.07,2.27,2.27,0,0,1,2.15,2.39,2.31,2.31,0,0,1-2.34,2.09A2.27,2.27,0,0,1,151.92,130.36Zm2.29-1c-.42.51-.88.83-.85,1.08s.48.65.74,1c.3-.29.76-.54.85-.89S154.59,129.87,154.21,129.32Z"/><path d="M51.81,90a2.24,2.24,0,1,1-2.27-2.29A2.28,2.28,0,0,1,51.81,90ZM49.6,88.79c-.41.55-.85.87-.83,1.16s.46.61.72.91c.31-.29.79-.53.88-.88S50,89.35,49.6,88.79Z"/><path d="M142.9,111a2.24,2.24,0,1,1-2.28,2.12A2.23,2.23,0,0,1,142.9,111Zm1.21,2.31c-.56-.44-.9-.9-1.16-.86a1.3,1.3,0,0,0-.88.78c-.06.2.44.8.71.81S143.49,113.66,144.11,113.3Z"/><path d="M45,73.76a2.23,2.23,0,1,1-2.23-2.19A2.19,2.19,0,0,1,45,73.76Zm-.91.11c-.64-.47-1-.9-1.32-.91a.82.82,0,0,0-.11,1.64C43,74.64,43.37,74.25,44.07,73.87Z"/><path d="M35.86,55a2.22,2.22,0,1,1-2.22-2.2A2.19,2.19,0,0,1,35.86,55Zm-.91,0c-.66-.43-1-.84-1.36-.83a.82.82,0,0,0,0,1.64C33.92,55.89,34.28,55.48,34.94,55.07Z"/><path d="M126.7,117.93a2.23,2.23,0,1,1-2.23,2.16A2.21,2.21,0,0,1,126.7,117.93Zm1.24,2.33c-.55-.47-.88-.95-1.14-.91a1.37,1.37,0,0,0-.93.79c-.07.2.43.81.72.84S127.31,120.62,127.94,120.26Z"/><path d="M173.22,124.42a2.25,2.25,0,0,1-2.15,2.26,2.22,2.22,0,1,1-.2-4.44A2.25,2.25,0,0,1,173.22,124.42Zm-2.16,1.31c.36-.63.74-1,.72-1.35s-.54-.52-.84-.78c-.27.32-.71.62-.76,1S170.61,125.16,171.05,125.73Z"/><path d="M24.87,78.43a2.25,2.25,0,0,1-2.25,2.17,2.22,2.22,0,1,1,.12-4.44A2.23,2.23,0,0,1,24.87,78.43ZM22.58,79.7c.44-.67.86-1,.85-1.36a1.11,1.11,0,0,0-.79-.79,1.1,1.1,0,0,0-.82.74C21.8,78.64,22.18,79,22.58,79.7Z"/><path class="cls-1" d="M108.31,110.3,69.7,95l7.84-21.2,38.7,15.59Z"/><path class="cls-1" d="M16,62.36c-.61.39-1,.8-1.3.79s-.79-.58-.74-.79a1.31,1.31,0,0,1,.85-.82C15,61.49,15.4,61.94,16,62.36Z"/><path class="cls-1" d="M137.24,97.41c-.57.4-1,.85-1.2.79s-.59-.58-.88-.89c.31-.25.6-.69.92-.71S136.7,97,137.24,97.41Z"/><path class="cls-1" d="M162.42,107.31c-.41-.56-.88-.93-.83-1.18s.56-.61.87-.9c.26.29.71.57.74.89S162.81,106.75,162.42,107.31Z"/><path class="cls-1" d="M58.58,68.35c-.36-.57-.76-.92-.73-1.22s.5-.57.78-.85c.29.31.76.59.81.94S59,67.83,58.58,68.35Z"/><path class="cls-1" d="M154.21,129.32c.37.55.81.93.75,1.17s-.55.6-.85.89c-.27-.32-.69-.62-.74-1S153.8,129.83,154.21,129.32Z"/><path class="cls-1" d="M49.6,88.79c.38.56.83.95.77,1.19s-.57.59-.88.88c-.26-.3-.7-.59-.72-.91S49.18,89.33,49.6,88.79Z"/><path class="cls-1" d="M144.11,113.3c-.62.37-1,.75-1.33.73s-.77-.61-.71-.81a1.3,1.3,0,0,1,.88-.78C143.21,112.4,143.54,112.86,144.11,113.3Z"/><path class="cls-1" d="M44.07,73.87c-.69.38-1.08.76-1.43.73A.82.82,0,0,1,42.75,73C43.1,73,43.43,73.4,44.07,73.87Z"/><path class="cls-1" d="M34.94,55.07c-.66.42-1,.82-1.37.81a.82.82,0,0,1,0-1.64C33.92,54.23,34.28,54.64,34.94,55.07Z"/><path class="cls-1" d="M127.94,120.26c-.63.36-1,.75-1.35.72s-.78-.64-.72-.84a1.37,1.37,0,0,1,.93-.79C127.05,119.31,127.39,119.79,127.94,120.26Z"/><path class="cls-1" d="M171.05,125.73c-.45-.56-.91-.9-.88-1.17s.49-.64.76-1c.3.26.82.5.84.78S171.41,125.1,171.05,125.73Z"/><path class="cls-1" d="M22.58,79.7c-.39-.69-.78-1.06-.75-1.41a1.1,1.1,0,0,1,.82-.74,1.11,1.11,0,0,1,.79.79C23.44,78.68,23,79,22.58,79.7Z"/></svg>