<svg id="Layer_1" data-name="Layer 1" xmlns="http://www.w3.org/2000/svg" viewBox="0 0 276 275.99"><defs><style>.cls-1{fill:#fff;}</style></defs><title>Artboard 1</title><path class="cls-1" d="M238,1h38V276H1Q1,138.49,1,1H235c-5.83,1.62-11.07,4-14.47,9.4-2.63,4.16-5.51,8.17-8.4,12.16-6.72,9.29-13.51,18.54-20.28,27.81-4.61-1.91-8.75-3.61-12.86-5.35s-8.2-3.42-12.19-5.35a5.86,5.86,0,0,1-2.87-3c-3.9-12-12.7-19.07-24.9-18.37-10.82.62-19.6,4.45-23.93,17.92a6.52,6.52,0,0,1-3.42,3.35c-11.39,4.88-23.27,8.79-34.2,14.5C60.63,62.9,57.21,77.77,58.69,91.88a53.25,53.25,0,0,1-.12,6.76c-2.19-.8-4.43-1.52-6.58-2.42-8-3.36-15.8-7.7-24.14-9.94C16.15,83.15,5.37,89.89,3.08,101.7c-1.41,7.25-1.89,15.18-.51,22.38,6.2,32.37,22,60.1,43.92,84.69,5.25,5.91,11.11,10.8,10.69,20.45-.53,12.1,7.75,20.87,17.2,27.3,16.43,11.19,35.31,16.73,55,18.18,24.86,1.84,48.57-2.58,69.77-16.62,10.88-7.21,17-16.66,16.22-30a9.68,9.68,0,0,1,2.52-6.23C224,215,231.36,209,236.67,201.54c9.64-13.48,19.06-27.27,26.89-41.81,7.56-14,12.22-29.39,11.75-45.68-.39-13.49-7.84-27.21-26.63-23.38-8.39,1.71-16.15,6.42-24.24,9.64-1.54.61-4.16,1.39-4.81.72a7.42,7.42,0,0,1-1.89-5.41c1.33-10.19.78-19.95-5.28-28.79-1.18-1.72-2.25-3.52-3.44-5.4,11.4-12.24,22.6-24.33,33.87-36.35,4.27-4.55,6.86-9.88,3.92-15.58C245,6.07,241,3.78,238,1Z"/><path d="M238,1c3,2.8,7,5.09,8.81,8.51,2.94,5.71.35,11-3.92,15.58-11.28,12-22.47,24.11-33.87,36.35,1.19,1.88,2.26,3.68,3.44,5.4,6.06,8.84,6.6,18.59,5.28,28.79a7.42,7.42,0,0,0,1.89,5.41c.65.67,3.28-.11,4.81-.72,8.1-3.22,15.85-7.93,24.24-9.64,18.79-3.83,26.24,9.89,26.63,23.38.47,16.29-4.19,31.65-11.75,45.68-7.83,14.54-17.25,28.33-26.89,41.81C231.36,209,224,215,217.89,221.85a9.68,9.68,0,0,0-2.52,6.23c.76,13.34-5.34,22.78-16.22,30-21.2,14-44.91,18.47-69.77,16.62-19.7-1.46-38.58-7-55-18.18-9.45-6.43-17.73-15.21-17.2-27.3.42-9.65-5.43-14.54-10.69-20.45C24.61,184.17,8.76,156.44,2.56,124.07c-1.38-7.2-.9-15.12.51-22.38,2.3-11.8,13.08-18.55,24.77-15.41,8.34,2.24,16.1,6.58,24.14,9.94,2.15.9,4.38,1.62,6.58,2.42a53.25,53.25,0,0,0,.12-6.76c-1.48-14.11,1.95-29,18.8-37.79,10.92-5.71,22.81-9.63,34.2-14.5a6.52,6.52,0,0,0,3.42-3.35c4.33-13.46,13.11-17.3,23.93-17.92,12.2-.7,21,6.4,24.9,18.37a5.86,5.86,0,0,0,2.87,3c4,1.94,8.1,3.62,12.19,5.35s8.26,3.44,12.86,5.35c6.77-9.28,13.56-18.52,20.28-27.81,2.89-4,5.77-8,8.4-12.16C223.93,5,229.17,2.61,235,1ZM210.87,50.15l.25.23c-2.55,3.13-5.06,6.3-7.67,9.39-2.8,3.31-5.69,6.53-8.54,9.79l.94.8,6.07-5.47L197,72.41c5.24,2.37,9,6.22,6.44,11.8-1.83,4-5.64,7.13-8.57,10.64,2.15-3.43,4.71-6.69,6.34-10.35,2.27-5.11,1.21-7.13-3.71-9.46-9.09-4.31-14-12.88-12.84-23.37-5.43-2.07-11.09-4.26-16.78-6.37-3.06-1.13-4.72-.18-6.74,2.74-4.05,5.89-9,11.06-17.05,12-10.76,1.25-21.7-3.13-25.47-10.54-3.5-6.88-3.51-6.9-10.9-4.83A18.7,18.7,0,0,0,104.55,46q-8.34,4.13-16.66,8.3l1.86-2.54-.9-1.16c-6.11,4.32-12.63,8.18-18.23,13.07-9.27,8.08-11,24.69-5.19,35.44,5.53,10.26,14.65,15.67,24.77,20.19,2.83,1.26,5.52,2.83,8.27,4.25C83.71,119.3,69.85,113.83,63.23,98l-6,5.64c-4.22-2.58-7.82-4.92-11.56-7a94.09,94.09,0,0,0-11.92-6.08c-13.29-5.11-23.8-.41-28,12.64a33.34,33.34,0,0,0-1.52,12.06c.94,14.18,5.1,27.62,10.84,40.59,10.3,23.28,25.42,43.27,43.07,61.56,1.22,1.27,2.66,3.33,2.43,4.79-1.67,10.63,3,18.85,9.91,26.12C82.59,261,98.68,265.9,115.17,269.25a118.41,118.41,0,0,0,48-.33c16.17-3.38,31.11-9.35,42.29-22.07,5.17-5.88,6.63-12.86,5.84-20.55a9.43,9.43,0,0,1,2-5.86c1.42-1.94,3.65-3.3,5.49-5,16.14-14.56,28.57-31.94,38.77-50.83,8.49-15.72,14.46-32.37,14.23-50.58-.12-9.49-6.67-18.28-14.31-19.52a37.11,37.11,0,0,0-25.24,5c-4.14,2.4-8.31,4.75-12.7,7.26l-5.3-6.29c-3.47,4.14-6.21,8.59-10,11.77-14.9,12.38-33.11,16.49-51.82,17.52-12.84.71-25.86-.63-38.72-1.81-5.24-.48-10.29-3-15.45-4.56,1.75.22,3.53.34,5.26.66,7.11,1.33,14.19,3.7,21.33,3.89,18,.5,36.21,1.32,53.72-4.6,11.14-3.77,22.21-7.57,29.42-17.77,9.1-12.89,9.16-27.28-.06-38.6-1.63-2-3.22-4-6.08-1.74,7.85-8.85,15.74-17.67,23.55-26.55,5.76-6.53,11.52-13.07,17.11-19.74,2.83-3.38,2.26-7.51-.07-10.53s-6-5-10.1-2.66c-3.06,1.78-6.54,3.58-8.51,6.3C212.74,27.37,202,43,191.24,58.46c-3.34,4.79-3,6.22,2.14,9.58ZM159.45,39.48c0-8.82-6-15.29-16.17-17.45s-21.6,4.75-23.36,14c-1.86,9.77,4.69,18.54,15.14,20.29C148.52,58.6,159.44,51,159.45,39.48Z"/><path class="cls-1" d="M98.28,123.41c5.14,1.57,10.19,4.06,15.42,4.54,12.87,1.18,25.88,2.52,38.72,1.81,18.71-1,36.93-5.14,51.82-17.52,3.83-3.18,6.57-7.63,10-11.77l5.3,6.29c4.39-2.51,8.56-4.86,12.7-7.26a37.11,37.11,0,0,1,25.24-5c7.64,1.23,14.18,10,14.31,19.52.24,18.21-5.74,34.86-14.23,50.58-10.19,18.88-22.63,36.27-38.77,50.83-1.84,1.66-4.06,3-5.49,5a9.43,9.43,0,0,0-2,5.86c.79,7.69-.66,14.67-5.84,20.55-11.18,12.71-26.12,18.69-42.29,22.07a118.41,118.41,0,0,1-48,.33C98.68,265.9,82.59,261,70.51,248.33c-6.94-7.28-11.58-15.5-9.91-26.12.23-1.46-1.21-3.52-2.43-4.79-17.66-18.29-32.77-38.29-43.07-61.56-5.74-13-9.9-26.41-10.84-40.59A33.34,33.34,0,0,1,5.77,103.2c4.16-13.05,14.66-17.75,28-12.64a94.09,94.09,0,0,1,11.92,6.08c3.74,2.1,7.34,4.44,11.56,7l6-5.64c6.61,15.81,20.48,21.28,35.21,25.53Zm127,72.13c13.86-16.06,24.38-33,30.8-52.37,2.54-7.63,5.18-15.26,3.23-23.48-1.73-7.3-6.11-10.38-13.1-7.85-5.65,2.05-10.86,5.45-15.93,8.75-1.15.75-1.71,3.84-1.18,5.42a85.94,85.94,0,0,1,2.35,45.49C229.81,179.28,227.51,186.94,225.27,195.54ZM46.5,191.69l1.55-.81c-.41-1.53-.78-3.07-1.22-4.59-6.4-21.65-8-43.23.69-64.76a4.54,4.54,0,0,0-1-4.19c-4.66-3.35-9.33-6.9-14.52-9.27-7.19-3.28-13.62.3-14.58,8a38,38,0,0,0,.58,14.5c2.86,10.36,5.78,20.88,10.37,30.54C33.39,171.76,40.36,181.53,46.5,191.69ZM83,223.88a20,20,0,0,0,1.91,1.78C96.75,233,109.56,237,123.47,238.86c23.42,3.06,45.39-.28,65.49-12.67,13.17-8.12,22.64-19.29,24.73-35.1.55-4.2-.12-8.56-.23-12.84-1.36,5.79-1,11.64-2.33,17.12-3.9,16.4-16.21,26.08-30.44,33.08-25.5,12.55-52,12.68-78.72,3.76C95.79,230.14,90,227,83,223.88Zm105.41-20.73a18.75,18.75,0,0,0,1-3c.48-8.44,0-16.83,1-25.35,1.12-10.16-.58-14.66-12.81-10.25a9.62,9.62,0,0,1-1.9.57c-3.14.43-3.74,2.3-3.7,5.18.16,11.8.06,23.6.08,35.4a24,24,0,0,0,.37,3l1.63,0c.15-3.87.36-7.73.43-11.6.08-4.82,5.49-9.16,10.19-7.85a4,4,0,0,1,2.26,2.61C187.6,195.12,187.85,198.43,188.44,203.15ZM147.65,184c.71-4.75,1.24-10.14-3.68-12.5s-10.84-3.78-16.09-.42c-1.8,1.15-3.59,3.8-3.67,5.82-.37,9.84-.44,19.72-.05,29.56.27,6.84,3.13,9.21,10.2,9.2,4.24,0,8.48-.65,12.72-1V196H131.38v1.25H146V213.2c-3.95.23-7.73.82-11.46.59-6.65-.41-8.43-2.31-8.56-8.88-.17-8.8,0-17.61-.08-26.41-.05-3.76,1.82-6.19,5.24-6.64a27.64,27.64,0,0,1,10.27.55C147.45,174,146.78,179.43,147.65,184Zm20.42,27.05c1.16-1.4,1.55-1.64,1.54-1.89-.17-12.26-.33-24.51-.66-36.77a4.79,4.79,0,0,0-1.89-3.19c-3.88-2.83-15,1.38-15.11,6-.37,12.51-.12,25-.12,37.55l1.25,0V196.3l15-2.78ZM84.2,186C80.74,197.18,83,202.16,92,205.17c4,1.33,6.38.07,7.61-3.83a16.9,16.9,0,0,0-6-19.09c-1.68-1.31-3.44-2.54-5.2-3.74a10.4,10.4,0,0,1-3.32-13c1.32-2.53,3.14-3.74,6.05-2.29,2.43,1.21,4.91,2.33,7.77,3.68a10.92,10.92,0,0,0-10-5.94c-3.67.31-5.41,2.47-6.31,5.89-1.73,6.55-.67,9.43,6.58,14.63,5.09,3.65,10,7.34,8.5,14.52-.57,2.72-1.64,7.29-3.07,7.52a8.54,8.54,0,0,1-9.44-5.61c-.91-2.37-.93-5.09-1.17-7.68A28.57,28.57,0,0,1,84.2,186Zm20-20.45c-1.14,1.21-1.54,1.44-1.54,1.67-.07,12.77-.34,25.54.08,38.29.06,2,2.84,4.78,5,5.66,3.49,1.43,7.66,2.83,11.19-.17a5.84,5.84,0,0,0,1.47-4c.31-11.46.48-22.92.63-34.38a14.47,14.47,0,0,0-.68-3.19l-1.34.14c-.08,1.71-.22,3.42-.22,5.13,0,10,.14,20-.11,30,0,2-1,4.93-2.53,5.7-5,2.59-11.92-2-11.94-7.48,0-10.65,0-21.31,0-32C104.16,169.51,104.16,168,104.16,165.55Zm41.7,102.16v-.83H122a12.76,12.76,0,0,0,3,.8C132,267.74,138.91,267.71,145.86,267.71Zm-83.4-69.8-1,.57L70.62,214l1.15-.66Zm-1-21.53-.67,0V195h.67Z"/><path class="cls-1" d="M87.88,54.3q8.33-4.15,16.66-8.3a18.7,18.7,0,0,1,3.18-1.33c7.39-2.07,7.4-2.05,10.9,4.83,3.78,7.41,14.71,11.79,25.47,10.54,8-.93,13-6.09,17.05-12,2-2.93,3.67-3.88,6.74-2.74,5.69,2.11,11.34,4.3,16.78,6.37-1.2,10.48,3.75,19.05,12.84,23.37,4.93,2.34,6,4.36,3.71,9.46-1.63,3.66-4.19,6.91-6.34,10.35l-1.69,1.69c-6.47,2.77-12.92,5.59-19.43,8.28-3.24,1.34-6.59,2.45-9.89,3.66l.23-.13c-3,.21-5.93.55-8.89.59-9.09.1-18.28.89-27.26-.1-9.77-1.08-19.36-3.86-29-5.9A39.49,39.49,0,0,1,77,86.75c-2.5-9.17-.57-17.47,5.08-25,1.93-2.58,4-5.08,6-7.61Zm71.66,50.34,0-.28H130.82l.05,1.54Z"/><path class="cls-1" d="M77,86.75a39.49,39.49,0,0,0,21.91,16.19,20.63,20.63,0,0,0,3.94,2.52c16.36,5.86,33.35,6.33,50.44,5.37,3.63-.21,7.2-1.62,10.79-2.47l-.23.13c11.15-.7,20.77-5,29.31-11.94l1.69-1.69c2.93-3.52,6.74-6.64,8.57-10.64,2.55-5.58-1.2-9.43-6.44-11.8l4.9-7.52-.08.35C204.7,63,206.29,65,207.92,67c9.21,11.32,9.16,25.71.06,38.6-7.2,10.21-18.28,14-29.42,17.77-17.51,5.92-35.69,5.1-53.72,4.6-7.14-.2-14.21-2.56-21.33-3.89-1.73-.32-3.51-.45-5.25-.65l.17.15c-2.74-1.42-5.43-3-8.26-4.25-10.12-4.52-19.24-9.93-24.77-20.19-5.8-10.75-4.08-27.37,5.19-35.44,5.61-4.88,12.13-8.74,18.23-13.07l.9,1.16L87.88,54.3l.19-.19c-3.37,3.9-7.32,7.45-10,11.77C74.09,72.42,71.73,79.53,77,86.75Zm124,20.07L174.85,120C185,117.69,194.51,114,201.08,106.82Zm-76.16,16.76v.55H153v-.55Z"/><path class="cls-1" d="M159.45,39.48c0,11.57-10.93,19.12-24.39,16.87-10.45-1.75-17-10.52-15.14-20.29,1.76-9.28,13.26-16.18,23.36-14S159.45,30.66,159.45,39.48Z"/><path class="cls-1" d="M201.84,65.23l.08-.35-6.06,5.47-.94-.8c2.85-3.26,5.74-6.49,8.54-9.79,2.61-3.09,5.12-6.26,7.67-9.39L235.47,24.6l-1.18-1.06c-4.4,4.74-8.89,9.39-13.17,14.23-3.55,4-6.84,8.25-10.25,12.38L193.38,68c-5.13-3.36-5.48-4.79-2.14-9.58C202,43,212.74,27.37,223.83,12.06c2-2.72,5.45-4.53,8.51-6.3,4.06-2.36,7.81-.3,10.1,2.66s2.9,7.15.07,10.53c-5.59,6.67-11.35,13.21-17.11,19.74C217.58,47.56,209.7,56.39,201.84,65.23Z"/><path d="M225.27,195.54c2.23-8.6,4.53-16.25,6.17-24A85.94,85.94,0,0,0,229.1,126c-.52-1.58,0-4.67,1.18-5.42,5.07-3.3,10.28-6.7,15.93-8.75,7-2.53,11.37.55,13.1,7.85,2,8.22-.7,15.85-3.23,23.48C249.65,162.5,239.14,179.47,225.27,195.54Zm8.63-17.39c1.05-1.25,2.42-2.34,3.1-3.76,5.63-11.83,11.62-23.52,16.43-35.67,2-5.14,2-11.27,2-16.94-.05-5.94-3.73-8.57-9.13-6.4-5.18,2.07-9.81,5.48-14.18,8C238,142.44,237.61,160.16,233.9,178.15Z"/><path d="M46.5,191.69c-6.14-10.16-13.1-19.93-18.17-30.58-4.59-9.67-7.51-20.19-10.37-30.54a38,38,0,0,1-.58-14.5c1-7.7,7.39-11.28,14.58-8,5.19,2.37,9.86,5.92,14.52,9.27a4.54,4.54,0,0,1,1,4.19c-8.74,21.53-7.08,43.11-.69,64.76.45,1.52.82,3.06,1.22,4.59Zm-2.11-71c-4-2.91-7.41-6.07-11.41-8.22-8-4.32-12-1.74-12.09,7.4-.15,15.28,5.17,29.12,11.68,42.61,1.94,4,4.27,7.87,6.42,11.8C37.1,156.09,37,138.46,44.39,120.73Z"/><path d="M83,223.88c7,3.1,12.76,6.27,18.94,8.33,26.69,8.91,53.23,8.79,78.72-3.76,14.23-7,26.54-16.68,30.44-33.08,1.3-5.47,1-11.33,2.33-17.12.11,4.29.78,8.64.23,12.84-2.08,15.81-11.55,27-24.73,35.1-20.1,12.39-42.06,15.73-65.49,12.67C109.56,237,96.75,233,84.93,225.66A20,20,0,0,1,83,223.88Z"/><path d="M188.44,203.15c-.58-4.72-.84-8-1.49-11.26a4,4,0,0,0-2.26-2.61c-4.7-1.31-10.11,3-10.19,7.85-.07,3.87-.28,7.73-.43,11.6l-1.63,0a24,24,0,0,1-.37-3c0-11.8.07-23.6-.08-35.4,0-2.88.56-4.75,3.7-5.18a9.62,9.62,0,0,0,1.9-.57c12.23-4.4,13.92.09,12.81,10.25-.94,8.53-.48,16.92-1,25.35A18.75,18.75,0,0,1,188.44,203.15ZM174.5,189.84c14.45-4.43,16.14-6.87,13.58-20.94-.29-1.58-3.09-4.09-4.25-3.86-3.34.66-8.62-.29-9.14,4.52C174,176.19,174.5,182.94,174.5,189.84Z"/><path d="M147.65,184c-.88-4.6-.21-10-6.25-11.62a27.64,27.64,0,0,0-10.27-.55c-3.42.44-5.29,2.87-5.24,6.64.12,8.8-.09,17.61.08,26.41.12,6.57,1.91,8.47,8.56,8.88,3.73.23,7.52-.36,11.46-.59V197.29H131.38V196h15.71v18.65c-4.24.36-8.48,1-12.72,1-7.08,0-9.94-2.36-10.2-9.2-.39-9.84-.32-19.72.05-29.56.08-2,1.87-4.67,3.67-5.82,5.25-3.36,11.16-2,16.09.42S148.37,179.27,147.65,184Z"/><path d="M168.08,211.08V193.52l-15,2.78v16.57l-1.25,0c0-12.52-.24-25,.12-37.55.14-4.66,11.22-8.88,15.11-6a4.79,4.79,0,0,1,1.89,3.19c.33,12.25.49,24.51.66,36.77C169.62,209.43,169.24,209.68,168.08,211.08ZM166.77,192c0-6.7.05-12.75-.06-18.79a3.05,3.05,0,0,0-1.42-2.29c-3.43-1.53-10.19,1.65-10.71,5.36-.81,5.77-1,11.62-1.51,18.21Z"/><path d="M84.2,186a28.57,28.57,0,0,0-.21,4.24c.24,2.58.26,5.31,1.17,7.68a8.54,8.54,0,0,0,9.44,5.61c1.43-.23,2.5-4.8,3.07-7.52,1.51-7.18-3.41-10.87-8.5-14.52-7.25-5.2-8.31-8.08-6.58-14.63.9-3.42,2.65-5.58,6.31-5.89a10.92,10.92,0,0,1,10,5.94c-2.87-1.35-5.34-2.48-7.77-3.68-2.91-1.44-4.73-.24-6.05,2.29a10.4,10.4,0,0,0,3.32,13c1.77,1.2,3.52,2.43,5.2,3.74a16.9,16.9,0,0,1,6,19.09c-1.23,3.9-3.64,5.16-7.61,3.83C83,202.16,80.74,197.18,84.2,186Z"/><path d="M104.16,165.55c0,2.46,0,4,0,5.46,0,10.65,0,21.31,0,32,0,5.48,7,10.07,11.94,7.48,1.49-.77,2.48-3.72,2.53-5.7.24-10,.09-20,.11-30,0-1.71.14-3.42.22-5.13l1.34-.14a14.47,14.47,0,0,1,.68,3.19c-.15,11.46-.32,22.92-.63,34.38a5.84,5.84,0,0,1-1.47,4c-3.53,3-7.7,1.6-11.19.17-2.17-.89-4.94-3.66-5-5.66-.41-12.75-.15-25.53-.08-38.29C102.62,167,103,166.76,104.16,165.55Z"/><path d="M145.86,267.71c-7,0-13.9,0-20.86,0a12.76,12.76,0,0,1-3-.8h23.83Z"/><path d="M62.46,197.91l9.31,15.48-1.15.66-9.16-15.56Z"/><path d="M61.51,176.38V195h-.67V176.41Z"/><path d="M164.12,108.36c-3.6.86-7.16,2.27-10.79,2.47-17.09,1-34.09.49-50.44-5.37a20.63,20.63,0,0,1-3.94-2.52c9.67,2,19.25,4.82,29,5.9,9,1,18.17.2,27.26.1C158.2,108.91,161.16,108.56,164.12,108.36Z"/><path d="M77,86.75c-5.3-7.22-2.94-14.33,1.07-20.86,2.66-4.32,6.6-7.88,10-11.77-2,2.53-4,5-6,7.61C76.46,69.28,74.53,77.58,77,86.75Z"/><path d="M193.2,96.55c-8.55,6.9-18.16,11.24-29.31,11.94,3.3-1.21,6.64-2.32,9.89-3.66C180.28,102.13,186.73,99.31,193.2,96.55Z"/><path d="M159.54,104.65l-28.67,1.25-.05-1.54H159.5Z"/><path d="M201.08,106.82c-6.57,7.16-16,10.86-26.23,13.23Z"/><path d="M124.91,123.58H153v.55H124.91Z"/><path d="M210.87,50.15c3.41-4.14,6.7-8.37,10.25-12.38,4.28-4.84,8.77-9.5,13.17-14.23l1.18,1.06L211.12,50.38Z"/><path class="cls-1" d="M233.9,178.15c3.71-18,4.13-35.7-1.82-54.77,4.37-2.53,9-5.94,14.18-8,5.41-2.16,9.08.46,9.13,6.4,0,5.67.07,11.8-2,16.94-4.81,12.15-10.8,23.84-16.43,35.67C236.32,175.8,235,176.9,233.9,178.15Z"/><path class="cls-1" d="M44.39,120.73C37,138.46,37.1,156.09,39,174.33c-2.15-3.93-4.47-7.78-6.42-11.8C26.06,149,20.74,135.19,20.89,119.91c.09-9.14,4-11.73,12.09-7.4C37,114.66,40.42,117.82,44.39,120.73Z"/><path class="cls-1" d="M174.5,189.84c0-6.9-.54-13.66.18-20.28.52-4.81,5.8-3.86,9.14-4.52,1.16-.23,4,2.29,4.25,3.86C190.64,183,188.94,185.41,174.5,189.84Z"/><path class="cls-1" d="M166.77,192l-13.7,2.48c.51-6.6.71-12.45,1.51-18.21.52-3.7,7.28-6.89,10.71-5.36a3.05,3.05,0,0,1,1.42,2.29C166.82,179.22,166.77,185.26,166.77,192Z"/></svg>