<svg id="Layer_1" data-name="Layer 1" xmlns="http://www.w3.org/2000/svg" viewBox="0 0 330 330"><defs><style>.cls-1{fill:#fefefe;}.cls-2{fill:#080808;}.cls-3{fill:#dedede;}.cls-4{fill:#0e0e0e;}.cls-5{fill:#565656;}.cls-6{fill:#a6a6a6;}.cls-7{fill:#070707;}.cls-8{fill:#090909;}.cls-9{fill:#0a0a0a;}.cls-10{fill:#050505;}.cls-11{fill:#aeaeae;}.cls-12{fill:#f4f4f4;}.cls-13{fill:#060606;}.cls-14{fill:#fafafa;}</style></defs><title>Artboard 1</title><path d="M262,267v3.5a12.48,12.48,0,0,0,0,5.5v5c-.59,4.85-1.19,9.67-3,14.3-3,7.62-8.06,12.44-16.19,14.43-12.72,3.11-25.56,5.53-38.49,7.46-16.22,2.42-32.48,4.63-48.74,6.77-5.19.69-10.41,1.09-15.65,1.28-.65,0-1.34-.2-1.93.25H124c-13.12-2.42-23.49-9.73-32.87-18.68-2.81-2.68-3.83-6.4-4.9-10-3.51-11.78-5.21-23.91-6.92-36-1.56-11-2.75-22.15-3.83-33.25-.83-8.53-1.55-17.07-2.24-25.61-.67-8.29-1.23-16.59-1.8-24.89-.47-6.72-.79-13.45-1.2-20.18-.59-9.64-.61-19.29-1-28.93a.92.92,0,0,0-.23-.44v-1a5.12,5.12,0,0,0,0-3.5v-4a3.82,3.82,0,0,0,0-3v-8.5a5.12,5.12,0,0,0,0-3.5v-3a1.82,1.82,0,0,0,0-2V97c.75-2.15.39-4.42.81-6.62,1.72-8.93,6.87-15.36,14.48-20,6.12-3.71,12.45-7,18.86-10.22,3-1.48,5.85-3.18,8.84-4.63,1.75-.85,2.28-2,2.39-3.89.48-8,.86-16.08,1.43-24.12.49-6.83,3.85-11,9.88-13.63a123.4,123.4,0,0,1,22.45-7.5c2.27-.5,4.62-.24,6.86-.92h12c2.33.59,4.79.25,7.11,1a22,22,0,0,1,12.58,10.8,75.56,75.56,0,0,1,6,15.34,63.46,63.46,0,0,0,2.76,8,7.81,7.81,0,0,0,6,4.73,36.39,36.39,0,0,0,7,.35,55,55,0,0,1,22.14,4.41c6.83,2.94,11.75,7.49,13.64,15.13a228.27,228.27,0,0,1,5.51,33q1.57,16.28,2.87,32.58,1.12,13.93,2.2,27.87,1.14,14.43,2.26,28.86c.63,7.88,1.16,15.76,1.72,23.65.6,8.3,1.2,16.59,1.78,24.89.44,6.39.95,12.78,1,19.19A50.49,50.49,0,0,0,262,263v2.5A1.14,1.14,0,0,0,262,267Z"/><path class="cls-1" d="M262,263c-1.06-1.6-.67-3.48-.8-5.2-.67-8.87-1.11-17.77-1.71-26.65-.54-8-1.19-16.09-1.78-24.13-.57-7.8-1.12-15.59-1.71-23.39-.75-9.78-1.54-19.56-2.31-29.33-.56-7-1.09-14.09-1.68-21.13-.75-8.94-1.6-17.88-2.33-26.82-.56-6.87-1.19-13.73-2.16-20.56a143.72,143.72,0,0,0-5.1-23.71c-1.34-4.17-4.38-6.94-8-9.13-7.36-4.44-15.53-5.95-24-6.44-3.07-.18-6.14.11-9.22-.37A7.8,7.8,0,0,1,195,41.45c-1.8-3.73-2.72-7.76-4-11.67a61.72,61.72,0,0,0-5.65-13.38C181.45,10,175.63,6.68,168.24,6c-.45,0-1,.21-1.24-.48q46.34,0,92.68-.06c2.15,0,2.36.59,2.36,2.5Q262,135.47,262,263Z"/><path class="cls-1" d="M155,5.5C151.68,7,148,7,144.54,7.95a139,139,0,0,0-19.29,6.94c-6,2.66-8.38,7.05-8.83,13.35q-.89,12.57-1.37,25.16c-.06,1.45-.86,1.75-1.81,2.25-8.49,4.45-17,8.8-25.43,13.42C81.67,72.45,76,76.46,72.87,83.16A35.54,35.54,0,0,0,70,93.58C69.81,94.75,70,96,69,97q0-44.69,0-89.37c0-1.79.35-2.18,2.17-2.18Q113.06,5.56,155,5.5Z"/><path class="cls-1" d="M69,127.5c1,2.74.83,5.62.95,8.44.61,14.37,1.38,28.73,2.44,43.08.75,10.11,1.27,20.24,2.15,30.34,1,11.16,2,22.32,3.3,33.45,1.2,10.37,2.49,20.73,4.16,31a195.83,195.83,0,0,0,5.22,23.93c1.64,5.59,5,9.75,9.51,13.28a81.36,81.36,0,0,0,23.18,13.13c1.36.48,2.94.23,4.09,1.31-17.67,0-35.33,0-53,0-1.71,0-2-.34-2-2Q69,225.5,69,127.5Z"/><path class="cls-1" d="M138,325.5c3.45-1.18,7.1-.94,10.65-1.45,8.53-1.22,17.1-2.22,25.64-3.37,8.87-1.19,17.74-2.39,26.59-3.69a384.53,384.53,0,0,0,44-8.59c7.37-2,11-7.36,13.63-13.92a57.42,57.42,0,0,0,3-12.51c.06-.39,0-.85.51-1,0,14.06-.06,28.13.07,42.19,0,2.15-.6,2.36-2.5,2.36Q198.78,325.45,138,325.5Z"/><path class="cls-2" d="M262,276a6.53,6.53,0,0,1,0-5.5Z"/><path class="cls-3" d="M69,123a2.78,2.78,0,0,1,0,3.5Z"/><path class="cls-4" d="M69,104a2.88,2.88,0,0,1,0,3.5Z"/><path class="cls-5" d="M69,116a2.23,2.23,0,0,1,0,3Z"/><path class="cls-6" d="M69,99c.84.67.64,1.33,0,2Z"/><path class="cls-6" d="M262,267c-.72-.5-.88-1,0-1.5Z"/><path class="cls-1" d="M230,69c-13.16.13-26.31.85-39.48.54-.33,0-.67,0-1,0-1.47-.14-3.32,0-4-1.39s.94-2.45,1.77-3.47a17.55,17.55,0,0,0,4.09-8.1,3,3,0,0,1,2.5-2.61,30.35,30.35,0,0,1,10.89-.82,94.23,94.23,0,0,1,20,3.39,14.72,14.72,0,0,1,10,8.5A63.21,63.21,0,0,1,240,85c1,10.09,2,20.18,2.83,30.28.67,8,1.15,15.93,1.66,23.9.59,9.3,1.11,18.61,1.65,27.91.63,11,1.29,21.93,1.85,32.91.65,12.63,1.3,25.27,1.79,37.91.49,12.4,1.45,24.78,1.19,37.2a55.61,55.61,0,0,1-1.19,10.12c-1.7,8.2-7.33,12.42-14.85,14.73-8.17,2.52-16.62,3.68-25,5-10.39,1.63-20.79,3.29-31.2,4.8-10.26,1.49-20.49,3.11-30.8,4.26-4.22.47-8.44.82-12.66,1.17a35.4,35.4,0,0,1-20.84-4.29,63.91,63.91,0,0,1-12-8.82c-6.45-6-9.74-13.32-10.9-22-1.57-11.6-3.05-23.2-4.34-34.83-1.21-11-2.11-22-3.12-33-1-10.76-2-21.52-2.85-32.29-.83-10.61-1.38-21.25-2.16-31.86-.9-12.21-1.42-24.43-1.71-36.66A77,77,0,0,1,79.1,90.94a27.42,27.42,0,0,1,13-17.44,123.62,123.62,0,0,1,19.25-9,13.61,13.61,0,0,1,11.52.68c6.19,3.1,12.32,6.33,19.09,8.05A41.52,41.52,0,0,0,152.47,75c.73,0,1.51-.08,2.07.78C153.36,77.2,151.59,77.5,150,78c-10.14,2.89-20.35,5.57-30.46,8.59-5.58,1.67-10.93,4-14.45,9.05-2.79,4-3.64,8.68-4,13.37-.83,10.06-.19,20.14.29,30.2.4,8.48.73,17,1.17,25.45q.86,16.58,1.85,33.15c.52,9,1,17.95,1.68,26.91.67,8.79,1.59,17.55,2.39,26.33a278.06,278.06,0,0,0,4,27.79c2.16,11.14,6.63,21.07,14.47,29.41a2.78,2.78,0,0,0,2.91.71c17.63-3,35.25-6,52.89-8.92,13.57-2.24,27.17-4.27,40.74-6.51a51.47,51.47,0,0,0,14-4,6.4,6.4,0,0,0,3.91-4.23c.13-.55.35-1.21-.18-1.63s-.93-.14-1.41.06c-9.34,3.88-19.36,4.85-29.15,6.73-12.36,2.37-24.79,4.38-37.21,6.36-9.66,1.54-19.36,2.82-29,4.22a143.75,143.75,0,0,1-14.6,1.58,4.35,4.35,0,0,1-4.19-2.08C122,295.18,120.52,289.07,119,283a317.7,317.7,0,0,1-6.09-35.7c-2.08-16.58-3.44-33.21-4.53-49.88-1.81-27.94-2.78-55.89-2.37-83.89a54,54,0,0,1,1.86-13.77,12.83,12.83,0,0,1,10.23-9.69q25-5.63,50.2-10.59c13.08-2.56,26.23-4.74,39.39-6.83,7.53-1.2,15.09-2.16,22.63-3.24.16-.11.42-.22.21-.46S230.18,68.83,230,69Z"/><path class="cls-1" d="M133.46,39.67c-.82,3.92-1.62,7.84-2.48,11.74A36.9,36.9,0,0,1,128.72,59c-.29.63-.47,1.61-1.41,1.5s-1-1.14-1.08-1.78a27.69,27.69,0,0,1-.67-5.17c-.09-7.58,0-15.17-.12-22.75,0-1.39.31-1.83,1.76-1.8,8,.15,16,0,24-.5,7.59-.49,15.22-1,22.25-4.47,2.63-1.31,4.14-.67,5.57,2.24,3,6.1,4.68,12.66,6.48,19.16a82.69,82.69,0,0,1,1.91,9c.19,1.2.84,3.12-.48,3.61s-2.08-1.35-2.7-2.44a42.45,42.45,0,0,1-4.66-12.21c-.47-2.18-.6-4.43-1-6.62A6.46,6.46,0,0,0,175,31.88c-1.44-.72-2-.28-2,1.23a20.69,20.69,0,0,0,1.35,7c2.22,6.81,4.53,13.6,6.73,20.42.48,1.48,1.58,3.42-.31,4.42a4.89,4.89,0,0,1-6-1c-2.64-2.66-3.37-6.17-4.22-9.62-1.27-5.13-.62-10.44-1.47-15.6a10.1,10.1,0,0,0-1.48-3.9,1.73,1.73,0,0,0-1.92-.85c-.79.17-1,.87-1.12,1.48-1.06,3.81-.3,7.62.21,11.38A120.65,120.65,0,0,0,168.31,63c.48,1.7,1.28,4.16-1,5.09s-3.63-1.25-4.53-2.94c-2.41-4.52-2.53-9.57-2.71-14.53-.14-4.16-.18-8.29-1.5-12.3-.48-1.44-1-3.34-2.61-3.19-1.88.18-1.83,2.34-1.9,3.83-.36,7.2,1.21,14.18,2.69,21.16a57.05,57.05,0,0,1,1.18,6.34c.17,1.81.73,4-1.68,4.93a5.52,5.52,0,0,1-6.64-2.62c-1.51-2.93-1.77-6.17-2.08-9.38-.68-7-.49-14.12-2.49-21-.38-1.3-.44-3.4-1.93-3.38s-1.17,2.15-1.31,3.32a71.42,71.42,0,0,0-.06,13.71,48.8,48.8,0,0,1-.22,12.44,13.35,13.35,0,0,1-.49,1.91c-.33,1-.85,1.86-2,2-1.31.15-2-.84-2.44-1.79A16,16,0,0,1,135,60.47c-.41-6.89-.74-13.79-1.1-20.69Z"/><path class="cls-1" d="M177.23,16.76c-12.92,6.94-26.32,8.31-40.14,7.15a14.08,14.08,0,0,1-5.26-1.3c-.75-.38-1.64-.72-1.64-1.61s.94-1.11,1.59-1.39a46.9,46.9,0,0,1,12-3A137.77,137.77,0,0,1,162.33,15C167.24,14.92,172,16.08,177.23,16.76Z"/><path class="cls-7" d="M251.64,278.85v-20.3h.25v20.37Z"/><path class="cls-2" d="M101.89,111.05v18.37h-.24V111.05Z"/><path class="cls-8" d="M167.45,14.36H155.66v-.18h11.79Z"/><path class="cls-8" d="M105.13,152.47V140.64h.2v11.83Z"/><path class="cls-8" d="M150,27.88H138.59v-.23H150Z"/><path class="cls-9" d="M218.28,70.15c-3.38,1.12-6.28.25-9.19,0Z"/><path class="cls-9" d="M76.11,114.45v-9.86h.24v9.86Z"/><path class="cls-8" d="M149,25.37h-8.32v-.19H149Z"/><path class="cls-10" d="M165.38,36v8.35h-.22V36Z"/><path class="cls-2" d="M128.1,316.11H136v.25h-7.81Z"/><path class="cls-8" d="M105.89,159.6V167h-.25v-7.31Z"/><path class="cls-2" d="M76.88,121.14V128h-.25v-6.86Z"/><path class="cls-2" d="M142.88,50.52v6.85h-.22V50.52Z"/><path class="cls-2" d="M251.14,253.47v-6.35h.2v6.35Z"/><path class="cls-2" d="M250.59,242.27V236.1h.25v6.38Z"/><path class="cls-2" d="M250.09,231.27V225.1h.25v6.38Z"/><path class="cls-2" d="M116.38,43.61V50h-.25V43.62Z"/><path class="cls-2" d="M249.62,220.47V214.6A12.64,12.64,0,0,1,249.62,220.47Z"/><path class="cls-8" d="M70.88,131v5.87h-.23V131Z"/><path class="cls-7" d="M102.38,136.11v5.38h-.25v-5.36Z"/><path class="cls-8" d="M106.13,178.47v-5.35h.2v5.35Z"/><path class="cls-2" d="M201.54,47.14h5.3v.18h-5.31Z"/><path class="cls-8" d="M248.09,189.77v-4.68A7.55,7.55,0,0,1,248.09,189.77Z"/><path class="cls-7" d="M103.13,162.39v-4.87h.25v4.86Z"/><path class="cls-8" d="M77.12,137.88V133h.25v4.87Z"/><path class="cls-8" d="M71.37,141.52v5h-.24v-5Z"/><path class="cls-7" d="M102.86,147v4.83h-.19V147Z"/><path class="cls-8" d="M247.1,171.4v-4.28h.23v4.26Z"/><path class="cls-8" d="M103.86,168v4.42h-.23V168Z"/><path class="cls-8" d="M132.61,48l.56-3.48C133.48,45.75,133.83,47,132.61,48Z"/><path class="cls-2" d="M246.64,163v-4.42h.23V163Z"/><path class="cls-8" d="M197.1,52.1h4.28v.23h-4.27Z"/><path class="cls-8" d="M104.4,177.62v4.28h-.25V177.6Z"/><path class="cls-8" d="M72.36,160.54V165h-.22v-4.41Z"/><path class="cls-8" d="M248.63,199V194.6A7.14,7.14,0,0,1,248.63,199Z"/><path class="cls-2" d="M247.86,176v4.41h-.22V176Z"/><path class="cls-8" d="M105.13,199.86v-4.35h.25v4.38Z"/><path class="cls-8" d="M249.37,204.54v4.36h-.21v-4.36Z"/><path class="cls-8" d="M71.87,151.72V156h-.23v-4.46Z"/><path class="cls-8" d="M106.87,184v4h-.25v-4Z"/><path class="cls-8" d="M104.63,191v-4h.23v4Z"/><path class="cls-2" d="M107.41,192.63v3.78h-.25v-3.8Z"/><path class="cls-8" d="M203,52.13h4v.25h-4Z"/><path class="cls-8" d="M72.63,173v-4h.23v4Z"/><path class="cls-8" d="M260.09,259.39V255.6h.25v3.79Z"/><path class="cls-2" d="M245.91,142.6v3.78h-.25v-3.78Z"/><path class="cls-2" d="M105.1,113.36v-3.8h.25v3.87Z"/><path class="cls-2" d="M116.59,38.9V35.11h.25v3.78Z"/><path class="cls-8" d="M105.63,208v-4h.23v4Z"/><path class="cls-2" d="M246.41,150.61v3.79h-.25v-3.79Z"/><path class="cls-2" d="M78.91,158.08v3.31l-.24,0v-3.28Z"/><path class="cls-8" d="M259.87,248v3.45h-.24V248Z"/><path class="cls-2" d="M79.13,168.49V165h.24v3.47Z"/><path class="cls-8" d="M77.87,142.51V146h-.24v-3.47Z"/><path class="cls-2" d="M255.13,188v-3.47h.24V188Z"/><path class="cls-8" d="M258.13,228.79V225.5h.23V229Z"/><path class="cls-2" d="M142.91,60.08v3.31l-.24,0V60.12Z"/><path class="cls-2" d="M252.13,149v-3.47h.24V149Z"/><path class="cls-2" d="M257.91,218.62v3.3h-.25v-3.34Z"/><path class="cls-8" d="M146.13,57V53.51h.24V57Z"/><path class="cls-2" d="M244.63,130.79V127.5h.23V131Z"/><path class="cls-2" d="M73.59,187.9V184.6h.25v3.31Z"/><path class="cls-8" d="M258.87,233v3.45h-.24V233Z"/><path class="cls-8" d="M78.13,154v-3.45h.24V154Z"/><path class="cls-8" d="M106.09,215.38v-3.3h.25v3.34Z"/><path class="cls-8" d="M73.09,180.42v-3.31l.24,0v3.28Z"/><path class="cls-8" d="M259.41,240.59v3.3h-.25v-3.28Z"/><path class="cls-8" d="M245.09,138.38v-3.29h.25v3.32Z"/><path class="cls-8" d="M107.91,200.62v3.29h-.25V200.6Z"/><path class="cls-2" d="M250.63,131v-3.46A4.32,4.32,0,0,1,250.63,131Z"/><path class="cls-2" d="M252.9,152.54v2.82l-.22,0v-2.76Z"/><path class="cls-2" d="M253.76,165.1a4.75,4.75,0,0,1,0,3A4.79,4.79,0,0,1,253.76,165.1Z"/><path class="cls-2" d="M254.11,174.46v-2.82l.21,0v2.73Z"/><path class="cls-2" d="M79.68,174.91a5.17,5.17,0,0,1,.11-3.07A4.28,4.28,0,0,1,79.68,174.91Z"/><path class="cls-2" d="M254.61,181v-2.82l.21,0v2.73Z"/><path class="cls-2" d="M80.41,178.57v2.81l-.25,0v-2.8Z"/><path class="cls-7" d="M159.21,51a8.22,8.22,0,0,1,.09,4A8.25,8.25,0,0,1,159.21,51Z"/><path class="cls-2" d="M81.41,191.12v2.81h-.25v-2.85Z"/><path class="cls-2" d="M74.4,191.54v2.82l-.22,0v-2.76Z"/><path class="cls-2" d="M255.71,191a8.24,8.24,0,0,1,.09,4A8.27,8.27,0,0,1,255.71,191Z"/><path class="cls-2" d="M81.68,196.53a4.91,4.91,0,0,1,0,3.36Z"/><path class="cls-9" d="M180.5,66.21a8.25,8.25,0,0,1-4,.09A8.28,8.28,0,0,1,180.5,66.21Z"/><path class="cls-2" d="M256.1,201v-2.82l.22,0v2.75Z"/><path class="cls-2" d="M244.21,124a8.19,8.19,0,0,1,.09-4A8.27,8.27,0,0,1,244.21,124Z"/><path class="cls-2" d="M74.91,198.62v2.81h-.25v-2.85Z"/><path class="cls-2" d="M75.36,204.53v2.94h-.23v-2.94Z"/><path class="cls-8" d="M256.75,207.91a5.28,5.28,0,0,1,0-3.17A5.22,5.22,0,0,1,256.75,207.91Z"/><path class="cls-8" d="M108.29,211a8.23,8.23,0,0,1-.09-4A8.26,8.26,0,0,1,108.29,211Z"/><path class="cls-8" d="M257.25,214.91a5.28,5.28,0,0,1,0-3.17A5.22,5.22,0,0,1,257.25,214.91Z"/><path class="cls-8" d="M106.61,222.36v-2.83A3,3,0,0,1,106.61,222.36Z"/><path class="cls-8" d="M107.41,226.57v3.09C106.67,228.49,107.21,227.53,107.41,226.57Z"/><path class="cls-8" d="M243.6,116.86v-3.16A3.74,3.74,0,0,1,243.6,116.86Z"/><path class="cls-2" d="M152.42,14.66a2.39,2.39,0,0,1-2.35,0Z"/><path class="cls-2" d="M83.82,222.35a3.34,3.34,0,0,1,0-2.76Z"/><path class="cls-2" d="M153.43,27.33a3.72,3.72,0,0,1,3,0Z"/><path class="cls-2" d="M80.72,184.85a3.75,3.75,0,0,1,0,2.8A3.78,3.78,0,0,1,80.72,184.85Z"/><path class="cls-2" d="M82.18,202.65a3.34,3.34,0,0,1,0,2.76Z"/><path class="cls-7" d="M168.91,47.08v2.34h-.25V47.09Z"/><path class="cls-8" d="M243.06,111c0-1.48-.26-2.27.22-3.12A4,4,0,0,1,243.06,111Z"/><path class="cls-2" d="M215.42,47.91h-2.34v-.25h2.34Z"/><path class="cls-2" d="M249.9,116.12v3C249.39,117.67,249.46,116.87,249.9,116.12Z"/><path class="cls-2" d="M76.56,225c0-1.48-.27-2.27.22-3.12A4,4,0,0,1,76.56,225Z"/><path class="cls-8" d="M249.22,110.35a3.75,3.75,0,0,1,0,2.8A3.78,3.78,0,0,1,249.22,110.35Z"/><path class="cls-2" d="M82.82,210.91a3.22,3.22,0,0,1-.14-2.47C83.31,209.32,82.81,210.14,82.82,210.91Z"/><path class="cls-8" d="M107.86,235.41a3.12,3.12,0,0,1-.24-2.41C108.39,233.8,107.73,234.63,107.86,235.41Z"/><path class="cls-8" d="M251.68,140.09a3.22,3.22,0,0,1,.14,2.47C251.19,141.68,251.69,140.86,251.68,140.09Z"/><path class="cls-8" d="M75.84,213.42a3.13,3.13,0,0,1-.2-2.41C76.37,211.82,75.76,212.64,75.84,213.42Z"/><path class="cls-2" d="M251.38,136.91a5.8,5.8,0,0,1-.25-3.32A5.81,5.81,0,0,1,251.38,136.91Z"/><path class="cls-2" d="M83.11,216.38v-2.6A2.63,2.63,0,0,1,83.11,216.38Z"/><path class="cls-8" d="M108.56,217.51c0-1.48-.26-2.27.22-3.12A4,4,0,0,1,108.56,217.51Z"/><path class="cls-2" d="M248.09,101.95V99.44C248.87,100.32,248.26,101.14,248.09,101.95Z"/><path class="cls-2" d="M76,216.05c.73,1.27.38,2.11.47,3.41C75.75,218.17,76.1,217.34,76,216.05Z"/><path class="cls-8" d="M253.17,158.43a3.73,3.73,0,0,1,0,3Z"/><path class="cls-2" d="M139.59,315.82a3.22,3.22,0,0,1,2.47-.14C141.18,316.31,140.36,315.81,139.59,315.82Z"/><path class="cls-2" d="M108.27,238.84a3.78,3.78,0,0,1,0,2.81A3.78,3.78,0,0,1,108.27,238.84Z"/><path class="cls-2" d="M248.73,107.65a3.77,3.77,0,0,1,0-2.81A3.77,3.77,0,0,1,248.73,107.65Z"/><path class="cls-8" d="M250.27,125.07a5.61,5.61,0,0,1,0-3.29A5.61,5.61,0,0,1,250.27,125.07Z"/><path class="cls-8" d="M155.38,24.52c-1,.7-1.71.38-2.74.46C153.66,24.28,154.33,24.6,155.38,24.52Z"/><path class="cls-2" d="M117.22,31.6a2.37,2.37,0,0,1,.05-2.2A2.37,2.37,0,0,1,117.22,31.6Z"/><path class="cls-2" d="M108.85,246.92a3.22,3.22,0,0,1-.2-2.41C109.3,245.13,108.93,245.79,108.85,246.92Z"/><path class="cls-8" d="M145.69,47.2a3.71,3.71,0,0,1,.12,2.6A3.68,3.68,0,0,1,145.69,47.2Z"/><path class="cls-2" d="M79.16,245.37a3.82,3.82,0,0,1,0,3Z"/><path class="cls-8" d="M124.75,53.66a3.3,3.3,0,0,1,0,2.46A3,3,0,0,1,124.75,53.66Z"/><path class="cls-8" d="M133.87,58.94a3.25,3.25,0,0,1-.22-2.44C134.28,57.14,133.92,57.79,133.87,58.94Z"/><path class="cls-8" d="M109.16,249.58a2,2,0,0,1,.2,1.88C108.61,250.88,109.25,250.19,109.16,249.58Z"/><path class="cls-11" d="M230,69a1.49,1.49,0,0,1,1.79-.28,1.05,1.05,0,0,1-1.41.72Z"/><path class="cls-2" d="M143.94,323.63a3.25,3.25,0,0,1-2.44.22C142.14,323.22,142.79,323.58,143.94,323.63Z"/><path class="cls-2" d="M109.75,253.66a3.3,3.3,0,0,1,0,2.46A3,3,0,0,1,109.75,253.66Z"/><path class="cls-7" d="M247.15,89.58a3.2,3.2,0,0,1,.2,2.4C246.7,91.37,247.07,90.71,247.15,89.58Z"/><path class="cls-2" d="M134.88,303.4h-2.11A1.64,1.64,0,0,1,134.88,303.4Z"/><path class="cls-2" d="M247.85,96.43a2,2,0,0,1-.23-1.86C248.43,95.12,247.7,95.81,247.85,96.43Z"/><path class="cls-8" d="M242.09,98.43v-2.3A1.94,1.94,0,0,1,242.09,98.43Z"/><path class="cls-8" d="M76.65,98.08a3.22,3.22,0,0,1,.2,2.41C76.2,99.87,76.57,99.21,76.65,98.08Z"/><path class="cls-2" d="M144.58,315.35a3.22,3.22,0,0,1,2.41-.2C146.37,315.8,145.71,315.43,144.58,315.35Z"/><path class="cls-8" d="M242.9,102.12v2.11A1.64,1.64,0,0,1,242.9,102.12Z"/><path class="cls-2" d="M146.4,323.22a2.37,2.37,0,0,1,2.2.05A2.37,2.37,0,0,1,146.4,323.22Z"/><path class="cls-8" d="M109.28,222.6a2.38,2.38,0,0,1-.05-2.2A2.37,2.37,0,0,1,109.28,222.6Z"/><path class="cls-8" d="M84.23,227.39a3.46,3.46,0,0,1,0-2.45C84.68,225.64,84.54,226.31,84.23,227.39Z"/><path class="cls-8" d="M109.65,225.58a3.22,3.22,0,0,1,.2,2.41C109.2,227.37,109.57,226.71,109.65,225.58Z"/><path class="cls-2" d="M77.22,227.4a2.38,2.38,0,0,1,.06,2.2A2.37,2.37,0,0,1,77.22,227.4Z"/><path class="cls-8" d="M84.73,232.39a3.45,3.45,0,0,1,0-2.45C85.18,230.65,85,231.31,84.73,232.39Z"/><path class="cls-2" d="M110.28,230.9a2.37,2.37,0,0,1-.05,2.2A2.37,2.37,0,0,1,110.28,230.9Z"/><path class="cls-2" d="M77.63,232.06a3.25,3.25,0,0,1,.22,2.44C77.22,233.86,77.58,233.21,77.63,232.06Z"/><path class="cls-8" d="M85.22,237.1a2.38,2.38,0,0,1,.05-2.2A2.37,2.37,0,0,1,85.22,237.1Z"/><path class="cls-8" d="M110.72,238.1a2.38,2.38,0,0,1,.05-2.2A2.37,2.37,0,0,1,110.72,238.1Z"/><path class="cls-2" d="M78.25,236.66a3.31,3.31,0,0,1,0,2.46A3,3,0,0,1,78.25,236.66Z"/><path class="cls-8" d="M85.72,242.1a2.37,2.37,0,0,1,.05-2.2A2.37,2.37,0,0,1,85.72,242.1Z"/><path class="cls-2" d="M145.7,15.43c.75-.61,1.26-.35,2-.4C147,15.77,146.47,15.38,145.7,15.43Z"/><path class="cls-2" d="M159.09,26.51a5.15,5.15,0,0,1,1.27.13c.08.62-.47.28-.74.33a1.71,1.71,0,0,1-.64-.14Z"/><path class="cls-7" d="M177.76,38.71a1.68,1.68,0,0,1,0-1.79C178.12,37.44,178.06,37.94,177.76,38.71Z"/><path class="cls-8" d="M155.27,45.42a1.63,1.63,0,0,1,0,1.7A1.41,1.41,0,0,1,155.27,45.42Z"/><path class="cls-2" d="M210.42,52.74a1.63,1.63,0,0,1,1.71,0A1.45,1.45,0,0,1,210.42,52.74Z"/><path class="cls-2" d="M188.32,55.26a1.71,1.71,0,0,1-.11-1.81C188.68,53.92,188.49,54.43,188.32,55.26Z"/><path class="cls-8" d="M146.86,62.18c-.56-.62-.27-1.14-.38-2.1A2.22,2.22,0,0,1,146.86,62.18Z"/><path class="cls-2" d="M147.92,73.74a1.62,1.62,0,0,1,1.71,0A1.45,1.45,0,0,1,147.92,73.74Z"/><path class="cls-8" d="M241.14,86.82c.57.61.26,1.13.39,2.1A2.23,2.23,0,0,1,241.14,86.82Z"/><path class="cls-8" d="M241.93,93.29c-.61-.74-.34-1.26-.4-2C242.27,92,241.88,92.53,241.93,93.29Z"/><path class="cls-2" d="M112.93,254.29c-.62-.74-.34-1.25-.4-2C113.27,253,112.88,253.53,112.93,254.29Z"/><path class="cls-2" d="M78.8,241.74c.2.84.38,1.34-.09,1.81A1.73,1.73,0,0,1,78.8,241.74Z"/><path class="cls-2" d="M86.26,244.92a1.63,1.63,0,0,1,0,1.71A1.45,1.45,0,0,1,86.26,244.92Z"/><path class="cls-8" d="M111.77,244.92a1.63,1.63,0,0,1,0,1.7A1.41,1.41,0,0,1,111.77,244.92Z"/><path class="cls-7" d="M189,70.15a1.16,1.16,0,0,1-1.49.15C187.91,69.72,188.45,70.19,189,70.15Z"/><path class="cls-8" d="M87,249.59a5.16,5.16,0,0,1-.13,1.27c-.62.08-.28-.47-.33-.74a1.71,1.71,0,0,1,.14-.64Z"/><path class="cls-8" d="M79.64,250.32c.56.62.26,1.14.38,2.1A2.23,2.23,0,0,1,79.64,250.32Z"/><path class="cls-2" d="M87.26,253.92a1.63,1.63,0,0,1,0,1.71A1.45,1.45,0,0,1,87.26,253.92Z"/><path class="cls-2" d="M111.2,242.26c-.2-.84-.38-1.34.09-1.81A1.73,1.73,0,0,1,111.2,242.26Z"/><path class="cls-2" d="M80.26,256.21a1.68,1.68,0,0,1,0-1.79C80.62,254.94,80.56,255.44,80.26,256.21Z"/><path class="cls-2" d="M102.2,108.26c-.2-.84-.38-1.34.09-1.81A1.73,1.73,0,0,1,102.2,108.26Z"/><path class="cls-2" d="M80.68,258.24A1.71,1.71,0,0,1,80.8,260C80.32,259.58,80.5,259.07,80.68,258.24Z"/><path class="cls-2" d="M110.24,260.08a1.62,1.62,0,0,1,0-1.71A1.45,1.45,0,0,1,110.24,260.08Z"/><path class="cls-8" d="M88.71,266.54c.29.54.47,1,0,1.49C88.31,267.51,88.6,267,88.71,266.54Z"/><path class="cls-8" d="M105.74,106.58a1.63,1.63,0,0,1,0-1.71A1.45,1.45,0,0,1,105.74,106.58Z"/><path class="cls-8" d="M260.21,283c.29.54.47,1,0,1.49C259.81,284,260.1,283.5,260.21,283Z"/><path class="cls-2" d="M198.92,296.24a1.62,1.62,0,0,1,1.71,0A1.45,1.45,0,0,1,198.92,296.24Z"/><path class="cls-2" d="M142,302.32a1.2,1.2,0,0,1,1.52-.08C143.07,302.71,142.54,302.39,142,302.32Z"/><path class="cls-8" d="M137.92,302.74a1.63,1.63,0,0,1,1.71,0A1.45,1.45,0,0,1,137.92,302.74Z"/><path class="cls-2" d="M181,310.31a1.43,1.43,0,0,1,1.57-.1C182,310.69,181.5,310.4,181,310.31Z"/><path class="cls-2" d="M172.41,312c-.44,0-1.26,0-1.27-.13-.08-.62.47-.28.74-.33a1.71,1.71,0,0,1,.64.14Z"/><path class="cls-2" d="M169.18,312.26a2,2,0,0,1-1.84,0A1.72,1.72,0,0,1,169.18,312.26Z"/><path class="cls-2" d="M156.83,313.83c.67-.52,1.17-.25,1.88-.3C158.08,314.18,157.57,314,156.83,313.83Z"/><path class="cls-2" d="M155.17,314.17c-.67.52-1.17.25-1.89.3C153.92,313.82,154.42,314,155.17,314.17Z"/><path class="cls-8" d="M149.42,314.74a1.63,1.63,0,0,1,1.71,0A1.45,1.45,0,0,1,149.42,314.74Z"/><path class="cls-7" d="M205.59,315c.44,0,1.26,0,1.27.13.08.62-.47.28-.74.33a1.7,1.7,0,0,1-.64-.14Z"/><path class="cls-2" d="M188.09,317.51a5.15,5.15,0,0,1,1.27.13c.08.62-.47.28-.74.33a1.7,1.7,0,0,1-.64-.14Z"/><path class="cls-7" d="M186,318.18a1.2,1.2,0,0,1-1.52.08C184.93,317.79,185.45,318.11,186,318.18Z"/><path class="cls-2" d="M181,318.79c.54-.29,1-.47,1.49,0C182,319.19,181.5,318.9,181,318.79Z"/><path class="cls-2" d="M171.58,320.26a1.63,1.63,0,0,1-1.71,0A1.45,1.45,0,0,1,171.58,320.26Z"/><path class="cls-2" d="M168,320.68a1.2,1.2,0,0,1-1.52.08C166.93,320.29,167.45,320.61,168,320.68Z"/><path class="cls-2" d="M158.79,321.76a1.68,1.68,0,0,1,1.79,0C160.06,322.12,159.56,322.06,158.79,321.76Z"/><path class="cls-8" d="M156.68,322.14c-.62.56-1.14.26-2.1.38A2.23,2.23,0,0,1,156.68,322.14Z"/><path class="cls-8" d="M152.71,322.74a1.68,1.68,0,0,1-1.79,0C151.44,322.38,151.94,322.44,152.71,322.74Z"/><path d="M172.69,149.42c0-.92,0-1.83,0-2.75.27-6.46,1.46-8.15,7.79-9.05,10.91-1.56,21.74-3.58,32.62-5.29,3.23-.51,5.79.53,7.33,3.43a61.36,61.36,0,0,1,3.5,7.65c.92,2.51.09,3.49-2.6,3.6a49.4,49.4,0,0,0-7.22.44c-1.34.25-2.85.36-3.31,1.75s.89,2.33,1.8,3.24a25.32,25.32,0,0,0,5.67,4c9.54,5.33,12.72,13.89,12.39,24.23-.21,6.5-2.43,12.36-5.57,18-3.78,6.82-9.51,10.4-17.09,11.22a51.83,51.83,0,0,1-23.06-2.32c-5.19-1.83-8.86-5.72-13-8.94-.78-.6-.54-1,0-1.55,3.38-3.33,6.47-7,10.15-10,.66-.54,1.35-1.39,2.35-.93.83.39.55,1.31.58,2,.09,2.67,1.69,4.25,3.92,5.28a24,24,0,0,0,12.4,1.89,6.63,6.63,0,0,0,4.74-2.94,41,41,0,0,0,5.64-11,5.18,5.18,0,0,0-.26-3.87c-2.79-6.37-11.69-11.71-18.62-11.12a19,19,0,0,0-8.25,3.2c-1.27.78-2.47,1.67-3.73,2.47-3.67,2.32-4.64,1.95-5.84-2.29-.4-1.43-.75-2.88-1-4.34A115.93,115.93,0,0,1,172.69,149.42Z"/><path d="M224.86,229.29c0,4.91-1.11,6.27-5.65,7.22-8.79,1.84-17.7,2.65-26.62,3.52-14.7,1.44-29.46,2.31-44,5a8.83,8.83,0,0,0-2.85.8c-2.29,1.34-3.51.25-4.47-1.7a27.06,27.06,0,0,1-2.21-9.35c-.15-1.43.67-2,2-2.33,10.05-2.69,20.24-4.8,30.42-6.92,13-2.72,26.08-5.26,39.13-7.85,2.27-.45,4.58-.77,6.87-1.1,1.79-.26,3,.73,4,2C223.93,221.85,224.53,225.68,224.86,229.29Z"/><path d="M163.86,205c.31,1.83.19,2.64-1.24,3.09-5.37,1.66-11,1.51-16.47,2.33-1.42.21-1-1.09-1-1.78-.29-5.65-.36-11.31-.55-17-.42-12.14-.83-24.28-1.43-36.41-.21-4.28,1.13-6,5.36-7a33.27,33.27,0,0,1,5.17-.74,4.32,4.32,0,0,1,4.79,3.44c1.32,4.4,1.54,9,2,13.5.91,9.67,1.65,19.36,2.46,29C163.26,197.6,163.59,201.65,163.86,205Z"/><path d="M145.9,126.52c-3.39-1.55-6.5-.61-9.35-1.48-.79-.24-1.63-.3-2.39-.6-2.56-1-2.94-2.73-1.11-4.81,2.32-2.63,5.38-4.14,8.51-5.44a59.55,59.55,0,0,1,31.89-4.12c1.87.27,4.34.42,4.92,2.69.54,2.1-1.28,3.48-2.76,4.66-4,3.21-8.14,6.31-10.17,11.33-.56,1.38-1.3.57-1.72-.2-1.2-2.2-1.53-4.68-2.22-7.05-.5-1.74-.9-3.53-1.57-5.2-1.19-3-2.63-3.7-5.84-3.3a20.5,20.5,0,0,0-6.31,2.1c-2.16,1-2.48,2.42-1,4.43a15.16,15.16,0,0,1,3,6.43c1.07,6.35-5.56,9.32-9.46,8.45a2.74,2.74,0,0,1-2.22-2.12,2.91,2.91,0,0,1,1.27-2.79C141,128,143.26,127.5,145.9,126.52Z"/><path d="M214.26,104.62A33.82,33.82,0,0,1,199.71,109a19.72,19.72,0,0,0-6.08,1.13c-2.64,1.1-3,3.44-.65,5.17,2.09,1.57,4.58,1.75,7.12,1.54,4.25-.36,8.06-2.43,12.24-3,1.24-.18,2.95-.79,3.42.41.54,1.39-1.34,1.83-2.34,2.35A45.11,45.11,0,0,1,195.31,122c-2.36.16-3.11,1.28-2.22,3.36.38.89.82,1.8-.14,2.44a2.14,2.14,0,0,1-2.92-.46c-2.45-2.57-3.44-5.82-4-9.17-1.17-7,.69-9.77,7.78-11.56a115.92,115.92,0,0,1,18-2.58A3,3,0,0,1,214.26,104.62Z"/><path class="cls-1" d="M178.39,165.85c.82-6.46.83-12.78,2.31-18.93.69-2.87,2.91-4.38,5.7-4.91,6.41-1.23,12.85-2.32,19.27-3.53a34.4,34.4,0,0,0,7.13-2c1.16-.49,2.41-1.24,3.28.23a3.2,3.2,0,0,1-.57,4.28,12.62,12.62,0,0,1-5.07,2.5c-5.25,1.6-10.73,2-16.1,2.95-8.87,1.58-9.86,3.35-6.09,11.45.59,1.27,1.55,1.15,2.49,1.06,4.46-.45,8.9-1,13.36-1.47,9.4-.93,15.86,2.67,19.47,11.47,4.23,10.31,3.22,20.22-3.44,29.36a12.86,12.86,0,0,1-9.34,5.07,91.76,91.76,0,0,1-26.1-.42c-3.61-.61-5.46-2.42-5.75-4.94-.21-1.79.58-2.24,2.13-2a15.37,15.37,0,0,1,4.37,1.67c12.41,6,26.46-.14,30.32-13.41a10.28,10.28,0,0,0-2.31-9.75c-3.83-4.61-7.7-9.24-13.92-10.73-3.63-.87-7.28-.16-10.89.35C185.32,164.61,182,165.24,178.39,165.85Z"/><path class="cls-12" d="M203,152.25c-3.68,1.2-6.84.87-10.3.3C195.09,150.28,199.26,150.13,203,152.25Z"/><path class="cls-2" d="M190,204.63h17.84v.2H190Z"/><path class="cls-2" d="M173.62,155.9V144h.25v11.84Z"/><path class="cls-2" d="M196.59,209.11H206v.25h-9.31Z"/><path class="cls-8" d="M229.62,182V176.1A12.66,12.66,0,0,1,229.62,182Z"/><path class="cls-8" d="M221,146.38H215.1A12.65,12.65,0,0,1,221,146.38Z"/><path class="cls-8" d="M210,156.38h-4.87v-.22H210Z"/><path class="cls-8" d="M212,133.13h4v.25h-4Z"/><path class="cls-8" d="M195.5,157.71a8.22,8.22,0,0,1-4,.09A8.26,8.26,0,0,1,195.5,157.71Z"/><path class="cls-2" d="M226.74,176.59a5.32,5.32,0,0,1,0,3.18A5.22,5.22,0,0,1,226.74,176.59Z"/><path class="cls-2" d="M212.9,178.54v2.82l-.22,0v-2.75Z"/><path class="cls-7" d="M226.91,182.05v2.34l-.24,0v-2.3Z"/><path class="cls-7" d="M178.89,151.62v3.06C178.41,153.16,178.44,152.35,178.89,151.62Z"/><path class="cls-8" d="M199.51,149.94c-1.48,0-2.27.26-3.12-.22A4,4,0,0,1,199.51,149.94Z"/><path class="cls-8" d="M215.25,182.84a3.3,3.3,0,0,1,0-2.46A3,3,0,0,1,215.25,182.84Z"/><path class="cls-8" d="M178.35,159.42a3.22,3.22,0,0,1-.2-2.41C178.8,157.63,178.43,158.29,178.35,159.42Z"/><path class="cls-2" d="M194.9,164.28a2.38,2.38,0,0,1,2.2-.06A2.37,2.37,0,0,1,194.9,164.28Z"/><path class="cls-8" d="M177.66,162.08a2,2,0,0,1,.2,1.88C177.11,163.38,177.75,162.69,177.66,162.08Z"/><path class="cls-2" d="M184.32,189.76a1.71,1.71,0,0,1-.11-1.81C184.68,188.42,184.5,188.93,184.32,189.76Z"/><path class="cls-2" d="M174.26,159.42a1.62,1.62,0,0,1,0,1.71A1.45,1.45,0,0,1,174.26,159.42Z"/><path class="cls-2" d="M190.42,164.73a1.63,1.63,0,0,1,1.7,0A1.41,1.41,0,0,1,190.42,164.73Z"/><path class="cls-2" d="M196.46,196.18a1.2,1.2,0,0,1-1.52.08C195.43,195.79,196,196.11,196.46,196.18Z"/><path class="cls-2" d="M200.92,156.73a1.63,1.63,0,0,1,1.7,0A1.41,1.41,0,0,1,200.92,156.73Z"/><path class="cls-9" d="M223.5,144.54c-.05.37,0,1-.19,1.06-.76.42-.42-.21-.37-.5a4.05,4.05,0,0,1,.22-.63Z"/><path class="cls-2" d="M197.32,157.36c.61-.57,1.13-.26,2.1-.39A2.22,2.22,0,0,1,197.32,157.36Z"/><path class="cls-1" d="M147.79,241.14c-1.21,0-2.56,0-3.11-1.39a4.91,4.91,0,0,1,.49-5.18,5.86,5.86,0,0,1,4.32-2.15c14.39-1.22,28.44-4.36,42.51-7.43,6-1.3,11.88-2.8,17.83-4.18,5.4-1.25,9.37,2.35,8.77,7.87-.23,2.15-1.8,3.09-3.51,3.78A42.73,42.73,0,0,1,203.25,235c-14.62,1.54-29.33,2.2-43.91,4.1C155.49,239.56,151.69,240.42,147.79,241.14Z"/><path class="cls-9" d="M153.76,231.44h-4.61C150.82,230.69,152.08,230.2,153.76,231.44Z"/><path class="cls-8" d="M223.9,227.06v4.78h-.22v-4.7Z"/><path class="cls-2" d="M189.88,237.41h-2.81v-.25h2.85Z"/><path class="cls-2" d="M184.05,237.68a5.1,5.1,0,0,1-3.45,0Z"/><path class="cls-8" d="M196.41,236.62a5.8,5.8,0,0,1-3.32.25A5.81,5.81,0,0,1,196.41,236.62Z"/><path class="cls-2" d="M186.41,239.66a2.38,2.38,0,0,1-2.35,0Z"/><path class="cls-2" d="M173.4,240.72a2.37,2.37,0,0,1,2.2.05A2.37,2.37,0,0,1,173.4,240.72Z"/><path class="cls-2" d="M168.08,241.35a3.22,3.22,0,0,1,2.41-.2C169.87,241.8,169.21,241.43,168.08,241.35Z"/><path class="cls-2" d="M163.61,241.73a3.45,3.45,0,0,1,2.45,0C165.35,242.18,164.69,242,163.61,241.73Z"/><path class="cls-2" d="M164.9,239.28a2.38,2.38,0,0,1,2.2-.06A2.37,2.37,0,0,1,164.9,239.28Z"/><path class="cls-7" d="M140.25,235.16a3.31,3.31,0,0,1,0,2.46A3,3,0,0,1,140.25,235.16Z"/><path class="cls-2" d="M201.1,236.22a2.38,2.38,0,0,1-2.2.06A2.37,2.37,0,0,1,201.1,236.22Z"/><path class="cls-2" d="M177.42,238.15a3.22,3.22,0,0,1-2.41.2C175.63,237.7,176.29,238.07,177.42,238.15Z"/><path class="cls-2" d="M169.4,238.72a2.37,2.37,0,0,1,2.2.05A2.37,2.37,0,0,1,169.4,238.72Z"/><path class="cls-2" d="M195.57,238.74c.73-.2,1.38-.43,2,0A2.17,2.17,0,0,1,195.57,238.74Z"/><path class="cls-8" d="M189.58,239.35a3.22,3.22,0,0,1,2.41-.2C191.37,239.8,190.71,239.43,189.58,239.35Z"/><path class="cls-2" d="M181.3,240.19a3.71,3.71,0,0,1-2.6.12A3.69,3.69,0,0,1,181.3,240.19Z"/><path class="cls-2" d="M159.7,242.43c.75-.61,1.26-.35,2-.4C161,242.77,160.47,242.38,159.7,242.43Z"/><path class="cls-2" d="M157.46,230.68a1.2,1.2,0,0,1-1.52.08C156.43,230.29,157,230.61,157.46,230.68Z"/><path class="cls-2" d="M206.76,237.8c-.84.2-1.34.38-1.81-.09A1.73,1.73,0,0,1,206.76,237.8Z"/><path class="cls-2" d="M162.46,239.68a1.2,1.2,0,0,1-1.52.08C161.43,239.29,162,239.61,162.46,239.68Z"/><path class="cls-2" d="M200.54,238.35a1.17,1.17,0,0,1,1.49-.15C201.59,238.78,201.06,238.31,200.54,238.35Z"/><path class="cls-8" d="M215.42,217.74a1.63,1.63,0,0,1,1.71,0A1.45,1.45,0,0,1,215.42,217.74Z"/><path class="cls-1" d="M158.64,192a50.67,50.67,0,0,1-.69,8.46c-.27,1.43-.52,3.2-2.33,3.43-1.63.21-2.42-1.25-3.09-2.48-2.33-4.27-3.19-9-3.9-13.72a110.71,110.71,0,0,1-1.49-21.33,43.29,43.29,0,0,1,1.39-10.81c.54-1.76,1.26-3.39,3.05-4.32,2.16-1.13,3.18-.82,3.78,1.58a35.79,35.79,0,0,1,1,6.11C157.2,170,157.91,181,158.64,192Z"/><path class="cls-2" d="M159.11,198.45V185.08h.24v13.37Z"/><path class="cls-8" d="M146.11,175V163.59h.24V175Z"/><path class="cls-8" d="M145.86,192v8.35h-.2V192Z"/><path class="cls-8" d="M145.41,178.23v7.17h-.25V178Z"/><path class="cls-8" d="M144.86,165.15V172h-.25v-6.87Z"/><path class="cls-8" d="M144.11,159.93v-6.87h.25v6.77Z"/><path class="cls-2" d="M149.59,209.31c-3.58.26-3.58.26-3.4-2.25C146.78,208.87,146.78,208.87,149.59,209.31Z"/><path class="cls-8" d="M158.29,173a8.24,8.24,0,0,1-.09-4A8.27,8.27,0,0,1,158.29,173Z"/><path class="cls-8" d="M158.76,179.91a5.33,5.33,0,0,1,0-3.18A5.22,5.22,0,0,1,158.76,179.91Z"/><path class="cls-2" d="M161.27,184.35a3.77,3.77,0,0,1,0,2.8A3.77,3.77,0,0,1,161.27,184.35Z"/><path class="cls-13" d="M161.67,189.93a3.71,3.71,0,0,1,0,3Z"/><path class="cls-7" d="M159.78,165.38a5.86,5.86,0,0,1,0,3.33A5.54,5.54,0,0,1,159.78,165.38Z"/><path class="cls-7" d="M160.77,178.35a3.77,3.77,0,0,1,0,2.81A3.76,3.76,0,0,1,160.77,178.35Z"/><path class="cls-7" d="M160.27,171.85a3.77,3.77,0,0,1,0,2.81A3.76,3.76,0,0,1,160.27,171.85Z"/><path class="cls-2" d="M162.34,199.12a3.82,3.82,0,0,1,0-3Z"/><path class="cls-2" d="M146.72,181.1a2.37,2.37,0,0,1,.05-2.2A2.37,2.37,0,0,1,146.72,181.1Z"/><path class="cls-2" d="M162.72,204.1a2.37,2.37,0,0,1,.05-2.2A2.37,2.37,0,0,1,162.72,204.1Z"/><path class="cls-7" d="M151.07,148.59h2.3A1.94,1.94,0,0,1,151.07,148.59Z"/><path class="cls-8" d="M152.57,208.59h2.3A1.94,1.94,0,0,1,152.57,208.59Z"/><path class="cls-8" d="M157.66,163.08a2,2,0,0,1,.2,1.88C157.11,164.38,157.75,163.69,157.66,163.08Z"/><path class="cls-2" d="M159.25,162.84a3.3,3.3,0,0,1,0-2.46A3,3,0,0,1,159.25,162.84Z"/><path class="cls-2" d="M146.77,158.92a1.63,1.63,0,0,1,0,1.7A1.41,1.41,0,0,1,146.77,158.92Z"/><path class="cls-14" d="M170.07,112.51c.88.18,2.25.05,2.41,1.62.11,1.11-3.3,3.87-4.58,3.78s-1.61-1.08-1.65-2.11C166.18,114,167.89,112.45,170.07,112.51Z"/><path class="cls-10" d="M154.5,112c-.86-.1-1.74,1.09-2.72-.2.72-.51,1.51-.21,2.22-.3C154.53,111.3,154.61,111.55,154.5,112Z"/><path class="cls-2" d="M154.5,112l-.5-.5c.69-.73,1.38-.65,2.21.08C155.72,112.21,155.05,111.92,154.5,112Z"/><path class="cls-7" d="M149,125.57v2.83h-.33v-2.78Z"/><path class="cls-7" d="M171,111.89h-2.34l0-.21h2.29Z"/><path class="cls-2" d="M172.94,110.63a3.25,3.25,0,0,1-2.44.22C171.14,110.22,171.79,110.58,172.94,110.63Z"/><path class="cls-2" d="M159.8,110.69a3.71,3.71,0,0,1-2.6.12A3.68,3.68,0,0,1,159.8,110.69Z"/><path class="cls-2" d="M142.59,124.51a5.16,5.16,0,0,1,1.27.13c.08.62-.47.28-.74.33a1.71,1.71,0,0,1-.64-.14Z"/><path class="cls-2" d="M211.19,105.16c-1.34,1.35-2.46,0-3.6,0Z"/><path class="cls-8" d="M196.53,117.63h4.66A8.34,8.34,0,0,1,196.53,117.63Z"/><path class="cls-8" d="M199.34,108.25a3.31,3.31,0,0,1-2.46,0A3,3,0,0,1,199.34,108.25Z"/><path class="cls-2" d="M203.29,105.76a1.68,1.68,0,0,1,1.79,0C204.56,106.12,204.06,106.06,203.29,105.76Z"/><path class="cls-13" d="M186.79,117.46c-.29-.54-.47-1,0-1.49C187.19,116.49,186.91,117,186.79,117.46Z"/></svg>