<svg id="Layer_1" data-name="Layer 1" xmlns="http://www.w3.org/2000/svg" viewBox="0 0 520 520"><defs><style>.cls-1{fill:#fff;}</style></defs><title>Artboard 1</title><path class="cls-1" d="M72.5-2.87H449q0,263.62,0,527.25H72.5Q72.5,260.75,72.5-2.87ZM194.77,271.64c-1.7-.63-3.42-1.19-5.08-1.89-7.95-3.34-15.62-8-24.84-3.86-1.18.53-3.2-.72-4.81-1.22a26.46,26.46,0,0,1-2.66-1.22l1.14,4.14-5.74-3.48,10-3.54c-5.46-2.14-16,2.37-17.78,7.79l7.76-4.22.76,2.82-5.82,3.28,2.35,3.11-3.3.8c1,.84,1.64,1.74,2,1.64,5.28-1.33,10.53-2.79,15.42-4.13,1.92,1.87,3.7,4.43,6.15,5.76s5.57,1.77,8.44,2c2.67.25,5.42-.24,8.13-.41l-.12-1.24-5.21-.48,5.17-6.25c2.38,1.8,5.4,3.19,7,5.54,1.85,2.74,2.27,3.34,4.91,1.1l-3.88-6.12,2.43,1,.85-1.26L190.27,265l-1.46,1.59Zm-43.53,165c1.44-1.4,3.36-2.56,4.24-4.25,5.72-11,9.61-22.49,10.19-35,.17-3.56.59-7.11.95-11.26a16.64,16.64,0,0,1,2.57,2.2c7.51,10.38,17.92,17.67,27.49,25.85,6.6,5.64,13.24,11.46,22.42,11.8,8.09.3,16.22,0,24.32-.47,10.11-.56,17.25-6.62,23.46-13.85,8.32-9.68,16.05-19.89,26.42-28,.37,4,.51,7.81,1.13,11.58q2.7,16.62,5.78,33.19a6.7,6.7,0,0,0,2.38,4c10,6.64,20,13.3,30.19,19.53s20.74,12,31.18,17.83c.73.41,1.89.05,2.85.05A38.71,38.71,0,0,0,359,464q-27.31-16.75-54.61-33.53a4.17,4.17,0,0,1-1.66-2.63c-2.3-15.17-4.59-30.35-6.62-45.56-.24-1.8.71-4.08,1.8-5.66,4.62-6.78,9.51-13.38,14.28-20.06.84-1.17,1.6-2.39,2.59-3.87,3.48,3.25,6.49,6.23,9.68,9s6.8,5.13,9.9,8a166.18,166.18,0,0,1,12.28,12.54c3.71,4.29,2.19,8-3.27,8.94-4.92.83-9.86,1.51-14.77,2.39-10.6,1.91-14,9.82-7.9,18.6a19.39,19.39,0,0,1,3.83,12.13,10.07,10.07,0,0,0,3,7.11,72.56,72.56,0,0,0,12.59,8c12.5,6.61,23.84,14.29,31.56,26.73,3.07,5,7.35,10.25,12.38,12.64,8.1,3.84,17.27,5.46,26,7.84.87.24,2.07-.75,3.12-1.17-.86-.71-1.62-1.8-2.59-2.06-3.13-.82-6.49-.93-9.5-2-6.73-2.5-13.72-4.75-19.79-8.44-3.94-2.39-6.47-7.11-9.61-10.8-4.27-5-7.78-11.07-13-14.81-7.82-5.64-16.72-9.85-25.34-14.31-5.06-2.62-7.1-4.78-6.53-10.46.24-2.46,2-4.77,3.07-7-4.33-.32-5.19-1-8.15-6.61-3.3-6.27-.18-12,6.77-12.71s14.1-1.7,21.14-2.67a19.87,19.87,0,0,0,3.84-1.35l0-1-3.49-1.44c2.42-3,2-6-.24-8.9a49.35,49.35,0,0,0-5.56-6.56c-9-8.07-18.3-15.84-27.24-24Q301.25,335.9,286,321c-2.06-2-3.36-4.92-4.55-7.62-1.26-2.85,1-4.54,2.8-6.34s3.42-1.26,5-.11c3.6,2.56,7.11,5.25,10.65,7.87-5,6.45-6.09,6.54-11.32,1.48-1.35-1.31-2.84-2.47-4.26-3.7l-.79.9c2.22,3.9,5.91,6.37,9.55,8.81.65.44,2.26,0,3.12-.52a14.88,14.88,0,0,0,4.29-3.56c1.56-2.14,3.09-2.19,5.06-.89,5.63,3.71,11.46,7.14,16.85,11.17,20.22,15.13,40.93,29.5,62.93,41.94,7.93,4.48,14.68,9.93,17.63,19,.36,1.11,1.56,1.94,2.37,2.9l1.17-.72c-.31-1.12-.6-2.24-.94-3.35-2.57-8.53-9.18-13.41-16.17-18-18-11.73-36-23.4-54-35.23-12.18-8-24.21-16.3-36.27-24.51a5.92,5.92,0,0,1-2.47-2.67c-.34-1.19-.29-3.17.46-3.86,1.31-1.21,3.86-2.81,4.88-2.29,3.56,1.83,6.68,4.51,10.28,7.08-5.43,4.89-8-1.75-12-2,2.85,5.61,7.39,7.05,12.22,4.38a4.39,4.39,0,0,1,3.71.07c7.61,4.55,15.18,9.18,22.61,14,6.39,4.15,12.38,8.94,18.92,12.81,12.15,7.17,24.8,13.5,36.77,20.94A33.8,33.8,0,0,1,406.13,371a222.92,222.92,0,0,1,15.41,34.48c5.52,16.18,12.53,31.85,15.77,48.77a10.43,10.43,0,0,0,1.13,2.38,10,10,0,0,0,.4-5.3c-3.29-20.42-11.31-39.31-19.15-58.22-2.86-6.91-6.64-13.43-10-20.15-1.41-2.86-2.12-6.35-4.21-8.54-3.74-3.92-8.28-7.07-12.49-10.55-.84-.69-2-1.22-2.46-2.12a89.24,89.24,0,0,1-9-33.74c-.11-1.84-1.35-4.92-2.49-5.13-2.27-.42-5.62-.05-7.13,1.42-5.54,5.41-8.58,12.16-8.1,20.16,0,.81,0,1.62,0,3.13-2.05-1.08-3.62-1.76-5-2.68-9.21-6-18-12.82-27.71-17.84-7.2-3.72-9.67-8.08-7.22-15.43.53-1.58,1.52-3.48,2.86-4.22,3.21-1.76,5-4.32,5.13-7.74.25-6.38,2.11-12.25,4.63-18a15.8,15.8,0,0,0,.66-3.61l-1.42-.9-1.15,2.29a9.07,9.07,0,0,1,1.15-3.28c1.57-2.95,3.92-5.72,4.61-8.86,2.83-12.9,5.59-25.9.89-39a16.9,16.9,0,0,1-.81-4.79c-.55-10.84-1.3-21.69-1.45-32.54-.14-10.34.46-20.66-1.59-30.94-1.58-7.92-2.52-16-3.77-23.94a90.67,90.67,0,0,0-1.67-9.52,48.22,48.22,0,0,0-3.42-9.23c-2.25-4.44-4.91-8.66-7.4-13-1.49-2.59-2.55-5.61-4.58-7.67q-10.88-11-22.33-21.48c-8.17-7.46-18.7-10.94-28.34-15.87a54.83,54.83,0,0,0-10.37-4c-4.07-1.12-8.28-1.73-12.45-2.44-3.43-.59-6.9-1.5-10.32-1.4-9.47.26-19,.51-28.38,1.66A75.69,75.69,0,0,0,184.06,48c-8.21,3.49-15.89,8.31-23.58,12.93-6.81,4.08-13.36,8.6-19.94,13.05a16.86,16.86,0,0,0-7.17,9.25c-.84,2.71-3.1,5-4.89,7.4-1.35,1.78-3.35,3.14-4.4,5.06-11.79,21.61-20,44.2-20.31,69.28-.15,13.58,1.34,26.9,3.44,40.24.67,4.28.63,8.67,1.19,13,.12.92,1.41,1.68,2.16,2.51.41-1.16,1.3-2.39,1.16-3.48-.79-5.8-1.62-11.61-2.82-17.33-3.4-16.2-3.3-32.52-1.65-48.86A80.56,80.56,0,0,1,110.61,135c1.95-6.17,4.74-12.07,7.12-18.1,3.89-9.83,6.93-20.08,15.08-27.65,1.55-1.44,2.1-3.91,3.25-5.84,1.3-2.19,2.29-4.9,4.2-6.32a209.69,209.69,0,0,1,18.6-12.38c8-4.71,16.37-8.94,24.63-13.28a30.51,30.51,0,0,1,5.94-2.27C202,45.63,215,45.09,228,44.37c3.61-.2,7.45-1.22,10.78-.35,8.72,2.27,17.88,2.66,26.09,7.28,12,6.77,25.14,11.64,35.08,21.87,8.08,8.32,17,15.88,21,27.3a20.76,20.76,0,0,0,2.36,5.08c3.22,4.59,5.67,9.3,5,15.2-.17,1.52.57,3.17,1,4.72,1.1,3.58,2.9,7,3.35,10.69,1.47,12.13,2.88,24.29,3.54,36.48.75,13.71.53,27.46,1,41.18.13,3.43.57,6.43-3.55,7.82-3.55-5.06-5.19-10.85-5.87-17-.07-.6-.14-1.43.19-1.81,3.39-3.82,2.56-8.47,2.53-12.89-.14-17.91-9.13-29.41-26.44-33.93-5.44-1.42-11.06-2.31-16.33-4.18a129.73,129.73,0,0,1-18.78-8.19c-3-1.65-5.14-5-7.78-7.65-1.93,2.34-.64,4.42,1,6.37,4.72,5.48,10.88,8.83,17.61,11,8.09,2.55,16.34,4.62,24.54,6.81,9,2.4,16,7.29,19.18,16.28a77.06,77.06,0,0,1,3.62,15.2c.51,3.7-.33,7.44-1.17,11.25-.93,4.24,1.18,9.17,2,13.79.37,2.05,1.23,4.07,1.27,6.12.13,6.81-.55,13.67.08,20.42.87,9.28,1.7,18.34-1.84,27.34-1.45,3.68-2,7.73-2.75,11.65a14.51,14.51,0,0,0,.16,3.55l1,.05c1.09-4.67,1.76-9.49,3.34-14,3.75-10.7,3.73-21.52,2.12-32.52-.83-5.64-.18-11,4.07-15.33a3,3,0,0,1,2.67-.75c1.7.89,3,9.47,1.65,10.82-4.54,4.65-5,10.28-4.45,16.33.53,5.62.88,11.26-2.77,16.23a8.46,8.46,0,0,0-1.27,3.49c-1.13,6.52-2.31,13-3.16,19.59-.46,3.54-1.47,6-5.8,5.47L320,310.26a57,57,0,0,0-5.84-3.49c-5.12-2.26-8-8.52-14.7-8-.35,0-.73-1.17-1.18-1.74-2.84-3.59-6.27-6-11.12-5.88-3,.09-6-.05-9,0-5.52.18-9.35,4-10.69,9.24s.72,9.55,2.63,14a14.88,14.88,0,0,0,9.09,8.3c3.16,1.16,6.56,2.38,9,4.53,5.93,5.15,11.31,10.92,17,16.31,7.48,7.06,7.53,7,1.92,15.77a12.21,12.21,0,0,1-.86,1.23c-13.56,16.34-27,32.74-40.72,49-4.69,5.57-9.92,10.64-17.78,11.48-2.23.24-4.44.89-6.66.94-9.7.23-19.51,1.77-29-1.69-11.37-4.15-19.73-12.56-28.14-20.69-7.52-7.27-14.71-14.94-21.56-22.85A89.26,89.26,0,0,1,152,361.39c-2.57-4.67-4.23-9.87-6-14.93-5.4-15.43-11.72-30.55-14.45-46.83-2.26-13.42-5.07-26.74-7.68-40.1a8.19,8.19,0,0,0-1.15-3.06c-1.6-2.3-3.39-4.48-5.1-6.71l.74-.54,2.94,1.67,1.22-.48c-4.32-2.88-2.56-6.62-2.51-10.13a1.44,1.44,0,0,0-.61-.92c-4-3-4.59-7.44-5-12a26.14,26.14,0,0,0-1.33-4.72c-1.52,1.22-2.43,2.56-3.24,2.5-2.83-.21-3.59,1.31-3.63,3.58-.1,5.7,0,11.1,2.62,16.7,3.09,6.71,4.37,14.25,6.38,21.45,1.12,4,1.63,8.22,3.31,11.94,3.92,8.68,8.15,17.19,8,27-.05,3.21,1,5.5,4.09,6.89a4.31,4.31,0,0,1,1.9,2.5c2.81,9.2,5.21,18.53,8.33,27.62,4.77,13.9,8.73,28.31,20.63,38.48a6.39,6.39,0,0,1,1.72,4.29c.41,16.92-2.67,33-11.33,47.85-.5.86-.37,2.09-.53,3.15-1.06.65-2.18,1.21-3.17,2-4.89,3.67-9.53,7.71-14.65,11-11.66,7.49-23.56,14.61-35.32,21.93a59.82,59.82,0,0,0-4.82,3.7l.56.86c1.4-.67,2.86-1.24,4.19-2,8.21-4.76,16.59-9.27,24.53-14.44,8.87-5.77,17.4-12.08,25.93-18.37C149.84,440.28,150.35,438.19,151.24,436.61ZM294.47,254.32l13.11,1.24L308,254l-11.61-7.75-.92,1.28,6,5c-10-.87-19.24-.82-28.4,1.68-11.45,3.13-24.38,8.23-25.13,10.76l6.28-2-1.44,3.14a7,7,0,0,0,1.86-.46c6-4.16,13.61-4.25,19.72-8.91a12.73,12.73,0,0,1,16.08.81c-2.4,2.66-3.74,3.05-7.59,2.66-12.64-1.29-23.09,2.73-30.73,13.09-.82,1.12-.68,2.95-1,4.44l1.06.15c4.61-7.17,6.83-9.2,11.2-10,1.86,4.88,5.44,7.65,10.83,7.43,6-.25,7.81-5,9.68-10.25,3.91,1.83,7.39,3.63,11,5.06a26.47,26.47,0,0,0,5.91,1.07c.14,0,.36-.55.68-1.08l-2.91-1.32c4.62-1.17,3-5.09,2.35-6.88C300,259.18,297.1,257.21,294.47,254.32ZM141.06,195.68c.87-1,1.23-1.27,1.31-1.58.29-1.08.52-2.18.72-3.28,1.49-7.93,4.89-14.76,11.89-19.15a69.73,69.73,0,0,1,12-6c13.64-5.22,27.45-10,41.07-15.28,6.06-2.34,12.68-4.59,12.78-13.37,1.25,3,2.13,6,6.6,5.19A30.09,30.09,0,0,0,225.3,138c-3-4.07-4.83-8.61-4.23-13.58,1-8.28,2.6-16.49,3.92-24.74.2-1.25.28-2.52.41-3.78l-1.2-.14c-2.68,12-6.21,23.83-4.51,36.51-.82-2.48-1.66-5-1.51-7.52.39-6.71,1.23-13.39,1.84-20.09.85-9.43,1.74-18.86,2.4-28.3.12-1.68-.8-3.44-1.23-5.16l-.93.29a57.36,57.36,0,0,1,0,5.9c-1.33,12.77-3,25.51-4,38.3-.42,5.63-.42,11.68,1.26,16.95,1.34,4.19-2.46,6.48-1.69,10.09.14.65-2.76,2.26-4.45,2.92-12.8,4.95-25.62,9.88-38.51,14.59-9.21,3.36-18.35,6.74-24.94,14.5C143,180.49,139.9,186.91,141.06,195.68Zm99.53,168.89c-2.08-3.6-5-4.66-8.7-2.85-3.33,1.62-6.14,2.51-9.64.42-1.24-.74-3.46-.34-5.07.12-6,1.7-11.88,3.77-17.89,5.43-2,.54-4.15.2-6.23.29a17.83,17.83,0,0,0-3.71.34c-.33.09-.61,1.79-.52,1.83a11.12,11.12,0,0,0,3.73,1.19c5.36.19,10.76-.14,16.09.31a207,207,0,0,0,52.59-1.83c1.16-.2,2.08-1.76,3.11-2.69-1.26-.37-2.68-1.31-3.74-1-19,5.35-38.21,3.83-57.47,2.76,3.86-1.53,7.77-2.71,11.64-4,3.33-1.13,6.53-1.33,9.78.38a4.77,4.77,0,0,0,3.55.46C232.11,364,236,361.82,240.59,364.57ZM118.75,224.65c1.77-2,3.09-3.56,4.4-5.08.89-1,1.76-2.1,2.64-3.14a21.36,21.36,0,0,0,2.69,2.73,22.54,22.54,0,0,0,3.5,1.73,21.3,21.3,0,0,0-.16-4.07c-.34-1.5-1.51-2.88-1.57-4.34a109,109,0,0,1,.08-13.49c1.06-12.66,2.63-25.22,10.71-36-1.65.8-3.59,1.67-4.33,3.15-2.18,4.32-4.74,8.72-5.59,13.38-1.83,10-2.68,20.23-3.92,30.37-.21,1.69.37,3.89-2.89,3.75V209C119.58,213.25,116.9,220,118.75,224.65ZM139.44,139l.25-1,15.49,2,.54-1.56-24.1-13.83.55-1c9.16,1.79,17,6.48,24.31,12.11-5.36-7.9-23.18-16-29.11-13.14,5.54,6.17,13,9.21,19.7,13.37-3.12,0-6-.11-8.79,0-1.93.11-3.43,1.18-1.84,3.11,1.18,1.43,3.11,2.24,4.7,3.32l.63-.9ZM151.86,248.2l-.84-1.12c-4.11,2.17-8.27,4.25-11.26,8.42,10.28-.26,20.42-2.56,30.43.59,9.71,3.06,19.39,6.17,29.81,9.49-1.38-2.63-17.44-8.89-26.29-11-9.21-2.23-18.46-3.6-28-1.73Zm83.28-116.67-1.06.45a15.1,15.1,0,0,0,.64,3.3c3.46,8,8.67,14.7,17,17.55,8.57,2.94,17.6,4.52,26.44,6.64.45.11,1-.26,2.51-.7a33.7,33.7,0,0,0-4.76-2.25c-4.46-1.2-8.94-2.33-13.45-3.3-11.35-2.44-20.45-7.8-25.35-18.89A17.53,17.53,0,0,0,235.14,131.53Zm-5.63-14.24.8.68C246.57,99.11,268,88.75,290.9,80.53A57.38,57.38,0,0,0,277.29,84C261,90.45,246,99,233.71,111.62A50.12,50.12,0,0,0,229.52,117.29Zm24.65,256.06c-.79.23-1.09.23-1.25.37-1.21,1.08-2.42,2.16-3.57,3.3-8.19,8.12-17.95,10.87-29.12,8.29-7.19-1.66-13.28-5.54-19-10.06-1.26-1-2.66-1.81-4-2.7C214.51,390.87,237.5,396.82,254.16,373.35Zm-5.44-120.29.53,1.15c14.57-3.45,28.87-8.43,45.11-7.51-3.5-3.33-6.87-3.3-10.12-2.61-10.25,2.16-20.46,4.5-30.66,6.89A29.28,29.28,0,0,0,248.73,253.06Zm-94.85-7.16.3,1.16c15.27-.58,29.64,4.14,44.37,7.3a4.48,4.48,0,0,0-2.46-2c-12.12-2.79-24.23-5.61-36.41-8.1C157.92,243.94,155.82,245.32,153.87,245.89ZM332,414.5c2.88,3.34,26.29,4.35,28.88,1.49A90.55,90.55,0,0,0,332,414.5Zm-80.35-86.24c0,2.78.88,6.31-.24,9-1.23,3-4.29,5.22-6.62,7.86,3.35,0,8.29-4.42,9.42-8.3C255.11,333.62,253.74,329.71,251.61,328.26Zm165.76,94.3,1.43-.64-10.24-25.22-1.14.46Zm-218-91.74c-3.93,8.1.83,14.59,9.38,15.14-2.81-2.09-6-3.43-7.44-5.81S200,334.34,199.37,330.82Zm5.52,10.28,14,3.16C215.89,338.89,210.32,337.27,204.89,341.1ZM233.21,343l14-3.45A10.08,10.08,0,0,0,233.21,343Zm46.92-66.09c4.29,1.74,11.58-2,12.75-7ZM399.9,411.07c-1.63-6.06-7.78-11.25-11.43-10.47ZM299.57,96.8,299,95.31l-14.49,4.41.52,1.59ZM157.73,276.43c2.19,4.14,7.21,5.32,10.2,2.47Zm96.54,90.2,0-.94-10.76-1.34-.1,1.08A13,13,0,0,0,254.27,366.63Zm.34-88.93,8.23-1.06C259.45,274.09,257.91,274.25,254.61,277.7Z"/><path d="M151.26,436.63c.16-1.06,0-2.3.53-3.15,8.67-14.8,11.74-30.93,11.33-47.85a6.39,6.39,0,0,0-1.72-4.29c-11.9-10.16-15.86-24.57-20.63-38.48-3.12-9.09-5.51-18.42-8.33-27.62a4.31,4.31,0,0,0-1.9-2.5c-3.05-1.39-4.15-3.69-4.09-6.89.17-9.84-4.06-18.35-8-27-1.68-3.72-2.2-8-3.31-11.94-2-7.2-3.29-14.74-6.38-21.45-2.58-5.59-2.72-11-2.62-16.7,0-2.27.8-3.8,3.63-3.58.81.06,1.73-1.28,3.24-2.5a26.14,26.14,0,0,1,1.33,4.72c.44,4.55,1,9,5,12a1.44,1.44,0,0,1,.61.92c-.05,3.51-1.81,7.25,2.51,10.13l-1.22.48-2.94-1.67-.74.54c1.71,2.23,3.5,4.41,5.1,6.71a8.19,8.19,0,0,1,1.15,3.06c2.61,13.36,5.42,26.68,7.68,40.1,2.74,16.28,9.06,31.4,14.45,46.83,1.77,5.07,3.43,10.27,6,14.93a89.26,89.26,0,0,0,10.52,15.31c6.85,7.91,14,15.58,21.56,22.85,8.41,8.13,16.77,16.55,28.14,20.69,9.46,3.45,19.27,1.91,29,1.69,2.23-.05,4.43-.7,6.66-.94,7.86-.84,13.09-5.91,17.78-11.48,13.67-16.24,27.16-32.64,40.72-49a12.21,12.21,0,0,0,.86-1.23c5.61-8.77,5.56-8.72-1.92-15.77-5.72-5.39-11.1-11.16-17-16.31-2.47-2.14-5.87-3.36-9-4.53a14.88,14.88,0,0,1-9.09-8.3c-1.92-4.46-4-8.77-2.63-14s5.17-9.06,10.69-9.24c3-.1,6,0,9,0,4.85-.15,8.28,2.29,11.12,5.88.45.57.83,1.76,1.18,1.74,6.65-.49,9.58,5.77,14.7,8a57,57,0,0,1,5.84,3.49l2.51-15.12c4.33.58,5.33-1.93,5.8-5.47.86-6.56,2-13.07,3.16-19.59a8.46,8.46,0,0,1,1.27-3.49c3.65-5,3.3-10.61,2.77-16.23-.57-6-.09-11.68,4.45-16.33,1.32-1.35,0-9.93-1.65-10.82a3,3,0,0,0-2.67.75c-4.25,4.3-4.9,9.69-4.07,15.33,1.61,11,1.63,21.82-2.12,32.52-1.58,4.5-2.26,9.32-3.34,14l-1-.05a14.51,14.51,0,0,1-.16-3.55c.78-3.91,1.3-8,2.75-11.65,3.54-9,2.71-18.06,1.84-27.34-.63-6.75,0-13.61-.08-20.42,0-2-.89-4.07-1.27-6.12-.84-4.62-3-9.55-2-13.79.84-3.81,1.68-7.55,1.17-11.25a77.06,77.06,0,0,0-3.62-15.2c-3.19-9-10.19-13.88-19.18-16.28-8.2-2.19-16.45-4.26-24.54-6.81-6.73-2.12-12.89-5.47-17.61-11-1.68-2-3-4-1-6.37,2.64,2.68,4.75,6,7.78,7.65a129.73,129.73,0,0,0,18.78,8.19c5.28,1.87,10.89,2.76,16.33,4.18,17.31,4.52,26.3,16,26.44,33.93,0,4.42.86,9.07-2.53,12.89-.33.37-.26,1.21-.19,1.81.68,6.13,2.32,11.92,5.87,17,4.12-1.39,3.68-4.39,3.55-7.82-.52-13.72-.3-27.48-1-41.18-.67-12.19-2.07-24.36-3.54-36.48-.44-3.65-2.24-7.12-3.35-10.69-.48-1.54-1.21-3.2-1-4.72.64-5.9-1.8-10.61-5-15.2a20.76,20.76,0,0,1-2.36-5.08c-4-11.42-12.94-19-21-27.3-9.94-10.24-23-15.1-35.08-21.87-8.2-4.62-17.37-5-26.09-7.28-3.34-.87-7.18.15-10.78.35-13,.72-26,1.26-38.56,4.79a30.51,30.51,0,0,0-5.94,2.27c-8.26,4.34-16.59,8.57-24.63,13.28a209.69,209.69,0,0,0-18.6,12.38c-1.91,1.41-2.9,4.13-4.2,6.32-1.14,1.92-1.7,4.4-3.25,5.84-8.16,7.57-11.2,17.82-15.08,27.65-2.38,6-5.17,11.94-7.12,18.1a80.56,80.56,0,0,0-3.36,16.06c-1.65,16.33-1.75,32.65,1.65,48.86,1.2,5.73,2,11.53,2.82,17.33.15,1.09-.74,2.31-1.16,3.48-.75-.83-2-1.6-2.16-2.51-.56-4.3-.52-8.69-1.19-13-2.09-13.34-3.59-26.66-3.44-40.24.28-25.08,8.53-47.68,20.31-69.28,1-1.91,3.05-3.28,4.4-5.06,1.79-2.37,4-4.68,4.89-7.4A16.86,16.86,0,0,1,140.54,74c6.58-4.45,13.14-9,19.94-13.05,7.69-4.61,15.37-9.44,23.58-12.93a75.69,75.69,0,0,1,20.28-4.92c9.39-1.15,18.91-1.4,28.38-1.66,3.43-.09,6.9.81,10.32,1.4,4.17.71,8.38,1.32,12.45,2.44a54.83,54.83,0,0,1,10.37,4c9.65,4.93,20.17,8.41,28.34,15.87q11.44,10.45,22.33,21.48c2,2.06,3.09,5.08,4.58,7.67,2.49,4.31,5.15,8.54,7.4,13a48.22,48.22,0,0,1,3.42,9.23A90.67,90.67,0,0,1,333.6,126c1.25,8,2.19,16,3.77,23.94,2,10.27,1.45,20.59,1.59,30.94.14,10.85.9,21.69,1.45,32.54a16.9,16.9,0,0,0,.81,4.79c4.7,13.13,1.95,26.13-.89,39-.69,3.14-3,5.91-4.61,8.86a9.07,9.07,0,0,0-1.15,3.28l1.15-2.29,1.42.9a15.8,15.8,0,0,1-.66,3.61c-2.52,5.77-4.38,11.64-4.63,18-.13,3.42-1.92,6-5.13,7.74-1.34.73-2.34,2.64-2.86,4.22-2.44,7.35,0,11.71,7.22,15.43,9.71,5,18.5,11.84,27.71,17.84,1.41.92,3,1.6,5,2.68,0-1.51,0-2.33,0-3.13-.48-8,2.56-14.75,8.1-20.16,1.51-1.47,4.86-1.84,7.13-1.42,1.14.21,2.38,3.29,2.49,5.13a89.24,89.24,0,0,0,9,33.74c.43.89,1.62,1.42,2.46,2.12,4.21,3.47,8.75,6.63,12.49,10.55,2.09,2.19,2.8,5.68,4.21,8.54,3.32,6.72,7.1,13.24,10,20.15,7.84,18.91,15.87,37.8,19.15,58.22a10,10,0,0,1-.4,5.3,10.43,10.43,0,0,1-1.13-2.38c-3.25-16.92-10.25-32.59-15.77-48.77A222.92,222.92,0,0,0,406.13,371a33.8,33.8,0,0,0-11.52-11.89c-12-7.44-24.62-13.77-36.77-20.94-6.55-3.86-12.53-8.66-18.92-12.81-7.44-4.82-15-9.45-22.61-14a4.39,4.39,0,0,0-3.71-.07c-4.83,2.68-9.37,1.23-12.22-4.38,4,.24,6.53,6.88,12,2-3.6-2.57-6.72-5.25-10.28-7.08-1-.53-3.57,1.08-4.88,2.29-.75.69-.8,2.67-.46,3.86a5.92,5.92,0,0,0,2.47,2.67c12.06,8.21,24.09,16.47,36.27,24.51,17.93,11.83,36,23.49,54,35.23,7,4.55,13.6,9.43,16.17,18,.33,1.11.62,2.23.94,3.35l-1.17.72c-.81-1-2-1.8-2.37-2.9-2.95-9.1-9.7-14.54-17.63-19-22-12.44-42.71-26.82-62.93-41.94-5.39-4-11.22-7.46-16.85-11.17-2-1.3-3.5-1.25-5.06.89a14.88,14.88,0,0,1-4.29,3.56c-.86.53-2.46,1-3.12.52-3.64-2.44-7.33-4.91-9.55-8.81l.79-.9c1.42,1.23,2.91,2.39,4.26,3.7,5.23,5.06,6.36,5,11.32-1.48-3.54-2.63-7.05-5.31-10.65-7.87-1.62-1.15-3.31-1.63-5,.11s-4.06,3.48-2.8,6.34c1.19,2.7,2.5,5.62,4.55,7.62q15.28,14.87,31,29.25c8.94,8.15,18.23,15.92,27.24,24a49.35,49.35,0,0,1,5.56,6.56c2.23,2.86,2.66,5.86.24,8.9l3.49,1.44,0,1a19.87,19.87,0,0,1-3.84,1.35c-7,1-14.08,1.92-21.14,2.67s-10.06,6.44-6.77,12.71c3,5.62,3.82,6.29,8.15,6.61-1,2.25-2.83,4.56-3.07,7-.56,5.68,1.48,7.84,6.53,10.46,8.62,4.46,17.52,8.67,25.34,14.31,5.19,3.74,8.69,9.8,13,14.81,3.15,3.69,5.67,8.42,9.61,10.8,6.08,3.68,13.06,5.94,19.79,8.44,3,1.11,6.36,1.22,9.5,2,1,.26,1.74,1.35,2.59,2.06-1,.42-2.25,1.4-3.12,1.17-8.77-2.38-17.94-4-26-7.84-5-2.39-9.31-7.69-12.38-12.64C364,453.7,352.66,446,340.16,439.41a72.56,72.56,0,0,1-12.59-8,10.07,10.07,0,0,1-3-7.11,19.39,19.39,0,0,0-3.83-12.13c-6.15-8.78-2.7-16.69,7.9-18.6,4.91-.89,9.85-1.57,14.77-2.39,5.47-.92,7-4.65,3.27-8.94a166.18,166.18,0,0,0-12.28-12.54c-3.1-2.89-6.68-5.25-9.9-8s-6.2-5.74-9.68-9c-1,1.48-1.75,2.7-2.59,3.87-4.77,6.68-9.66,13.28-14.28,20.06-1.08,1.59-2,3.87-1.8,5.66,2,15.21,4.31,30.39,6.62,45.56a4.17,4.17,0,0,0,1.66,2.63Q331.69,447.29,359,464a38.71,38.71,0,0,1,7.76,5.89c-1,0-2.12.36-2.85-.05C353.51,464,343,458.21,332.77,452s-20.22-12.89-30.19-19.53a6.7,6.7,0,0,1-2.38-4q-3.07-16.56-5.78-33.19c-.61-3.77-.76-7.61-1.13-11.58-10.36,8.11-18.1,18.31-26.42,28-6.21,7.22-13.35,13.29-23.46,13.85-8.09.45-16.23.77-24.32.47-9.18-.35-15.82-6.16-22.42-11.8-9.58-8.18-20-15.46-27.49-25.85a16.64,16.64,0,0,0-2.57-2.2c-.36,4.15-.78,7.7-.95,11.26-.58,12.49-4.48,24-10.19,35-.88,1.69-2.8,2.85-4.24,4.25Zm235.18-87.08c-2-6.83-4.25-14.28-6.22-21.8-.78-3-.72-6.2-1.36-9.24-.69-3.3-3.54-4.23-5.81-1.9a21.86,21.86,0,0,0-6.13,20.61,5.26,5.26,0,0,0,2.35,3.11C375.23,343.68,381.32,346.83,386.44,349.55Zm-91.09-47.46-.47-.33-3.77,2.11a9.49,9.49,0,0,1,.27-2.53c1.46-2.79,0-3.84-2.39-5-4-1.9-5.7.78-8.15,3-2.8,2.52-3.35,4.62-.36,7.6,3.66-4.28,7.87-4.94,12.42-1.23ZM128.2,292.51l-6.92-34.2C118.86,271.24,122.54,282.08,128.2,292.51Zm-18-64.39-1.29.47c-1.64,7.54,1.61,13.18,7.6,18.74Zm1.56,20.19,6.12,19.06C119.76,258.11,117.5,250.85,111.77,248.31ZM341.12,238.1l-1.07,0-1.25,13.15.77.08Z"/><path d="M294.47,254.32c2.64,2.9,5.51,4.86,6.48,7.53.65,1.79,2.28,5.71-2.35,6.88l2.91,1.32c-.32.53-.54,1.1-.68,1.08a26.47,26.47,0,0,1-5.91-1.07c-3.62-1.43-7.1-3.24-11-5.06-1.86,5.27-3.71,10-9.68,10.25-5.38.23-9-2.55-10.83-7.43-4.37.85-6.59,2.87-11.2,10l-1.06-.15c.31-1.5.17-3.33,1-4.44,7.64-10.36,18.09-14.38,30.73-13.09,3.85.39,5.18,0,7.59-2.66a12.73,12.73,0,0,0-16.08-.81c-6.12,4.66-13.75,4.75-19.72,8.91a7,7,0,0,1-1.86.46l1.44-3.14-6.28,2c.74-2.53,13.67-7.63,25.13-10.76,9.16-2.5,18.42-2.55,28.4-1.68l-6-5,.92-1.28L308,254l-.48,1.54Zm3.63,8.59s.72-1.21.45-1.49a14.17,14.17,0,0,0-4.22-3.36c-.62-.27-2,1.08-2.56,1.44Z"/><path d="M141.06,195.68c-1.16-8.77,2-15.2,6.86-21,6.58-7.76,15.73-11.14,24.94-14.5,12.89-4.71,25.71-9.64,38.51-14.59,1.69-.65,4.59-2.27,4.45-2.92-.77-3.61,3-5.9,1.69-10.09-1.68-5.26-1.68-11.32-1.26-16.95,1-12.8,2.66-25.53,4-38.3a57.36,57.36,0,0,0,0-5.9l.93-.29c.44,1.72,1.35,3.48,1.23,5.16-.66,9.44-1.55,18.87-2.4,28.3-.61,6.7-1.45,13.38-1.84,20.09-.15,2.49.69,5,1.51,7.52-1.71-12.68,1.83-24.53,4.51-36.51l1.2.14c-.13,1.26-.21,2.53-.41,3.78-1.32,8.24-2.91,16.46-3.92,24.74-.61,5,1.26,9.51,4.23,13.58a30.09,30.09,0,0,1,2.12,4.19c-4.47.8-5.35-2.22-6.6-5.19-.1,8.77-6.73,11-12.78,13.37-13.62,5.27-27.43,10.06-41.07,15.28a69.73,69.73,0,0,0-12,6c-7,4.39-10.41,11.22-11.89,19.15-.21,1.1-.43,2.2-.72,3.28C142.29,194.41,141.93,194.65,141.06,195.68Z"/><path d="M194.74,271.61l3.88,6.12c-2.63,2.24-3.06,1.64-4.91-1.1-1.58-2.35-4.61-3.73-7-5.54l-5.17,6.25,5.21.48.12,1.24c-2.71.17-5.45.66-8.13.41-2.87-.27-6-.69-8.44-2s-4.22-3.89-6.15-5.76c-4.89,1.33-10.13,2.8-15.42,4.13-.39.1-1-.81-2-1.64l3.3-.8-2.35-3.11L153.5,267l-.76-2.82,0,0,5.74,3.48-1.14-4.14a26.46,26.46,0,0,0,2.66,1.22c1.61.5,3.63,1.75,4.81,1.22,9.22-4.17,16.89.52,24.84,3.86,1.67.7,3.39,1.26,5.08,1.89Z"/><path d="M240.59,364.57c-4.63-2.75-8.48-.61-12.49,1.12a4.77,4.77,0,0,1-3.55-.46c-3.25-1.71-6.45-1.51-9.78-.38-3.87,1.31-7.78,2.5-11.64,4,19.25,1.08,38.5,2.6,57.47-2.76,1.07-.3,2.49.65,3.74,1-1,.93-2,2.49-3.11,2.69a207,207,0,0,1-52.59,1.83c-5.33-.45-10.73-.12-16.09-.31a11.12,11.12,0,0,1-3.73-1.19c-.09,0,.19-1.75.52-1.83a17.83,17.83,0,0,1,3.71-.34c2.08-.09,4.28.24,6.23-.29,6-1.65,11.89-3.72,17.89-5.43,1.61-.46,3.83-.86,5.07-.12,3.5,2.1,6.32,1.2,9.64-.42C235.62,359.91,238.51,361,240.59,364.57Z"/><path d="M118.75,224.65c-1.85-4.68.83-11.39,5.56-15.62v4.56c3.26.14,2.68-2.06,2.89-3.75,1.23-10.13,2.09-20.34,3.92-30.37.85-4.65,3.41-9.06,5.59-13.38.74-1.48,2.68-2.35,4.33-3.15-8.08,10.8-9.65,23.37-10.71,36a109,109,0,0,0-.08,13.49c.06,1.46,1.24,2.85,1.57,4.34a21.3,21.3,0,0,1,.16,4.07,22.54,22.54,0,0,1-3.5-1.73,21.36,21.36,0,0,1-2.69-2.73c-.88,1-1.75,2.11-2.64,3.14C121.84,221.09,120.52,222.6,118.75,224.65Z"/><path d="M139.44,139l2.33,2.58-.63.9c-1.6-1.09-3.53-1.89-4.7-3.32-1.59-1.93-.09-3,1.84-3.11,2.83-.15,5.67,0,8.79,0-6.68-4.16-14.17-7.2-19.7-13.37,5.93-2.89,23.74,5.23,29.11,13.14-7.36-5.63-15.15-10.33-24.31-12.11l-.55,1,24.1,13.83-.54,1.56-15.49-2Z"/><path d="M151.24,436.61c-.89,1.58-1.4,3.66-2.73,4.64-8.53,6.28-17.06,12.59-25.93,18.37-7.95,5.17-16.32,9.68-24.53,14.44-1.34.78-2.79,1.35-4.19,2l-.56-.86a59.82,59.82,0,0,1,4.82-3.7c11.77-7.33,23.67-14.44,35.32-21.93,5.12-3.29,9.76-7.34,14.65-11,1-.74,2.11-1.31,3.17-2Z"/><path d="M151.86,248.2l-6.15,4.62c9.54-1.87,18.79-.49,28,1.73,8.85,2.14,24.91,8.4,26.29,11-10.42-3.32-20.11-6.43-29.81-9.49-10-3.15-20.16-.85-30.43-.59,3-4.18,7.16-6.26,11.26-8.42Z"/><path d="M235.14,131.53a17.53,17.53,0,0,1,1.93,2.79c4.89,11.09,14,16.45,25.35,18.89,4.51,1,9,2.1,13.45,3.3a33.7,33.7,0,0,1,4.76,2.25c-1.5.44-2.06.81-2.51.7-8.84-2.12-17.87-3.7-26.44-6.64-8.29-2.84-13.49-9.59-17-17.55a15.1,15.1,0,0,1-.64-3.3Z"/><path d="M229.52,117.29a50.12,50.12,0,0,1,4.19-5.67C246,99,261,90.45,277.29,84a57.38,57.38,0,0,1,13.61-3.46C268,88.75,246.57,99.11,230.32,118Z"/><path d="M254.16,373.35c-16.66,23.48-39.66,17.52-56.95-.81,1.34.9,2.74,1.71,4,2.7,5.73,4.52,11.82,8.4,19,10.06,11.18,2.58,20.94-.17,29.12-8.29,1.15-1.14,2.36-2.22,3.57-3.3C253.08,373.57,253.37,373.57,254.16,373.35Z"/><path d="M248.73,253.06a29.28,29.28,0,0,1,4.86-2.09c10.2-2.39,20.41-4.73,30.66-6.89,3.25-.68,6.62-.72,10.12,2.61-16.24-.93-30.54,4.06-45.11,7.51Z"/><path d="M153.87,245.89c1.94-.57,4-2,5.8-1.59,12.18,2.48,24.29,5.31,36.41,8.1a4.48,4.48,0,0,1,2.46,2c-14.73-3.16-29.1-7.89-44.37-7.3Z"/><path d="M332,414.5A90.55,90.55,0,0,1,360.84,416C358.25,418.84,334.84,417.84,332,414.5Z"/><path d="M251.61,328.26c2.12,1.45,3.5,5.37,2.56,8.6-1.13,3.88-6.07,8.31-9.42,8.3,2.33-2.64,5.4-4.88,6.62-7.86C252.49,334.57,251.61,331,251.61,328.26Z"/><path d="M152.73,264.15,145,268.37c1.77-5.42,12.32-9.94,17.78-7.79l-10,3.54Z"/><path d="M417.37,422.56l-10-25.4,1.14-.46,10.24,25.22Z"/><path d="M199.37,330.82c.65,3.52.46,6.94,1.94,9.33s4.63,3.72,7.44,5.81C200.2,345.41,195.44,338.92,199.37,330.82Z"/><path d="M204.89,341.1c5.43-3.83,11-2.21,14,3.16Z"/><path d="M233.21,343a10.08,10.08,0,0,1,14-3.45Z"/><path d="M280.13,276.87l12.75-7C291.7,274.83,284.42,278.61,280.13,276.87Z"/><path d="M399.9,411.07,388.47,400.6C392.12,399.82,398.27,405,399.9,411.07Z"/><path d="M299.57,96.8l-14.52,4.52-.52-1.59L299,95.31Z"/><path d="M157.73,276.43l10.2,2.47C164.94,281.75,159.93,280.57,157.73,276.43Z"/><path d="M254.27,366.63a13,13,0,0,1-10.89-1.2l.1-1.08,10.76,1.34Z"/><path d="M194.77,271.64l-6-5.08,1.46-1.59,7.75,6.37-.85,1.26-2.43-1Z"/><path d="M254.61,277.7c3.3-3.46,4.83-3.61,8.23-1.06Z"/><path class="cls-1" d="M386.44,349.55c-5.12-2.73-11.2-5.87-17.17-9.22a5.26,5.26,0,0,1-2.35-3.11A21.86,21.86,0,0,1,373,316.61c2.27-2.33,5.13-1.4,5.81,1.9.63,3,.57,6.25,1.36,9.24C382.19,335.28,384.47,342.72,386.44,349.55Z"/><path class="cls-1" d="M295.35,302.09l-2.46,3.61c-4.54-3.7-8.75-3-12.42,1.23-3-3-2.44-5.07.36-7.6,2.45-2.21,4.17-4.88,8.15-3,2.4,1.14,3.85,2.19,2.39,5a9.49,9.49,0,0,0-.27,2.53l3.77-2.11Z"/><path class="cls-1" d="M128.2,292.51c-5.66-10.43-9.34-21.26-6.92-34.2Z"/><path class="cls-1" d="M110.21,228.12l6.31,19.21c-6-5.56-9.24-11.2-7.6-18.74Z"/><path class="cls-1" d="M111.77,248.31c5.74,2.55,8,9.8,6.12,19.06Z"/><path class="cls-1" d="M341.12,238.1l-1.56,13.19-.77-.08,1.25-13.15Z"/><path class="cls-1" d="M298.1,262.91l-6.32-3.4c.6-.36,1.94-1.72,2.56-1.44a14.17,14.17,0,0,1,4.22,3.36C298.81,261.7,298.1,262.9,298.1,262.91Z"/></svg>