<svg id="Layer_1" data-name="Layer 1" xmlns="http://www.w3.org/2000/svg" viewBox="0 0 512.85 513"><defs><style>.cls-1{fill:#fff;}</style></defs><title>Artboard 1</title><path class="cls-1" d="M1,513V1.09H512.85V513Zm44.5-209.89c-.22-.07-1.17-.32-2.09-.64-10.22-3.57-19.61.1-23.37,9.15s.36,18.5,10,23.1c32.13,15.35,64.18,30.87,96.44,45.94a42.76,42.76,0,0,0,16.76,3.94c37.16.74,74.32,1,111.48,1.36,6.64.06,13.49.43,19.88-1,23.87-5.23,47.62-11.07,71.37-16.87a26.59,26.59,0,0,1,14.62.24q55.18,16.6,110.5,32.72c11.68,3.42,23.66-4.15,23.86-15.77.45-25.82.33-51.66.06-77.49-.09-8.61-7.26-15.72-15.85-16.65-31.78-3.42-63.58-6.66-95.35-10.13-9.07-1-18.48-1.31-27-4.11-20.37-6.68-40.33-14.6-60.38-22.22a11.4,11.4,0,0,1-4.74-4.33c-5.1-7.54-9.74-15.39-15.06-22.76-1.68-2.33-1.77-4-1.54-6.66.7-7.89,2.32-16.1.92-23.7-5.8-31.51-23.56-55.66-48.82-74.6a42,42,0,0,0-12-6c-11.51-3.78-20.27.84-23.47,12.47a29.84,29.84,0,0,1-14.66,18.75c-7.81,4.4-15.95,8.26-24,12.17-11.83,5.72-23.91,10.94-35.55,17-12.48,6.5-21.3,16.32-24.63,30.49a5.51,5.51,0,0,1-3.49,3.4C67.66,215.39,43,240.37,42.34,272,42.12,282.29,44.38,292.63,45.53,303.11Z"/><path d="M45.53,303.11c-1.14-10.48-3.41-20.82-3.18-31.1.69-31.64,25.31-56.61,47-61.05a5.51,5.51,0,0,0,3.49-3.4c3.33-14.17,12.15-24,24.63-30.49,11.64-6.07,23.73-11.29,35.55-17,8.08-3.91,16.21-7.77,24-12.17a29.84,29.84,0,0,0,14.66-18.75c3.2-11.62,12-16.25,23.47-12.47a42,42,0,0,1,12,6c25.26,18.93,43,43.09,48.82,74.6,1.4,7.6-.22,15.81-.92,23.7-.23,2.62-.14,4.33,1.54,6.66,5.32,7.37,10,15.22,15.06,22.76a11.4,11.4,0,0,0,4.74,4.33c20.05,7.62,40,15.54,60.38,22.22,8.54,2.8,18,3.12,27,4.11,31.77,3.48,63.57,6.71,95.35,10.13,8.6.93,15.76,8,15.85,16.65.27,25.83.39,51.67-.06,77.49-.2,11.62-12.18,19.19-23.86,15.77q-55.3-16.19-110.5-32.72a26.59,26.59,0,0,0-14.62-.24c-23.75,5.8-47.49,11.63-71.37,16.87-6.4,1.4-13.25,1-19.88,1-37.16-.31-74.33-.62-111.48-1.36a42.76,42.76,0,0,1-16.76-3.94C94.22,365.58,62.17,350.05,30,334.71c-9.62-4.6-13.74-14-10-23.1s13.15-12.72,23.37-9.15C44.36,302.79,45.31,303,45.53,303.11Zm47.76-72.32a29.69,29.69,0,0,0-3.71,1.13C76.4,237.81,68.12,248.16,64,261.65c-5.86,19.38.69,36.34,11.6,52.13.84,1.21,2.67,1.89,4.17,2.46,18.94,7.26,37.88,14.54,56.91,21.58a16.58,16.58,0,0,0,8.74,1C179.75,331.36,214,323.7,248.23,316a11.87,11.87,0,0,0,8.93-7.95,11.65,11.65,0,0,0-2.25-12.15c-3.79-4.5-8.77-4.92-14.14-3.7-21.72,4.95-43.43,10-65.19,14.78-11.59,2.56-22.42-4-25.17-14.93-2.84-11.3,4.08-22.65,15.76-25.72,3.21-.84,6.47-1.56,9.73-2.2,30-5.86,59.25-15.34,90-19-1.61-1.07-3.55-2.44-5.23-2.16-5.81,1-9.84-.07-12.21-4.19-2.54-4.44-1.73-8.56,1.55-12.41,6.38-7.49,8.35-16.29,6.43-25.73-5.34-26.26-20.24-46.29-41.35-62.09a26.93,26.93,0,0,0-4.25-2.15c-9.16,19-14.94,24.9-33.66,34.38-5.64,2.85-11.47,5.32-17.18,8-11.12,5.27-22.46,10.14-33.28,16-14.2,7.65-18.07,19-12.5,34.13a62.7,62.7,0,0,0,3.15,6.78c3,5.91,1.87,11.45-3.09,14.4-5.17,3.07-10.92,1.38-14.24-4.68C97.57,240.8,95.62,235.85,93.28,230.79Z"/><path class="cls-1" d="M93.28,230.79c2.33,5.07,4.29,10,6.82,14.64,3.32,6.06,9.07,7.75,14.24,4.68,5-2.95,6.12-8.49,3.09-14.4a62.7,62.7,0,0,1-3.15-6.78c-5.57-15.08-1.7-26.48,12.5-34.13,10.82-5.83,22.15-10.71,33.28-16,5.71-2.71,11.54-5.18,17.18-8,18.73-9.48,24.5-15.41,33.66-34.38a26.93,26.93,0,0,1,4.25,2.15c21.12,15.81,36,35.83,41.35,62.09,1.92,9.43-.05,18.24-6.43,25.73-3.28,3.85-4.09,8-1.55,12.41,2.36,4.12,6.39,5.14,12.21,4.19,1.67-.27,3.62,1.1,5.23,2.16-30.79,3.68-60,13.16-90,19-3.26.64-6.52,1.35-9.73,2.2-11.68,3.07-18.6,14.42-15.76,25.72C153.16,303,164,309.57,175.58,307c21.75-4.81,43.46-9.83,65.19-14.78,5.38-1.22,10.35-.8,14.14,3.7a11.65,11.65,0,0,1,2.25,12.15,11.87,11.87,0,0,1-8.93,7.95c-34.24,7.68-68.47,15.34-102.76,22.77a16.58,16.58,0,0,1-8.74-1c-19-7-38-14.32-56.91-21.58-1.5-.58-3.33-1.25-4.17-2.46C64.73,298,58.19,281,64,261.65c4.08-13.49,12.36-23.84,25.53-29.74A29.69,29.69,0,0,1,93.28,230.79Z"/></svg>