<svg id="Layer_1" data-name="Layer 1" xmlns="http://www.w3.org/2000/svg" viewBox="0 0 51.2 51.2"><defs><style>.cls-1{fill:#fefefe;}.cls-2{fill:#bbb;}</style></defs><title>Artboard 1</title><path class="cls-1" d="M25.76,51.4H.51c-.32,0-.42,0-.42-.4Q.11,25.74.09.47C.09.16.17.09.48.09H51c.28,0,.4,0,.4.37q0,25.29,0,50.59c0,.37-.14.35-.41.35Z"/><path d="M38.19,17.21a30.92,30.92,0,0,1,.08,12.34,18.61,18.61,0,0,0,.31,8.51A5.49,5.49,0,0,0,40.5,41a6.61,6.61,0,0,1,1.59,1.57,2,2,0,0,1,.26.53c.11.38-.07.61-.48.6-1.1,0-2.2-.06-3.3-.08-.33,0-.46-.24-.62-.44a18.53,18.53,0,0,1-2-3.35c-.77-1.58-1.46-3.2-2.09-4.85-.14-.37-.28-.56-.71-.41a4.35,4.35,0,0,1-.89.14c-.18,0-.26.08-.22.29a6.9,6.9,0,0,1-.72,4.11,4.07,4.07,0,0,1-.41.8c-.3.42-.08.46.29.49a7.74,7.74,0,0,1,3.39.89,1.62,1.62,0,0,1,.8,2.16.44.44,0,0,1-.46.34c-3.83,0-7.67,0-11.5,0a4.84,4.84,0,0,1-3.32-1.5c-.34-.32-.67-.64-1-1a5.38,5.38,0,0,1-3.45,2.24A16.76,16.76,0,0,1,9,44a4.86,4.86,0,0,1-4.19-4.16,9.61,9.61,0,0,1,.14-3.92A15.1,15.1,0,0,0,8,37.84a11.53,11.53,0,0,0,8.32.62c.37-.11.44-.25.34-.62A10.78,10.78,0,0,1,19.14,27.3a23.08,23.08,0,0,1,8.54-6c.32-.14.45-.27.43-.64a12.15,12.15,0,0,1,1.05-5.14,30.28,30.28,0,0,1,2.64-5.19A1.47,1.47,0,0,0,32,9.58a5.69,5.69,0,0,1,2.05-3.81c.13-.13.27-.24.42-.36.54-.44.63-.41.79.29a16.65,16.65,0,0,1,.35,2.42A18.54,18.54,0,0,1,38,6.38c.41-.26.5-.23.63.26a4.58,4.58,0,0,1-.07,1.88c0,.21,0,.33.18.43a3.51,3.51,0,0,1,1.75,1.78,1.09,1.09,0,0,0,.59.55l4,1.82c.51.23.62.48.4,1a.85.85,0,0,1-.23.38A6.42,6.42,0,0,0,44,16.06a2.85,2.85,0,0,1-1.74,1,8.17,8.17,0,0,1-4-.11C38.07,17,38.17,17.12,38.19,17.21Z"/><path class="cls-2" d="M38.19,17.21a.8.8,0,0,1-.14-.49c.18,0,.15.15.15.24Z"/></svg>