<svg id="Layer_1" data-name="Layer 1" xmlns="http://www.w3.org/2000/svg" viewBox="0 0 205.44 205.44"><defs><style>.cls-1{fill:#231f20;}.cls-2{fill:#fefefe;}.cls-3{fill:#959394;}</style></defs><title>Artboard 1</title><path class="cls-1" d="M205.68,56.16V89c-1.27,5.64-4.35,10.35-7.77,14.85-3.65,4.79-8.16,8.78-12.48,12.93-2.62,2.52-5.29,5-8,7.44a86.2,86.2,0,0,1-7.25,6.09q-5.48,4-10.54,8.51a15.39,15.39,0,0,0-4.95,8.05,8,8,0,0,0,5.68,9.68,8.43,8.43,0,0,0,8.66-3.85,29.32,29.32,0,0,0,1.24-3c.51-1.22,1.08-1.32,1.91-.32a11.48,11.48,0,0,1,2.48,6.51c.49,5.62-2.17,9.7-6.2,13.22a39.72,39.72,0,0,1-17.13,8.49,33.8,33.8,0,0,1-8.74,1.36,20.12,20.12,0,0,1-13.87-5.71c-6.37-6.07-8.76-13.65-8-22.32.16-1.83,0-3.68.07-5.52.15-5.07,1-9.93,3.85-14.29a38.78,38.78,0,0,1,6.94-7.76c4.79-4.24,9.92-8.09,14.63-12.42,5.2-4.78,10-9.9,13.29-16.27a37.41,37.41,0,0,0,4-15.18A43.12,43.12,0,0,0,162.12,65c-1.87-6.38-4.83-12.21-9.67-16.88a18.49,18.49,0,0,0-12.58-5.17c-1.46,0-1.55.14-1,1.51a115,115,0,0,1,6.1,19.06,67.64,67.64,0,0,1,1.61,16.67c-.57,13.11-4.9,24.78-13.72,34.64a75.34,75.34,0,0,1-10.45,9.35c-3.59,2.75-7.13,5.55-10.5,8.57a18,18,0,0,0-6.16,11.34,90.2,90.2,0,0,0,3.34,38.41,134.94,134.94,0,0,0,8.69,21.17c1.11,2.19,1,2.17-1.31,2.17q-21.66,0-43.32,0a10,10,0,0,1-1.31,0,.49.49,0,0,1-.22-.3,42,42,0,0,1,.33-4.66c.53-7.71-.09-15.26-3.06-22.49-2.49-6.08-5.71-11.8-8.67-17.65a1.88,1.88,0,0,0-2.29-1c-1.3.25-2.57.59-3.85.94A221.76,221.76,0,0,1,31,165.1c-1.86.29-3.7.65-5.55,1-3.75.74-7.92-1.56-7.64-6.55a26.62,26.62,0,0,1,.26-2.74c.65-4-.82-7.19-3.87-9.74-.37-.31-.77-.57-1.16-.85-1.9-1.36-2.21-2.36-1.42-4.52.07-.19.15-.37.21-.56a2.58,2.58,0,0,0-.8-3,10.17,10.17,0,0,1-2.22-2.5,3,3,0,0,1,0-3.29,13.15,13.15,0,0,1,1.24-1.76c2.14-2.53,2.46-7.1-1.57-9.37-.59-.33-1.19-.67-1.75-1-2.92-2-3.12-4.68-.39-6.89a24,24,0,0,0,4.8-4.83,29.27,29.27,0,0,0,2.73-5.06c.36-.83.23-1.33-.66-1.66A10.53,10.53,0,0,1,11,100.54a5.33,5.33,0,0,1-1.73-1.8c-.23-.41-.56-.88-.13-1.31s.84-.11,1.22.09c.95.51,1.88,1.06,2.87,1.5,1.57.7,2.29.33,2.64-1.38a7.77,7.77,0,0,0-1.23-5.94c-.41-.64-.92-1.21-1.32-1.86a7.61,7.61,0,0,1-1.16-5,36.52,36.52,0,0,0,.06-6.47A5.49,5.49,0,0,0,9.1,73.81c-1.21-.7-2.5-1.25-3.74-1.91C1.08,69.63.26,67.74,1.7,63.11A70.09,70.09,0,0,1,8.6,47.45,20.41,20.41,0,0,1,24.84,37.27c2.94-.28,5.8-.68,8.21-2.6a16.11,16.11,0,0,0,1.71-1.5A74.16,74.16,0,0,1,54.83,18.55a93.15,93.15,0,0,1,11.79-5.63A67.51,67.51,0,0,1,82.8,9.67c2.31-.22,4.61-.42,6.93-.51a43.86,43.86,0,0,1,16.87,3.13c1.47.54,2.89,1.16,4.33,1.77,1.1.47,1.33.34,1.8-.77a3.35,3.35,0,0,0-.06-2.68c-.26-.67-.64-1.29-.89-2-.74-2-.25-3.11,1.72-3.89a18.42,18.42,0,0,1,4.8-1c1.39-.15,2.79-.21,4.18-.3,1.86-.11,2.66.68,2.71,2.54s0,3.84,0,5.76a1.8,1.8,0,0,0,.19,1.23,6.07,6.07,0,0,0,1.65-1.33c5.47-5.72,12.31-8.2,20.06-8.74A49.47,49.47,0,0,1,161,3.53c6.67,1.42,12.44,4.72,17.75,8.89a16.22,16.22,0,0,1,2.83,2.92c3.49,4.53,7.22,8.86,11,13.12a46,46,0,0,1,6,9.08,89.1,89.1,0,0,1,6.1,14.2A38.8,38.8,0,0,1,205.68,56.16Z"/><path class="cls-2" d="M71.79,205.65l22.55,0h23.95c-1.29-2.65-2.56-5.17-3.74-7.74A105.29,105.29,0,0,1,105,164.8a83.3,83.3,0,0,1,.41-21.53A17.58,17.58,0,0,1,111,133a145.34,145.34,0,0,1,11.38-9.38c6-4.59,11.41-9.66,15.46-16.08A54.73,54.73,0,0,0,146,74.84c-.5-10-3.25-19.43-7-28.64-.34-.85-.63-1.73-1-2.56s0-1.17.77-1.21a9.76,9.76,0,0,1,1.44,0c5.88.55,11,2.83,14.58,7.57,9.93,13.14,12,27.51,5.94,42.87-2.15,5.47-5.84,10-9.89,14.18A161.82,161.82,0,0,1,137,119.36c-2.53,2.08-5,4.19-7.41,6.47-5.06,4.9-8.19,10.71-8.26,17.9,0,4.55-.76,9.12-.12,13.66,1.3,9.14,5.73,16.1,14.46,19.83a17.92,17.92,0,0,0,10.59,1.12c5.7-1.1,11.31-2.54,16.39-5.52a33.71,33.71,0,0,0,8.71-7.27c4-4.76,4-12.46-.2-16.66a4.75,4.75,0,0,0-.79,1.92c-1.46,4.91-5.4,6.45-9.22,6.29-4.55-.19-7.92-5.1-6.95-9.91a15.39,15.39,0,0,1,5-8.53,82.1,82.1,0,0,1,6.73-5.59c9-6.47,16.8-14.3,24.78-21.92a67.93,67.93,0,0,0,6.43-6.95,50.92,50.92,0,0,0,8.09-14.35c.1-.28.07-.65.42-.81q0,57.89,0,115.78c0,.87-.14,1.12-1.08,1.12q-101.62,0-203.25,0c-1,0-1.15-.23-1.15-1.18Q.26,103.08.22,1.4C.22.47.34.21,1.36.21Q103,.26,204.61.22c.92,0,1.09.23,1.09,1.11q0,27.42,0,54.83c-1.07-3-1.9-6.08-3.09-9a87.27,87.27,0,0,0-5.21-10.92,47.34,47.34,0,0,0-6.33-8.85c-3.61-3.9-7-8-10.22-12.25A11,11,0,0,0,179,13.21c-6.14-4.94-12.83-8.78-20.8-9.7-7-.8-13.9-.61-20.62,1.73a24.66,24.66,0,0,0-9.86,6.41,15.83,15.83,0,0,1-2.89,2.28c0-2.35,0-4.48,0-6.62,0-.64,0-1.28,0-1.92a1.43,1.43,0,0,0-1.62-1.53,43.79,43.79,0,0,0-8.69,1c-2.81.74-3.25,1.69-2.06,4.32.23.51.49,1,.69,1.53a3.9,3.9,0,0,1-.22,3.35c-.42.82-.83,1.06-1.76.62a60.23,60.23,0,0,0-9.65-3.59A42.51,42.51,0,0,0,85.72,9.8c-6.58.64-13.23,1.13-19.36,3.72C55,18.28,44.23,24,35.58,33a14.23,14.23,0,0,1-9.82,4.62c-8.15.49-14,4.58-17.83,11.76A84.67,84.67,0,0,0,2.11,63.17c-1.46,4.57-.75,6.19,3.54,8.39C7,72.26,8.43,73,9.78,73.74a5.46,5.46,0,0,1,2.9,4.8,39,39,0,0,1-.12,6.59,7,7,0,0,0,1.85,5.52,8.44,8.44,0,0,1,1.93,7.05c-.34,2.11-1.37,2.68-3.27,1.75-1.29-.63-2.54-1.35-3.93-2.1A4.54,4.54,0,0,0,11,100.08a12.08,12.08,0,0,0,3.09,1.57c.52.21.77.4.53,1a22.63,22.63,0,0,1-7.5,10.48c-3.25,2.4-3.09,4.91.38,7,.45.27.91.49,1.36.76a6.23,6.23,0,0,1,2.16,9c-.44.71-1,1.34-1.5,2-1.18,1.65-1.16,2.53.08,4.1a10.82,10.82,0,0,0,1.69,1.7,2.91,2.91,0,0,1,.88,3.73c-1,2.32-.78,3.19,1.37,4.6a10.51,10.51,0,0,1,4.84,11.46,10.66,10.66,0,0,0-.17,1.18c-.42,5,2.53,7.77,7.48,6.9,10.66-1.88,21.39-3.42,31.84-6.4,1.77-.5,2.28-.21,3.14,1.46,2.66,5.19,5.43,10.32,7.83,15.65,3.52,7.79,4.46,16,3.85,24.37a20.2,20.2,0,0,1-.58,4.72c-.37.23-.79.07-1.18.12s-1,0-1.29,0c.27,0,.78,0,1.3,0A3.6,3.6,0,0,1,71.79,205.65Z"/><path class="cls-3" d="M70.55,205.48q0,.08,0,.16H69.14A2.22,2.22,0,0,1,70.55,205.48Z"/></svg>